%TF.GenerationSoftware,KiCad,Pcbnew,(5.0.0)*%
%TF.CreationDate,2018-12-31T00:25:57+01:00*%
%TF.ProjectId,Kicad-Midi2CV,4B696361642D4D6964693243562E6B69,rev?*%
%TF.SameCoordinates,Original*%
%TF.FileFunction,Soldermask,Top*%
%TF.FilePolarity,Negative*%
%FSLAX46Y46*%
G04 Gerber Fmt 4.6, Leading zero omitted, Abs format (unit mm)*
G04 Created by KiCad (PCBNEW (5.0.0)) date 12/31/18 00:25:57*
%MOMM*%
%LPD*%
G01*
G04 APERTURE LIST*
%ADD10C,1.000000*%
%ADD11C,0.150000*%
%ADD12R,2.000000X2.000000*%
%ADD13O,2.000000X2.000000*%
%ADD14R,0.950000X2.400000*%
%ADD15C,2.400000*%
%ADD16C,4.800000*%
%ADD17C,1.100000*%
%ADD18C,6.800000*%
%ADD19C,1.200000*%
%ADD20C,2.000000*%
%ADD21C,1.550000*%
%ADD22R,2.200000X2.200000*%
%ADD23C,2.200000*%
%ADD24O,2.100000X2.100000*%
%ADD25R,2.100000X2.100000*%
%ADD26R,2.300000X1.200000*%
%ADD27R,2.800000X2.000000*%
%ADD28O,2.800000X2.000000*%
%ADD29R,0.700000X1.800000*%
%ADD30R,4.400000X2.400000*%
%ADD31O,3.700000X2.400000*%
%ADD32O,2.400000X3.900000*%
%ADD33C,2.900000*%
G04 APERTURE END LIST*
D10*
X63500000Y-106680000D02*
X63500000Y-39370000D01*
X64135000Y-106680000D02*
X63500000Y-106680000D01*
X64135000Y-39370000D02*
X64135000Y-106680000D01*
X63500000Y-39370000D02*
X64135000Y-39370000D01*
D11*
X25400000Y-125095000D02*
X25400000Y-25400000D01*
X125095000Y-125095000D02*
X25400000Y-125095000D01*
X125095000Y-25400000D02*
X125095000Y-125095000D01*
X25400000Y-25400000D02*
X125095000Y-25400000D01*
D12*
X88138000Y-85090000D03*
D13*
X72898000Y-52070000D03*
X88138000Y-82550000D03*
X72898000Y-54610000D03*
X88138000Y-80010000D03*
X72898000Y-57150000D03*
X88138000Y-77470000D03*
X72898000Y-59690000D03*
X88138000Y-74930000D03*
X72898000Y-62230000D03*
X88138000Y-72390000D03*
X72898000Y-64770000D03*
X88138000Y-69850000D03*
X72898000Y-67310000D03*
X88138000Y-67310000D03*
X72898000Y-69850000D03*
X88138000Y-64770000D03*
X72898000Y-72390000D03*
X88138000Y-62230000D03*
X72898000Y-74930000D03*
X88138000Y-59690000D03*
X72898000Y-77470000D03*
X88138000Y-57150000D03*
X72898000Y-80010000D03*
X88138000Y-54610000D03*
X72898000Y-82550000D03*
X88138000Y-52070000D03*
X72898000Y-85090000D03*
X88138000Y-49530000D03*
X72898000Y-49530000D03*
D14*
X46990000Y-51125000D03*
X45720000Y-51125000D03*
X44450000Y-51125000D03*
X43180000Y-51125000D03*
X43180000Y-44125000D03*
X44450000Y-44125000D03*
X45720000Y-44125000D03*
X46990000Y-44125000D03*
D15*
X27305000Y-36195000D03*
X27305000Y-41275000D03*
X34925000Y-36195000D03*
X34925000Y-41275000D03*
D16*
X40640000Y-37465000D03*
D17*
X42290000Y-37465000D03*
X41806726Y-38631726D03*
X40640000Y-39115000D03*
X39473274Y-38631726D03*
X38990000Y-37465000D03*
X39473274Y-36298274D03*
X40640000Y-35815000D03*
X41806726Y-36298274D03*
D18*
X99695000Y-120650000D03*
D19*
X102095000Y-120650000D03*
X101392056Y-122347056D03*
X99695000Y-123050000D03*
X97997944Y-122347056D03*
X97295000Y-120650000D03*
X97997944Y-118952944D03*
X99695000Y-118250000D03*
X101392056Y-118952944D03*
D18*
X95250000Y-31750000D03*
D19*
X97650000Y-31750000D03*
X96947056Y-33447056D03*
X95250000Y-34150000D03*
X93552944Y-33447056D03*
X92850000Y-31750000D03*
X93552944Y-30052944D03*
X95250000Y-29350000D03*
X96947056Y-30052944D03*
X101392056Y-73613944D03*
X99695000Y-72911000D03*
X97997944Y-73613944D03*
X97295000Y-75311000D03*
X97997944Y-77008056D03*
X99695000Y-77711000D03*
X101392056Y-77008056D03*
X102095000Y-75311000D03*
D18*
X99695000Y-75311000D03*
D19*
X52497056Y-118952944D03*
X50800000Y-118250000D03*
X49102944Y-118952944D03*
X48400000Y-120650000D03*
X49102944Y-122347056D03*
X50800000Y-123050000D03*
X52497056Y-122347056D03*
X53200000Y-120650000D03*
D18*
X50800000Y-120650000D03*
X50800000Y-75311000D03*
D19*
X53200000Y-75311000D03*
X52497056Y-77008056D03*
X50800000Y-77711000D03*
X49102944Y-77008056D03*
X48400000Y-75311000D03*
X49102944Y-73613944D03*
X50800000Y-72911000D03*
X52497056Y-73613944D03*
D12*
X81280000Y-106680000D03*
D20*
X83780000Y-106680000D03*
D11*
G36*
X69938071Y-82021623D02*
X69970781Y-82026475D01*
X70002857Y-82034509D01*
X70033991Y-82045649D01*
X70063884Y-82059787D01*
X70092247Y-82076787D01*
X70118807Y-82096485D01*
X70143308Y-82118692D01*
X70165515Y-82143193D01*
X70185213Y-82169753D01*
X70202213Y-82198116D01*
X70216351Y-82228009D01*
X70227491Y-82259143D01*
X70235525Y-82291219D01*
X70240377Y-82323929D01*
X70242000Y-82356956D01*
X70242000Y-83233044D01*
X70240377Y-83266071D01*
X70235525Y-83298781D01*
X70227491Y-83330857D01*
X70216351Y-83361991D01*
X70202213Y-83391884D01*
X70185213Y-83420247D01*
X70165515Y-83446807D01*
X70143308Y-83471308D01*
X70118807Y-83493515D01*
X70092247Y-83513213D01*
X70063884Y-83530213D01*
X70033991Y-83544351D01*
X70002857Y-83555491D01*
X69970781Y-83563525D01*
X69938071Y-83568377D01*
X69905044Y-83570000D01*
X68778956Y-83570000D01*
X68745929Y-83568377D01*
X68713219Y-83563525D01*
X68681143Y-83555491D01*
X68650009Y-83544351D01*
X68620116Y-83530213D01*
X68591753Y-83513213D01*
X68565193Y-83493515D01*
X68540692Y-83471308D01*
X68518485Y-83446807D01*
X68498787Y-83420247D01*
X68481787Y-83391884D01*
X68467649Y-83361991D01*
X68456509Y-83330857D01*
X68448475Y-83298781D01*
X68443623Y-83266071D01*
X68442000Y-83233044D01*
X68442000Y-82356956D01*
X68443623Y-82323929D01*
X68448475Y-82291219D01*
X68456509Y-82259143D01*
X68467649Y-82228009D01*
X68481787Y-82198116D01*
X68498787Y-82169753D01*
X68518485Y-82143193D01*
X68540692Y-82118692D01*
X68565193Y-82096485D01*
X68591753Y-82076787D01*
X68620116Y-82059787D01*
X68650009Y-82045649D01*
X68681143Y-82034509D01*
X68713219Y-82026475D01*
X68745929Y-82021623D01*
X68778956Y-82020000D01*
X69905044Y-82020000D01*
X69938071Y-82021623D01*
X69938071Y-82021623D01*
G37*
D21*
X69342000Y-82795000D03*
D11*
G36*
X69938071Y-84071623D02*
X69970781Y-84076475D01*
X70002857Y-84084509D01*
X70033991Y-84095649D01*
X70063884Y-84109787D01*
X70092247Y-84126787D01*
X70118807Y-84146485D01*
X70143308Y-84168692D01*
X70165515Y-84193193D01*
X70185213Y-84219753D01*
X70202213Y-84248116D01*
X70216351Y-84278009D01*
X70227491Y-84309143D01*
X70235525Y-84341219D01*
X70240377Y-84373929D01*
X70242000Y-84406956D01*
X70242000Y-85283044D01*
X70240377Y-85316071D01*
X70235525Y-85348781D01*
X70227491Y-85380857D01*
X70216351Y-85411991D01*
X70202213Y-85441884D01*
X70185213Y-85470247D01*
X70165515Y-85496807D01*
X70143308Y-85521308D01*
X70118807Y-85543515D01*
X70092247Y-85563213D01*
X70063884Y-85580213D01*
X70033991Y-85594351D01*
X70002857Y-85605491D01*
X69970781Y-85613525D01*
X69938071Y-85618377D01*
X69905044Y-85620000D01*
X68778956Y-85620000D01*
X68745929Y-85618377D01*
X68713219Y-85613525D01*
X68681143Y-85605491D01*
X68650009Y-85594351D01*
X68620116Y-85580213D01*
X68591753Y-85563213D01*
X68565193Y-85543515D01*
X68540692Y-85521308D01*
X68518485Y-85496807D01*
X68498787Y-85470247D01*
X68481787Y-85441884D01*
X68467649Y-85411991D01*
X68456509Y-85380857D01*
X68448475Y-85348781D01*
X68443623Y-85316071D01*
X68442000Y-85283044D01*
X68442000Y-84406956D01*
X68443623Y-84373929D01*
X68448475Y-84341219D01*
X68456509Y-84309143D01*
X68467649Y-84278009D01*
X68481787Y-84248116D01*
X68498787Y-84219753D01*
X68518485Y-84193193D01*
X68540692Y-84168692D01*
X68565193Y-84146485D01*
X68591753Y-84126787D01*
X68620116Y-84109787D01*
X68650009Y-84095649D01*
X68681143Y-84084509D01*
X68713219Y-84076475D01*
X68745929Y-84071623D01*
X68778956Y-84070000D01*
X69905044Y-84070000D01*
X69938071Y-84071623D01*
X69938071Y-84071623D01*
G37*
D21*
X69342000Y-84845000D03*
D11*
G36*
X39966071Y-67289623D02*
X39998781Y-67294475D01*
X40030857Y-67302509D01*
X40061991Y-67313649D01*
X40091884Y-67327787D01*
X40120247Y-67344787D01*
X40146807Y-67364485D01*
X40171308Y-67386692D01*
X40193515Y-67411193D01*
X40213213Y-67437753D01*
X40230213Y-67466116D01*
X40244351Y-67496009D01*
X40255491Y-67527143D01*
X40263525Y-67559219D01*
X40268377Y-67591929D01*
X40270000Y-67624956D01*
X40270000Y-68501044D01*
X40268377Y-68534071D01*
X40263525Y-68566781D01*
X40255491Y-68598857D01*
X40244351Y-68629991D01*
X40230213Y-68659884D01*
X40213213Y-68688247D01*
X40193515Y-68714807D01*
X40171308Y-68739308D01*
X40146807Y-68761515D01*
X40120247Y-68781213D01*
X40091884Y-68798213D01*
X40061991Y-68812351D01*
X40030857Y-68823491D01*
X39998781Y-68831525D01*
X39966071Y-68836377D01*
X39933044Y-68838000D01*
X38806956Y-68838000D01*
X38773929Y-68836377D01*
X38741219Y-68831525D01*
X38709143Y-68823491D01*
X38678009Y-68812351D01*
X38648116Y-68798213D01*
X38619753Y-68781213D01*
X38593193Y-68761515D01*
X38568692Y-68739308D01*
X38546485Y-68714807D01*
X38526787Y-68688247D01*
X38509787Y-68659884D01*
X38495649Y-68629991D01*
X38484509Y-68598857D01*
X38476475Y-68566781D01*
X38471623Y-68534071D01*
X38470000Y-68501044D01*
X38470000Y-67624956D01*
X38471623Y-67591929D01*
X38476475Y-67559219D01*
X38484509Y-67527143D01*
X38495649Y-67496009D01*
X38509787Y-67466116D01*
X38526787Y-67437753D01*
X38546485Y-67411193D01*
X38568692Y-67386692D01*
X38593193Y-67364485D01*
X38619753Y-67344787D01*
X38648116Y-67327787D01*
X38678009Y-67313649D01*
X38709143Y-67302509D01*
X38741219Y-67294475D01*
X38773929Y-67289623D01*
X38806956Y-67288000D01*
X39933044Y-67288000D01*
X39966071Y-67289623D01*
X39966071Y-67289623D01*
G37*
D21*
X39370000Y-68063000D03*
D11*
G36*
X39966071Y-69339623D02*
X39998781Y-69344475D01*
X40030857Y-69352509D01*
X40061991Y-69363649D01*
X40091884Y-69377787D01*
X40120247Y-69394787D01*
X40146807Y-69414485D01*
X40171308Y-69436692D01*
X40193515Y-69461193D01*
X40213213Y-69487753D01*
X40230213Y-69516116D01*
X40244351Y-69546009D01*
X40255491Y-69577143D01*
X40263525Y-69609219D01*
X40268377Y-69641929D01*
X40270000Y-69674956D01*
X40270000Y-70551044D01*
X40268377Y-70584071D01*
X40263525Y-70616781D01*
X40255491Y-70648857D01*
X40244351Y-70679991D01*
X40230213Y-70709884D01*
X40213213Y-70738247D01*
X40193515Y-70764807D01*
X40171308Y-70789308D01*
X40146807Y-70811515D01*
X40120247Y-70831213D01*
X40091884Y-70848213D01*
X40061991Y-70862351D01*
X40030857Y-70873491D01*
X39998781Y-70881525D01*
X39966071Y-70886377D01*
X39933044Y-70888000D01*
X38806956Y-70888000D01*
X38773929Y-70886377D01*
X38741219Y-70881525D01*
X38709143Y-70873491D01*
X38678009Y-70862351D01*
X38648116Y-70848213D01*
X38619753Y-70831213D01*
X38593193Y-70811515D01*
X38568692Y-70789308D01*
X38546485Y-70764807D01*
X38526787Y-70738247D01*
X38509787Y-70709884D01*
X38495649Y-70679991D01*
X38484509Y-70648857D01*
X38476475Y-70616781D01*
X38471623Y-70584071D01*
X38470000Y-70551044D01*
X38470000Y-69674956D01*
X38471623Y-69641929D01*
X38476475Y-69609219D01*
X38484509Y-69577143D01*
X38495649Y-69546009D01*
X38509787Y-69516116D01*
X38526787Y-69487753D01*
X38546485Y-69461193D01*
X38568692Y-69436692D01*
X38593193Y-69414485D01*
X38619753Y-69394787D01*
X38648116Y-69377787D01*
X38678009Y-69363649D01*
X38709143Y-69352509D01*
X38741219Y-69344475D01*
X38773929Y-69339623D01*
X38806956Y-69338000D01*
X39933044Y-69338000D01*
X39966071Y-69339623D01*
X39966071Y-69339623D01*
G37*
D21*
X39370000Y-70113000D03*
D11*
G36*
X47216071Y-53203623D02*
X47248781Y-53208475D01*
X47280857Y-53216509D01*
X47311991Y-53227649D01*
X47341884Y-53241787D01*
X47370247Y-53258787D01*
X47396807Y-53278485D01*
X47421308Y-53300692D01*
X47443515Y-53325193D01*
X47463213Y-53351753D01*
X47480213Y-53380116D01*
X47494351Y-53410009D01*
X47505491Y-53441143D01*
X47513525Y-53473219D01*
X47518377Y-53505929D01*
X47520000Y-53538956D01*
X47520000Y-54665044D01*
X47518377Y-54698071D01*
X47513525Y-54730781D01*
X47505491Y-54762857D01*
X47494351Y-54793991D01*
X47480213Y-54823884D01*
X47463213Y-54852247D01*
X47443515Y-54878807D01*
X47421308Y-54903308D01*
X47396807Y-54925515D01*
X47370247Y-54945213D01*
X47341884Y-54962213D01*
X47311991Y-54976351D01*
X47280857Y-54987491D01*
X47248781Y-54995525D01*
X47216071Y-55000377D01*
X47183044Y-55002000D01*
X46306956Y-55002000D01*
X46273929Y-55000377D01*
X46241219Y-54995525D01*
X46209143Y-54987491D01*
X46178009Y-54976351D01*
X46148116Y-54962213D01*
X46119753Y-54945213D01*
X46093193Y-54925515D01*
X46068692Y-54903308D01*
X46046485Y-54878807D01*
X46026787Y-54852247D01*
X46009787Y-54823884D01*
X45995649Y-54793991D01*
X45984509Y-54762857D01*
X45976475Y-54730781D01*
X45971623Y-54698071D01*
X45970000Y-54665044D01*
X45970000Y-53538956D01*
X45971623Y-53505929D01*
X45976475Y-53473219D01*
X45984509Y-53441143D01*
X45995649Y-53410009D01*
X46009787Y-53380116D01*
X46026787Y-53351753D01*
X46046485Y-53325193D01*
X46068692Y-53300692D01*
X46093193Y-53278485D01*
X46119753Y-53258787D01*
X46148116Y-53241787D01*
X46178009Y-53227649D01*
X46209143Y-53216509D01*
X46241219Y-53208475D01*
X46273929Y-53203623D01*
X46306956Y-53202000D01*
X47183044Y-53202000D01*
X47216071Y-53203623D01*
X47216071Y-53203623D01*
G37*
D21*
X46745000Y-54102000D03*
D11*
G36*
X45166071Y-53203623D02*
X45198781Y-53208475D01*
X45230857Y-53216509D01*
X45261991Y-53227649D01*
X45291884Y-53241787D01*
X45320247Y-53258787D01*
X45346807Y-53278485D01*
X45371308Y-53300692D01*
X45393515Y-53325193D01*
X45413213Y-53351753D01*
X45430213Y-53380116D01*
X45444351Y-53410009D01*
X45455491Y-53441143D01*
X45463525Y-53473219D01*
X45468377Y-53505929D01*
X45470000Y-53538956D01*
X45470000Y-54665044D01*
X45468377Y-54698071D01*
X45463525Y-54730781D01*
X45455491Y-54762857D01*
X45444351Y-54793991D01*
X45430213Y-54823884D01*
X45413213Y-54852247D01*
X45393515Y-54878807D01*
X45371308Y-54903308D01*
X45346807Y-54925515D01*
X45320247Y-54945213D01*
X45291884Y-54962213D01*
X45261991Y-54976351D01*
X45230857Y-54987491D01*
X45198781Y-54995525D01*
X45166071Y-55000377D01*
X45133044Y-55002000D01*
X44256956Y-55002000D01*
X44223929Y-55000377D01*
X44191219Y-54995525D01*
X44159143Y-54987491D01*
X44128009Y-54976351D01*
X44098116Y-54962213D01*
X44069753Y-54945213D01*
X44043193Y-54925515D01*
X44018692Y-54903308D01*
X43996485Y-54878807D01*
X43976787Y-54852247D01*
X43959787Y-54823884D01*
X43945649Y-54793991D01*
X43934509Y-54762857D01*
X43926475Y-54730781D01*
X43921623Y-54698071D01*
X43920000Y-54665044D01*
X43920000Y-53538956D01*
X43921623Y-53505929D01*
X43926475Y-53473219D01*
X43934509Y-53441143D01*
X43945649Y-53410009D01*
X43959787Y-53380116D01*
X43976787Y-53351753D01*
X43996485Y-53325193D01*
X44018692Y-53300692D01*
X44043193Y-53278485D01*
X44069753Y-53258787D01*
X44098116Y-53241787D01*
X44128009Y-53227649D01*
X44159143Y-53216509D01*
X44191219Y-53208475D01*
X44223929Y-53203623D01*
X44256956Y-53202000D01*
X45133044Y-53202000D01*
X45166071Y-53203623D01*
X45166071Y-53203623D01*
G37*
D21*
X44695000Y-54102000D03*
D11*
G36*
X46581071Y-39106623D02*
X46613781Y-39111475D01*
X46645857Y-39119509D01*
X46676991Y-39130649D01*
X46706884Y-39144787D01*
X46735247Y-39161787D01*
X46761807Y-39181485D01*
X46786308Y-39203692D01*
X46808515Y-39228193D01*
X46828213Y-39254753D01*
X46845213Y-39283116D01*
X46859351Y-39313009D01*
X46870491Y-39344143D01*
X46878525Y-39376219D01*
X46883377Y-39408929D01*
X46885000Y-39441956D01*
X46885000Y-40568044D01*
X46883377Y-40601071D01*
X46878525Y-40633781D01*
X46870491Y-40665857D01*
X46859351Y-40696991D01*
X46845213Y-40726884D01*
X46828213Y-40755247D01*
X46808515Y-40781807D01*
X46786308Y-40806308D01*
X46761807Y-40828515D01*
X46735247Y-40848213D01*
X46706884Y-40865213D01*
X46676991Y-40879351D01*
X46645857Y-40890491D01*
X46613781Y-40898525D01*
X46581071Y-40903377D01*
X46548044Y-40905000D01*
X45671956Y-40905000D01*
X45638929Y-40903377D01*
X45606219Y-40898525D01*
X45574143Y-40890491D01*
X45543009Y-40879351D01*
X45513116Y-40865213D01*
X45484753Y-40848213D01*
X45458193Y-40828515D01*
X45433692Y-40806308D01*
X45411485Y-40781807D01*
X45391787Y-40755247D01*
X45374787Y-40726884D01*
X45360649Y-40696991D01*
X45349509Y-40665857D01*
X45341475Y-40633781D01*
X45336623Y-40601071D01*
X45335000Y-40568044D01*
X45335000Y-39441956D01*
X45336623Y-39408929D01*
X45341475Y-39376219D01*
X45349509Y-39344143D01*
X45360649Y-39313009D01*
X45374787Y-39283116D01*
X45391787Y-39254753D01*
X45411485Y-39228193D01*
X45433692Y-39203692D01*
X45458193Y-39181485D01*
X45484753Y-39161787D01*
X45513116Y-39144787D01*
X45543009Y-39130649D01*
X45574143Y-39119509D01*
X45606219Y-39111475D01*
X45638929Y-39106623D01*
X45671956Y-39105000D01*
X46548044Y-39105000D01*
X46581071Y-39106623D01*
X46581071Y-39106623D01*
G37*
D21*
X46110000Y-40005000D03*
D11*
G36*
X44531071Y-39106623D02*
X44563781Y-39111475D01*
X44595857Y-39119509D01*
X44626991Y-39130649D01*
X44656884Y-39144787D01*
X44685247Y-39161787D01*
X44711807Y-39181485D01*
X44736308Y-39203692D01*
X44758515Y-39228193D01*
X44778213Y-39254753D01*
X44795213Y-39283116D01*
X44809351Y-39313009D01*
X44820491Y-39344143D01*
X44828525Y-39376219D01*
X44833377Y-39408929D01*
X44835000Y-39441956D01*
X44835000Y-40568044D01*
X44833377Y-40601071D01*
X44828525Y-40633781D01*
X44820491Y-40665857D01*
X44809351Y-40696991D01*
X44795213Y-40726884D01*
X44778213Y-40755247D01*
X44758515Y-40781807D01*
X44736308Y-40806308D01*
X44711807Y-40828515D01*
X44685247Y-40848213D01*
X44656884Y-40865213D01*
X44626991Y-40879351D01*
X44595857Y-40890491D01*
X44563781Y-40898525D01*
X44531071Y-40903377D01*
X44498044Y-40905000D01*
X43621956Y-40905000D01*
X43588929Y-40903377D01*
X43556219Y-40898525D01*
X43524143Y-40890491D01*
X43493009Y-40879351D01*
X43463116Y-40865213D01*
X43434753Y-40848213D01*
X43408193Y-40828515D01*
X43383692Y-40806308D01*
X43361485Y-40781807D01*
X43341787Y-40755247D01*
X43324787Y-40726884D01*
X43310649Y-40696991D01*
X43299509Y-40665857D01*
X43291475Y-40633781D01*
X43286623Y-40601071D01*
X43285000Y-40568044D01*
X43285000Y-39441956D01*
X43286623Y-39408929D01*
X43291475Y-39376219D01*
X43299509Y-39344143D01*
X43310649Y-39313009D01*
X43324787Y-39283116D01*
X43341787Y-39254753D01*
X43361485Y-39228193D01*
X43383692Y-39203692D01*
X43408193Y-39181485D01*
X43434753Y-39161787D01*
X43463116Y-39144787D01*
X43493009Y-39130649D01*
X43524143Y-39119509D01*
X43556219Y-39111475D01*
X43588929Y-39106623D01*
X43621956Y-39105000D01*
X44498044Y-39105000D01*
X44531071Y-39106623D01*
X44531071Y-39106623D01*
G37*
D21*
X44060000Y-40005000D03*
D22*
X122047000Y-80009999D03*
D23*
X122047000Y-77469999D03*
X122047000Y-72384285D03*
D22*
X122047000Y-74924285D03*
X122047000Y-69838571D03*
D23*
X122047000Y-67298571D03*
X122047000Y-62212857D03*
D22*
X122047000Y-64752857D03*
X122047000Y-57150000D03*
D23*
X122047000Y-54610000D03*
X122047000Y-49530000D03*
D22*
X122047000Y-52070000D03*
D24*
X52070000Y-50165000D03*
X52070000Y-47625000D03*
X52070000Y-45085000D03*
X52070000Y-42545000D03*
X52070000Y-40005000D03*
D25*
X52070000Y-37465000D03*
X52070000Y-55880000D03*
D24*
X52070000Y-58420000D03*
X52070000Y-60960000D03*
X52070000Y-63500000D03*
X52070000Y-66040000D03*
X52070000Y-68580000D03*
D26*
X98830000Y-110810000D03*
X98830000Y-112710000D03*
X101830000Y-111760000D03*
X83590000Y-93980000D03*
X86590000Y-93030000D03*
X86590000Y-94930000D03*
D11*
G36*
X34371071Y-44186623D02*
X34403781Y-44191475D01*
X34435857Y-44199509D01*
X34466991Y-44210649D01*
X34496884Y-44224787D01*
X34525247Y-44241787D01*
X34551807Y-44261485D01*
X34576308Y-44283692D01*
X34598515Y-44308193D01*
X34618213Y-44334753D01*
X34635213Y-44363116D01*
X34649351Y-44393009D01*
X34660491Y-44424143D01*
X34668525Y-44456219D01*
X34673377Y-44488929D01*
X34675000Y-44521956D01*
X34675000Y-45648044D01*
X34673377Y-45681071D01*
X34668525Y-45713781D01*
X34660491Y-45745857D01*
X34649351Y-45776991D01*
X34635213Y-45806884D01*
X34618213Y-45835247D01*
X34598515Y-45861807D01*
X34576308Y-45886308D01*
X34551807Y-45908515D01*
X34525247Y-45928213D01*
X34496884Y-45945213D01*
X34466991Y-45959351D01*
X34435857Y-45970491D01*
X34403781Y-45978525D01*
X34371071Y-45983377D01*
X34338044Y-45985000D01*
X33461956Y-45985000D01*
X33428929Y-45983377D01*
X33396219Y-45978525D01*
X33364143Y-45970491D01*
X33333009Y-45959351D01*
X33303116Y-45945213D01*
X33274753Y-45928213D01*
X33248193Y-45908515D01*
X33223692Y-45886308D01*
X33201485Y-45861807D01*
X33181787Y-45835247D01*
X33164787Y-45806884D01*
X33150649Y-45776991D01*
X33139509Y-45745857D01*
X33131475Y-45713781D01*
X33126623Y-45681071D01*
X33125000Y-45648044D01*
X33125000Y-44521956D01*
X33126623Y-44488929D01*
X33131475Y-44456219D01*
X33139509Y-44424143D01*
X33150649Y-44393009D01*
X33164787Y-44363116D01*
X33181787Y-44334753D01*
X33201485Y-44308193D01*
X33223692Y-44283692D01*
X33248193Y-44261485D01*
X33274753Y-44241787D01*
X33303116Y-44224787D01*
X33333009Y-44210649D01*
X33364143Y-44199509D01*
X33396219Y-44191475D01*
X33428929Y-44186623D01*
X33461956Y-44185000D01*
X34338044Y-44185000D01*
X34371071Y-44186623D01*
X34371071Y-44186623D01*
G37*
D21*
X33900000Y-45085000D03*
D11*
G36*
X36421071Y-44186623D02*
X36453781Y-44191475D01*
X36485857Y-44199509D01*
X36516991Y-44210649D01*
X36546884Y-44224787D01*
X36575247Y-44241787D01*
X36601807Y-44261485D01*
X36626308Y-44283692D01*
X36648515Y-44308193D01*
X36668213Y-44334753D01*
X36685213Y-44363116D01*
X36699351Y-44393009D01*
X36710491Y-44424143D01*
X36718525Y-44456219D01*
X36723377Y-44488929D01*
X36725000Y-44521956D01*
X36725000Y-45648044D01*
X36723377Y-45681071D01*
X36718525Y-45713781D01*
X36710491Y-45745857D01*
X36699351Y-45776991D01*
X36685213Y-45806884D01*
X36668213Y-45835247D01*
X36648515Y-45861807D01*
X36626308Y-45886308D01*
X36601807Y-45908515D01*
X36575247Y-45928213D01*
X36546884Y-45945213D01*
X36516991Y-45959351D01*
X36485857Y-45970491D01*
X36453781Y-45978525D01*
X36421071Y-45983377D01*
X36388044Y-45985000D01*
X35511956Y-45985000D01*
X35478929Y-45983377D01*
X35446219Y-45978525D01*
X35414143Y-45970491D01*
X35383009Y-45959351D01*
X35353116Y-45945213D01*
X35324753Y-45928213D01*
X35298193Y-45908515D01*
X35273692Y-45886308D01*
X35251485Y-45861807D01*
X35231787Y-45835247D01*
X35214787Y-45806884D01*
X35200649Y-45776991D01*
X35189509Y-45745857D01*
X35181475Y-45713781D01*
X35176623Y-45681071D01*
X35175000Y-45648044D01*
X35175000Y-44521956D01*
X35176623Y-44488929D01*
X35181475Y-44456219D01*
X35189509Y-44424143D01*
X35200649Y-44393009D01*
X35214787Y-44363116D01*
X35231787Y-44334753D01*
X35251485Y-44308193D01*
X35273692Y-44283692D01*
X35298193Y-44261485D01*
X35324753Y-44241787D01*
X35353116Y-44224787D01*
X35383009Y-44210649D01*
X35414143Y-44199509D01*
X35446219Y-44191475D01*
X35478929Y-44186623D01*
X35511956Y-44185000D01*
X36388044Y-44185000D01*
X36421071Y-44186623D01*
X36421071Y-44186623D01*
G37*
D21*
X35950000Y-45085000D03*
D11*
G36*
X36421071Y-50536623D02*
X36453781Y-50541475D01*
X36485857Y-50549509D01*
X36516991Y-50560649D01*
X36546884Y-50574787D01*
X36575247Y-50591787D01*
X36601807Y-50611485D01*
X36626308Y-50633692D01*
X36648515Y-50658193D01*
X36668213Y-50684753D01*
X36685213Y-50713116D01*
X36699351Y-50743009D01*
X36710491Y-50774143D01*
X36718525Y-50806219D01*
X36723377Y-50838929D01*
X36725000Y-50871956D01*
X36725000Y-51998044D01*
X36723377Y-52031071D01*
X36718525Y-52063781D01*
X36710491Y-52095857D01*
X36699351Y-52126991D01*
X36685213Y-52156884D01*
X36668213Y-52185247D01*
X36648515Y-52211807D01*
X36626308Y-52236308D01*
X36601807Y-52258515D01*
X36575247Y-52278213D01*
X36546884Y-52295213D01*
X36516991Y-52309351D01*
X36485857Y-52320491D01*
X36453781Y-52328525D01*
X36421071Y-52333377D01*
X36388044Y-52335000D01*
X35511956Y-52335000D01*
X35478929Y-52333377D01*
X35446219Y-52328525D01*
X35414143Y-52320491D01*
X35383009Y-52309351D01*
X35353116Y-52295213D01*
X35324753Y-52278213D01*
X35298193Y-52258515D01*
X35273692Y-52236308D01*
X35251485Y-52211807D01*
X35231787Y-52185247D01*
X35214787Y-52156884D01*
X35200649Y-52126991D01*
X35189509Y-52095857D01*
X35181475Y-52063781D01*
X35176623Y-52031071D01*
X35175000Y-51998044D01*
X35175000Y-50871956D01*
X35176623Y-50838929D01*
X35181475Y-50806219D01*
X35189509Y-50774143D01*
X35200649Y-50743009D01*
X35214787Y-50713116D01*
X35231787Y-50684753D01*
X35251485Y-50658193D01*
X35273692Y-50633692D01*
X35298193Y-50611485D01*
X35324753Y-50591787D01*
X35353116Y-50574787D01*
X35383009Y-50560649D01*
X35414143Y-50549509D01*
X35446219Y-50541475D01*
X35478929Y-50536623D01*
X35511956Y-50535000D01*
X36388044Y-50535000D01*
X36421071Y-50536623D01*
X36421071Y-50536623D01*
G37*
D21*
X35950000Y-51435000D03*
D11*
G36*
X34371071Y-50536623D02*
X34403781Y-50541475D01*
X34435857Y-50549509D01*
X34466991Y-50560649D01*
X34496884Y-50574787D01*
X34525247Y-50591787D01*
X34551807Y-50611485D01*
X34576308Y-50633692D01*
X34598515Y-50658193D01*
X34618213Y-50684753D01*
X34635213Y-50713116D01*
X34649351Y-50743009D01*
X34660491Y-50774143D01*
X34668525Y-50806219D01*
X34673377Y-50838929D01*
X34675000Y-50871956D01*
X34675000Y-51998044D01*
X34673377Y-52031071D01*
X34668525Y-52063781D01*
X34660491Y-52095857D01*
X34649351Y-52126991D01*
X34635213Y-52156884D01*
X34618213Y-52185247D01*
X34598515Y-52211807D01*
X34576308Y-52236308D01*
X34551807Y-52258515D01*
X34525247Y-52278213D01*
X34496884Y-52295213D01*
X34466991Y-52309351D01*
X34435857Y-52320491D01*
X34403781Y-52328525D01*
X34371071Y-52333377D01*
X34338044Y-52335000D01*
X33461956Y-52335000D01*
X33428929Y-52333377D01*
X33396219Y-52328525D01*
X33364143Y-52320491D01*
X33333009Y-52309351D01*
X33303116Y-52295213D01*
X33274753Y-52278213D01*
X33248193Y-52258515D01*
X33223692Y-52236308D01*
X33201485Y-52211807D01*
X33181787Y-52185247D01*
X33164787Y-52156884D01*
X33150649Y-52126991D01*
X33139509Y-52095857D01*
X33131475Y-52063781D01*
X33126623Y-52031071D01*
X33125000Y-51998044D01*
X33125000Y-50871956D01*
X33126623Y-50838929D01*
X33131475Y-50806219D01*
X33139509Y-50774143D01*
X33150649Y-50743009D01*
X33164787Y-50713116D01*
X33181787Y-50684753D01*
X33201485Y-50658193D01*
X33223692Y-50633692D01*
X33248193Y-50611485D01*
X33274753Y-50591787D01*
X33303116Y-50574787D01*
X33333009Y-50560649D01*
X33364143Y-50549509D01*
X33396219Y-50541475D01*
X33428929Y-50536623D01*
X33461956Y-50535000D01*
X34338044Y-50535000D01*
X34371071Y-50536623D01*
X34371071Y-50536623D01*
G37*
D21*
X33900000Y-51435000D03*
D11*
G36*
X71716071Y-111231623D02*
X71748781Y-111236475D01*
X71780857Y-111244509D01*
X71811991Y-111255649D01*
X71841884Y-111269787D01*
X71870247Y-111286787D01*
X71896807Y-111306485D01*
X71921308Y-111328692D01*
X71943515Y-111353193D01*
X71963213Y-111379753D01*
X71980213Y-111408116D01*
X71994351Y-111438009D01*
X72005491Y-111469143D01*
X72013525Y-111501219D01*
X72018377Y-111533929D01*
X72020000Y-111566956D01*
X72020000Y-112443044D01*
X72018377Y-112476071D01*
X72013525Y-112508781D01*
X72005491Y-112540857D01*
X71994351Y-112571991D01*
X71980213Y-112601884D01*
X71963213Y-112630247D01*
X71943515Y-112656807D01*
X71921308Y-112681308D01*
X71896807Y-112703515D01*
X71870247Y-112723213D01*
X71841884Y-112740213D01*
X71811991Y-112754351D01*
X71780857Y-112765491D01*
X71748781Y-112773525D01*
X71716071Y-112778377D01*
X71683044Y-112780000D01*
X70556956Y-112780000D01*
X70523929Y-112778377D01*
X70491219Y-112773525D01*
X70459143Y-112765491D01*
X70428009Y-112754351D01*
X70398116Y-112740213D01*
X70369753Y-112723213D01*
X70343193Y-112703515D01*
X70318692Y-112681308D01*
X70296485Y-112656807D01*
X70276787Y-112630247D01*
X70259787Y-112601884D01*
X70245649Y-112571991D01*
X70234509Y-112540857D01*
X70226475Y-112508781D01*
X70221623Y-112476071D01*
X70220000Y-112443044D01*
X70220000Y-111566956D01*
X70221623Y-111533929D01*
X70226475Y-111501219D01*
X70234509Y-111469143D01*
X70245649Y-111438009D01*
X70259787Y-111408116D01*
X70276787Y-111379753D01*
X70296485Y-111353193D01*
X70318692Y-111328692D01*
X70343193Y-111306485D01*
X70369753Y-111286787D01*
X70398116Y-111269787D01*
X70428009Y-111255649D01*
X70459143Y-111244509D01*
X70491219Y-111236475D01*
X70523929Y-111231623D01*
X70556956Y-111230000D01*
X71683044Y-111230000D01*
X71716071Y-111231623D01*
X71716071Y-111231623D01*
G37*
D21*
X71120000Y-112005000D03*
D11*
G36*
X71716071Y-113281623D02*
X71748781Y-113286475D01*
X71780857Y-113294509D01*
X71811991Y-113305649D01*
X71841884Y-113319787D01*
X71870247Y-113336787D01*
X71896807Y-113356485D01*
X71921308Y-113378692D01*
X71943515Y-113403193D01*
X71963213Y-113429753D01*
X71980213Y-113458116D01*
X71994351Y-113488009D01*
X72005491Y-113519143D01*
X72013525Y-113551219D01*
X72018377Y-113583929D01*
X72020000Y-113616956D01*
X72020000Y-114493044D01*
X72018377Y-114526071D01*
X72013525Y-114558781D01*
X72005491Y-114590857D01*
X71994351Y-114621991D01*
X71980213Y-114651884D01*
X71963213Y-114680247D01*
X71943515Y-114706807D01*
X71921308Y-114731308D01*
X71896807Y-114753515D01*
X71870247Y-114773213D01*
X71841884Y-114790213D01*
X71811991Y-114804351D01*
X71780857Y-114815491D01*
X71748781Y-114823525D01*
X71716071Y-114828377D01*
X71683044Y-114830000D01*
X70556956Y-114830000D01*
X70523929Y-114828377D01*
X70491219Y-114823525D01*
X70459143Y-114815491D01*
X70428009Y-114804351D01*
X70398116Y-114790213D01*
X70369753Y-114773213D01*
X70343193Y-114753515D01*
X70318692Y-114731308D01*
X70296485Y-114706807D01*
X70276787Y-114680247D01*
X70259787Y-114651884D01*
X70245649Y-114621991D01*
X70234509Y-114590857D01*
X70226475Y-114558781D01*
X70221623Y-114526071D01*
X70220000Y-114493044D01*
X70220000Y-113616956D01*
X70221623Y-113583929D01*
X70226475Y-113551219D01*
X70234509Y-113519143D01*
X70245649Y-113488009D01*
X70259787Y-113458116D01*
X70276787Y-113429753D01*
X70296485Y-113403193D01*
X70318692Y-113378692D01*
X70343193Y-113356485D01*
X70369753Y-113336787D01*
X70398116Y-113319787D01*
X70428009Y-113305649D01*
X70459143Y-113294509D01*
X70491219Y-113286475D01*
X70523929Y-113281623D01*
X70556956Y-113280000D01*
X71683044Y-113280000D01*
X71716071Y-113281623D01*
X71716071Y-113281623D01*
G37*
D21*
X71120000Y-114055000D03*
D11*
G36*
X40231071Y-44186623D02*
X40263781Y-44191475D01*
X40295857Y-44199509D01*
X40326991Y-44210649D01*
X40356884Y-44224787D01*
X40385247Y-44241787D01*
X40411807Y-44261485D01*
X40436308Y-44283692D01*
X40458515Y-44308193D01*
X40478213Y-44334753D01*
X40495213Y-44363116D01*
X40509351Y-44393009D01*
X40520491Y-44424143D01*
X40528525Y-44456219D01*
X40533377Y-44488929D01*
X40535000Y-44521956D01*
X40535000Y-45648044D01*
X40533377Y-45681071D01*
X40528525Y-45713781D01*
X40520491Y-45745857D01*
X40509351Y-45776991D01*
X40495213Y-45806884D01*
X40478213Y-45835247D01*
X40458515Y-45861807D01*
X40436308Y-45886308D01*
X40411807Y-45908515D01*
X40385247Y-45928213D01*
X40356884Y-45945213D01*
X40326991Y-45959351D01*
X40295857Y-45970491D01*
X40263781Y-45978525D01*
X40231071Y-45983377D01*
X40198044Y-45985000D01*
X39321956Y-45985000D01*
X39288929Y-45983377D01*
X39256219Y-45978525D01*
X39224143Y-45970491D01*
X39193009Y-45959351D01*
X39163116Y-45945213D01*
X39134753Y-45928213D01*
X39108193Y-45908515D01*
X39083692Y-45886308D01*
X39061485Y-45861807D01*
X39041787Y-45835247D01*
X39024787Y-45806884D01*
X39010649Y-45776991D01*
X38999509Y-45745857D01*
X38991475Y-45713781D01*
X38986623Y-45681071D01*
X38985000Y-45648044D01*
X38985000Y-44521956D01*
X38986623Y-44488929D01*
X38991475Y-44456219D01*
X38999509Y-44424143D01*
X39010649Y-44393009D01*
X39024787Y-44363116D01*
X39041787Y-44334753D01*
X39061485Y-44308193D01*
X39083692Y-44283692D01*
X39108193Y-44261485D01*
X39134753Y-44241787D01*
X39163116Y-44224787D01*
X39193009Y-44210649D01*
X39224143Y-44199509D01*
X39256219Y-44191475D01*
X39288929Y-44186623D01*
X39321956Y-44185000D01*
X40198044Y-44185000D01*
X40231071Y-44186623D01*
X40231071Y-44186623D01*
G37*
D21*
X39760000Y-45085000D03*
D11*
G36*
X38181071Y-44186623D02*
X38213781Y-44191475D01*
X38245857Y-44199509D01*
X38276991Y-44210649D01*
X38306884Y-44224787D01*
X38335247Y-44241787D01*
X38361807Y-44261485D01*
X38386308Y-44283692D01*
X38408515Y-44308193D01*
X38428213Y-44334753D01*
X38445213Y-44363116D01*
X38459351Y-44393009D01*
X38470491Y-44424143D01*
X38478525Y-44456219D01*
X38483377Y-44488929D01*
X38485000Y-44521956D01*
X38485000Y-45648044D01*
X38483377Y-45681071D01*
X38478525Y-45713781D01*
X38470491Y-45745857D01*
X38459351Y-45776991D01*
X38445213Y-45806884D01*
X38428213Y-45835247D01*
X38408515Y-45861807D01*
X38386308Y-45886308D01*
X38361807Y-45908515D01*
X38335247Y-45928213D01*
X38306884Y-45945213D01*
X38276991Y-45959351D01*
X38245857Y-45970491D01*
X38213781Y-45978525D01*
X38181071Y-45983377D01*
X38148044Y-45985000D01*
X37271956Y-45985000D01*
X37238929Y-45983377D01*
X37206219Y-45978525D01*
X37174143Y-45970491D01*
X37143009Y-45959351D01*
X37113116Y-45945213D01*
X37084753Y-45928213D01*
X37058193Y-45908515D01*
X37033692Y-45886308D01*
X37011485Y-45861807D01*
X36991787Y-45835247D01*
X36974787Y-45806884D01*
X36960649Y-45776991D01*
X36949509Y-45745857D01*
X36941475Y-45713781D01*
X36936623Y-45681071D01*
X36935000Y-45648044D01*
X36935000Y-44521956D01*
X36936623Y-44488929D01*
X36941475Y-44456219D01*
X36949509Y-44424143D01*
X36960649Y-44393009D01*
X36974787Y-44363116D01*
X36991787Y-44334753D01*
X37011485Y-44308193D01*
X37033692Y-44283692D01*
X37058193Y-44261485D01*
X37084753Y-44241787D01*
X37113116Y-44224787D01*
X37143009Y-44210649D01*
X37174143Y-44199509D01*
X37206219Y-44191475D01*
X37238929Y-44186623D01*
X37271956Y-44185000D01*
X38148044Y-44185000D01*
X38181071Y-44186623D01*
X38181071Y-44186623D01*
G37*
D21*
X37710000Y-45085000D03*
D11*
G36*
X38571071Y-50536623D02*
X38603781Y-50541475D01*
X38635857Y-50549509D01*
X38666991Y-50560649D01*
X38696884Y-50574787D01*
X38725247Y-50591787D01*
X38751807Y-50611485D01*
X38776308Y-50633692D01*
X38798515Y-50658193D01*
X38818213Y-50684753D01*
X38835213Y-50713116D01*
X38849351Y-50743009D01*
X38860491Y-50774143D01*
X38868525Y-50806219D01*
X38873377Y-50838929D01*
X38875000Y-50871956D01*
X38875000Y-51998044D01*
X38873377Y-52031071D01*
X38868525Y-52063781D01*
X38860491Y-52095857D01*
X38849351Y-52126991D01*
X38835213Y-52156884D01*
X38818213Y-52185247D01*
X38798515Y-52211807D01*
X38776308Y-52236308D01*
X38751807Y-52258515D01*
X38725247Y-52278213D01*
X38696884Y-52295213D01*
X38666991Y-52309351D01*
X38635857Y-52320491D01*
X38603781Y-52328525D01*
X38571071Y-52333377D01*
X38538044Y-52335000D01*
X37661956Y-52335000D01*
X37628929Y-52333377D01*
X37596219Y-52328525D01*
X37564143Y-52320491D01*
X37533009Y-52309351D01*
X37503116Y-52295213D01*
X37474753Y-52278213D01*
X37448193Y-52258515D01*
X37423692Y-52236308D01*
X37401485Y-52211807D01*
X37381787Y-52185247D01*
X37364787Y-52156884D01*
X37350649Y-52126991D01*
X37339509Y-52095857D01*
X37331475Y-52063781D01*
X37326623Y-52031071D01*
X37325000Y-51998044D01*
X37325000Y-50871956D01*
X37326623Y-50838929D01*
X37331475Y-50806219D01*
X37339509Y-50774143D01*
X37350649Y-50743009D01*
X37364787Y-50713116D01*
X37381787Y-50684753D01*
X37401485Y-50658193D01*
X37423692Y-50633692D01*
X37448193Y-50611485D01*
X37474753Y-50591787D01*
X37503116Y-50574787D01*
X37533009Y-50560649D01*
X37564143Y-50549509D01*
X37596219Y-50541475D01*
X37628929Y-50536623D01*
X37661956Y-50535000D01*
X38538044Y-50535000D01*
X38571071Y-50536623D01*
X38571071Y-50536623D01*
G37*
D21*
X38100000Y-51435000D03*
D11*
G36*
X40621071Y-50536623D02*
X40653781Y-50541475D01*
X40685857Y-50549509D01*
X40716991Y-50560649D01*
X40746884Y-50574787D01*
X40775247Y-50591787D01*
X40801807Y-50611485D01*
X40826308Y-50633692D01*
X40848515Y-50658193D01*
X40868213Y-50684753D01*
X40885213Y-50713116D01*
X40899351Y-50743009D01*
X40910491Y-50774143D01*
X40918525Y-50806219D01*
X40923377Y-50838929D01*
X40925000Y-50871956D01*
X40925000Y-51998044D01*
X40923377Y-52031071D01*
X40918525Y-52063781D01*
X40910491Y-52095857D01*
X40899351Y-52126991D01*
X40885213Y-52156884D01*
X40868213Y-52185247D01*
X40848515Y-52211807D01*
X40826308Y-52236308D01*
X40801807Y-52258515D01*
X40775247Y-52278213D01*
X40746884Y-52295213D01*
X40716991Y-52309351D01*
X40685857Y-52320491D01*
X40653781Y-52328525D01*
X40621071Y-52333377D01*
X40588044Y-52335000D01*
X39711956Y-52335000D01*
X39678929Y-52333377D01*
X39646219Y-52328525D01*
X39614143Y-52320491D01*
X39583009Y-52309351D01*
X39553116Y-52295213D01*
X39524753Y-52278213D01*
X39498193Y-52258515D01*
X39473692Y-52236308D01*
X39451485Y-52211807D01*
X39431787Y-52185247D01*
X39414787Y-52156884D01*
X39400649Y-52126991D01*
X39389509Y-52095857D01*
X39381475Y-52063781D01*
X39376623Y-52031071D01*
X39375000Y-51998044D01*
X39375000Y-50871956D01*
X39376623Y-50838929D01*
X39381475Y-50806219D01*
X39389509Y-50774143D01*
X39400649Y-50743009D01*
X39414787Y-50713116D01*
X39431787Y-50684753D01*
X39451485Y-50658193D01*
X39473692Y-50633692D01*
X39498193Y-50611485D01*
X39524753Y-50591787D01*
X39553116Y-50574787D01*
X39583009Y-50560649D01*
X39614143Y-50549509D01*
X39646219Y-50541475D01*
X39678929Y-50536623D01*
X39711956Y-50535000D01*
X40588044Y-50535000D01*
X40621071Y-50536623D01*
X40621071Y-50536623D01*
G37*
D21*
X40150000Y-51435000D03*
D11*
G36*
X101191071Y-105146623D02*
X101223781Y-105151475D01*
X101255857Y-105159509D01*
X101286991Y-105170649D01*
X101316884Y-105184787D01*
X101345247Y-105201787D01*
X101371807Y-105221485D01*
X101396308Y-105243692D01*
X101418515Y-105268193D01*
X101438213Y-105294753D01*
X101455213Y-105323116D01*
X101469351Y-105353009D01*
X101480491Y-105384143D01*
X101488525Y-105416219D01*
X101493377Y-105448929D01*
X101495000Y-105481956D01*
X101495000Y-106608044D01*
X101493377Y-106641071D01*
X101488525Y-106673781D01*
X101480491Y-106705857D01*
X101469351Y-106736991D01*
X101455213Y-106766884D01*
X101438213Y-106795247D01*
X101418515Y-106821807D01*
X101396308Y-106846308D01*
X101371807Y-106868515D01*
X101345247Y-106888213D01*
X101316884Y-106905213D01*
X101286991Y-106919351D01*
X101255857Y-106930491D01*
X101223781Y-106938525D01*
X101191071Y-106943377D01*
X101158044Y-106945000D01*
X100281956Y-106945000D01*
X100248929Y-106943377D01*
X100216219Y-106938525D01*
X100184143Y-106930491D01*
X100153009Y-106919351D01*
X100123116Y-106905213D01*
X100094753Y-106888213D01*
X100068193Y-106868515D01*
X100043692Y-106846308D01*
X100021485Y-106821807D01*
X100001787Y-106795247D01*
X99984787Y-106766884D01*
X99970649Y-106736991D01*
X99959509Y-106705857D01*
X99951475Y-106673781D01*
X99946623Y-106641071D01*
X99945000Y-106608044D01*
X99945000Y-105481956D01*
X99946623Y-105448929D01*
X99951475Y-105416219D01*
X99959509Y-105384143D01*
X99970649Y-105353009D01*
X99984787Y-105323116D01*
X100001787Y-105294753D01*
X100021485Y-105268193D01*
X100043692Y-105243692D01*
X100068193Y-105221485D01*
X100094753Y-105201787D01*
X100123116Y-105184787D01*
X100153009Y-105170649D01*
X100184143Y-105159509D01*
X100216219Y-105151475D01*
X100248929Y-105146623D01*
X100281956Y-105145000D01*
X101158044Y-105145000D01*
X101191071Y-105146623D01*
X101191071Y-105146623D01*
G37*
D21*
X100720000Y-106045000D03*
D11*
G36*
X99141071Y-105146623D02*
X99173781Y-105151475D01*
X99205857Y-105159509D01*
X99236991Y-105170649D01*
X99266884Y-105184787D01*
X99295247Y-105201787D01*
X99321807Y-105221485D01*
X99346308Y-105243692D01*
X99368515Y-105268193D01*
X99388213Y-105294753D01*
X99405213Y-105323116D01*
X99419351Y-105353009D01*
X99430491Y-105384143D01*
X99438525Y-105416219D01*
X99443377Y-105448929D01*
X99445000Y-105481956D01*
X99445000Y-106608044D01*
X99443377Y-106641071D01*
X99438525Y-106673781D01*
X99430491Y-106705857D01*
X99419351Y-106736991D01*
X99405213Y-106766884D01*
X99388213Y-106795247D01*
X99368515Y-106821807D01*
X99346308Y-106846308D01*
X99321807Y-106868515D01*
X99295247Y-106888213D01*
X99266884Y-106905213D01*
X99236991Y-106919351D01*
X99205857Y-106930491D01*
X99173781Y-106938525D01*
X99141071Y-106943377D01*
X99108044Y-106945000D01*
X98231956Y-106945000D01*
X98198929Y-106943377D01*
X98166219Y-106938525D01*
X98134143Y-106930491D01*
X98103009Y-106919351D01*
X98073116Y-106905213D01*
X98044753Y-106888213D01*
X98018193Y-106868515D01*
X97993692Y-106846308D01*
X97971485Y-106821807D01*
X97951787Y-106795247D01*
X97934787Y-106766884D01*
X97920649Y-106736991D01*
X97909509Y-106705857D01*
X97901475Y-106673781D01*
X97896623Y-106641071D01*
X97895000Y-106608044D01*
X97895000Y-105481956D01*
X97896623Y-105448929D01*
X97901475Y-105416219D01*
X97909509Y-105384143D01*
X97920649Y-105353009D01*
X97934787Y-105323116D01*
X97951787Y-105294753D01*
X97971485Y-105268193D01*
X97993692Y-105243692D01*
X98018193Y-105221485D01*
X98044753Y-105201787D01*
X98073116Y-105184787D01*
X98103009Y-105170649D01*
X98134143Y-105159509D01*
X98166219Y-105151475D01*
X98198929Y-105146623D01*
X98231956Y-105145000D01*
X99108044Y-105145000D01*
X99141071Y-105146623D01*
X99141071Y-105146623D01*
G37*
D21*
X98670000Y-106045000D03*
D11*
G36*
X105636071Y-105146623D02*
X105668781Y-105151475D01*
X105700857Y-105159509D01*
X105731991Y-105170649D01*
X105761884Y-105184787D01*
X105790247Y-105201787D01*
X105816807Y-105221485D01*
X105841308Y-105243692D01*
X105863515Y-105268193D01*
X105883213Y-105294753D01*
X105900213Y-105323116D01*
X105914351Y-105353009D01*
X105925491Y-105384143D01*
X105933525Y-105416219D01*
X105938377Y-105448929D01*
X105940000Y-105481956D01*
X105940000Y-106608044D01*
X105938377Y-106641071D01*
X105933525Y-106673781D01*
X105925491Y-106705857D01*
X105914351Y-106736991D01*
X105900213Y-106766884D01*
X105883213Y-106795247D01*
X105863515Y-106821807D01*
X105841308Y-106846308D01*
X105816807Y-106868515D01*
X105790247Y-106888213D01*
X105761884Y-106905213D01*
X105731991Y-106919351D01*
X105700857Y-106930491D01*
X105668781Y-106938525D01*
X105636071Y-106943377D01*
X105603044Y-106945000D01*
X104726956Y-106945000D01*
X104693929Y-106943377D01*
X104661219Y-106938525D01*
X104629143Y-106930491D01*
X104598009Y-106919351D01*
X104568116Y-106905213D01*
X104539753Y-106888213D01*
X104513193Y-106868515D01*
X104488692Y-106846308D01*
X104466485Y-106821807D01*
X104446787Y-106795247D01*
X104429787Y-106766884D01*
X104415649Y-106736991D01*
X104404509Y-106705857D01*
X104396475Y-106673781D01*
X104391623Y-106641071D01*
X104390000Y-106608044D01*
X104390000Y-105481956D01*
X104391623Y-105448929D01*
X104396475Y-105416219D01*
X104404509Y-105384143D01*
X104415649Y-105353009D01*
X104429787Y-105323116D01*
X104446787Y-105294753D01*
X104466485Y-105268193D01*
X104488692Y-105243692D01*
X104513193Y-105221485D01*
X104539753Y-105201787D01*
X104568116Y-105184787D01*
X104598009Y-105170649D01*
X104629143Y-105159509D01*
X104661219Y-105151475D01*
X104693929Y-105146623D01*
X104726956Y-105145000D01*
X105603044Y-105145000D01*
X105636071Y-105146623D01*
X105636071Y-105146623D01*
G37*
D21*
X105165000Y-106045000D03*
D11*
G36*
X103586071Y-105146623D02*
X103618781Y-105151475D01*
X103650857Y-105159509D01*
X103681991Y-105170649D01*
X103711884Y-105184787D01*
X103740247Y-105201787D01*
X103766807Y-105221485D01*
X103791308Y-105243692D01*
X103813515Y-105268193D01*
X103833213Y-105294753D01*
X103850213Y-105323116D01*
X103864351Y-105353009D01*
X103875491Y-105384143D01*
X103883525Y-105416219D01*
X103888377Y-105448929D01*
X103890000Y-105481956D01*
X103890000Y-106608044D01*
X103888377Y-106641071D01*
X103883525Y-106673781D01*
X103875491Y-106705857D01*
X103864351Y-106736991D01*
X103850213Y-106766884D01*
X103833213Y-106795247D01*
X103813515Y-106821807D01*
X103791308Y-106846308D01*
X103766807Y-106868515D01*
X103740247Y-106888213D01*
X103711884Y-106905213D01*
X103681991Y-106919351D01*
X103650857Y-106930491D01*
X103618781Y-106938525D01*
X103586071Y-106943377D01*
X103553044Y-106945000D01*
X102676956Y-106945000D01*
X102643929Y-106943377D01*
X102611219Y-106938525D01*
X102579143Y-106930491D01*
X102548009Y-106919351D01*
X102518116Y-106905213D01*
X102489753Y-106888213D01*
X102463193Y-106868515D01*
X102438692Y-106846308D01*
X102416485Y-106821807D01*
X102396787Y-106795247D01*
X102379787Y-106766884D01*
X102365649Y-106736991D01*
X102354509Y-106705857D01*
X102346475Y-106673781D01*
X102341623Y-106641071D01*
X102340000Y-106608044D01*
X102340000Y-105481956D01*
X102341623Y-105448929D01*
X102346475Y-105416219D01*
X102354509Y-105384143D01*
X102365649Y-105353009D01*
X102379787Y-105323116D01*
X102396787Y-105294753D01*
X102416485Y-105268193D01*
X102438692Y-105243692D01*
X102463193Y-105221485D01*
X102489753Y-105201787D01*
X102518116Y-105184787D01*
X102548009Y-105170649D01*
X102579143Y-105159509D01*
X102611219Y-105151475D01*
X102643929Y-105146623D01*
X102676956Y-105145000D01*
X103553044Y-105145000D01*
X103586071Y-105146623D01*
X103586071Y-105146623D01*
G37*
D21*
X103115000Y-106045000D03*
D11*
G36*
X41501071Y-119751623D02*
X41533781Y-119756475D01*
X41565857Y-119764509D01*
X41596991Y-119775649D01*
X41626884Y-119789787D01*
X41655247Y-119806787D01*
X41681807Y-119826485D01*
X41706308Y-119848692D01*
X41728515Y-119873193D01*
X41748213Y-119899753D01*
X41765213Y-119928116D01*
X41779351Y-119958009D01*
X41790491Y-119989143D01*
X41798525Y-120021219D01*
X41803377Y-120053929D01*
X41805000Y-120086956D01*
X41805000Y-121213044D01*
X41803377Y-121246071D01*
X41798525Y-121278781D01*
X41790491Y-121310857D01*
X41779351Y-121341991D01*
X41765213Y-121371884D01*
X41748213Y-121400247D01*
X41728515Y-121426807D01*
X41706308Y-121451308D01*
X41681807Y-121473515D01*
X41655247Y-121493213D01*
X41626884Y-121510213D01*
X41596991Y-121524351D01*
X41565857Y-121535491D01*
X41533781Y-121543525D01*
X41501071Y-121548377D01*
X41468044Y-121550000D01*
X40591956Y-121550000D01*
X40558929Y-121548377D01*
X40526219Y-121543525D01*
X40494143Y-121535491D01*
X40463009Y-121524351D01*
X40433116Y-121510213D01*
X40404753Y-121493213D01*
X40378193Y-121473515D01*
X40353692Y-121451308D01*
X40331485Y-121426807D01*
X40311787Y-121400247D01*
X40294787Y-121371884D01*
X40280649Y-121341991D01*
X40269509Y-121310857D01*
X40261475Y-121278781D01*
X40256623Y-121246071D01*
X40255000Y-121213044D01*
X40255000Y-120086956D01*
X40256623Y-120053929D01*
X40261475Y-120021219D01*
X40269509Y-119989143D01*
X40280649Y-119958009D01*
X40294787Y-119928116D01*
X40311787Y-119899753D01*
X40331485Y-119873193D01*
X40353692Y-119848692D01*
X40378193Y-119826485D01*
X40404753Y-119806787D01*
X40433116Y-119789787D01*
X40463009Y-119775649D01*
X40494143Y-119764509D01*
X40526219Y-119756475D01*
X40558929Y-119751623D01*
X40591956Y-119750000D01*
X41468044Y-119750000D01*
X41501071Y-119751623D01*
X41501071Y-119751623D01*
G37*
D21*
X41030000Y-120650000D03*
D11*
G36*
X39451071Y-119751623D02*
X39483781Y-119756475D01*
X39515857Y-119764509D01*
X39546991Y-119775649D01*
X39576884Y-119789787D01*
X39605247Y-119806787D01*
X39631807Y-119826485D01*
X39656308Y-119848692D01*
X39678515Y-119873193D01*
X39698213Y-119899753D01*
X39715213Y-119928116D01*
X39729351Y-119958009D01*
X39740491Y-119989143D01*
X39748525Y-120021219D01*
X39753377Y-120053929D01*
X39755000Y-120086956D01*
X39755000Y-121213044D01*
X39753377Y-121246071D01*
X39748525Y-121278781D01*
X39740491Y-121310857D01*
X39729351Y-121341991D01*
X39715213Y-121371884D01*
X39698213Y-121400247D01*
X39678515Y-121426807D01*
X39656308Y-121451308D01*
X39631807Y-121473515D01*
X39605247Y-121493213D01*
X39576884Y-121510213D01*
X39546991Y-121524351D01*
X39515857Y-121535491D01*
X39483781Y-121543525D01*
X39451071Y-121548377D01*
X39418044Y-121550000D01*
X38541956Y-121550000D01*
X38508929Y-121548377D01*
X38476219Y-121543525D01*
X38444143Y-121535491D01*
X38413009Y-121524351D01*
X38383116Y-121510213D01*
X38354753Y-121493213D01*
X38328193Y-121473515D01*
X38303692Y-121451308D01*
X38281485Y-121426807D01*
X38261787Y-121400247D01*
X38244787Y-121371884D01*
X38230649Y-121341991D01*
X38219509Y-121310857D01*
X38211475Y-121278781D01*
X38206623Y-121246071D01*
X38205000Y-121213044D01*
X38205000Y-120086956D01*
X38206623Y-120053929D01*
X38211475Y-120021219D01*
X38219509Y-119989143D01*
X38230649Y-119958009D01*
X38244787Y-119928116D01*
X38261787Y-119899753D01*
X38281485Y-119873193D01*
X38303692Y-119848692D01*
X38328193Y-119826485D01*
X38354753Y-119806787D01*
X38383116Y-119789787D01*
X38413009Y-119775649D01*
X38444143Y-119764509D01*
X38476219Y-119756475D01*
X38508929Y-119751623D01*
X38541956Y-119750000D01*
X39418044Y-119750000D01*
X39451071Y-119751623D01*
X39451071Y-119751623D01*
G37*
D21*
X38980000Y-120650000D03*
D11*
G36*
X96746071Y-105146623D02*
X96778781Y-105151475D01*
X96810857Y-105159509D01*
X96841991Y-105170649D01*
X96871884Y-105184787D01*
X96900247Y-105201787D01*
X96926807Y-105221485D01*
X96951308Y-105243692D01*
X96973515Y-105268193D01*
X96993213Y-105294753D01*
X97010213Y-105323116D01*
X97024351Y-105353009D01*
X97035491Y-105384143D01*
X97043525Y-105416219D01*
X97048377Y-105448929D01*
X97050000Y-105481956D01*
X97050000Y-106608044D01*
X97048377Y-106641071D01*
X97043525Y-106673781D01*
X97035491Y-106705857D01*
X97024351Y-106736991D01*
X97010213Y-106766884D01*
X96993213Y-106795247D01*
X96973515Y-106821807D01*
X96951308Y-106846308D01*
X96926807Y-106868515D01*
X96900247Y-106888213D01*
X96871884Y-106905213D01*
X96841991Y-106919351D01*
X96810857Y-106930491D01*
X96778781Y-106938525D01*
X96746071Y-106943377D01*
X96713044Y-106945000D01*
X95836956Y-106945000D01*
X95803929Y-106943377D01*
X95771219Y-106938525D01*
X95739143Y-106930491D01*
X95708009Y-106919351D01*
X95678116Y-106905213D01*
X95649753Y-106888213D01*
X95623193Y-106868515D01*
X95598692Y-106846308D01*
X95576485Y-106821807D01*
X95556787Y-106795247D01*
X95539787Y-106766884D01*
X95525649Y-106736991D01*
X95514509Y-106705857D01*
X95506475Y-106673781D01*
X95501623Y-106641071D01*
X95500000Y-106608044D01*
X95500000Y-105481956D01*
X95501623Y-105448929D01*
X95506475Y-105416219D01*
X95514509Y-105384143D01*
X95525649Y-105353009D01*
X95539787Y-105323116D01*
X95556787Y-105294753D01*
X95576485Y-105268193D01*
X95598692Y-105243692D01*
X95623193Y-105221485D01*
X95649753Y-105201787D01*
X95678116Y-105184787D01*
X95708009Y-105170649D01*
X95739143Y-105159509D01*
X95771219Y-105151475D01*
X95803929Y-105146623D01*
X95836956Y-105145000D01*
X96713044Y-105145000D01*
X96746071Y-105146623D01*
X96746071Y-105146623D01*
G37*
D21*
X96275000Y-106045000D03*
D11*
G36*
X94696071Y-105146623D02*
X94728781Y-105151475D01*
X94760857Y-105159509D01*
X94791991Y-105170649D01*
X94821884Y-105184787D01*
X94850247Y-105201787D01*
X94876807Y-105221485D01*
X94901308Y-105243692D01*
X94923515Y-105268193D01*
X94943213Y-105294753D01*
X94960213Y-105323116D01*
X94974351Y-105353009D01*
X94985491Y-105384143D01*
X94993525Y-105416219D01*
X94998377Y-105448929D01*
X95000000Y-105481956D01*
X95000000Y-106608044D01*
X94998377Y-106641071D01*
X94993525Y-106673781D01*
X94985491Y-106705857D01*
X94974351Y-106736991D01*
X94960213Y-106766884D01*
X94943213Y-106795247D01*
X94923515Y-106821807D01*
X94901308Y-106846308D01*
X94876807Y-106868515D01*
X94850247Y-106888213D01*
X94821884Y-106905213D01*
X94791991Y-106919351D01*
X94760857Y-106930491D01*
X94728781Y-106938525D01*
X94696071Y-106943377D01*
X94663044Y-106945000D01*
X93786956Y-106945000D01*
X93753929Y-106943377D01*
X93721219Y-106938525D01*
X93689143Y-106930491D01*
X93658009Y-106919351D01*
X93628116Y-106905213D01*
X93599753Y-106888213D01*
X93573193Y-106868515D01*
X93548692Y-106846308D01*
X93526485Y-106821807D01*
X93506787Y-106795247D01*
X93489787Y-106766884D01*
X93475649Y-106736991D01*
X93464509Y-106705857D01*
X93456475Y-106673781D01*
X93451623Y-106641071D01*
X93450000Y-106608044D01*
X93450000Y-105481956D01*
X93451623Y-105448929D01*
X93456475Y-105416219D01*
X93464509Y-105384143D01*
X93475649Y-105353009D01*
X93489787Y-105323116D01*
X93506787Y-105294753D01*
X93526485Y-105268193D01*
X93548692Y-105243692D01*
X93573193Y-105221485D01*
X93599753Y-105201787D01*
X93628116Y-105184787D01*
X93658009Y-105170649D01*
X93689143Y-105159509D01*
X93721219Y-105151475D01*
X93753929Y-105146623D01*
X93786956Y-105145000D01*
X94663044Y-105145000D01*
X94696071Y-105146623D01*
X94696071Y-105146623D01*
G37*
D21*
X94225000Y-106045000D03*
D11*
G36*
X70584071Y-71491623D02*
X70616781Y-71496475D01*
X70648857Y-71504509D01*
X70679991Y-71515649D01*
X70709884Y-71529787D01*
X70738247Y-71546787D01*
X70764807Y-71566485D01*
X70789308Y-71588692D01*
X70811515Y-71613193D01*
X70831213Y-71639753D01*
X70848213Y-71668116D01*
X70862351Y-71698009D01*
X70873491Y-71729143D01*
X70881525Y-71761219D01*
X70886377Y-71793929D01*
X70888000Y-71826956D01*
X70888000Y-72953044D01*
X70886377Y-72986071D01*
X70881525Y-73018781D01*
X70873491Y-73050857D01*
X70862351Y-73081991D01*
X70848213Y-73111884D01*
X70831213Y-73140247D01*
X70811515Y-73166807D01*
X70789308Y-73191308D01*
X70764807Y-73213515D01*
X70738247Y-73233213D01*
X70709884Y-73250213D01*
X70679991Y-73264351D01*
X70648857Y-73275491D01*
X70616781Y-73283525D01*
X70584071Y-73288377D01*
X70551044Y-73290000D01*
X69674956Y-73290000D01*
X69641929Y-73288377D01*
X69609219Y-73283525D01*
X69577143Y-73275491D01*
X69546009Y-73264351D01*
X69516116Y-73250213D01*
X69487753Y-73233213D01*
X69461193Y-73213515D01*
X69436692Y-73191308D01*
X69414485Y-73166807D01*
X69394787Y-73140247D01*
X69377787Y-73111884D01*
X69363649Y-73081991D01*
X69352509Y-73050857D01*
X69344475Y-73018781D01*
X69339623Y-72986071D01*
X69338000Y-72953044D01*
X69338000Y-71826956D01*
X69339623Y-71793929D01*
X69344475Y-71761219D01*
X69352509Y-71729143D01*
X69363649Y-71698009D01*
X69377787Y-71668116D01*
X69394787Y-71639753D01*
X69414485Y-71613193D01*
X69436692Y-71588692D01*
X69461193Y-71566485D01*
X69487753Y-71546787D01*
X69516116Y-71529787D01*
X69546009Y-71515649D01*
X69577143Y-71504509D01*
X69609219Y-71496475D01*
X69641929Y-71491623D01*
X69674956Y-71490000D01*
X70551044Y-71490000D01*
X70584071Y-71491623D01*
X70584071Y-71491623D01*
G37*
D21*
X70113000Y-72390000D03*
D11*
G36*
X68534071Y-71491623D02*
X68566781Y-71496475D01*
X68598857Y-71504509D01*
X68629991Y-71515649D01*
X68659884Y-71529787D01*
X68688247Y-71546787D01*
X68714807Y-71566485D01*
X68739308Y-71588692D01*
X68761515Y-71613193D01*
X68781213Y-71639753D01*
X68798213Y-71668116D01*
X68812351Y-71698009D01*
X68823491Y-71729143D01*
X68831525Y-71761219D01*
X68836377Y-71793929D01*
X68838000Y-71826956D01*
X68838000Y-72953044D01*
X68836377Y-72986071D01*
X68831525Y-73018781D01*
X68823491Y-73050857D01*
X68812351Y-73081991D01*
X68798213Y-73111884D01*
X68781213Y-73140247D01*
X68761515Y-73166807D01*
X68739308Y-73191308D01*
X68714807Y-73213515D01*
X68688247Y-73233213D01*
X68659884Y-73250213D01*
X68629991Y-73264351D01*
X68598857Y-73275491D01*
X68566781Y-73283525D01*
X68534071Y-73288377D01*
X68501044Y-73290000D01*
X67624956Y-73290000D01*
X67591929Y-73288377D01*
X67559219Y-73283525D01*
X67527143Y-73275491D01*
X67496009Y-73264351D01*
X67466116Y-73250213D01*
X67437753Y-73233213D01*
X67411193Y-73213515D01*
X67386692Y-73191308D01*
X67364485Y-73166807D01*
X67344787Y-73140247D01*
X67327787Y-73111884D01*
X67313649Y-73081991D01*
X67302509Y-73050857D01*
X67294475Y-73018781D01*
X67289623Y-72986071D01*
X67288000Y-72953044D01*
X67288000Y-71826956D01*
X67289623Y-71793929D01*
X67294475Y-71761219D01*
X67302509Y-71729143D01*
X67313649Y-71698009D01*
X67327787Y-71668116D01*
X67344787Y-71639753D01*
X67364485Y-71613193D01*
X67386692Y-71588692D01*
X67411193Y-71566485D01*
X67437753Y-71546787D01*
X67466116Y-71529787D01*
X67496009Y-71515649D01*
X67527143Y-71504509D01*
X67559219Y-71496475D01*
X67591929Y-71491623D01*
X67624956Y-71490000D01*
X68501044Y-71490000D01*
X68534071Y-71491623D01*
X68534071Y-71491623D01*
G37*
D21*
X68063000Y-72390000D03*
D11*
G36*
X48856071Y-65656623D02*
X48888781Y-65661475D01*
X48920857Y-65669509D01*
X48951991Y-65680649D01*
X48981884Y-65694787D01*
X49010247Y-65711787D01*
X49036807Y-65731485D01*
X49061308Y-65753692D01*
X49083515Y-65778193D01*
X49103213Y-65804753D01*
X49120213Y-65833116D01*
X49134351Y-65863009D01*
X49145491Y-65894143D01*
X49153525Y-65926219D01*
X49158377Y-65958929D01*
X49160000Y-65991956D01*
X49160000Y-66868044D01*
X49158377Y-66901071D01*
X49153525Y-66933781D01*
X49145491Y-66965857D01*
X49134351Y-66996991D01*
X49120213Y-67026884D01*
X49103213Y-67055247D01*
X49083515Y-67081807D01*
X49061308Y-67106308D01*
X49036807Y-67128515D01*
X49010247Y-67148213D01*
X48981884Y-67165213D01*
X48951991Y-67179351D01*
X48920857Y-67190491D01*
X48888781Y-67198525D01*
X48856071Y-67203377D01*
X48823044Y-67205000D01*
X47696956Y-67205000D01*
X47663929Y-67203377D01*
X47631219Y-67198525D01*
X47599143Y-67190491D01*
X47568009Y-67179351D01*
X47538116Y-67165213D01*
X47509753Y-67148213D01*
X47483193Y-67128515D01*
X47458692Y-67106308D01*
X47436485Y-67081807D01*
X47416787Y-67055247D01*
X47399787Y-67026884D01*
X47385649Y-66996991D01*
X47374509Y-66965857D01*
X47366475Y-66933781D01*
X47361623Y-66901071D01*
X47360000Y-66868044D01*
X47360000Y-65991956D01*
X47361623Y-65958929D01*
X47366475Y-65926219D01*
X47374509Y-65894143D01*
X47385649Y-65863009D01*
X47399787Y-65833116D01*
X47416787Y-65804753D01*
X47436485Y-65778193D01*
X47458692Y-65753692D01*
X47483193Y-65731485D01*
X47509753Y-65711787D01*
X47538116Y-65694787D01*
X47568009Y-65680649D01*
X47599143Y-65669509D01*
X47631219Y-65661475D01*
X47663929Y-65656623D01*
X47696956Y-65655000D01*
X48823044Y-65655000D01*
X48856071Y-65656623D01*
X48856071Y-65656623D01*
G37*
D21*
X48260000Y-66430000D03*
D11*
G36*
X48856071Y-63606623D02*
X48888781Y-63611475D01*
X48920857Y-63619509D01*
X48951991Y-63630649D01*
X48981884Y-63644787D01*
X49010247Y-63661787D01*
X49036807Y-63681485D01*
X49061308Y-63703692D01*
X49083515Y-63728193D01*
X49103213Y-63754753D01*
X49120213Y-63783116D01*
X49134351Y-63813009D01*
X49145491Y-63844143D01*
X49153525Y-63876219D01*
X49158377Y-63908929D01*
X49160000Y-63941956D01*
X49160000Y-64818044D01*
X49158377Y-64851071D01*
X49153525Y-64883781D01*
X49145491Y-64915857D01*
X49134351Y-64946991D01*
X49120213Y-64976884D01*
X49103213Y-65005247D01*
X49083515Y-65031807D01*
X49061308Y-65056308D01*
X49036807Y-65078515D01*
X49010247Y-65098213D01*
X48981884Y-65115213D01*
X48951991Y-65129351D01*
X48920857Y-65140491D01*
X48888781Y-65148525D01*
X48856071Y-65153377D01*
X48823044Y-65155000D01*
X47696956Y-65155000D01*
X47663929Y-65153377D01*
X47631219Y-65148525D01*
X47599143Y-65140491D01*
X47568009Y-65129351D01*
X47538116Y-65115213D01*
X47509753Y-65098213D01*
X47483193Y-65078515D01*
X47458692Y-65056308D01*
X47436485Y-65031807D01*
X47416787Y-65005247D01*
X47399787Y-64976884D01*
X47385649Y-64946991D01*
X47374509Y-64915857D01*
X47366475Y-64883781D01*
X47361623Y-64851071D01*
X47360000Y-64818044D01*
X47360000Y-63941956D01*
X47361623Y-63908929D01*
X47366475Y-63876219D01*
X47374509Y-63844143D01*
X47385649Y-63813009D01*
X47399787Y-63783116D01*
X47416787Y-63754753D01*
X47436485Y-63728193D01*
X47458692Y-63703692D01*
X47483193Y-63681485D01*
X47509753Y-63661787D01*
X47538116Y-63644787D01*
X47568009Y-63630649D01*
X47599143Y-63619509D01*
X47631219Y-63611475D01*
X47663929Y-63606623D01*
X47696956Y-63605000D01*
X48823044Y-63605000D01*
X48856071Y-63606623D01*
X48856071Y-63606623D01*
G37*
D21*
X48260000Y-64380000D03*
D11*
G36*
X48856071Y-59796623D02*
X48888781Y-59801475D01*
X48920857Y-59809509D01*
X48951991Y-59820649D01*
X48981884Y-59834787D01*
X49010247Y-59851787D01*
X49036807Y-59871485D01*
X49061308Y-59893692D01*
X49083515Y-59918193D01*
X49103213Y-59944753D01*
X49120213Y-59973116D01*
X49134351Y-60003009D01*
X49145491Y-60034143D01*
X49153525Y-60066219D01*
X49158377Y-60098929D01*
X49160000Y-60131956D01*
X49160000Y-61008044D01*
X49158377Y-61041071D01*
X49153525Y-61073781D01*
X49145491Y-61105857D01*
X49134351Y-61136991D01*
X49120213Y-61166884D01*
X49103213Y-61195247D01*
X49083515Y-61221807D01*
X49061308Y-61246308D01*
X49036807Y-61268515D01*
X49010247Y-61288213D01*
X48981884Y-61305213D01*
X48951991Y-61319351D01*
X48920857Y-61330491D01*
X48888781Y-61338525D01*
X48856071Y-61343377D01*
X48823044Y-61345000D01*
X47696956Y-61345000D01*
X47663929Y-61343377D01*
X47631219Y-61338525D01*
X47599143Y-61330491D01*
X47568009Y-61319351D01*
X47538116Y-61305213D01*
X47509753Y-61288213D01*
X47483193Y-61268515D01*
X47458692Y-61246308D01*
X47436485Y-61221807D01*
X47416787Y-61195247D01*
X47399787Y-61166884D01*
X47385649Y-61136991D01*
X47374509Y-61105857D01*
X47366475Y-61073781D01*
X47361623Y-61041071D01*
X47360000Y-61008044D01*
X47360000Y-60131956D01*
X47361623Y-60098929D01*
X47366475Y-60066219D01*
X47374509Y-60034143D01*
X47385649Y-60003009D01*
X47399787Y-59973116D01*
X47416787Y-59944753D01*
X47436485Y-59918193D01*
X47458692Y-59893692D01*
X47483193Y-59871485D01*
X47509753Y-59851787D01*
X47538116Y-59834787D01*
X47568009Y-59820649D01*
X47599143Y-59809509D01*
X47631219Y-59801475D01*
X47663929Y-59796623D01*
X47696956Y-59795000D01*
X48823044Y-59795000D01*
X48856071Y-59796623D01*
X48856071Y-59796623D01*
G37*
D21*
X48260000Y-60570000D03*
D11*
G36*
X48856071Y-61846623D02*
X48888781Y-61851475D01*
X48920857Y-61859509D01*
X48951991Y-61870649D01*
X48981884Y-61884787D01*
X49010247Y-61901787D01*
X49036807Y-61921485D01*
X49061308Y-61943692D01*
X49083515Y-61968193D01*
X49103213Y-61994753D01*
X49120213Y-62023116D01*
X49134351Y-62053009D01*
X49145491Y-62084143D01*
X49153525Y-62116219D01*
X49158377Y-62148929D01*
X49160000Y-62181956D01*
X49160000Y-63058044D01*
X49158377Y-63091071D01*
X49153525Y-63123781D01*
X49145491Y-63155857D01*
X49134351Y-63186991D01*
X49120213Y-63216884D01*
X49103213Y-63245247D01*
X49083515Y-63271807D01*
X49061308Y-63296308D01*
X49036807Y-63318515D01*
X49010247Y-63338213D01*
X48981884Y-63355213D01*
X48951991Y-63369351D01*
X48920857Y-63380491D01*
X48888781Y-63388525D01*
X48856071Y-63393377D01*
X48823044Y-63395000D01*
X47696956Y-63395000D01*
X47663929Y-63393377D01*
X47631219Y-63388525D01*
X47599143Y-63380491D01*
X47568009Y-63369351D01*
X47538116Y-63355213D01*
X47509753Y-63338213D01*
X47483193Y-63318515D01*
X47458692Y-63296308D01*
X47436485Y-63271807D01*
X47416787Y-63245247D01*
X47399787Y-63216884D01*
X47385649Y-63186991D01*
X47374509Y-63155857D01*
X47366475Y-63123781D01*
X47361623Y-63091071D01*
X47360000Y-63058044D01*
X47360000Y-62181956D01*
X47361623Y-62148929D01*
X47366475Y-62116219D01*
X47374509Y-62084143D01*
X47385649Y-62053009D01*
X47399787Y-62023116D01*
X47416787Y-61994753D01*
X47436485Y-61968193D01*
X47458692Y-61943692D01*
X47483193Y-61921485D01*
X47509753Y-61901787D01*
X47538116Y-61884787D01*
X47568009Y-61870649D01*
X47599143Y-61859509D01*
X47631219Y-61851475D01*
X47663929Y-61846623D01*
X47696956Y-61845000D01*
X48823044Y-61845000D01*
X48856071Y-61846623D01*
X48856071Y-61846623D01*
G37*
D21*
X48260000Y-62620000D03*
D11*
G36*
X80606071Y-94231623D02*
X80638781Y-94236475D01*
X80670857Y-94244509D01*
X80701991Y-94255649D01*
X80731884Y-94269787D01*
X80760247Y-94286787D01*
X80786807Y-94306485D01*
X80811308Y-94328692D01*
X80833515Y-94353193D01*
X80853213Y-94379753D01*
X80870213Y-94408116D01*
X80884351Y-94438009D01*
X80895491Y-94469143D01*
X80903525Y-94501219D01*
X80908377Y-94533929D01*
X80910000Y-94566956D01*
X80910000Y-95443044D01*
X80908377Y-95476071D01*
X80903525Y-95508781D01*
X80895491Y-95540857D01*
X80884351Y-95571991D01*
X80870213Y-95601884D01*
X80853213Y-95630247D01*
X80833515Y-95656807D01*
X80811308Y-95681308D01*
X80786807Y-95703515D01*
X80760247Y-95723213D01*
X80731884Y-95740213D01*
X80701991Y-95754351D01*
X80670857Y-95765491D01*
X80638781Y-95773525D01*
X80606071Y-95778377D01*
X80573044Y-95780000D01*
X79446956Y-95780000D01*
X79413929Y-95778377D01*
X79381219Y-95773525D01*
X79349143Y-95765491D01*
X79318009Y-95754351D01*
X79288116Y-95740213D01*
X79259753Y-95723213D01*
X79233193Y-95703515D01*
X79208692Y-95681308D01*
X79186485Y-95656807D01*
X79166787Y-95630247D01*
X79149787Y-95601884D01*
X79135649Y-95571991D01*
X79124509Y-95540857D01*
X79116475Y-95508781D01*
X79111623Y-95476071D01*
X79110000Y-95443044D01*
X79110000Y-94566956D01*
X79111623Y-94533929D01*
X79116475Y-94501219D01*
X79124509Y-94469143D01*
X79135649Y-94438009D01*
X79149787Y-94408116D01*
X79166787Y-94379753D01*
X79186485Y-94353193D01*
X79208692Y-94328692D01*
X79233193Y-94306485D01*
X79259753Y-94286787D01*
X79288116Y-94269787D01*
X79318009Y-94255649D01*
X79349143Y-94244509D01*
X79381219Y-94236475D01*
X79413929Y-94231623D01*
X79446956Y-94230000D01*
X80573044Y-94230000D01*
X80606071Y-94231623D01*
X80606071Y-94231623D01*
G37*
D21*
X80010000Y-95005000D03*
D11*
G36*
X80606071Y-92181623D02*
X80638781Y-92186475D01*
X80670857Y-92194509D01*
X80701991Y-92205649D01*
X80731884Y-92219787D01*
X80760247Y-92236787D01*
X80786807Y-92256485D01*
X80811308Y-92278692D01*
X80833515Y-92303193D01*
X80853213Y-92329753D01*
X80870213Y-92358116D01*
X80884351Y-92388009D01*
X80895491Y-92419143D01*
X80903525Y-92451219D01*
X80908377Y-92483929D01*
X80910000Y-92516956D01*
X80910000Y-93393044D01*
X80908377Y-93426071D01*
X80903525Y-93458781D01*
X80895491Y-93490857D01*
X80884351Y-93521991D01*
X80870213Y-93551884D01*
X80853213Y-93580247D01*
X80833515Y-93606807D01*
X80811308Y-93631308D01*
X80786807Y-93653515D01*
X80760247Y-93673213D01*
X80731884Y-93690213D01*
X80701991Y-93704351D01*
X80670857Y-93715491D01*
X80638781Y-93723525D01*
X80606071Y-93728377D01*
X80573044Y-93730000D01*
X79446956Y-93730000D01*
X79413929Y-93728377D01*
X79381219Y-93723525D01*
X79349143Y-93715491D01*
X79318009Y-93704351D01*
X79288116Y-93690213D01*
X79259753Y-93673213D01*
X79233193Y-93653515D01*
X79208692Y-93631308D01*
X79186485Y-93606807D01*
X79166787Y-93580247D01*
X79149787Y-93551884D01*
X79135649Y-93521991D01*
X79124509Y-93490857D01*
X79116475Y-93458781D01*
X79111623Y-93426071D01*
X79110000Y-93393044D01*
X79110000Y-92516956D01*
X79111623Y-92483929D01*
X79116475Y-92451219D01*
X79124509Y-92419143D01*
X79135649Y-92388009D01*
X79149787Y-92358116D01*
X79166787Y-92329753D01*
X79186485Y-92303193D01*
X79208692Y-92278692D01*
X79233193Y-92256485D01*
X79259753Y-92236787D01*
X79288116Y-92219787D01*
X79318009Y-92205649D01*
X79349143Y-92194509D01*
X79381219Y-92186475D01*
X79413929Y-92181623D01*
X79446956Y-92180000D01*
X80573044Y-92180000D01*
X80606071Y-92181623D01*
X80606071Y-92181623D01*
G37*
D21*
X80010000Y-92955000D03*
D11*
G36*
X102316071Y-88001623D02*
X102348781Y-88006475D01*
X102380857Y-88014509D01*
X102411991Y-88025649D01*
X102441884Y-88039787D01*
X102470247Y-88056787D01*
X102496807Y-88076485D01*
X102521308Y-88098692D01*
X102543515Y-88123193D01*
X102563213Y-88149753D01*
X102580213Y-88178116D01*
X102594351Y-88208009D01*
X102605491Y-88239143D01*
X102613525Y-88271219D01*
X102618377Y-88303929D01*
X102620000Y-88336956D01*
X102620000Y-89463044D01*
X102618377Y-89496071D01*
X102613525Y-89528781D01*
X102605491Y-89560857D01*
X102594351Y-89591991D01*
X102580213Y-89621884D01*
X102563213Y-89650247D01*
X102543515Y-89676807D01*
X102521308Y-89701308D01*
X102496807Y-89723515D01*
X102470247Y-89743213D01*
X102441884Y-89760213D01*
X102411991Y-89774351D01*
X102380857Y-89785491D01*
X102348781Y-89793525D01*
X102316071Y-89798377D01*
X102283044Y-89800000D01*
X101406956Y-89800000D01*
X101373929Y-89798377D01*
X101341219Y-89793525D01*
X101309143Y-89785491D01*
X101278009Y-89774351D01*
X101248116Y-89760213D01*
X101219753Y-89743213D01*
X101193193Y-89723515D01*
X101168692Y-89701308D01*
X101146485Y-89676807D01*
X101126787Y-89650247D01*
X101109787Y-89621884D01*
X101095649Y-89591991D01*
X101084509Y-89560857D01*
X101076475Y-89528781D01*
X101071623Y-89496071D01*
X101070000Y-89463044D01*
X101070000Y-88336956D01*
X101071623Y-88303929D01*
X101076475Y-88271219D01*
X101084509Y-88239143D01*
X101095649Y-88208009D01*
X101109787Y-88178116D01*
X101126787Y-88149753D01*
X101146485Y-88123193D01*
X101168692Y-88098692D01*
X101193193Y-88076485D01*
X101219753Y-88056787D01*
X101248116Y-88039787D01*
X101278009Y-88025649D01*
X101309143Y-88014509D01*
X101341219Y-88006475D01*
X101373929Y-88001623D01*
X101406956Y-88000000D01*
X102283044Y-88000000D01*
X102316071Y-88001623D01*
X102316071Y-88001623D01*
G37*
D21*
X101845000Y-88900000D03*
D11*
G36*
X104366071Y-88001623D02*
X104398781Y-88006475D01*
X104430857Y-88014509D01*
X104461991Y-88025649D01*
X104491884Y-88039787D01*
X104520247Y-88056787D01*
X104546807Y-88076485D01*
X104571308Y-88098692D01*
X104593515Y-88123193D01*
X104613213Y-88149753D01*
X104630213Y-88178116D01*
X104644351Y-88208009D01*
X104655491Y-88239143D01*
X104663525Y-88271219D01*
X104668377Y-88303929D01*
X104670000Y-88336956D01*
X104670000Y-89463044D01*
X104668377Y-89496071D01*
X104663525Y-89528781D01*
X104655491Y-89560857D01*
X104644351Y-89591991D01*
X104630213Y-89621884D01*
X104613213Y-89650247D01*
X104593515Y-89676807D01*
X104571308Y-89701308D01*
X104546807Y-89723515D01*
X104520247Y-89743213D01*
X104491884Y-89760213D01*
X104461991Y-89774351D01*
X104430857Y-89785491D01*
X104398781Y-89793525D01*
X104366071Y-89798377D01*
X104333044Y-89800000D01*
X103456956Y-89800000D01*
X103423929Y-89798377D01*
X103391219Y-89793525D01*
X103359143Y-89785491D01*
X103328009Y-89774351D01*
X103298116Y-89760213D01*
X103269753Y-89743213D01*
X103243193Y-89723515D01*
X103218692Y-89701308D01*
X103196485Y-89676807D01*
X103176787Y-89650247D01*
X103159787Y-89621884D01*
X103145649Y-89591991D01*
X103134509Y-89560857D01*
X103126475Y-89528781D01*
X103121623Y-89496071D01*
X103120000Y-89463044D01*
X103120000Y-88336956D01*
X103121623Y-88303929D01*
X103126475Y-88271219D01*
X103134509Y-88239143D01*
X103145649Y-88208009D01*
X103159787Y-88178116D01*
X103176787Y-88149753D01*
X103196485Y-88123193D01*
X103218692Y-88098692D01*
X103243193Y-88076485D01*
X103269753Y-88056787D01*
X103298116Y-88039787D01*
X103328009Y-88025649D01*
X103359143Y-88014509D01*
X103391219Y-88006475D01*
X103423929Y-88001623D01*
X103456956Y-88000000D01*
X104333044Y-88000000D01*
X104366071Y-88001623D01*
X104366071Y-88001623D01*
G37*
D21*
X103895000Y-88900000D03*
D11*
G36*
X90766071Y-94231623D02*
X90798781Y-94236475D01*
X90830857Y-94244509D01*
X90861991Y-94255649D01*
X90891884Y-94269787D01*
X90920247Y-94286787D01*
X90946807Y-94306485D01*
X90971308Y-94328692D01*
X90993515Y-94353193D01*
X91013213Y-94379753D01*
X91030213Y-94408116D01*
X91044351Y-94438009D01*
X91055491Y-94469143D01*
X91063525Y-94501219D01*
X91068377Y-94533929D01*
X91070000Y-94566956D01*
X91070000Y-95443044D01*
X91068377Y-95476071D01*
X91063525Y-95508781D01*
X91055491Y-95540857D01*
X91044351Y-95571991D01*
X91030213Y-95601884D01*
X91013213Y-95630247D01*
X90993515Y-95656807D01*
X90971308Y-95681308D01*
X90946807Y-95703515D01*
X90920247Y-95723213D01*
X90891884Y-95740213D01*
X90861991Y-95754351D01*
X90830857Y-95765491D01*
X90798781Y-95773525D01*
X90766071Y-95778377D01*
X90733044Y-95780000D01*
X89606956Y-95780000D01*
X89573929Y-95778377D01*
X89541219Y-95773525D01*
X89509143Y-95765491D01*
X89478009Y-95754351D01*
X89448116Y-95740213D01*
X89419753Y-95723213D01*
X89393193Y-95703515D01*
X89368692Y-95681308D01*
X89346485Y-95656807D01*
X89326787Y-95630247D01*
X89309787Y-95601884D01*
X89295649Y-95571991D01*
X89284509Y-95540857D01*
X89276475Y-95508781D01*
X89271623Y-95476071D01*
X89270000Y-95443044D01*
X89270000Y-94566956D01*
X89271623Y-94533929D01*
X89276475Y-94501219D01*
X89284509Y-94469143D01*
X89295649Y-94438009D01*
X89309787Y-94408116D01*
X89326787Y-94379753D01*
X89346485Y-94353193D01*
X89368692Y-94328692D01*
X89393193Y-94306485D01*
X89419753Y-94286787D01*
X89448116Y-94269787D01*
X89478009Y-94255649D01*
X89509143Y-94244509D01*
X89541219Y-94236475D01*
X89573929Y-94231623D01*
X89606956Y-94230000D01*
X90733044Y-94230000D01*
X90766071Y-94231623D01*
X90766071Y-94231623D01*
G37*
D21*
X90170000Y-95005000D03*
D11*
G36*
X90766071Y-92181623D02*
X90798781Y-92186475D01*
X90830857Y-92194509D01*
X90861991Y-92205649D01*
X90891884Y-92219787D01*
X90920247Y-92236787D01*
X90946807Y-92256485D01*
X90971308Y-92278692D01*
X90993515Y-92303193D01*
X91013213Y-92329753D01*
X91030213Y-92358116D01*
X91044351Y-92388009D01*
X91055491Y-92419143D01*
X91063525Y-92451219D01*
X91068377Y-92483929D01*
X91070000Y-92516956D01*
X91070000Y-93393044D01*
X91068377Y-93426071D01*
X91063525Y-93458781D01*
X91055491Y-93490857D01*
X91044351Y-93521991D01*
X91030213Y-93551884D01*
X91013213Y-93580247D01*
X90993515Y-93606807D01*
X90971308Y-93631308D01*
X90946807Y-93653515D01*
X90920247Y-93673213D01*
X90891884Y-93690213D01*
X90861991Y-93704351D01*
X90830857Y-93715491D01*
X90798781Y-93723525D01*
X90766071Y-93728377D01*
X90733044Y-93730000D01*
X89606956Y-93730000D01*
X89573929Y-93728377D01*
X89541219Y-93723525D01*
X89509143Y-93715491D01*
X89478009Y-93704351D01*
X89448116Y-93690213D01*
X89419753Y-93673213D01*
X89393193Y-93653515D01*
X89368692Y-93631308D01*
X89346485Y-93606807D01*
X89326787Y-93580247D01*
X89309787Y-93551884D01*
X89295649Y-93521991D01*
X89284509Y-93490857D01*
X89276475Y-93458781D01*
X89271623Y-93426071D01*
X89270000Y-93393044D01*
X89270000Y-92516956D01*
X89271623Y-92483929D01*
X89276475Y-92451219D01*
X89284509Y-92419143D01*
X89295649Y-92388009D01*
X89309787Y-92358116D01*
X89326787Y-92329753D01*
X89346485Y-92303193D01*
X89368692Y-92278692D01*
X89393193Y-92256485D01*
X89419753Y-92236787D01*
X89448116Y-92219787D01*
X89478009Y-92205649D01*
X89509143Y-92194509D01*
X89541219Y-92186475D01*
X89573929Y-92181623D01*
X89606956Y-92180000D01*
X90733044Y-92180000D01*
X90766071Y-92181623D01*
X90766071Y-92181623D01*
G37*
D21*
X90170000Y-92955000D03*
D11*
G36*
X47706071Y-36566623D02*
X47738781Y-36571475D01*
X47770857Y-36579509D01*
X47801991Y-36590649D01*
X47831884Y-36604787D01*
X47860247Y-36621787D01*
X47886807Y-36641485D01*
X47911308Y-36663692D01*
X47933515Y-36688193D01*
X47953213Y-36714753D01*
X47970213Y-36743116D01*
X47984351Y-36773009D01*
X47995491Y-36804143D01*
X48003525Y-36836219D01*
X48008377Y-36868929D01*
X48010000Y-36901956D01*
X48010000Y-38028044D01*
X48008377Y-38061071D01*
X48003525Y-38093781D01*
X47995491Y-38125857D01*
X47984351Y-38156991D01*
X47970213Y-38186884D01*
X47953213Y-38215247D01*
X47933515Y-38241807D01*
X47911308Y-38266308D01*
X47886807Y-38288515D01*
X47860247Y-38308213D01*
X47831884Y-38325213D01*
X47801991Y-38339351D01*
X47770857Y-38350491D01*
X47738781Y-38358525D01*
X47706071Y-38363377D01*
X47673044Y-38365000D01*
X46796956Y-38365000D01*
X46763929Y-38363377D01*
X46731219Y-38358525D01*
X46699143Y-38350491D01*
X46668009Y-38339351D01*
X46638116Y-38325213D01*
X46609753Y-38308213D01*
X46583193Y-38288515D01*
X46558692Y-38266308D01*
X46536485Y-38241807D01*
X46516787Y-38215247D01*
X46499787Y-38186884D01*
X46485649Y-38156991D01*
X46474509Y-38125857D01*
X46466475Y-38093781D01*
X46461623Y-38061071D01*
X46460000Y-38028044D01*
X46460000Y-36901956D01*
X46461623Y-36868929D01*
X46466475Y-36836219D01*
X46474509Y-36804143D01*
X46485649Y-36773009D01*
X46499787Y-36743116D01*
X46516787Y-36714753D01*
X46536485Y-36688193D01*
X46558692Y-36663692D01*
X46583193Y-36641485D01*
X46609753Y-36621787D01*
X46638116Y-36604787D01*
X46668009Y-36590649D01*
X46699143Y-36579509D01*
X46731219Y-36571475D01*
X46763929Y-36566623D01*
X46796956Y-36565000D01*
X47673044Y-36565000D01*
X47706071Y-36566623D01*
X47706071Y-36566623D01*
G37*
D21*
X47235000Y-37465000D03*
D11*
G36*
X49756071Y-36566623D02*
X49788781Y-36571475D01*
X49820857Y-36579509D01*
X49851991Y-36590649D01*
X49881884Y-36604787D01*
X49910247Y-36621787D01*
X49936807Y-36641485D01*
X49961308Y-36663692D01*
X49983515Y-36688193D01*
X50003213Y-36714753D01*
X50020213Y-36743116D01*
X50034351Y-36773009D01*
X50045491Y-36804143D01*
X50053525Y-36836219D01*
X50058377Y-36868929D01*
X50060000Y-36901956D01*
X50060000Y-38028044D01*
X50058377Y-38061071D01*
X50053525Y-38093781D01*
X50045491Y-38125857D01*
X50034351Y-38156991D01*
X50020213Y-38186884D01*
X50003213Y-38215247D01*
X49983515Y-38241807D01*
X49961308Y-38266308D01*
X49936807Y-38288515D01*
X49910247Y-38308213D01*
X49881884Y-38325213D01*
X49851991Y-38339351D01*
X49820857Y-38350491D01*
X49788781Y-38358525D01*
X49756071Y-38363377D01*
X49723044Y-38365000D01*
X48846956Y-38365000D01*
X48813929Y-38363377D01*
X48781219Y-38358525D01*
X48749143Y-38350491D01*
X48718009Y-38339351D01*
X48688116Y-38325213D01*
X48659753Y-38308213D01*
X48633193Y-38288515D01*
X48608692Y-38266308D01*
X48586485Y-38241807D01*
X48566787Y-38215247D01*
X48549787Y-38186884D01*
X48535649Y-38156991D01*
X48524509Y-38125857D01*
X48516475Y-38093781D01*
X48511623Y-38061071D01*
X48510000Y-38028044D01*
X48510000Y-36901956D01*
X48511623Y-36868929D01*
X48516475Y-36836219D01*
X48524509Y-36804143D01*
X48535649Y-36773009D01*
X48549787Y-36743116D01*
X48566787Y-36714753D01*
X48586485Y-36688193D01*
X48608692Y-36663692D01*
X48633193Y-36641485D01*
X48659753Y-36621787D01*
X48688116Y-36604787D01*
X48718009Y-36590649D01*
X48749143Y-36579509D01*
X48781219Y-36571475D01*
X48813929Y-36566623D01*
X48846956Y-36565000D01*
X49723044Y-36565000D01*
X49756071Y-36566623D01*
X49756071Y-36566623D01*
G37*
D21*
X49285000Y-37465000D03*
D11*
G36*
X48856071Y-57909623D02*
X48888781Y-57914475D01*
X48920857Y-57922509D01*
X48951991Y-57933649D01*
X48981884Y-57947787D01*
X49010247Y-57964787D01*
X49036807Y-57984485D01*
X49061308Y-58006692D01*
X49083515Y-58031193D01*
X49103213Y-58057753D01*
X49120213Y-58086116D01*
X49134351Y-58116009D01*
X49145491Y-58147143D01*
X49153525Y-58179219D01*
X49158377Y-58211929D01*
X49160000Y-58244956D01*
X49160000Y-59121044D01*
X49158377Y-59154071D01*
X49153525Y-59186781D01*
X49145491Y-59218857D01*
X49134351Y-59249991D01*
X49120213Y-59279884D01*
X49103213Y-59308247D01*
X49083515Y-59334807D01*
X49061308Y-59359308D01*
X49036807Y-59381515D01*
X49010247Y-59401213D01*
X48981884Y-59418213D01*
X48951991Y-59432351D01*
X48920857Y-59443491D01*
X48888781Y-59451525D01*
X48856071Y-59456377D01*
X48823044Y-59458000D01*
X47696956Y-59458000D01*
X47663929Y-59456377D01*
X47631219Y-59451525D01*
X47599143Y-59443491D01*
X47568009Y-59432351D01*
X47538116Y-59418213D01*
X47509753Y-59401213D01*
X47483193Y-59381515D01*
X47458692Y-59359308D01*
X47436485Y-59334807D01*
X47416787Y-59308247D01*
X47399787Y-59279884D01*
X47385649Y-59249991D01*
X47374509Y-59218857D01*
X47366475Y-59186781D01*
X47361623Y-59154071D01*
X47360000Y-59121044D01*
X47360000Y-58244956D01*
X47361623Y-58211929D01*
X47366475Y-58179219D01*
X47374509Y-58147143D01*
X47385649Y-58116009D01*
X47399787Y-58086116D01*
X47416787Y-58057753D01*
X47436485Y-58031193D01*
X47458692Y-58006692D01*
X47483193Y-57984485D01*
X47509753Y-57964787D01*
X47538116Y-57947787D01*
X47568009Y-57933649D01*
X47599143Y-57922509D01*
X47631219Y-57914475D01*
X47663929Y-57909623D01*
X47696956Y-57908000D01*
X48823044Y-57908000D01*
X48856071Y-57909623D01*
X48856071Y-57909623D01*
G37*
D21*
X48260000Y-58683000D03*
D11*
G36*
X48856071Y-55859623D02*
X48888781Y-55864475D01*
X48920857Y-55872509D01*
X48951991Y-55883649D01*
X48981884Y-55897787D01*
X49010247Y-55914787D01*
X49036807Y-55934485D01*
X49061308Y-55956692D01*
X49083515Y-55981193D01*
X49103213Y-56007753D01*
X49120213Y-56036116D01*
X49134351Y-56066009D01*
X49145491Y-56097143D01*
X49153525Y-56129219D01*
X49158377Y-56161929D01*
X49160000Y-56194956D01*
X49160000Y-57071044D01*
X49158377Y-57104071D01*
X49153525Y-57136781D01*
X49145491Y-57168857D01*
X49134351Y-57199991D01*
X49120213Y-57229884D01*
X49103213Y-57258247D01*
X49083515Y-57284807D01*
X49061308Y-57309308D01*
X49036807Y-57331515D01*
X49010247Y-57351213D01*
X48981884Y-57368213D01*
X48951991Y-57382351D01*
X48920857Y-57393491D01*
X48888781Y-57401525D01*
X48856071Y-57406377D01*
X48823044Y-57408000D01*
X47696956Y-57408000D01*
X47663929Y-57406377D01*
X47631219Y-57401525D01*
X47599143Y-57393491D01*
X47568009Y-57382351D01*
X47538116Y-57368213D01*
X47509753Y-57351213D01*
X47483193Y-57331515D01*
X47458692Y-57309308D01*
X47436485Y-57284807D01*
X47416787Y-57258247D01*
X47399787Y-57229884D01*
X47385649Y-57199991D01*
X47374509Y-57168857D01*
X47366475Y-57136781D01*
X47361623Y-57104071D01*
X47360000Y-57071044D01*
X47360000Y-56194956D01*
X47361623Y-56161929D01*
X47366475Y-56129219D01*
X47374509Y-56097143D01*
X47385649Y-56066009D01*
X47399787Y-56036116D01*
X47416787Y-56007753D01*
X47436485Y-55981193D01*
X47458692Y-55956692D01*
X47483193Y-55934485D01*
X47509753Y-55914787D01*
X47538116Y-55897787D01*
X47568009Y-55883649D01*
X47599143Y-55872509D01*
X47631219Y-55864475D01*
X47663929Y-55859623D01*
X47696956Y-55858000D01*
X48823044Y-55858000D01*
X48856071Y-55859623D01*
X48856071Y-55859623D01*
G37*
D21*
X48260000Y-56633000D03*
D11*
G36*
X116921071Y-76588765D02*
X116953781Y-76593617D01*
X116985857Y-76601651D01*
X117016991Y-76612791D01*
X117046884Y-76626929D01*
X117075247Y-76643929D01*
X117101807Y-76663627D01*
X117126308Y-76685834D01*
X117148515Y-76710335D01*
X117168213Y-76736895D01*
X117185213Y-76765258D01*
X117199351Y-76795151D01*
X117210491Y-76826285D01*
X117218525Y-76858361D01*
X117223377Y-76891071D01*
X117225000Y-76924098D01*
X117225000Y-78050186D01*
X117223377Y-78083213D01*
X117218525Y-78115923D01*
X117210491Y-78147999D01*
X117199351Y-78179133D01*
X117185213Y-78209026D01*
X117168213Y-78237389D01*
X117148515Y-78263949D01*
X117126308Y-78288450D01*
X117101807Y-78310657D01*
X117075247Y-78330355D01*
X117046884Y-78347355D01*
X117016991Y-78361493D01*
X116985857Y-78372633D01*
X116953781Y-78380667D01*
X116921071Y-78385519D01*
X116888044Y-78387142D01*
X116011956Y-78387142D01*
X115978929Y-78385519D01*
X115946219Y-78380667D01*
X115914143Y-78372633D01*
X115883009Y-78361493D01*
X115853116Y-78347355D01*
X115824753Y-78330355D01*
X115798193Y-78310657D01*
X115773692Y-78288450D01*
X115751485Y-78263949D01*
X115731787Y-78237389D01*
X115714787Y-78209026D01*
X115700649Y-78179133D01*
X115689509Y-78147999D01*
X115681475Y-78115923D01*
X115676623Y-78083213D01*
X115675000Y-78050186D01*
X115675000Y-76924098D01*
X115676623Y-76891071D01*
X115681475Y-76858361D01*
X115689509Y-76826285D01*
X115700649Y-76795151D01*
X115714787Y-76765258D01*
X115731787Y-76736895D01*
X115751485Y-76710335D01*
X115773692Y-76685834D01*
X115798193Y-76663627D01*
X115824753Y-76643929D01*
X115853116Y-76626929D01*
X115883009Y-76612791D01*
X115914143Y-76601651D01*
X115946219Y-76593617D01*
X115978929Y-76588765D01*
X116011956Y-76587142D01*
X116888044Y-76587142D01*
X116921071Y-76588765D01*
X116921071Y-76588765D01*
G37*
D21*
X116450000Y-77487142D03*
D11*
G36*
X118971071Y-76588765D02*
X119003781Y-76593617D01*
X119035857Y-76601651D01*
X119066991Y-76612791D01*
X119096884Y-76626929D01*
X119125247Y-76643929D01*
X119151807Y-76663627D01*
X119176308Y-76685834D01*
X119198515Y-76710335D01*
X119218213Y-76736895D01*
X119235213Y-76765258D01*
X119249351Y-76795151D01*
X119260491Y-76826285D01*
X119268525Y-76858361D01*
X119273377Y-76891071D01*
X119275000Y-76924098D01*
X119275000Y-78050186D01*
X119273377Y-78083213D01*
X119268525Y-78115923D01*
X119260491Y-78147999D01*
X119249351Y-78179133D01*
X119235213Y-78209026D01*
X119218213Y-78237389D01*
X119198515Y-78263949D01*
X119176308Y-78288450D01*
X119151807Y-78310657D01*
X119125247Y-78330355D01*
X119096884Y-78347355D01*
X119066991Y-78361493D01*
X119035857Y-78372633D01*
X119003781Y-78380667D01*
X118971071Y-78385519D01*
X118938044Y-78387142D01*
X118061956Y-78387142D01*
X118028929Y-78385519D01*
X117996219Y-78380667D01*
X117964143Y-78372633D01*
X117933009Y-78361493D01*
X117903116Y-78347355D01*
X117874753Y-78330355D01*
X117848193Y-78310657D01*
X117823692Y-78288450D01*
X117801485Y-78263949D01*
X117781787Y-78237389D01*
X117764787Y-78209026D01*
X117750649Y-78179133D01*
X117739509Y-78147999D01*
X117731475Y-78115923D01*
X117726623Y-78083213D01*
X117725000Y-78050186D01*
X117725000Y-76924098D01*
X117726623Y-76891071D01*
X117731475Y-76858361D01*
X117739509Y-76826285D01*
X117750649Y-76795151D01*
X117764787Y-76765258D01*
X117781787Y-76736895D01*
X117801485Y-76710335D01*
X117823692Y-76685834D01*
X117848193Y-76663627D01*
X117874753Y-76643929D01*
X117903116Y-76626929D01*
X117933009Y-76612791D01*
X117964143Y-76601651D01*
X117996219Y-76593617D01*
X118028929Y-76588765D01*
X118061956Y-76587142D01*
X118938044Y-76587142D01*
X118971071Y-76588765D01*
X118971071Y-76588765D01*
G37*
D21*
X118500000Y-77487142D03*
D11*
G36*
X118971071Y-71503051D02*
X119003781Y-71507903D01*
X119035857Y-71515937D01*
X119066991Y-71527077D01*
X119096884Y-71541215D01*
X119125247Y-71558215D01*
X119151807Y-71577913D01*
X119176308Y-71600120D01*
X119198515Y-71624621D01*
X119218213Y-71651181D01*
X119235213Y-71679544D01*
X119249351Y-71709437D01*
X119260491Y-71740571D01*
X119268525Y-71772647D01*
X119273377Y-71805357D01*
X119275000Y-71838384D01*
X119275000Y-72964472D01*
X119273377Y-72997499D01*
X119268525Y-73030209D01*
X119260491Y-73062285D01*
X119249351Y-73093419D01*
X119235213Y-73123312D01*
X119218213Y-73151675D01*
X119198515Y-73178235D01*
X119176308Y-73202736D01*
X119151807Y-73224943D01*
X119125247Y-73244641D01*
X119096884Y-73261641D01*
X119066991Y-73275779D01*
X119035857Y-73286919D01*
X119003781Y-73294953D01*
X118971071Y-73299805D01*
X118938044Y-73301428D01*
X118061956Y-73301428D01*
X118028929Y-73299805D01*
X117996219Y-73294953D01*
X117964143Y-73286919D01*
X117933009Y-73275779D01*
X117903116Y-73261641D01*
X117874753Y-73244641D01*
X117848193Y-73224943D01*
X117823692Y-73202736D01*
X117801485Y-73178235D01*
X117781787Y-73151675D01*
X117764787Y-73123312D01*
X117750649Y-73093419D01*
X117739509Y-73062285D01*
X117731475Y-73030209D01*
X117726623Y-72997499D01*
X117725000Y-72964472D01*
X117725000Y-71838384D01*
X117726623Y-71805357D01*
X117731475Y-71772647D01*
X117739509Y-71740571D01*
X117750649Y-71709437D01*
X117764787Y-71679544D01*
X117781787Y-71651181D01*
X117801485Y-71624621D01*
X117823692Y-71600120D01*
X117848193Y-71577913D01*
X117874753Y-71558215D01*
X117903116Y-71541215D01*
X117933009Y-71527077D01*
X117964143Y-71515937D01*
X117996219Y-71507903D01*
X118028929Y-71503051D01*
X118061956Y-71501428D01*
X118938044Y-71501428D01*
X118971071Y-71503051D01*
X118971071Y-71503051D01*
G37*
D21*
X118500000Y-72401428D03*
D11*
G36*
X116921071Y-71503051D02*
X116953781Y-71507903D01*
X116985857Y-71515937D01*
X117016991Y-71527077D01*
X117046884Y-71541215D01*
X117075247Y-71558215D01*
X117101807Y-71577913D01*
X117126308Y-71600120D01*
X117148515Y-71624621D01*
X117168213Y-71651181D01*
X117185213Y-71679544D01*
X117199351Y-71709437D01*
X117210491Y-71740571D01*
X117218525Y-71772647D01*
X117223377Y-71805357D01*
X117225000Y-71838384D01*
X117225000Y-72964472D01*
X117223377Y-72997499D01*
X117218525Y-73030209D01*
X117210491Y-73062285D01*
X117199351Y-73093419D01*
X117185213Y-73123312D01*
X117168213Y-73151675D01*
X117148515Y-73178235D01*
X117126308Y-73202736D01*
X117101807Y-73224943D01*
X117075247Y-73244641D01*
X117046884Y-73261641D01*
X117016991Y-73275779D01*
X116985857Y-73286919D01*
X116953781Y-73294953D01*
X116921071Y-73299805D01*
X116888044Y-73301428D01*
X116011956Y-73301428D01*
X115978929Y-73299805D01*
X115946219Y-73294953D01*
X115914143Y-73286919D01*
X115883009Y-73275779D01*
X115853116Y-73261641D01*
X115824753Y-73244641D01*
X115798193Y-73224943D01*
X115773692Y-73202736D01*
X115751485Y-73178235D01*
X115731787Y-73151675D01*
X115714787Y-73123312D01*
X115700649Y-73093419D01*
X115689509Y-73062285D01*
X115681475Y-73030209D01*
X115676623Y-72997499D01*
X115675000Y-72964472D01*
X115675000Y-71838384D01*
X115676623Y-71805357D01*
X115681475Y-71772647D01*
X115689509Y-71740571D01*
X115700649Y-71709437D01*
X115714787Y-71679544D01*
X115731787Y-71651181D01*
X115751485Y-71624621D01*
X115773692Y-71600120D01*
X115798193Y-71577913D01*
X115824753Y-71558215D01*
X115853116Y-71541215D01*
X115883009Y-71527077D01*
X115914143Y-71515937D01*
X115946219Y-71507903D01*
X115978929Y-71503051D01*
X116011956Y-71501428D01*
X116888044Y-71501428D01*
X116921071Y-71503051D01*
X116921071Y-71503051D01*
G37*
D21*
X116450000Y-72401428D03*
D11*
G36*
X118971071Y-66417337D02*
X119003781Y-66422189D01*
X119035857Y-66430223D01*
X119066991Y-66441363D01*
X119096884Y-66455501D01*
X119125247Y-66472501D01*
X119151807Y-66492199D01*
X119176308Y-66514406D01*
X119198515Y-66538907D01*
X119218213Y-66565467D01*
X119235213Y-66593830D01*
X119249351Y-66623723D01*
X119260491Y-66654857D01*
X119268525Y-66686933D01*
X119273377Y-66719643D01*
X119275000Y-66752670D01*
X119275000Y-67878758D01*
X119273377Y-67911785D01*
X119268525Y-67944495D01*
X119260491Y-67976571D01*
X119249351Y-68007705D01*
X119235213Y-68037598D01*
X119218213Y-68065961D01*
X119198515Y-68092521D01*
X119176308Y-68117022D01*
X119151807Y-68139229D01*
X119125247Y-68158927D01*
X119096884Y-68175927D01*
X119066991Y-68190065D01*
X119035857Y-68201205D01*
X119003781Y-68209239D01*
X118971071Y-68214091D01*
X118938044Y-68215714D01*
X118061956Y-68215714D01*
X118028929Y-68214091D01*
X117996219Y-68209239D01*
X117964143Y-68201205D01*
X117933009Y-68190065D01*
X117903116Y-68175927D01*
X117874753Y-68158927D01*
X117848193Y-68139229D01*
X117823692Y-68117022D01*
X117801485Y-68092521D01*
X117781787Y-68065961D01*
X117764787Y-68037598D01*
X117750649Y-68007705D01*
X117739509Y-67976571D01*
X117731475Y-67944495D01*
X117726623Y-67911785D01*
X117725000Y-67878758D01*
X117725000Y-66752670D01*
X117726623Y-66719643D01*
X117731475Y-66686933D01*
X117739509Y-66654857D01*
X117750649Y-66623723D01*
X117764787Y-66593830D01*
X117781787Y-66565467D01*
X117801485Y-66538907D01*
X117823692Y-66514406D01*
X117848193Y-66492199D01*
X117874753Y-66472501D01*
X117903116Y-66455501D01*
X117933009Y-66441363D01*
X117964143Y-66430223D01*
X117996219Y-66422189D01*
X118028929Y-66417337D01*
X118061956Y-66415714D01*
X118938044Y-66415714D01*
X118971071Y-66417337D01*
X118971071Y-66417337D01*
G37*
D21*
X118500000Y-67315714D03*
D11*
G36*
X116921071Y-66417337D02*
X116953781Y-66422189D01*
X116985857Y-66430223D01*
X117016991Y-66441363D01*
X117046884Y-66455501D01*
X117075247Y-66472501D01*
X117101807Y-66492199D01*
X117126308Y-66514406D01*
X117148515Y-66538907D01*
X117168213Y-66565467D01*
X117185213Y-66593830D01*
X117199351Y-66623723D01*
X117210491Y-66654857D01*
X117218525Y-66686933D01*
X117223377Y-66719643D01*
X117225000Y-66752670D01*
X117225000Y-67878758D01*
X117223377Y-67911785D01*
X117218525Y-67944495D01*
X117210491Y-67976571D01*
X117199351Y-68007705D01*
X117185213Y-68037598D01*
X117168213Y-68065961D01*
X117148515Y-68092521D01*
X117126308Y-68117022D01*
X117101807Y-68139229D01*
X117075247Y-68158927D01*
X117046884Y-68175927D01*
X117016991Y-68190065D01*
X116985857Y-68201205D01*
X116953781Y-68209239D01*
X116921071Y-68214091D01*
X116888044Y-68215714D01*
X116011956Y-68215714D01*
X115978929Y-68214091D01*
X115946219Y-68209239D01*
X115914143Y-68201205D01*
X115883009Y-68190065D01*
X115853116Y-68175927D01*
X115824753Y-68158927D01*
X115798193Y-68139229D01*
X115773692Y-68117022D01*
X115751485Y-68092521D01*
X115731787Y-68065961D01*
X115714787Y-68037598D01*
X115700649Y-68007705D01*
X115689509Y-67976571D01*
X115681475Y-67944495D01*
X115676623Y-67911785D01*
X115675000Y-67878758D01*
X115675000Y-66752670D01*
X115676623Y-66719643D01*
X115681475Y-66686933D01*
X115689509Y-66654857D01*
X115700649Y-66623723D01*
X115714787Y-66593830D01*
X115731787Y-66565467D01*
X115751485Y-66538907D01*
X115773692Y-66514406D01*
X115798193Y-66492199D01*
X115824753Y-66472501D01*
X115853116Y-66455501D01*
X115883009Y-66441363D01*
X115914143Y-66430223D01*
X115946219Y-66422189D01*
X115978929Y-66417337D01*
X116011956Y-66415714D01*
X116888044Y-66415714D01*
X116921071Y-66417337D01*
X116921071Y-66417337D01*
G37*
D21*
X116450000Y-67315714D03*
D11*
G36*
X116921071Y-61331623D02*
X116953781Y-61336475D01*
X116985857Y-61344509D01*
X117016991Y-61355649D01*
X117046884Y-61369787D01*
X117075247Y-61386787D01*
X117101807Y-61406485D01*
X117126308Y-61428692D01*
X117148515Y-61453193D01*
X117168213Y-61479753D01*
X117185213Y-61508116D01*
X117199351Y-61538009D01*
X117210491Y-61569143D01*
X117218525Y-61601219D01*
X117223377Y-61633929D01*
X117225000Y-61666956D01*
X117225000Y-62793044D01*
X117223377Y-62826071D01*
X117218525Y-62858781D01*
X117210491Y-62890857D01*
X117199351Y-62921991D01*
X117185213Y-62951884D01*
X117168213Y-62980247D01*
X117148515Y-63006807D01*
X117126308Y-63031308D01*
X117101807Y-63053515D01*
X117075247Y-63073213D01*
X117046884Y-63090213D01*
X117016991Y-63104351D01*
X116985857Y-63115491D01*
X116953781Y-63123525D01*
X116921071Y-63128377D01*
X116888044Y-63130000D01*
X116011956Y-63130000D01*
X115978929Y-63128377D01*
X115946219Y-63123525D01*
X115914143Y-63115491D01*
X115883009Y-63104351D01*
X115853116Y-63090213D01*
X115824753Y-63073213D01*
X115798193Y-63053515D01*
X115773692Y-63031308D01*
X115751485Y-63006807D01*
X115731787Y-62980247D01*
X115714787Y-62951884D01*
X115700649Y-62921991D01*
X115689509Y-62890857D01*
X115681475Y-62858781D01*
X115676623Y-62826071D01*
X115675000Y-62793044D01*
X115675000Y-61666956D01*
X115676623Y-61633929D01*
X115681475Y-61601219D01*
X115689509Y-61569143D01*
X115700649Y-61538009D01*
X115714787Y-61508116D01*
X115731787Y-61479753D01*
X115751485Y-61453193D01*
X115773692Y-61428692D01*
X115798193Y-61406485D01*
X115824753Y-61386787D01*
X115853116Y-61369787D01*
X115883009Y-61355649D01*
X115914143Y-61344509D01*
X115946219Y-61336475D01*
X115978929Y-61331623D01*
X116011956Y-61330000D01*
X116888044Y-61330000D01*
X116921071Y-61331623D01*
X116921071Y-61331623D01*
G37*
D21*
X116450000Y-62230000D03*
D11*
G36*
X118971071Y-61331623D02*
X119003781Y-61336475D01*
X119035857Y-61344509D01*
X119066991Y-61355649D01*
X119096884Y-61369787D01*
X119125247Y-61386787D01*
X119151807Y-61406485D01*
X119176308Y-61428692D01*
X119198515Y-61453193D01*
X119218213Y-61479753D01*
X119235213Y-61508116D01*
X119249351Y-61538009D01*
X119260491Y-61569143D01*
X119268525Y-61601219D01*
X119273377Y-61633929D01*
X119275000Y-61666956D01*
X119275000Y-62793044D01*
X119273377Y-62826071D01*
X119268525Y-62858781D01*
X119260491Y-62890857D01*
X119249351Y-62921991D01*
X119235213Y-62951884D01*
X119218213Y-62980247D01*
X119198515Y-63006807D01*
X119176308Y-63031308D01*
X119151807Y-63053515D01*
X119125247Y-63073213D01*
X119096884Y-63090213D01*
X119066991Y-63104351D01*
X119035857Y-63115491D01*
X119003781Y-63123525D01*
X118971071Y-63128377D01*
X118938044Y-63130000D01*
X118061956Y-63130000D01*
X118028929Y-63128377D01*
X117996219Y-63123525D01*
X117964143Y-63115491D01*
X117933009Y-63104351D01*
X117903116Y-63090213D01*
X117874753Y-63073213D01*
X117848193Y-63053515D01*
X117823692Y-63031308D01*
X117801485Y-63006807D01*
X117781787Y-62980247D01*
X117764787Y-62951884D01*
X117750649Y-62921991D01*
X117739509Y-62890857D01*
X117731475Y-62858781D01*
X117726623Y-62826071D01*
X117725000Y-62793044D01*
X117725000Y-61666956D01*
X117726623Y-61633929D01*
X117731475Y-61601219D01*
X117739509Y-61569143D01*
X117750649Y-61538009D01*
X117764787Y-61508116D01*
X117781787Y-61479753D01*
X117801485Y-61453193D01*
X117823692Y-61428692D01*
X117848193Y-61406485D01*
X117874753Y-61386787D01*
X117903116Y-61369787D01*
X117933009Y-61355649D01*
X117964143Y-61344509D01*
X117996219Y-61336475D01*
X118028929Y-61331623D01*
X118061956Y-61330000D01*
X118938044Y-61330000D01*
X118971071Y-61331623D01*
X118971071Y-61331623D01*
G37*
D21*
X118500000Y-62230000D03*
D11*
G36*
X116921071Y-53711623D02*
X116953781Y-53716475D01*
X116985857Y-53724509D01*
X117016991Y-53735649D01*
X117046884Y-53749787D01*
X117075247Y-53766787D01*
X117101807Y-53786485D01*
X117126308Y-53808692D01*
X117148515Y-53833193D01*
X117168213Y-53859753D01*
X117185213Y-53888116D01*
X117199351Y-53918009D01*
X117210491Y-53949143D01*
X117218525Y-53981219D01*
X117223377Y-54013929D01*
X117225000Y-54046956D01*
X117225000Y-55173044D01*
X117223377Y-55206071D01*
X117218525Y-55238781D01*
X117210491Y-55270857D01*
X117199351Y-55301991D01*
X117185213Y-55331884D01*
X117168213Y-55360247D01*
X117148515Y-55386807D01*
X117126308Y-55411308D01*
X117101807Y-55433515D01*
X117075247Y-55453213D01*
X117046884Y-55470213D01*
X117016991Y-55484351D01*
X116985857Y-55495491D01*
X116953781Y-55503525D01*
X116921071Y-55508377D01*
X116888044Y-55510000D01*
X116011956Y-55510000D01*
X115978929Y-55508377D01*
X115946219Y-55503525D01*
X115914143Y-55495491D01*
X115883009Y-55484351D01*
X115853116Y-55470213D01*
X115824753Y-55453213D01*
X115798193Y-55433515D01*
X115773692Y-55411308D01*
X115751485Y-55386807D01*
X115731787Y-55360247D01*
X115714787Y-55331884D01*
X115700649Y-55301991D01*
X115689509Y-55270857D01*
X115681475Y-55238781D01*
X115676623Y-55206071D01*
X115675000Y-55173044D01*
X115675000Y-54046956D01*
X115676623Y-54013929D01*
X115681475Y-53981219D01*
X115689509Y-53949143D01*
X115700649Y-53918009D01*
X115714787Y-53888116D01*
X115731787Y-53859753D01*
X115751485Y-53833193D01*
X115773692Y-53808692D01*
X115798193Y-53786485D01*
X115824753Y-53766787D01*
X115853116Y-53749787D01*
X115883009Y-53735649D01*
X115914143Y-53724509D01*
X115946219Y-53716475D01*
X115978929Y-53711623D01*
X116011956Y-53710000D01*
X116888044Y-53710000D01*
X116921071Y-53711623D01*
X116921071Y-53711623D01*
G37*
D21*
X116450000Y-54610000D03*
D11*
G36*
X118971071Y-53711623D02*
X119003781Y-53716475D01*
X119035857Y-53724509D01*
X119066991Y-53735649D01*
X119096884Y-53749787D01*
X119125247Y-53766787D01*
X119151807Y-53786485D01*
X119176308Y-53808692D01*
X119198515Y-53833193D01*
X119218213Y-53859753D01*
X119235213Y-53888116D01*
X119249351Y-53918009D01*
X119260491Y-53949143D01*
X119268525Y-53981219D01*
X119273377Y-54013929D01*
X119275000Y-54046956D01*
X119275000Y-55173044D01*
X119273377Y-55206071D01*
X119268525Y-55238781D01*
X119260491Y-55270857D01*
X119249351Y-55301991D01*
X119235213Y-55331884D01*
X119218213Y-55360247D01*
X119198515Y-55386807D01*
X119176308Y-55411308D01*
X119151807Y-55433515D01*
X119125247Y-55453213D01*
X119096884Y-55470213D01*
X119066991Y-55484351D01*
X119035857Y-55495491D01*
X119003781Y-55503525D01*
X118971071Y-55508377D01*
X118938044Y-55510000D01*
X118061956Y-55510000D01*
X118028929Y-55508377D01*
X117996219Y-55503525D01*
X117964143Y-55495491D01*
X117933009Y-55484351D01*
X117903116Y-55470213D01*
X117874753Y-55453213D01*
X117848193Y-55433515D01*
X117823692Y-55411308D01*
X117801485Y-55386807D01*
X117781787Y-55360247D01*
X117764787Y-55331884D01*
X117750649Y-55301991D01*
X117739509Y-55270857D01*
X117731475Y-55238781D01*
X117726623Y-55206071D01*
X117725000Y-55173044D01*
X117725000Y-54046956D01*
X117726623Y-54013929D01*
X117731475Y-53981219D01*
X117739509Y-53949143D01*
X117750649Y-53918009D01*
X117764787Y-53888116D01*
X117781787Y-53859753D01*
X117801485Y-53833193D01*
X117823692Y-53808692D01*
X117848193Y-53786485D01*
X117874753Y-53766787D01*
X117903116Y-53749787D01*
X117933009Y-53735649D01*
X117964143Y-53724509D01*
X117996219Y-53716475D01*
X118028929Y-53711623D01*
X118061956Y-53710000D01*
X118938044Y-53710000D01*
X118971071Y-53711623D01*
X118971071Y-53711623D01*
G37*
D21*
X118500000Y-54610000D03*
D11*
G36*
X116921071Y-48631623D02*
X116953781Y-48636475D01*
X116985857Y-48644509D01*
X117016991Y-48655649D01*
X117046884Y-48669787D01*
X117075247Y-48686787D01*
X117101807Y-48706485D01*
X117126308Y-48728692D01*
X117148515Y-48753193D01*
X117168213Y-48779753D01*
X117185213Y-48808116D01*
X117199351Y-48838009D01*
X117210491Y-48869143D01*
X117218525Y-48901219D01*
X117223377Y-48933929D01*
X117225000Y-48966956D01*
X117225000Y-50093044D01*
X117223377Y-50126071D01*
X117218525Y-50158781D01*
X117210491Y-50190857D01*
X117199351Y-50221991D01*
X117185213Y-50251884D01*
X117168213Y-50280247D01*
X117148515Y-50306807D01*
X117126308Y-50331308D01*
X117101807Y-50353515D01*
X117075247Y-50373213D01*
X117046884Y-50390213D01*
X117016991Y-50404351D01*
X116985857Y-50415491D01*
X116953781Y-50423525D01*
X116921071Y-50428377D01*
X116888044Y-50430000D01*
X116011956Y-50430000D01*
X115978929Y-50428377D01*
X115946219Y-50423525D01*
X115914143Y-50415491D01*
X115883009Y-50404351D01*
X115853116Y-50390213D01*
X115824753Y-50373213D01*
X115798193Y-50353515D01*
X115773692Y-50331308D01*
X115751485Y-50306807D01*
X115731787Y-50280247D01*
X115714787Y-50251884D01*
X115700649Y-50221991D01*
X115689509Y-50190857D01*
X115681475Y-50158781D01*
X115676623Y-50126071D01*
X115675000Y-50093044D01*
X115675000Y-48966956D01*
X115676623Y-48933929D01*
X115681475Y-48901219D01*
X115689509Y-48869143D01*
X115700649Y-48838009D01*
X115714787Y-48808116D01*
X115731787Y-48779753D01*
X115751485Y-48753193D01*
X115773692Y-48728692D01*
X115798193Y-48706485D01*
X115824753Y-48686787D01*
X115853116Y-48669787D01*
X115883009Y-48655649D01*
X115914143Y-48644509D01*
X115946219Y-48636475D01*
X115978929Y-48631623D01*
X116011956Y-48630000D01*
X116888044Y-48630000D01*
X116921071Y-48631623D01*
X116921071Y-48631623D01*
G37*
D21*
X116450000Y-49530000D03*
D11*
G36*
X118971071Y-48631623D02*
X119003781Y-48636475D01*
X119035857Y-48644509D01*
X119066991Y-48655649D01*
X119096884Y-48669787D01*
X119125247Y-48686787D01*
X119151807Y-48706485D01*
X119176308Y-48728692D01*
X119198515Y-48753193D01*
X119218213Y-48779753D01*
X119235213Y-48808116D01*
X119249351Y-48838009D01*
X119260491Y-48869143D01*
X119268525Y-48901219D01*
X119273377Y-48933929D01*
X119275000Y-48966956D01*
X119275000Y-50093044D01*
X119273377Y-50126071D01*
X119268525Y-50158781D01*
X119260491Y-50190857D01*
X119249351Y-50221991D01*
X119235213Y-50251884D01*
X119218213Y-50280247D01*
X119198515Y-50306807D01*
X119176308Y-50331308D01*
X119151807Y-50353515D01*
X119125247Y-50373213D01*
X119096884Y-50390213D01*
X119066991Y-50404351D01*
X119035857Y-50415491D01*
X119003781Y-50423525D01*
X118971071Y-50428377D01*
X118938044Y-50430000D01*
X118061956Y-50430000D01*
X118028929Y-50428377D01*
X117996219Y-50423525D01*
X117964143Y-50415491D01*
X117933009Y-50404351D01*
X117903116Y-50390213D01*
X117874753Y-50373213D01*
X117848193Y-50353515D01*
X117823692Y-50331308D01*
X117801485Y-50306807D01*
X117781787Y-50280247D01*
X117764787Y-50251884D01*
X117750649Y-50221991D01*
X117739509Y-50190857D01*
X117731475Y-50158781D01*
X117726623Y-50126071D01*
X117725000Y-50093044D01*
X117725000Y-48966956D01*
X117726623Y-48933929D01*
X117731475Y-48901219D01*
X117739509Y-48869143D01*
X117750649Y-48838009D01*
X117764787Y-48808116D01*
X117781787Y-48779753D01*
X117801485Y-48753193D01*
X117823692Y-48728692D01*
X117848193Y-48706485D01*
X117874753Y-48686787D01*
X117903116Y-48669787D01*
X117933009Y-48655649D01*
X117964143Y-48644509D01*
X117996219Y-48636475D01*
X118028929Y-48631623D01*
X118061956Y-48630000D01*
X118938044Y-48630000D01*
X118971071Y-48631623D01*
X118971071Y-48631623D01*
G37*
D21*
X118500000Y-49530000D03*
D11*
G36*
X115796071Y-31486623D02*
X115828781Y-31491475D01*
X115860857Y-31499509D01*
X115891991Y-31510649D01*
X115921884Y-31524787D01*
X115950247Y-31541787D01*
X115976807Y-31561485D01*
X116001308Y-31583692D01*
X116023515Y-31608193D01*
X116043213Y-31634753D01*
X116060213Y-31663116D01*
X116074351Y-31693009D01*
X116085491Y-31724143D01*
X116093525Y-31756219D01*
X116098377Y-31788929D01*
X116100000Y-31821956D01*
X116100000Y-32948044D01*
X116098377Y-32981071D01*
X116093525Y-33013781D01*
X116085491Y-33045857D01*
X116074351Y-33076991D01*
X116060213Y-33106884D01*
X116043213Y-33135247D01*
X116023515Y-33161807D01*
X116001308Y-33186308D01*
X115976807Y-33208515D01*
X115950247Y-33228213D01*
X115921884Y-33245213D01*
X115891991Y-33259351D01*
X115860857Y-33270491D01*
X115828781Y-33278525D01*
X115796071Y-33283377D01*
X115763044Y-33285000D01*
X114886956Y-33285000D01*
X114853929Y-33283377D01*
X114821219Y-33278525D01*
X114789143Y-33270491D01*
X114758009Y-33259351D01*
X114728116Y-33245213D01*
X114699753Y-33228213D01*
X114673193Y-33208515D01*
X114648692Y-33186308D01*
X114626485Y-33161807D01*
X114606787Y-33135247D01*
X114589787Y-33106884D01*
X114575649Y-33076991D01*
X114564509Y-33045857D01*
X114556475Y-33013781D01*
X114551623Y-32981071D01*
X114550000Y-32948044D01*
X114550000Y-31821956D01*
X114551623Y-31788929D01*
X114556475Y-31756219D01*
X114564509Y-31724143D01*
X114575649Y-31693009D01*
X114589787Y-31663116D01*
X114606787Y-31634753D01*
X114626485Y-31608193D01*
X114648692Y-31583692D01*
X114673193Y-31561485D01*
X114699753Y-31541787D01*
X114728116Y-31524787D01*
X114758009Y-31510649D01*
X114789143Y-31499509D01*
X114821219Y-31491475D01*
X114853929Y-31486623D01*
X114886956Y-31485000D01*
X115763044Y-31485000D01*
X115796071Y-31486623D01*
X115796071Y-31486623D01*
G37*
D21*
X115325000Y-32385000D03*
D11*
G36*
X113746071Y-31486623D02*
X113778781Y-31491475D01*
X113810857Y-31499509D01*
X113841991Y-31510649D01*
X113871884Y-31524787D01*
X113900247Y-31541787D01*
X113926807Y-31561485D01*
X113951308Y-31583692D01*
X113973515Y-31608193D01*
X113993213Y-31634753D01*
X114010213Y-31663116D01*
X114024351Y-31693009D01*
X114035491Y-31724143D01*
X114043525Y-31756219D01*
X114048377Y-31788929D01*
X114050000Y-31821956D01*
X114050000Y-32948044D01*
X114048377Y-32981071D01*
X114043525Y-33013781D01*
X114035491Y-33045857D01*
X114024351Y-33076991D01*
X114010213Y-33106884D01*
X113993213Y-33135247D01*
X113973515Y-33161807D01*
X113951308Y-33186308D01*
X113926807Y-33208515D01*
X113900247Y-33228213D01*
X113871884Y-33245213D01*
X113841991Y-33259351D01*
X113810857Y-33270491D01*
X113778781Y-33278525D01*
X113746071Y-33283377D01*
X113713044Y-33285000D01*
X112836956Y-33285000D01*
X112803929Y-33283377D01*
X112771219Y-33278525D01*
X112739143Y-33270491D01*
X112708009Y-33259351D01*
X112678116Y-33245213D01*
X112649753Y-33228213D01*
X112623193Y-33208515D01*
X112598692Y-33186308D01*
X112576485Y-33161807D01*
X112556787Y-33135247D01*
X112539787Y-33106884D01*
X112525649Y-33076991D01*
X112514509Y-33045857D01*
X112506475Y-33013781D01*
X112501623Y-32981071D01*
X112500000Y-32948044D01*
X112500000Y-31821956D01*
X112501623Y-31788929D01*
X112506475Y-31756219D01*
X112514509Y-31724143D01*
X112525649Y-31693009D01*
X112539787Y-31663116D01*
X112556787Y-31634753D01*
X112576485Y-31608193D01*
X112598692Y-31583692D01*
X112623193Y-31561485D01*
X112649753Y-31541787D01*
X112678116Y-31524787D01*
X112708009Y-31510649D01*
X112739143Y-31499509D01*
X112771219Y-31491475D01*
X112803929Y-31486623D01*
X112836956Y-31485000D01*
X113713044Y-31485000D01*
X113746071Y-31486623D01*
X113746071Y-31486623D01*
G37*
D21*
X113275000Y-32385000D03*
D23*
X30480000Y-50720000D03*
X30480000Y-48220000D03*
X30480000Y-45720000D03*
X30480000Y-55880000D03*
X30480000Y-58380000D03*
X30480000Y-60880000D03*
D27*
X102235000Y-95885000D03*
D28*
X94615000Y-93345000D03*
X102235000Y-93345000D03*
X94615000Y-95885000D03*
D29*
X41672000Y-71542000D03*
X42172000Y-71542000D03*
X42672000Y-71542000D03*
X43172000Y-71542000D03*
X43672000Y-71542000D03*
X43672000Y-67142000D03*
X43172000Y-67142000D03*
X42672000Y-67142000D03*
X42172000Y-67142000D03*
X41672000Y-67142000D03*
D15*
X27305000Y-27305000D03*
X27305000Y-32385000D03*
X34925000Y-27305000D03*
X34925000Y-32385000D03*
X27305000Y-65405000D03*
X27305000Y-70485000D03*
X34925000Y-65405000D03*
X34925000Y-70485000D03*
X34925000Y-78740000D03*
X34925000Y-73660000D03*
X27305000Y-78740000D03*
X27305000Y-73660000D03*
X27305000Y-82550000D03*
X27305000Y-87630000D03*
X34925000Y-82550000D03*
X34925000Y-87630000D03*
X27305000Y-91440000D03*
X27305000Y-96520000D03*
X34925000Y-91440000D03*
X34925000Y-96520000D03*
D25*
X121285000Y-37465000D03*
D24*
X121285000Y-34925000D03*
X121285000Y-32385000D03*
X121285000Y-29845000D03*
X121285000Y-27305000D03*
D19*
X59482056Y-30052944D03*
X57785000Y-29350000D03*
X56087944Y-30052944D03*
X55385000Y-31750000D03*
X56087944Y-33447056D03*
X57785000Y-34150000D03*
X59482056Y-33447056D03*
X60185000Y-31750000D03*
D18*
X57785000Y-31750000D03*
D11*
G36*
X71716071Y-116701623D02*
X71748781Y-116706475D01*
X71780857Y-116714509D01*
X71811991Y-116725649D01*
X71841884Y-116739787D01*
X71870247Y-116756787D01*
X71896807Y-116776485D01*
X71921308Y-116798692D01*
X71943515Y-116823193D01*
X71963213Y-116849753D01*
X71980213Y-116878116D01*
X71994351Y-116908009D01*
X72005491Y-116939143D01*
X72013525Y-116971219D01*
X72018377Y-117003929D01*
X72020000Y-117036956D01*
X72020000Y-117913044D01*
X72018377Y-117946071D01*
X72013525Y-117978781D01*
X72005491Y-118010857D01*
X71994351Y-118041991D01*
X71980213Y-118071884D01*
X71963213Y-118100247D01*
X71943515Y-118126807D01*
X71921308Y-118151308D01*
X71896807Y-118173515D01*
X71870247Y-118193213D01*
X71841884Y-118210213D01*
X71811991Y-118224351D01*
X71780857Y-118235491D01*
X71748781Y-118243525D01*
X71716071Y-118248377D01*
X71683044Y-118250000D01*
X70556956Y-118250000D01*
X70523929Y-118248377D01*
X70491219Y-118243525D01*
X70459143Y-118235491D01*
X70428009Y-118224351D01*
X70398116Y-118210213D01*
X70369753Y-118193213D01*
X70343193Y-118173515D01*
X70318692Y-118151308D01*
X70296485Y-118126807D01*
X70276787Y-118100247D01*
X70259787Y-118071884D01*
X70245649Y-118041991D01*
X70234509Y-118010857D01*
X70226475Y-117978781D01*
X70221623Y-117946071D01*
X70220000Y-117913044D01*
X70220000Y-117036956D01*
X70221623Y-117003929D01*
X70226475Y-116971219D01*
X70234509Y-116939143D01*
X70245649Y-116908009D01*
X70259787Y-116878116D01*
X70276787Y-116849753D01*
X70296485Y-116823193D01*
X70318692Y-116798692D01*
X70343193Y-116776485D01*
X70369753Y-116756787D01*
X70398116Y-116739787D01*
X70428009Y-116725649D01*
X70459143Y-116714509D01*
X70491219Y-116706475D01*
X70523929Y-116701623D01*
X70556956Y-116700000D01*
X71683044Y-116700000D01*
X71716071Y-116701623D01*
X71716071Y-116701623D01*
G37*
D21*
X71120000Y-117475000D03*
D11*
G36*
X71716071Y-118751623D02*
X71748781Y-118756475D01*
X71780857Y-118764509D01*
X71811991Y-118775649D01*
X71841884Y-118789787D01*
X71870247Y-118806787D01*
X71896807Y-118826485D01*
X71921308Y-118848692D01*
X71943515Y-118873193D01*
X71963213Y-118899753D01*
X71980213Y-118928116D01*
X71994351Y-118958009D01*
X72005491Y-118989143D01*
X72013525Y-119021219D01*
X72018377Y-119053929D01*
X72020000Y-119086956D01*
X72020000Y-119963044D01*
X72018377Y-119996071D01*
X72013525Y-120028781D01*
X72005491Y-120060857D01*
X71994351Y-120091991D01*
X71980213Y-120121884D01*
X71963213Y-120150247D01*
X71943515Y-120176807D01*
X71921308Y-120201308D01*
X71896807Y-120223515D01*
X71870247Y-120243213D01*
X71841884Y-120260213D01*
X71811991Y-120274351D01*
X71780857Y-120285491D01*
X71748781Y-120293525D01*
X71716071Y-120298377D01*
X71683044Y-120300000D01*
X70556956Y-120300000D01*
X70523929Y-120298377D01*
X70491219Y-120293525D01*
X70459143Y-120285491D01*
X70428009Y-120274351D01*
X70398116Y-120260213D01*
X70369753Y-120243213D01*
X70343193Y-120223515D01*
X70318692Y-120201308D01*
X70296485Y-120176807D01*
X70276787Y-120150247D01*
X70259787Y-120121884D01*
X70245649Y-120091991D01*
X70234509Y-120060857D01*
X70226475Y-120028781D01*
X70221623Y-119996071D01*
X70220000Y-119963044D01*
X70220000Y-119086956D01*
X70221623Y-119053929D01*
X70226475Y-119021219D01*
X70234509Y-118989143D01*
X70245649Y-118958009D01*
X70259787Y-118928116D01*
X70276787Y-118899753D01*
X70296485Y-118873193D01*
X70318692Y-118848692D01*
X70343193Y-118826485D01*
X70369753Y-118806787D01*
X70398116Y-118789787D01*
X70428009Y-118775649D01*
X70459143Y-118764509D01*
X70491219Y-118756475D01*
X70523929Y-118751623D01*
X70556956Y-118750000D01*
X71683044Y-118750000D01*
X71716071Y-118751623D01*
X71716071Y-118751623D01*
G37*
D21*
X71120000Y-119525000D03*
D11*
G36*
X70677388Y-56172387D02*
X70710098Y-56177239D01*
X70742174Y-56185273D01*
X70773308Y-56196413D01*
X70803201Y-56210551D01*
X70831564Y-56227551D01*
X70858124Y-56247249D01*
X70882625Y-56269456D01*
X70904832Y-56293957D01*
X70924530Y-56320517D01*
X70941530Y-56348880D01*
X70955668Y-56378773D01*
X70966808Y-56409907D01*
X70974842Y-56441983D01*
X70979694Y-56474693D01*
X70981317Y-56507720D01*
X70981317Y-57633808D01*
X70979694Y-57666835D01*
X70974842Y-57699545D01*
X70966808Y-57731621D01*
X70955668Y-57762755D01*
X70941530Y-57792648D01*
X70924530Y-57821011D01*
X70904832Y-57847571D01*
X70882625Y-57872072D01*
X70858124Y-57894279D01*
X70831564Y-57913977D01*
X70803201Y-57930977D01*
X70773308Y-57945115D01*
X70742174Y-57956255D01*
X70710098Y-57964289D01*
X70677388Y-57969141D01*
X70644361Y-57970764D01*
X69768273Y-57970764D01*
X69735246Y-57969141D01*
X69702536Y-57964289D01*
X69670460Y-57956255D01*
X69639326Y-57945115D01*
X69609433Y-57930977D01*
X69581070Y-57913977D01*
X69554510Y-57894279D01*
X69530009Y-57872072D01*
X69507802Y-57847571D01*
X69488104Y-57821011D01*
X69471104Y-57792648D01*
X69456966Y-57762755D01*
X69445826Y-57731621D01*
X69437792Y-57699545D01*
X69432940Y-57666835D01*
X69431317Y-57633808D01*
X69431317Y-56507720D01*
X69432940Y-56474693D01*
X69437792Y-56441983D01*
X69445826Y-56409907D01*
X69456966Y-56378773D01*
X69471104Y-56348880D01*
X69488104Y-56320517D01*
X69507802Y-56293957D01*
X69530009Y-56269456D01*
X69554510Y-56247249D01*
X69581070Y-56227551D01*
X69609433Y-56210551D01*
X69639326Y-56196413D01*
X69670460Y-56185273D01*
X69702536Y-56177239D01*
X69735246Y-56172387D01*
X69768273Y-56170764D01*
X70644361Y-56170764D01*
X70677388Y-56172387D01*
X70677388Y-56172387D01*
G37*
D21*
X70206317Y-57070764D03*
D11*
G36*
X68627388Y-56172387D02*
X68660098Y-56177239D01*
X68692174Y-56185273D01*
X68723308Y-56196413D01*
X68753201Y-56210551D01*
X68781564Y-56227551D01*
X68808124Y-56247249D01*
X68832625Y-56269456D01*
X68854832Y-56293957D01*
X68874530Y-56320517D01*
X68891530Y-56348880D01*
X68905668Y-56378773D01*
X68916808Y-56409907D01*
X68924842Y-56441983D01*
X68929694Y-56474693D01*
X68931317Y-56507720D01*
X68931317Y-57633808D01*
X68929694Y-57666835D01*
X68924842Y-57699545D01*
X68916808Y-57731621D01*
X68905668Y-57762755D01*
X68891530Y-57792648D01*
X68874530Y-57821011D01*
X68854832Y-57847571D01*
X68832625Y-57872072D01*
X68808124Y-57894279D01*
X68781564Y-57913977D01*
X68753201Y-57930977D01*
X68723308Y-57945115D01*
X68692174Y-57956255D01*
X68660098Y-57964289D01*
X68627388Y-57969141D01*
X68594361Y-57970764D01*
X67718273Y-57970764D01*
X67685246Y-57969141D01*
X67652536Y-57964289D01*
X67620460Y-57956255D01*
X67589326Y-57945115D01*
X67559433Y-57930977D01*
X67531070Y-57913977D01*
X67504510Y-57894279D01*
X67480009Y-57872072D01*
X67457802Y-57847571D01*
X67438104Y-57821011D01*
X67421104Y-57792648D01*
X67406966Y-57762755D01*
X67395826Y-57731621D01*
X67387792Y-57699545D01*
X67382940Y-57666835D01*
X67381317Y-57633808D01*
X67381317Y-56507720D01*
X67382940Y-56474693D01*
X67387792Y-56441983D01*
X67395826Y-56409907D01*
X67406966Y-56378773D01*
X67421104Y-56348880D01*
X67438104Y-56320517D01*
X67457802Y-56293957D01*
X67480009Y-56269456D01*
X67504510Y-56247249D01*
X67531070Y-56227551D01*
X67559433Y-56210551D01*
X67589326Y-56196413D01*
X67620460Y-56185273D01*
X67652536Y-56177239D01*
X67685246Y-56172387D01*
X67718273Y-56170764D01*
X68594361Y-56170764D01*
X68627388Y-56172387D01*
X68627388Y-56172387D01*
G37*
D21*
X68156317Y-57070764D03*
D11*
G36*
X68627388Y-58712387D02*
X68660098Y-58717239D01*
X68692174Y-58725273D01*
X68723308Y-58736413D01*
X68753201Y-58750551D01*
X68781564Y-58767551D01*
X68808124Y-58787249D01*
X68832625Y-58809456D01*
X68854832Y-58833957D01*
X68874530Y-58860517D01*
X68891530Y-58888880D01*
X68905668Y-58918773D01*
X68916808Y-58949907D01*
X68924842Y-58981983D01*
X68929694Y-59014693D01*
X68931317Y-59047720D01*
X68931317Y-60173808D01*
X68929694Y-60206835D01*
X68924842Y-60239545D01*
X68916808Y-60271621D01*
X68905668Y-60302755D01*
X68891530Y-60332648D01*
X68874530Y-60361011D01*
X68854832Y-60387571D01*
X68832625Y-60412072D01*
X68808124Y-60434279D01*
X68781564Y-60453977D01*
X68753201Y-60470977D01*
X68723308Y-60485115D01*
X68692174Y-60496255D01*
X68660098Y-60504289D01*
X68627388Y-60509141D01*
X68594361Y-60510764D01*
X67718273Y-60510764D01*
X67685246Y-60509141D01*
X67652536Y-60504289D01*
X67620460Y-60496255D01*
X67589326Y-60485115D01*
X67559433Y-60470977D01*
X67531070Y-60453977D01*
X67504510Y-60434279D01*
X67480009Y-60412072D01*
X67457802Y-60387571D01*
X67438104Y-60361011D01*
X67421104Y-60332648D01*
X67406966Y-60302755D01*
X67395826Y-60271621D01*
X67387792Y-60239545D01*
X67382940Y-60206835D01*
X67381317Y-60173808D01*
X67381317Y-59047720D01*
X67382940Y-59014693D01*
X67387792Y-58981983D01*
X67395826Y-58949907D01*
X67406966Y-58918773D01*
X67421104Y-58888880D01*
X67438104Y-58860517D01*
X67457802Y-58833957D01*
X67480009Y-58809456D01*
X67504510Y-58787249D01*
X67531070Y-58767551D01*
X67559433Y-58750551D01*
X67589326Y-58736413D01*
X67620460Y-58725273D01*
X67652536Y-58717239D01*
X67685246Y-58712387D01*
X67718273Y-58710764D01*
X68594361Y-58710764D01*
X68627388Y-58712387D01*
X68627388Y-58712387D01*
G37*
D21*
X68156317Y-59610764D03*
D11*
G36*
X70677388Y-58712387D02*
X70710098Y-58717239D01*
X70742174Y-58725273D01*
X70773308Y-58736413D01*
X70803201Y-58750551D01*
X70831564Y-58767551D01*
X70858124Y-58787249D01*
X70882625Y-58809456D01*
X70904832Y-58833957D01*
X70924530Y-58860517D01*
X70941530Y-58888880D01*
X70955668Y-58918773D01*
X70966808Y-58949907D01*
X70974842Y-58981983D01*
X70979694Y-59014693D01*
X70981317Y-59047720D01*
X70981317Y-60173808D01*
X70979694Y-60206835D01*
X70974842Y-60239545D01*
X70966808Y-60271621D01*
X70955668Y-60302755D01*
X70941530Y-60332648D01*
X70924530Y-60361011D01*
X70904832Y-60387571D01*
X70882625Y-60412072D01*
X70858124Y-60434279D01*
X70831564Y-60453977D01*
X70803201Y-60470977D01*
X70773308Y-60485115D01*
X70742174Y-60496255D01*
X70710098Y-60504289D01*
X70677388Y-60509141D01*
X70644361Y-60510764D01*
X69768273Y-60510764D01*
X69735246Y-60509141D01*
X69702536Y-60504289D01*
X69670460Y-60496255D01*
X69639326Y-60485115D01*
X69609433Y-60470977D01*
X69581070Y-60453977D01*
X69554510Y-60434279D01*
X69530009Y-60412072D01*
X69507802Y-60387571D01*
X69488104Y-60361011D01*
X69471104Y-60332648D01*
X69456966Y-60302755D01*
X69445826Y-60271621D01*
X69437792Y-60239545D01*
X69432940Y-60206835D01*
X69431317Y-60173808D01*
X69431317Y-59047720D01*
X69432940Y-59014693D01*
X69437792Y-58981983D01*
X69445826Y-58949907D01*
X69456966Y-58918773D01*
X69471104Y-58888880D01*
X69488104Y-58860517D01*
X69507802Y-58833957D01*
X69530009Y-58809456D01*
X69554510Y-58787249D01*
X69581070Y-58767551D01*
X69609433Y-58750551D01*
X69639326Y-58736413D01*
X69670460Y-58725273D01*
X69702536Y-58717239D01*
X69735246Y-58712387D01*
X69768273Y-58710764D01*
X70644361Y-58710764D01*
X70677388Y-58712387D01*
X70677388Y-58712387D01*
G37*
D21*
X70206317Y-59610764D03*
D11*
G36*
X70677388Y-61252387D02*
X70710098Y-61257239D01*
X70742174Y-61265273D01*
X70773308Y-61276413D01*
X70803201Y-61290551D01*
X70831564Y-61307551D01*
X70858124Y-61327249D01*
X70882625Y-61349456D01*
X70904832Y-61373957D01*
X70924530Y-61400517D01*
X70941530Y-61428880D01*
X70955668Y-61458773D01*
X70966808Y-61489907D01*
X70974842Y-61521983D01*
X70979694Y-61554693D01*
X70981317Y-61587720D01*
X70981317Y-62713808D01*
X70979694Y-62746835D01*
X70974842Y-62779545D01*
X70966808Y-62811621D01*
X70955668Y-62842755D01*
X70941530Y-62872648D01*
X70924530Y-62901011D01*
X70904832Y-62927571D01*
X70882625Y-62952072D01*
X70858124Y-62974279D01*
X70831564Y-62993977D01*
X70803201Y-63010977D01*
X70773308Y-63025115D01*
X70742174Y-63036255D01*
X70710098Y-63044289D01*
X70677388Y-63049141D01*
X70644361Y-63050764D01*
X69768273Y-63050764D01*
X69735246Y-63049141D01*
X69702536Y-63044289D01*
X69670460Y-63036255D01*
X69639326Y-63025115D01*
X69609433Y-63010977D01*
X69581070Y-62993977D01*
X69554510Y-62974279D01*
X69530009Y-62952072D01*
X69507802Y-62927571D01*
X69488104Y-62901011D01*
X69471104Y-62872648D01*
X69456966Y-62842755D01*
X69445826Y-62811621D01*
X69437792Y-62779545D01*
X69432940Y-62746835D01*
X69431317Y-62713808D01*
X69431317Y-61587720D01*
X69432940Y-61554693D01*
X69437792Y-61521983D01*
X69445826Y-61489907D01*
X69456966Y-61458773D01*
X69471104Y-61428880D01*
X69488104Y-61400517D01*
X69507802Y-61373957D01*
X69530009Y-61349456D01*
X69554510Y-61327249D01*
X69581070Y-61307551D01*
X69609433Y-61290551D01*
X69639326Y-61276413D01*
X69670460Y-61265273D01*
X69702536Y-61257239D01*
X69735246Y-61252387D01*
X69768273Y-61250764D01*
X70644361Y-61250764D01*
X70677388Y-61252387D01*
X70677388Y-61252387D01*
G37*
D21*
X70206317Y-62150764D03*
D11*
G36*
X68627388Y-61252387D02*
X68660098Y-61257239D01*
X68692174Y-61265273D01*
X68723308Y-61276413D01*
X68753201Y-61290551D01*
X68781564Y-61307551D01*
X68808124Y-61327249D01*
X68832625Y-61349456D01*
X68854832Y-61373957D01*
X68874530Y-61400517D01*
X68891530Y-61428880D01*
X68905668Y-61458773D01*
X68916808Y-61489907D01*
X68924842Y-61521983D01*
X68929694Y-61554693D01*
X68931317Y-61587720D01*
X68931317Y-62713808D01*
X68929694Y-62746835D01*
X68924842Y-62779545D01*
X68916808Y-62811621D01*
X68905668Y-62842755D01*
X68891530Y-62872648D01*
X68874530Y-62901011D01*
X68854832Y-62927571D01*
X68832625Y-62952072D01*
X68808124Y-62974279D01*
X68781564Y-62993977D01*
X68753201Y-63010977D01*
X68723308Y-63025115D01*
X68692174Y-63036255D01*
X68660098Y-63044289D01*
X68627388Y-63049141D01*
X68594361Y-63050764D01*
X67718273Y-63050764D01*
X67685246Y-63049141D01*
X67652536Y-63044289D01*
X67620460Y-63036255D01*
X67589326Y-63025115D01*
X67559433Y-63010977D01*
X67531070Y-62993977D01*
X67504510Y-62974279D01*
X67480009Y-62952072D01*
X67457802Y-62927571D01*
X67438104Y-62901011D01*
X67421104Y-62872648D01*
X67406966Y-62842755D01*
X67395826Y-62811621D01*
X67387792Y-62779545D01*
X67382940Y-62746835D01*
X67381317Y-62713808D01*
X67381317Y-61587720D01*
X67382940Y-61554693D01*
X67387792Y-61521983D01*
X67395826Y-61489907D01*
X67406966Y-61458773D01*
X67421104Y-61428880D01*
X67438104Y-61400517D01*
X67457802Y-61373957D01*
X67480009Y-61349456D01*
X67504510Y-61327249D01*
X67531070Y-61307551D01*
X67559433Y-61290551D01*
X67589326Y-61276413D01*
X67620460Y-61265273D01*
X67652536Y-61257239D01*
X67685246Y-61252387D01*
X67718273Y-61250764D01*
X68594361Y-61250764D01*
X68627388Y-61252387D01*
X68627388Y-61252387D01*
G37*
D21*
X68156317Y-62150764D03*
D15*
X34925000Y-105410000D03*
X34925000Y-100330000D03*
X27305000Y-105410000D03*
X27305000Y-100330000D03*
X27305000Y-109220000D03*
X27305000Y-114300000D03*
X34925000Y-109220000D03*
X34925000Y-114300000D03*
D25*
X58420000Y-55880000D03*
D24*
X58420000Y-58420000D03*
X58420000Y-60960000D03*
X58420000Y-63500000D03*
X58420000Y-66040000D03*
X58420000Y-68580000D03*
X92075000Y-68580000D03*
X92075000Y-66040000D03*
X92075000Y-63500000D03*
X92075000Y-60960000D03*
X92075000Y-58420000D03*
D25*
X92075000Y-55880000D03*
D12*
X56515000Y-50165000D03*
D20*
X59015000Y-50165000D03*
X56555000Y-40005000D03*
D12*
X59055000Y-40005000D03*
D25*
X58420000Y-104775000D03*
D24*
X55880000Y-104775000D03*
X58420000Y-107315000D03*
X55880000Y-107315000D03*
X58420000Y-109855000D03*
X55880000Y-109855000D03*
X58420000Y-112395000D03*
X55880000Y-112395000D03*
X58420000Y-114935000D03*
X55880000Y-114935000D03*
X58420000Y-117475000D03*
X55880000Y-117475000D03*
X58420000Y-120015000D03*
X55880000Y-120015000D03*
X58420000Y-122555000D03*
X55880000Y-122555000D03*
D30*
X81280000Y-113030000D03*
D31*
X81280000Y-119030000D03*
D32*
X76780000Y-120030000D03*
X85780000Y-120030000D03*
D20*
X81280000Y-122030000D03*
D33*
X123205000Y-119300000D03*
X123205000Y-109300000D03*
X110705000Y-119300000D03*
X113205000Y-106800000D03*
X113205000Y-114300000D03*
X110705000Y-109300000D03*
X113205000Y-121800000D03*
D15*
X34925000Y-123190000D03*
X34925000Y-118110000D03*
X27305000Y-123190000D03*
X27305000Y-118110000D03*
D25*
X66675000Y-112395000D03*
D24*
X66675000Y-114935000D03*
X66675000Y-117475000D03*
X66675000Y-120015000D03*
D33*
X113205000Y-101480000D03*
X110705000Y-88980000D03*
X113205000Y-93980000D03*
X113205000Y-86480000D03*
X110705000Y-98980000D03*
X123205000Y-88980000D03*
X123205000Y-98980000D03*
D24*
X58420000Y-87630000D03*
X58420000Y-85090000D03*
X58420000Y-82550000D03*
X58420000Y-80010000D03*
X58420000Y-77470000D03*
D25*
X58420000Y-74930000D03*
X92075000Y-74930000D03*
D24*
X92075000Y-77470000D03*
X92075000Y-80010000D03*
X92075000Y-82550000D03*
X92075000Y-85090000D03*
X92075000Y-87630000D03*
D17*
X41806726Y-54713274D03*
X40640000Y-54230000D03*
X39473274Y-54713274D03*
X38990000Y-55880000D03*
X39473274Y-57046726D03*
X40640000Y-57530000D03*
X41806726Y-57046726D03*
X42290000Y-55880000D03*
D16*
X40640000Y-55880000D03*
D15*
X51918708Y-94202424D03*
X51918708Y-99282424D03*
X59538708Y-94202424D03*
X59538708Y-99282424D03*
X123444000Y-46228000D03*
X123444000Y-41148000D03*
X115824000Y-46228000D03*
X115824000Y-41148000D03*
D11*
G36*
X57612071Y-90287623D02*
X57644781Y-90292475D01*
X57676857Y-90300509D01*
X57707991Y-90311649D01*
X57737884Y-90325787D01*
X57766247Y-90342787D01*
X57792807Y-90362485D01*
X57817308Y-90384692D01*
X57839515Y-90409193D01*
X57859213Y-90435753D01*
X57876213Y-90464116D01*
X57890351Y-90494009D01*
X57901491Y-90525143D01*
X57909525Y-90557219D01*
X57914377Y-90589929D01*
X57916000Y-90622956D01*
X57916000Y-91749044D01*
X57914377Y-91782071D01*
X57909525Y-91814781D01*
X57901491Y-91846857D01*
X57890351Y-91877991D01*
X57876213Y-91907884D01*
X57859213Y-91936247D01*
X57839515Y-91962807D01*
X57817308Y-91987308D01*
X57792807Y-92009515D01*
X57766247Y-92029213D01*
X57737884Y-92046213D01*
X57707991Y-92060351D01*
X57676857Y-92071491D01*
X57644781Y-92079525D01*
X57612071Y-92084377D01*
X57579044Y-92086000D01*
X56702956Y-92086000D01*
X56669929Y-92084377D01*
X56637219Y-92079525D01*
X56605143Y-92071491D01*
X56574009Y-92060351D01*
X56544116Y-92046213D01*
X56515753Y-92029213D01*
X56489193Y-92009515D01*
X56464692Y-91987308D01*
X56442485Y-91962807D01*
X56422787Y-91936247D01*
X56405787Y-91907884D01*
X56391649Y-91877991D01*
X56380509Y-91846857D01*
X56372475Y-91814781D01*
X56367623Y-91782071D01*
X56366000Y-91749044D01*
X56366000Y-90622956D01*
X56367623Y-90589929D01*
X56372475Y-90557219D01*
X56380509Y-90525143D01*
X56391649Y-90494009D01*
X56405787Y-90464116D01*
X56422787Y-90435753D01*
X56442485Y-90409193D01*
X56464692Y-90384692D01*
X56489193Y-90362485D01*
X56515753Y-90342787D01*
X56544116Y-90325787D01*
X56574009Y-90311649D01*
X56605143Y-90300509D01*
X56637219Y-90292475D01*
X56669929Y-90287623D01*
X56702956Y-90286000D01*
X57579044Y-90286000D01*
X57612071Y-90287623D01*
X57612071Y-90287623D01*
G37*
D21*
X57141000Y-91186000D03*
D11*
G36*
X59662071Y-90287623D02*
X59694781Y-90292475D01*
X59726857Y-90300509D01*
X59757991Y-90311649D01*
X59787884Y-90325787D01*
X59816247Y-90342787D01*
X59842807Y-90362485D01*
X59867308Y-90384692D01*
X59889515Y-90409193D01*
X59909213Y-90435753D01*
X59926213Y-90464116D01*
X59940351Y-90494009D01*
X59951491Y-90525143D01*
X59959525Y-90557219D01*
X59964377Y-90589929D01*
X59966000Y-90622956D01*
X59966000Y-91749044D01*
X59964377Y-91782071D01*
X59959525Y-91814781D01*
X59951491Y-91846857D01*
X59940351Y-91877991D01*
X59926213Y-91907884D01*
X59909213Y-91936247D01*
X59889515Y-91962807D01*
X59867308Y-91987308D01*
X59842807Y-92009515D01*
X59816247Y-92029213D01*
X59787884Y-92046213D01*
X59757991Y-92060351D01*
X59726857Y-92071491D01*
X59694781Y-92079525D01*
X59662071Y-92084377D01*
X59629044Y-92086000D01*
X58752956Y-92086000D01*
X58719929Y-92084377D01*
X58687219Y-92079525D01*
X58655143Y-92071491D01*
X58624009Y-92060351D01*
X58594116Y-92046213D01*
X58565753Y-92029213D01*
X58539193Y-92009515D01*
X58514692Y-91987308D01*
X58492485Y-91962807D01*
X58472787Y-91936247D01*
X58455787Y-91907884D01*
X58441649Y-91877991D01*
X58430509Y-91846857D01*
X58422475Y-91814781D01*
X58417623Y-91782071D01*
X58416000Y-91749044D01*
X58416000Y-90622956D01*
X58417623Y-90589929D01*
X58422475Y-90557219D01*
X58430509Y-90525143D01*
X58441649Y-90494009D01*
X58455787Y-90464116D01*
X58472787Y-90435753D01*
X58492485Y-90409193D01*
X58514692Y-90384692D01*
X58539193Y-90362485D01*
X58565753Y-90342787D01*
X58594116Y-90325787D01*
X58624009Y-90311649D01*
X58655143Y-90300509D01*
X58687219Y-90292475D01*
X58719929Y-90287623D01*
X58752956Y-90286000D01*
X59629044Y-90286000D01*
X59662071Y-90287623D01*
X59662071Y-90287623D01*
G37*
D21*
X59191000Y-91186000D03*
D11*
G36*
X70584071Y-74031623D02*
X70616781Y-74036475D01*
X70648857Y-74044509D01*
X70679991Y-74055649D01*
X70709884Y-74069787D01*
X70738247Y-74086787D01*
X70764807Y-74106485D01*
X70789308Y-74128692D01*
X70811515Y-74153193D01*
X70831213Y-74179753D01*
X70848213Y-74208116D01*
X70862351Y-74238009D01*
X70873491Y-74269143D01*
X70881525Y-74301219D01*
X70886377Y-74333929D01*
X70888000Y-74366956D01*
X70888000Y-75493044D01*
X70886377Y-75526071D01*
X70881525Y-75558781D01*
X70873491Y-75590857D01*
X70862351Y-75621991D01*
X70848213Y-75651884D01*
X70831213Y-75680247D01*
X70811515Y-75706807D01*
X70789308Y-75731308D01*
X70764807Y-75753515D01*
X70738247Y-75773213D01*
X70709884Y-75790213D01*
X70679991Y-75804351D01*
X70648857Y-75815491D01*
X70616781Y-75823525D01*
X70584071Y-75828377D01*
X70551044Y-75830000D01*
X69674956Y-75830000D01*
X69641929Y-75828377D01*
X69609219Y-75823525D01*
X69577143Y-75815491D01*
X69546009Y-75804351D01*
X69516116Y-75790213D01*
X69487753Y-75773213D01*
X69461193Y-75753515D01*
X69436692Y-75731308D01*
X69414485Y-75706807D01*
X69394787Y-75680247D01*
X69377787Y-75651884D01*
X69363649Y-75621991D01*
X69352509Y-75590857D01*
X69344475Y-75558781D01*
X69339623Y-75526071D01*
X69338000Y-75493044D01*
X69338000Y-74366956D01*
X69339623Y-74333929D01*
X69344475Y-74301219D01*
X69352509Y-74269143D01*
X69363649Y-74238009D01*
X69377787Y-74208116D01*
X69394787Y-74179753D01*
X69414485Y-74153193D01*
X69436692Y-74128692D01*
X69461193Y-74106485D01*
X69487753Y-74086787D01*
X69516116Y-74069787D01*
X69546009Y-74055649D01*
X69577143Y-74044509D01*
X69609219Y-74036475D01*
X69641929Y-74031623D01*
X69674956Y-74030000D01*
X70551044Y-74030000D01*
X70584071Y-74031623D01*
X70584071Y-74031623D01*
G37*
D21*
X70113000Y-74930000D03*
D11*
G36*
X68534071Y-74031623D02*
X68566781Y-74036475D01*
X68598857Y-74044509D01*
X68629991Y-74055649D01*
X68659884Y-74069787D01*
X68688247Y-74086787D01*
X68714807Y-74106485D01*
X68739308Y-74128692D01*
X68761515Y-74153193D01*
X68781213Y-74179753D01*
X68798213Y-74208116D01*
X68812351Y-74238009D01*
X68823491Y-74269143D01*
X68831525Y-74301219D01*
X68836377Y-74333929D01*
X68838000Y-74366956D01*
X68838000Y-75493044D01*
X68836377Y-75526071D01*
X68831525Y-75558781D01*
X68823491Y-75590857D01*
X68812351Y-75621991D01*
X68798213Y-75651884D01*
X68781213Y-75680247D01*
X68761515Y-75706807D01*
X68739308Y-75731308D01*
X68714807Y-75753515D01*
X68688247Y-75773213D01*
X68659884Y-75790213D01*
X68629991Y-75804351D01*
X68598857Y-75815491D01*
X68566781Y-75823525D01*
X68534071Y-75828377D01*
X68501044Y-75830000D01*
X67624956Y-75830000D01*
X67591929Y-75828377D01*
X67559219Y-75823525D01*
X67527143Y-75815491D01*
X67496009Y-75804351D01*
X67466116Y-75790213D01*
X67437753Y-75773213D01*
X67411193Y-75753515D01*
X67386692Y-75731308D01*
X67364485Y-75706807D01*
X67344787Y-75680247D01*
X67327787Y-75651884D01*
X67313649Y-75621991D01*
X67302509Y-75590857D01*
X67294475Y-75558781D01*
X67289623Y-75526071D01*
X67288000Y-75493044D01*
X67288000Y-74366956D01*
X67289623Y-74333929D01*
X67294475Y-74301219D01*
X67302509Y-74269143D01*
X67313649Y-74238009D01*
X67327787Y-74208116D01*
X67344787Y-74179753D01*
X67364485Y-74153193D01*
X67386692Y-74128692D01*
X67411193Y-74106485D01*
X67437753Y-74086787D01*
X67466116Y-74069787D01*
X67496009Y-74055649D01*
X67527143Y-74044509D01*
X67559219Y-74036475D01*
X67591929Y-74031623D01*
X67624956Y-74030000D01*
X68501044Y-74030000D01*
X68534071Y-74031623D01*
X68534071Y-74031623D01*
G37*
D21*
X68063000Y-74930000D03*
D11*
G36*
X75900071Y-63871623D02*
X75932781Y-63876475D01*
X75964857Y-63884509D01*
X75995991Y-63895649D01*
X76025884Y-63909787D01*
X76054247Y-63926787D01*
X76080807Y-63946485D01*
X76105308Y-63968692D01*
X76127515Y-63993193D01*
X76147213Y-64019753D01*
X76164213Y-64048116D01*
X76178351Y-64078009D01*
X76189491Y-64109143D01*
X76197525Y-64141219D01*
X76202377Y-64173929D01*
X76204000Y-64206956D01*
X76204000Y-65333044D01*
X76202377Y-65366071D01*
X76197525Y-65398781D01*
X76189491Y-65430857D01*
X76178351Y-65461991D01*
X76164213Y-65491884D01*
X76147213Y-65520247D01*
X76127515Y-65546807D01*
X76105308Y-65571308D01*
X76080807Y-65593515D01*
X76054247Y-65613213D01*
X76025884Y-65630213D01*
X75995991Y-65644351D01*
X75964857Y-65655491D01*
X75932781Y-65663525D01*
X75900071Y-65668377D01*
X75867044Y-65670000D01*
X74990956Y-65670000D01*
X74957929Y-65668377D01*
X74925219Y-65663525D01*
X74893143Y-65655491D01*
X74862009Y-65644351D01*
X74832116Y-65630213D01*
X74803753Y-65613213D01*
X74777193Y-65593515D01*
X74752692Y-65571308D01*
X74730485Y-65546807D01*
X74710787Y-65520247D01*
X74693787Y-65491884D01*
X74679649Y-65461991D01*
X74668509Y-65430857D01*
X74660475Y-65398781D01*
X74655623Y-65366071D01*
X74654000Y-65333044D01*
X74654000Y-64206956D01*
X74655623Y-64173929D01*
X74660475Y-64141219D01*
X74668509Y-64109143D01*
X74679649Y-64078009D01*
X74693787Y-64048116D01*
X74710787Y-64019753D01*
X74730485Y-63993193D01*
X74752692Y-63968692D01*
X74777193Y-63946485D01*
X74803753Y-63926787D01*
X74832116Y-63909787D01*
X74862009Y-63895649D01*
X74893143Y-63884509D01*
X74925219Y-63876475D01*
X74957929Y-63871623D01*
X74990956Y-63870000D01*
X75867044Y-63870000D01*
X75900071Y-63871623D01*
X75900071Y-63871623D01*
G37*
D21*
X75429000Y-64770000D03*
D11*
G36*
X77950071Y-63871623D02*
X77982781Y-63876475D01*
X78014857Y-63884509D01*
X78045991Y-63895649D01*
X78075884Y-63909787D01*
X78104247Y-63926787D01*
X78130807Y-63946485D01*
X78155308Y-63968692D01*
X78177515Y-63993193D01*
X78197213Y-64019753D01*
X78214213Y-64048116D01*
X78228351Y-64078009D01*
X78239491Y-64109143D01*
X78247525Y-64141219D01*
X78252377Y-64173929D01*
X78254000Y-64206956D01*
X78254000Y-65333044D01*
X78252377Y-65366071D01*
X78247525Y-65398781D01*
X78239491Y-65430857D01*
X78228351Y-65461991D01*
X78214213Y-65491884D01*
X78197213Y-65520247D01*
X78177515Y-65546807D01*
X78155308Y-65571308D01*
X78130807Y-65593515D01*
X78104247Y-65613213D01*
X78075884Y-65630213D01*
X78045991Y-65644351D01*
X78014857Y-65655491D01*
X77982781Y-65663525D01*
X77950071Y-65668377D01*
X77917044Y-65670000D01*
X77040956Y-65670000D01*
X77007929Y-65668377D01*
X76975219Y-65663525D01*
X76943143Y-65655491D01*
X76912009Y-65644351D01*
X76882116Y-65630213D01*
X76853753Y-65613213D01*
X76827193Y-65593515D01*
X76802692Y-65571308D01*
X76780485Y-65546807D01*
X76760787Y-65520247D01*
X76743787Y-65491884D01*
X76729649Y-65461991D01*
X76718509Y-65430857D01*
X76710475Y-65398781D01*
X76705623Y-65366071D01*
X76704000Y-65333044D01*
X76704000Y-64206956D01*
X76705623Y-64173929D01*
X76710475Y-64141219D01*
X76718509Y-64109143D01*
X76729649Y-64078009D01*
X76743787Y-64048116D01*
X76760787Y-64019753D01*
X76780485Y-63993193D01*
X76802692Y-63968692D01*
X76827193Y-63946485D01*
X76853753Y-63926787D01*
X76882116Y-63909787D01*
X76912009Y-63895649D01*
X76943143Y-63884509D01*
X76975219Y-63876475D01*
X77007929Y-63871623D01*
X77040956Y-63870000D01*
X77917044Y-63870000D01*
X77950071Y-63871623D01*
X77950071Y-63871623D01*
G37*
D21*
X77479000Y-64770000D03*
D11*
G36*
X70838071Y-63871623D02*
X70870781Y-63876475D01*
X70902857Y-63884509D01*
X70933991Y-63895649D01*
X70963884Y-63909787D01*
X70992247Y-63926787D01*
X71018807Y-63946485D01*
X71043308Y-63968692D01*
X71065515Y-63993193D01*
X71085213Y-64019753D01*
X71102213Y-64048116D01*
X71116351Y-64078009D01*
X71127491Y-64109143D01*
X71135525Y-64141219D01*
X71140377Y-64173929D01*
X71142000Y-64206956D01*
X71142000Y-65333044D01*
X71140377Y-65366071D01*
X71135525Y-65398781D01*
X71127491Y-65430857D01*
X71116351Y-65461991D01*
X71102213Y-65491884D01*
X71085213Y-65520247D01*
X71065515Y-65546807D01*
X71043308Y-65571308D01*
X71018807Y-65593515D01*
X70992247Y-65613213D01*
X70963884Y-65630213D01*
X70933991Y-65644351D01*
X70902857Y-65655491D01*
X70870781Y-65663525D01*
X70838071Y-65668377D01*
X70805044Y-65670000D01*
X69928956Y-65670000D01*
X69895929Y-65668377D01*
X69863219Y-65663525D01*
X69831143Y-65655491D01*
X69800009Y-65644351D01*
X69770116Y-65630213D01*
X69741753Y-65613213D01*
X69715193Y-65593515D01*
X69690692Y-65571308D01*
X69668485Y-65546807D01*
X69648787Y-65520247D01*
X69631787Y-65491884D01*
X69617649Y-65461991D01*
X69606509Y-65430857D01*
X69598475Y-65398781D01*
X69593623Y-65366071D01*
X69592000Y-65333044D01*
X69592000Y-64206956D01*
X69593623Y-64173929D01*
X69598475Y-64141219D01*
X69606509Y-64109143D01*
X69617649Y-64078009D01*
X69631787Y-64048116D01*
X69648787Y-64019753D01*
X69668485Y-63993193D01*
X69690692Y-63968692D01*
X69715193Y-63946485D01*
X69741753Y-63926787D01*
X69770116Y-63909787D01*
X69800009Y-63895649D01*
X69831143Y-63884509D01*
X69863219Y-63876475D01*
X69895929Y-63871623D01*
X69928956Y-63870000D01*
X70805044Y-63870000D01*
X70838071Y-63871623D01*
X70838071Y-63871623D01*
G37*
D21*
X70367000Y-64770000D03*
D11*
G36*
X68788071Y-63871623D02*
X68820781Y-63876475D01*
X68852857Y-63884509D01*
X68883991Y-63895649D01*
X68913884Y-63909787D01*
X68942247Y-63926787D01*
X68968807Y-63946485D01*
X68993308Y-63968692D01*
X69015515Y-63993193D01*
X69035213Y-64019753D01*
X69052213Y-64048116D01*
X69066351Y-64078009D01*
X69077491Y-64109143D01*
X69085525Y-64141219D01*
X69090377Y-64173929D01*
X69092000Y-64206956D01*
X69092000Y-65333044D01*
X69090377Y-65366071D01*
X69085525Y-65398781D01*
X69077491Y-65430857D01*
X69066351Y-65461991D01*
X69052213Y-65491884D01*
X69035213Y-65520247D01*
X69015515Y-65546807D01*
X68993308Y-65571308D01*
X68968807Y-65593515D01*
X68942247Y-65613213D01*
X68913884Y-65630213D01*
X68883991Y-65644351D01*
X68852857Y-65655491D01*
X68820781Y-65663525D01*
X68788071Y-65668377D01*
X68755044Y-65670000D01*
X67878956Y-65670000D01*
X67845929Y-65668377D01*
X67813219Y-65663525D01*
X67781143Y-65655491D01*
X67750009Y-65644351D01*
X67720116Y-65630213D01*
X67691753Y-65613213D01*
X67665193Y-65593515D01*
X67640692Y-65571308D01*
X67618485Y-65546807D01*
X67598787Y-65520247D01*
X67581787Y-65491884D01*
X67567649Y-65461991D01*
X67556509Y-65430857D01*
X67548475Y-65398781D01*
X67543623Y-65366071D01*
X67542000Y-65333044D01*
X67542000Y-64206956D01*
X67543623Y-64173929D01*
X67548475Y-64141219D01*
X67556509Y-64109143D01*
X67567649Y-64078009D01*
X67581787Y-64048116D01*
X67598787Y-64019753D01*
X67618485Y-63993193D01*
X67640692Y-63968692D01*
X67665193Y-63946485D01*
X67691753Y-63926787D01*
X67720116Y-63909787D01*
X67750009Y-63895649D01*
X67781143Y-63884509D01*
X67813219Y-63876475D01*
X67845929Y-63871623D01*
X67878956Y-63870000D01*
X68755044Y-63870000D01*
X68788071Y-63871623D01*
X68788071Y-63871623D01*
G37*
D21*
X68317000Y-64770000D03*
D11*
G36*
X52158071Y-104373623D02*
X52190781Y-104378475D01*
X52222857Y-104386509D01*
X52253991Y-104397649D01*
X52283884Y-104411787D01*
X52312247Y-104428787D01*
X52338807Y-104448485D01*
X52363308Y-104470692D01*
X52385515Y-104495193D01*
X52405213Y-104521753D01*
X52422213Y-104550116D01*
X52436351Y-104580009D01*
X52447491Y-104611143D01*
X52455525Y-104643219D01*
X52460377Y-104675929D01*
X52462000Y-104708956D01*
X52462000Y-105585044D01*
X52460377Y-105618071D01*
X52455525Y-105650781D01*
X52447491Y-105682857D01*
X52436351Y-105713991D01*
X52422213Y-105743884D01*
X52405213Y-105772247D01*
X52385515Y-105798807D01*
X52363308Y-105823308D01*
X52338807Y-105845515D01*
X52312247Y-105865213D01*
X52283884Y-105882213D01*
X52253991Y-105896351D01*
X52222857Y-105907491D01*
X52190781Y-105915525D01*
X52158071Y-105920377D01*
X52125044Y-105922000D01*
X50998956Y-105922000D01*
X50965929Y-105920377D01*
X50933219Y-105915525D01*
X50901143Y-105907491D01*
X50870009Y-105896351D01*
X50840116Y-105882213D01*
X50811753Y-105865213D01*
X50785193Y-105845515D01*
X50760692Y-105823308D01*
X50738485Y-105798807D01*
X50718787Y-105772247D01*
X50701787Y-105743884D01*
X50687649Y-105713991D01*
X50676509Y-105682857D01*
X50668475Y-105650781D01*
X50663623Y-105618071D01*
X50662000Y-105585044D01*
X50662000Y-104708956D01*
X50663623Y-104675929D01*
X50668475Y-104643219D01*
X50676509Y-104611143D01*
X50687649Y-104580009D01*
X50701787Y-104550116D01*
X50718787Y-104521753D01*
X50738485Y-104495193D01*
X50760692Y-104470692D01*
X50785193Y-104448485D01*
X50811753Y-104428787D01*
X50840116Y-104411787D01*
X50870009Y-104397649D01*
X50901143Y-104386509D01*
X50933219Y-104378475D01*
X50965929Y-104373623D01*
X50998956Y-104372000D01*
X52125044Y-104372000D01*
X52158071Y-104373623D01*
X52158071Y-104373623D01*
G37*
D21*
X51562000Y-105147000D03*
D11*
G36*
X52158071Y-106423623D02*
X52190781Y-106428475D01*
X52222857Y-106436509D01*
X52253991Y-106447649D01*
X52283884Y-106461787D01*
X52312247Y-106478787D01*
X52338807Y-106498485D01*
X52363308Y-106520692D01*
X52385515Y-106545193D01*
X52405213Y-106571753D01*
X52422213Y-106600116D01*
X52436351Y-106630009D01*
X52447491Y-106661143D01*
X52455525Y-106693219D01*
X52460377Y-106725929D01*
X52462000Y-106758956D01*
X52462000Y-107635044D01*
X52460377Y-107668071D01*
X52455525Y-107700781D01*
X52447491Y-107732857D01*
X52436351Y-107763991D01*
X52422213Y-107793884D01*
X52405213Y-107822247D01*
X52385515Y-107848807D01*
X52363308Y-107873308D01*
X52338807Y-107895515D01*
X52312247Y-107915213D01*
X52283884Y-107932213D01*
X52253991Y-107946351D01*
X52222857Y-107957491D01*
X52190781Y-107965525D01*
X52158071Y-107970377D01*
X52125044Y-107972000D01*
X50998956Y-107972000D01*
X50965929Y-107970377D01*
X50933219Y-107965525D01*
X50901143Y-107957491D01*
X50870009Y-107946351D01*
X50840116Y-107932213D01*
X50811753Y-107915213D01*
X50785193Y-107895515D01*
X50760692Y-107873308D01*
X50738485Y-107848807D01*
X50718787Y-107822247D01*
X50701787Y-107793884D01*
X50687649Y-107763991D01*
X50676509Y-107732857D01*
X50668475Y-107700781D01*
X50663623Y-107668071D01*
X50662000Y-107635044D01*
X50662000Y-106758956D01*
X50663623Y-106725929D01*
X50668475Y-106693219D01*
X50676509Y-106661143D01*
X50687649Y-106630009D01*
X50701787Y-106600116D01*
X50718787Y-106571753D01*
X50738485Y-106545193D01*
X50760692Y-106520692D01*
X50785193Y-106498485D01*
X50811753Y-106478787D01*
X50840116Y-106461787D01*
X50870009Y-106447649D01*
X50901143Y-106436509D01*
X50933219Y-106428475D01*
X50965929Y-106423623D01*
X50998956Y-106422000D01*
X52125044Y-106422000D01*
X52158071Y-106423623D01*
X52158071Y-106423623D01*
G37*
D21*
X51562000Y-107197000D03*
M02*
