%TF.GenerationSoftware,KiCad,Pcbnew,(5.0.0)*%
%TF.CreationDate,2018-12-31T00:25:57+01:00*%
%TF.ProjectId,Kicad-Midi2CV,4B696361642D4D6964693243562E6B69,rev?*%
%TF.SameCoordinates,Original*%
%TF.FileFunction,Legend,Top*%
%TF.FilePolarity,Positive*%
%FSLAX46Y46*%
G04 Gerber Fmt 4.6, Leading zero omitted, Abs format (unit mm)*
G04 Created by KiCad (PCBNEW (5.0.0)) date 12/31/18 00:25:57*
%MOMM*%
%LPD*%
G01*
G04 APERTURE LIST*
%ADD10C,0.200000*%
%ADD11C,0.300000*%
%ADD12C,1.000000*%
%ADD13C,0.150000*%
%ADD14C,0.120000*%
%ADD15C,0.304800*%
%ADD16C,0.100000*%
G04 APERTURE END LIST*
D10*
X60999714Y-104467000D02*
X60904476Y-104395571D01*
X60761619Y-104395571D01*
X60618761Y-104467000D01*
X60523523Y-104609857D01*
X60475904Y-104752714D01*
X60428285Y-105038428D01*
X60428285Y-105252714D01*
X60475904Y-105538428D01*
X60523523Y-105681285D01*
X60618761Y-105824142D01*
X60761619Y-105895571D01*
X60856857Y-105895571D01*
X60999714Y-105824142D01*
X61047333Y-105752714D01*
X61047333Y-105252714D01*
X60856857Y-105252714D01*
X61618761Y-105038428D02*
X61523523Y-104967000D01*
X61475904Y-104895571D01*
X61428285Y-104752714D01*
X61428285Y-104681285D01*
X61475904Y-104538428D01*
X61523523Y-104467000D01*
X61618761Y-104395571D01*
X61809238Y-104395571D01*
X61904476Y-104467000D01*
X61952095Y-104538428D01*
X61999714Y-104681285D01*
X61999714Y-104752714D01*
X61952095Y-104895571D01*
X61904476Y-104967000D01*
X61809238Y-105038428D01*
X61618761Y-105038428D01*
X61523523Y-105109857D01*
X61475904Y-105181285D01*
X61428285Y-105324142D01*
X61428285Y-105609857D01*
X61475904Y-105752714D01*
X61523523Y-105824142D01*
X61618761Y-105895571D01*
X61809238Y-105895571D01*
X61904476Y-105824142D01*
X61952095Y-105752714D01*
X61999714Y-105609857D01*
X61999714Y-105324142D01*
X61952095Y-105181285D01*
X61904476Y-105109857D01*
X61809238Y-105038428D01*
X61094952Y-108202714D02*
X61047333Y-108274142D01*
X60904476Y-108345571D01*
X60809238Y-108345571D01*
X60666380Y-108274142D01*
X60571142Y-108131285D01*
X60523523Y-107988428D01*
X60475904Y-107702714D01*
X60475904Y-107488428D01*
X60523523Y-107202714D01*
X60571142Y-107059857D01*
X60666380Y-106917000D01*
X60809238Y-106845571D01*
X60904476Y-106845571D01*
X61047333Y-106917000D01*
X61094952Y-106988428D01*
X61380666Y-106845571D02*
X61714000Y-108345571D01*
X62047333Y-106845571D01*
X60356857Y-110224142D02*
X61118761Y-110224142D01*
X60737809Y-110795571D02*
X60737809Y-109652714D01*
X62071142Y-109295571D02*
X61594952Y-109295571D01*
X61547333Y-110009857D01*
X61594952Y-109938428D01*
X61690190Y-109867000D01*
X61928285Y-109867000D01*
X62023523Y-109938428D01*
X62071142Y-110009857D01*
X62118761Y-110152714D01*
X62118761Y-110509857D01*
X62071142Y-110652714D01*
X62023523Y-110724142D01*
X61928285Y-110795571D01*
X61690190Y-110795571D01*
X61594952Y-110724142D01*
X61547333Y-110652714D01*
X59880666Y-112674142D02*
X60642571Y-112674142D01*
X60261619Y-113245571D02*
X60261619Y-112102714D01*
X61642571Y-113245571D02*
X61071142Y-113245571D01*
X61356857Y-113245571D02*
X61356857Y-111745571D01*
X61261619Y-111959857D01*
X61166380Y-112102714D01*
X61071142Y-112174142D01*
X62023523Y-111888428D02*
X62071142Y-111817000D01*
X62166380Y-111745571D01*
X62404476Y-111745571D01*
X62499714Y-111817000D01*
X62547333Y-111888428D01*
X62594952Y-112031285D01*
X62594952Y-112174142D01*
X62547333Y-112388428D01*
X61975904Y-113245571D01*
X62594952Y-113245571D01*
X60452095Y-114267000D02*
X60356857Y-114195571D01*
X60214000Y-114195571D01*
X60071142Y-114267000D01*
X59975904Y-114409857D01*
X59928285Y-114552714D01*
X59880666Y-114838428D01*
X59880666Y-115052714D01*
X59928285Y-115338428D01*
X59975904Y-115481285D01*
X60071142Y-115624142D01*
X60214000Y-115695571D01*
X60309238Y-115695571D01*
X60452095Y-115624142D01*
X60499714Y-115552714D01*
X60499714Y-115052714D01*
X60309238Y-115052714D01*
X60928285Y-115695571D02*
X60928285Y-114195571D01*
X61499714Y-115695571D01*
X61499714Y-114195571D01*
X61975904Y-115695571D02*
X61975904Y-114195571D01*
X62214000Y-114195571D01*
X62356857Y-114267000D01*
X62452095Y-114409857D01*
X62499714Y-114552714D01*
X62547333Y-114838428D01*
X62547333Y-115052714D01*
X62499714Y-115338428D01*
X62452095Y-115481285D01*
X62356857Y-115624142D01*
X62214000Y-115695571D01*
X61975904Y-115695571D01*
X60452095Y-116717000D02*
X60356857Y-116645571D01*
X60214000Y-116645571D01*
X60071142Y-116717000D01*
X59975904Y-116859857D01*
X59928285Y-117002714D01*
X59880666Y-117288428D01*
X59880666Y-117502714D01*
X59928285Y-117788428D01*
X59975904Y-117931285D01*
X60071142Y-118074142D01*
X60214000Y-118145571D01*
X60309238Y-118145571D01*
X60452095Y-118074142D01*
X60499714Y-118002714D01*
X60499714Y-117502714D01*
X60309238Y-117502714D01*
X60928285Y-118145571D02*
X60928285Y-116645571D01*
X61499714Y-118145571D01*
X61499714Y-116645571D01*
X61975904Y-118145571D02*
X61975904Y-116645571D01*
X62214000Y-116645571D01*
X62356857Y-116717000D01*
X62452095Y-116859857D01*
X62499714Y-117002714D01*
X62547333Y-117288428D01*
X62547333Y-117502714D01*
X62499714Y-117788428D01*
X62452095Y-117931285D01*
X62356857Y-118074142D01*
X62214000Y-118145571D01*
X61975904Y-118145571D01*
X60452095Y-119167000D02*
X60356857Y-119095571D01*
X60214000Y-119095571D01*
X60071142Y-119167000D01*
X59975904Y-119309857D01*
X59928285Y-119452714D01*
X59880666Y-119738428D01*
X59880666Y-119952714D01*
X59928285Y-120238428D01*
X59975904Y-120381285D01*
X60071142Y-120524142D01*
X60214000Y-120595571D01*
X60309238Y-120595571D01*
X60452095Y-120524142D01*
X60499714Y-120452714D01*
X60499714Y-119952714D01*
X60309238Y-119952714D01*
X60928285Y-120595571D02*
X60928285Y-119095571D01*
X61499714Y-120595571D01*
X61499714Y-119095571D01*
X61975904Y-120595571D02*
X61975904Y-119095571D01*
X62214000Y-119095571D01*
X62356857Y-119167000D01*
X62452095Y-119309857D01*
X62499714Y-119452714D01*
X62547333Y-119738428D01*
X62547333Y-119952714D01*
X62499714Y-120238428D01*
X62452095Y-120381285D01*
X62356857Y-120524142D01*
X62214000Y-120595571D01*
X61975904Y-120595571D01*
X59880666Y-122474142D02*
X60642571Y-122474142D01*
X61642571Y-123045571D02*
X61071142Y-123045571D01*
X61356857Y-123045571D02*
X61356857Y-121545571D01*
X61261619Y-121759857D01*
X61166380Y-121902714D01*
X61071142Y-121974142D01*
X62023523Y-121688428D02*
X62071142Y-121617000D01*
X62166380Y-121545571D01*
X62404476Y-121545571D01*
X62499714Y-121617000D01*
X62547333Y-121688428D01*
X62594952Y-121831285D01*
X62594952Y-121974142D01*
X62547333Y-122188428D01*
X61975904Y-123045571D01*
X62594952Y-123045571D01*
X55411714Y-74659000D02*
X55316476Y-74587571D01*
X55173619Y-74587571D01*
X55030761Y-74659000D01*
X54935523Y-74801857D01*
X54887904Y-74944714D01*
X54840285Y-75230428D01*
X54840285Y-75444714D01*
X54887904Y-75730428D01*
X54935523Y-75873285D01*
X55030761Y-76016142D01*
X55173619Y-76087571D01*
X55268857Y-76087571D01*
X55411714Y-76016142D01*
X55459333Y-75944714D01*
X55459333Y-75444714D01*
X55268857Y-75444714D01*
X56411714Y-76087571D02*
X55840285Y-76087571D01*
X56126000Y-76087571D02*
X56126000Y-74587571D01*
X56030761Y-74801857D01*
X55935523Y-74944714D01*
X55840285Y-75016142D01*
X55411714Y-77109000D02*
X55316476Y-77037571D01*
X55173619Y-77037571D01*
X55030761Y-77109000D01*
X54935523Y-77251857D01*
X54887904Y-77394714D01*
X54840285Y-77680428D01*
X54840285Y-77894714D01*
X54887904Y-78180428D01*
X54935523Y-78323285D01*
X55030761Y-78466142D01*
X55173619Y-78537571D01*
X55268857Y-78537571D01*
X55411714Y-78466142D01*
X55459333Y-78394714D01*
X55459333Y-77894714D01*
X55268857Y-77894714D01*
X55840285Y-77180428D02*
X55887904Y-77109000D01*
X55983142Y-77037571D01*
X56221238Y-77037571D01*
X56316476Y-77109000D01*
X56364095Y-77180428D01*
X56411714Y-77323285D01*
X56411714Y-77466142D01*
X56364095Y-77680428D01*
X55792666Y-78537571D01*
X56411714Y-78537571D01*
X55411714Y-79559000D02*
X55316476Y-79487571D01*
X55173619Y-79487571D01*
X55030761Y-79559000D01*
X54935523Y-79701857D01*
X54887904Y-79844714D01*
X54840285Y-80130428D01*
X54840285Y-80344714D01*
X54887904Y-80630428D01*
X54935523Y-80773285D01*
X55030761Y-80916142D01*
X55173619Y-80987571D01*
X55268857Y-80987571D01*
X55411714Y-80916142D01*
X55459333Y-80844714D01*
X55459333Y-80344714D01*
X55268857Y-80344714D01*
X55792666Y-79487571D02*
X56411714Y-79487571D01*
X56078380Y-80059000D01*
X56221238Y-80059000D01*
X56316476Y-80130428D01*
X56364095Y-80201857D01*
X56411714Y-80344714D01*
X56411714Y-80701857D01*
X56364095Y-80844714D01*
X56316476Y-80916142D01*
X56221238Y-80987571D01*
X55935523Y-80987571D01*
X55840285Y-80916142D01*
X55792666Y-80844714D01*
X55411714Y-82009000D02*
X55316476Y-81937571D01*
X55173619Y-81937571D01*
X55030761Y-82009000D01*
X54935523Y-82151857D01*
X54887904Y-82294714D01*
X54840285Y-82580428D01*
X54840285Y-82794714D01*
X54887904Y-83080428D01*
X54935523Y-83223285D01*
X55030761Y-83366142D01*
X55173619Y-83437571D01*
X55268857Y-83437571D01*
X55411714Y-83366142D01*
X55459333Y-83294714D01*
X55459333Y-82794714D01*
X55268857Y-82794714D01*
X56316476Y-82437571D02*
X56316476Y-83437571D01*
X56078380Y-81866142D02*
X55840285Y-82937571D01*
X56459333Y-82937571D01*
X55030761Y-85744714D02*
X54983142Y-85816142D01*
X54840285Y-85887571D01*
X54745047Y-85887571D01*
X54602190Y-85816142D01*
X54506952Y-85673285D01*
X54459333Y-85530428D01*
X54411714Y-85244714D01*
X54411714Y-85030428D01*
X54459333Y-84744714D01*
X54506952Y-84601857D01*
X54602190Y-84459000D01*
X54745047Y-84387571D01*
X54840285Y-84387571D01*
X54983142Y-84459000D01*
X55030761Y-84530428D01*
X55316476Y-84387571D02*
X55649809Y-85887571D01*
X55983142Y-84387571D01*
X56745047Y-84387571D02*
X56554571Y-84387571D01*
X56459333Y-84459000D01*
X56411714Y-84530428D01*
X56316476Y-84744714D01*
X56268857Y-85030428D01*
X56268857Y-85601857D01*
X56316476Y-85744714D01*
X56364095Y-85816142D01*
X56459333Y-85887571D01*
X56649809Y-85887571D01*
X56745047Y-85816142D01*
X56792666Y-85744714D01*
X56840285Y-85601857D01*
X56840285Y-85244714D01*
X56792666Y-85101857D01*
X56745047Y-85030428D01*
X56649809Y-84959000D01*
X56459333Y-84959000D01*
X56364095Y-85030428D01*
X56316476Y-85101857D01*
X56268857Y-85244714D01*
X55030761Y-88194714D02*
X54983142Y-88266142D01*
X54840285Y-88337571D01*
X54745047Y-88337571D01*
X54602190Y-88266142D01*
X54506952Y-88123285D01*
X54459333Y-87980428D01*
X54411714Y-87694714D01*
X54411714Y-87480428D01*
X54459333Y-87194714D01*
X54506952Y-87051857D01*
X54602190Y-86909000D01*
X54745047Y-86837571D01*
X54840285Y-86837571D01*
X54983142Y-86909000D01*
X55030761Y-86980428D01*
X55316476Y-86837571D02*
X55649809Y-88337571D01*
X55983142Y-86837571D01*
X56221238Y-86837571D02*
X56887904Y-86837571D01*
X56459333Y-88337571D01*
D11*
X94615142Y-55105000D02*
X94472285Y-55033571D01*
X94258000Y-55033571D01*
X94043714Y-55105000D01*
X93900857Y-55247857D01*
X93829428Y-55390714D01*
X93758000Y-55676428D01*
X93758000Y-55890714D01*
X93829428Y-56176428D01*
X93900857Y-56319285D01*
X94043714Y-56462142D01*
X94258000Y-56533571D01*
X94400857Y-56533571D01*
X94615142Y-56462142D01*
X94686571Y-56390714D01*
X94686571Y-55890714D01*
X94400857Y-55890714D01*
X95329428Y-56533571D02*
X95329428Y-55033571D01*
X96186571Y-56533571D01*
X96186571Y-55033571D01*
X96900857Y-56533571D02*
X96900857Y-55033571D01*
X97258000Y-55033571D01*
X97472285Y-55105000D01*
X97615142Y-55247857D01*
X97686571Y-55390714D01*
X97758000Y-55676428D01*
X97758000Y-55890714D01*
X97686571Y-56176428D01*
X97615142Y-56319285D01*
X97472285Y-56462142D01*
X97258000Y-56533571D01*
X96900857Y-56533571D01*
X94686571Y-58655000D02*
X95400857Y-58655000D01*
X94543714Y-59083571D02*
X95043714Y-57583571D01*
X95543714Y-59083571D01*
X96758000Y-57583571D02*
X96043714Y-57583571D01*
X95972285Y-58297857D01*
X96043714Y-58226428D01*
X96186571Y-58155000D01*
X96543714Y-58155000D01*
X96686571Y-58226428D01*
X96758000Y-58297857D01*
X96829428Y-58440714D01*
X96829428Y-58797857D01*
X96758000Y-58940714D01*
X96686571Y-59012142D01*
X96543714Y-59083571D01*
X96186571Y-59083571D01*
X96043714Y-59012142D01*
X95972285Y-58940714D01*
X94686571Y-61205000D02*
X95400857Y-61205000D01*
X94543714Y-61633571D02*
X95043714Y-60133571D01*
X95543714Y-61633571D01*
X96686571Y-60633571D02*
X96686571Y-61633571D01*
X96329428Y-60062142D02*
X95972285Y-61133571D01*
X96900857Y-61133571D01*
X93936571Y-64183571D02*
X93936571Y-62683571D01*
X94293714Y-62683571D01*
X94508000Y-62755000D01*
X94650857Y-62897857D01*
X94722285Y-63040714D01*
X94793714Y-63326428D01*
X94793714Y-63540714D01*
X94722285Y-63826428D01*
X94650857Y-63969285D01*
X94508000Y-64112142D01*
X94293714Y-64183571D01*
X93936571Y-64183571D01*
X96222285Y-64183571D02*
X95365142Y-64183571D01*
X95793714Y-64183571D02*
X95793714Y-62683571D01*
X95650857Y-62897857D01*
X95508000Y-63040714D01*
X95365142Y-63112142D01*
X96793714Y-62826428D02*
X96865142Y-62755000D01*
X97008000Y-62683571D01*
X97365142Y-62683571D01*
X97508000Y-62755000D01*
X97579428Y-62826428D01*
X97650857Y-62969285D01*
X97650857Y-63112142D01*
X97579428Y-63326428D01*
X96722285Y-64183571D01*
X97650857Y-64183571D01*
X93936571Y-66733571D02*
X93936571Y-65233571D01*
X94293714Y-65233571D01*
X94508000Y-65305000D01*
X94650857Y-65447857D01*
X94722285Y-65590714D01*
X94793714Y-65876428D01*
X94793714Y-66090714D01*
X94722285Y-66376428D01*
X94650857Y-66519285D01*
X94508000Y-66662142D01*
X94293714Y-66733571D01*
X93936571Y-66733571D01*
X96222285Y-66733571D02*
X95365142Y-66733571D01*
X95793714Y-66733571D02*
X95793714Y-65233571D01*
X95650857Y-65447857D01*
X95508000Y-65590714D01*
X95365142Y-65662142D01*
X96722285Y-65233571D02*
X97650857Y-65233571D01*
X97150857Y-65805000D01*
X97365142Y-65805000D01*
X97508000Y-65876428D01*
X97579428Y-65947857D01*
X97650857Y-66090714D01*
X97650857Y-66447857D01*
X97579428Y-66590714D01*
X97508000Y-66662142D01*
X97365142Y-66733571D01*
X96936571Y-66733571D01*
X96793714Y-66662142D01*
X96722285Y-66590714D01*
X95472285Y-67783571D02*
X94758000Y-67783571D01*
X94686571Y-68497857D01*
X94758000Y-68426428D01*
X94900857Y-68355000D01*
X95258000Y-68355000D01*
X95400857Y-68426428D01*
X95472285Y-68497857D01*
X95543714Y-68640714D01*
X95543714Y-68997857D01*
X95472285Y-69140714D01*
X95400857Y-69212142D01*
X95258000Y-69283571D01*
X94900857Y-69283571D01*
X94758000Y-69212142D01*
X94686571Y-69140714D01*
X95972285Y-67783571D02*
X96472285Y-69283571D01*
X96972285Y-67783571D01*
X93888857Y-75583571D02*
X93888857Y-74083571D01*
X94246000Y-74083571D01*
X94460285Y-74155000D01*
X94603142Y-74297857D01*
X94674571Y-74440714D01*
X94746000Y-74726428D01*
X94746000Y-74940714D01*
X94674571Y-75226428D01*
X94603142Y-75369285D01*
X94460285Y-75512142D01*
X94246000Y-75583571D01*
X93888857Y-75583571D01*
X96031714Y-74083571D02*
X95746000Y-74083571D01*
X95603142Y-74155000D01*
X95531714Y-74226428D01*
X95388857Y-74440714D01*
X95317428Y-74726428D01*
X95317428Y-75297857D01*
X95388857Y-75440714D01*
X95460285Y-75512142D01*
X95603142Y-75583571D01*
X95888857Y-75583571D01*
X96031714Y-75512142D01*
X96103142Y-75440714D01*
X96174571Y-75297857D01*
X96174571Y-74940714D01*
X96103142Y-74797857D01*
X96031714Y-74726428D01*
X95888857Y-74655000D01*
X95603142Y-74655000D01*
X95460285Y-74726428D01*
X95388857Y-74797857D01*
X95317428Y-74940714D01*
X93888857Y-78133571D02*
X93888857Y-76633571D01*
X94246000Y-76633571D01*
X94460285Y-76705000D01*
X94603142Y-76847857D01*
X94674571Y-76990714D01*
X94746000Y-77276428D01*
X94746000Y-77490714D01*
X94674571Y-77776428D01*
X94603142Y-77919285D01*
X94460285Y-78062142D01*
X94246000Y-78133571D01*
X93888857Y-78133571D01*
X95246000Y-76633571D02*
X96246000Y-76633571D01*
X95603142Y-78133571D01*
X93888857Y-80683571D02*
X93888857Y-79183571D01*
X94246000Y-79183571D01*
X94460285Y-79255000D01*
X94603142Y-79397857D01*
X94674571Y-79540714D01*
X94746000Y-79826428D01*
X94746000Y-80040714D01*
X94674571Y-80326428D01*
X94603142Y-80469285D01*
X94460285Y-80612142D01*
X94246000Y-80683571D01*
X93888857Y-80683571D01*
X95603142Y-79826428D02*
X95460285Y-79755000D01*
X95388857Y-79683571D01*
X95317428Y-79540714D01*
X95317428Y-79469285D01*
X95388857Y-79326428D01*
X95460285Y-79255000D01*
X95603142Y-79183571D01*
X95888857Y-79183571D01*
X96031714Y-79255000D01*
X96103142Y-79326428D01*
X96174571Y-79469285D01*
X96174571Y-79540714D01*
X96103142Y-79683571D01*
X96031714Y-79755000D01*
X95888857Y-79826428D01*
X95603142Y-79826428D01*
X95460285Y-79897857D01*
X95388857Y-79969285D01*
X95317428Y-80112142D01*
X95317428Y-80397857D01*
X95388857Y-80540714D01*
X95460285Y-80612142D01*
X95603142Y-80683571D01*
X95888857Y-80683571D01*
X96031714Y-80612142D01*
X96103142Y-80540714D01*
X96174571Y-80397857D01*
X96174571Y-80112142D01*
X96103142Y-79969285D01*
X96031714Y-79897857D01*
X95888857Y-79826428D01*
X93888857Y-83233571D02*
X93888857Y-81733571D01*
X94246000Y-81733571D01*
X94460285Y-81805000D01*
X94603142Y-81947857D01*
X94674571Y-82090714D01*
X94746000Y-82376428D01*
X94746000Y-82590714D01*
X94674571Y-82876428D01*
X94603142Y-83019285D01*
X94460285Y-83162142D01*
X94246000Y-83233571D01*
X93888857Y-83233571D01*
X95460285Y-83233571D02*
X95746000Y-83233571D01*
X95888857Y-83162142D01*
X95960285Y-83090714D01*
X96103142Y-82876428D01*
X96174571Y-82590714D01*
X96174571Y-82019285D01*
X96103142Y-81876428D01*
X96031714Y-81805000D01*
X95888857Y-81733571D01*
X95603142Y-81733571D01*
X95460285Y-81805000D01*
X95388857Y-81876428D01*
X95317428Y-82019285D01*
X95317428Y-82376428D01*
X95388857Y-82519285D01*
X95460285Y-82590714D01*
X95603142Y-82662142D01*
X95888857Y-82662142D01*
X96031714Y-82590714D01*
X96103142Y-82519285D01*
X96174571Y-82376428D01*
X93924571Y-85355000D02*
X94638857Y-85355000D01*
X93781714Y-85783571D02*
X94281714Y-84283571D01*
X94781714Y-85783571D01*
X95924571Y-84283571D02*
X95638857Y-84283571D01*
X95496000Y-84355000D01*
X95424571Y-84426428D01*
X95281714Y-84640714D01*
X95210285Y-84926428D01*
X95210285Y-85497857D01*
X95281714Y-85640714D01*
X95353142Y-85712142D01*
X95496000Y-85783571D01*
X95781714Y-85783571D01*
X95924571Y-85712142D01*
X95996000Y-85640714D01*
X96067428Y-85497857D01*
X96067428Y-85140714D01*
X95996000Y-84997857D01*
X95924571Y-84926428D01*
X95781714Y-84855000D01*
X95496000Y-84855000D01*
X95353142Y-84926428D01*
X95281714Y-84997857D01*
X95210285Y-85140714D01*
X93924571Y-87905000D02*
X94638857Y-87905000D01*
X93781714Y-88333571D02*
X94281714Y-86833571D01*
X94781714Y-88333571D01*
X95138857Y-86833571D02*
X96138857Y-86833571D01*
X95496000Y-88333571D01*
D10*
X60350476Y-55355000D02*
X60274285Y-55283571D01*
X60160000Y-55283571D01*
X60045714Y-55355000D01*
X59969523Y-55497857D01*
X59931428Y-55640714D01*
X59893333Y-55926428D01*
X59893333Y-56140714D01*
X59931428Y-56426428D01*
X59969523Y-56569285D01*
X60045714Y-56712142D01*
X60160000Y-56783571D01*
X60236190Y-56783571D01*
X60350476Y-56712142D01*
X60388571Y-56640714D01*
X60388571Y-56140714D01*
X60236190Y-56140714D01*
X60731428Y-56783571D02*
X60731428Y-55283571D01*
X61188571Y-56783571D01*
X61188571Y-55283571D01*
X61569523Y-56783571D02*
X61569523Y-55283571D01*
X61760000Y-55283571D01*
X61874285Y-55355000D01*
X61950476Y-55497857D01*
X61988571Y-55640714D01*
X62026666Y-55926428D01*
X62026666Y-56140714D01*
X61988571Y-56426428D01*
X61950476Y-56569285D01*
X61874285Y-56712142D01*
X61760000Y-56783571D01*
X61569523Y-56783571D01*
X60007619Y-59162142D02*
X60121904Y-59233571D01*
X60312380Y-59233571D01*
X60388571Y-59162142D01*
X60426666Y-59090714D01*
X60464761Y-58947857D01*
X60464761Y-58805000D01*
X60426666Y-58662142D01*
X60388571Y-58590714D01*
X60312380Y-58519285D01*
X60160000Y-58447857D01*
X60083809Y-58376428D01*
X60045714Y-58305000D01*
X60007619Y-58162142D01*
X60007619Y-58019285D01*
X60045714Y-57876428D01*
X60083809Y-57805000D01*
X60160000Y-57733571D01*
X60350476Y-57733571D01*
X60464761Y-57805000D01*
X61264761Y-59090714D02*
X61226666Y-59162142D01*
X61112380Y-59233571D01*
X61036190Y-59233571D01*
X60921904Y-59162142D01*
X60845714Y-59019285D01*
X60807619Y-58876428D01*
X60769523Y-58590714D01*
X60769523Y-58376428D01*
X60807619Y-58090714D01*
X60845714Y-57947857D01*
X60921904Y-57805000D01*
X61036190Y-57733571D01*
X61112380Y-57733571D01*
X61226666Y-57805000D01*
X61264761Y-57876428D01*
X61988571Y-59233571D02*
X61607619Y-59233571D01*
X61607619Y-57733571D01*
X59988571Y-61612142D02*
X60102857Y-61683571D01*
X60293333Y-61683571D01*
X60369523Y-61612142D01*
X60407619Y-61540714D01*
X60445714Y-61397857D01*
X60445714Y-61255000D01*
X60407619Y-61112142D01*
X60369523Y-61040714D01*
X60293333Y-60969285D01*
X60140952Y-60897857D01*
X60064761Y-60826428D01*
X60026666Y-60755000D01*
X59988571Y-60612142D01*
X59988571Y-60469285D01*
X60026666Y-60326428D01*
X60064761Y-60255000D01*
X60140952Y-60183571D01*
X60331428Y-60183571D01*
X60445714Y-60255000D01*
X60788571Y-61683571D02*
X60788571Y-60183571D01*
X60979047Y-60183571D01*
X61093333Y-60255000D01*
X61169523Y-60397857D01*
X61207619Y-60540714D01*
X61245714Y-60826428D01*
X61245714Y-61040714D01*
X61207619Y-61326428D01*
X61169523Y-61469285D01*
X61093333Y-61612142D01*
X60979047Y-61683571D01*
X60788571Y-61683571D01*
X61550476Y-61255000D02*
X61931428Y-61255000D01*
X61474285Y-61683571D02*
X61740952Y-60183571D01*
X62007619Y-61683571D01*
X60064761Y-64133571D02*
X59683809Y-64133571D01*
X59683809Y-62633571D01*
X60331428Y-64133571D02*
X60331428Y-62633571D01*
X60521904Y-62633571D01*
X60636190Y-62705000D01*
X60712380Y-62847857D01*
X60750476Y-62990714D01*
X60788571Y-63276428D01*
X60788571Y-63490714D01*
X60750476Y-63776428D01*
X60712380Y-63919285D01*
X60636190Y-64062142D01*
X60521904Y-64133571D01*
X60331428Y-64133571D01*
X61093333Y-63705000D02*
X61474285Y-63705000D01*
X61017142Y-64133571D02*
X61283809Y-62633571D01*
X61550476Y-64133571D01*
X62274285Y-63990714D02*
X62236190Y-64062142D01*
X62121904Y-64133571D01*
X62045714Y-64133571D01*
X61931428Y-64062142D01*
X61855238Y-63919285D01*
X61817142Y-63776428D01*
X61779047Y-63490714D01*
X61779047Y-63276428D01*
X61817142Y-62990714D01*
X61855238Y-62847857D01*
X61931428Y-62705000D01*
X62045714Y-62633571D01*
X62121904Y-62633571D01*
X62236190Y-62705000D01*
X62274285Y-62776428D01*
X60464761Y-66583571D02*
X60198095Y-65869285D01*
X60007619Y-66583571D02*
X60007619Y-65083571D01*
X60312380Y-65083571D01*
X60388571Y-65155000D01*
X60426666Y-65226428D01*
X60464761Y-65369285D01*
X60464761Y-65583571D01*
X60426666Y-65726428D01*
X60388571Y-65797857D01*
X60312380Y-65869285D01*
X60007619Y-65869285D01*
X60807619Y-66583571D02*
X60807619Y-65083571D01*
X60998095Y-65083571D01*
X61112380Y-65155000D01*
X61188571Y-65297857D01*
X61226666Y-65440714D01*
X61264761Y-65726428D01*
X61264761Y-65940714D01*
X61226666Y-66226428D01*
X61188571Y-66369285D01*
X61112380Y-66512142D01*
X60998095Y-66583571D01*
X60807619Y-66583571D01*
X61760000Y-65869285D02*
X61760000Y-66583571D01*
X61493333Y-65083571D02*
X61760000Y-65869285D01*
X62026666Y-65083571D01*
X59931428Y-68462142D02*
X60540952Y-68462142D01*
X60236190Y-69033571D02*
X60236190Y-67890714D01*
X61302857Y-67533571D02*
X60921904Y-67533571D01*
X60883809Y-68247857D01*
X60921904Y-68176428D01*
X60998095Y-68105000D01*
X61188571Y-68105000D01*
X61264761Y-68176428D01*
X61302857Y-68247857D01*
X61340952Y-68390714D01*
X61340952Y-68747857D01*
X61302857Y-68890714D01*
X61264761Y-68962142D01*
X61188571Y-69033571D01*
X60998095Y-69033571D01*
X60921904Y-68962142D01*
X60883809Y-68890714D01*
X61569523Y-67533571D02*
X61836190Y-69033571D01*
X62102857Y-67533571D01*
D11*
X67100142Y-28095571D02*
X67100142Y-26595571D01*
X67671571Y-26595571D01*
X67814428Y-26667000D01*
X67885857Y-26738428D01*
X67957285Y-26881285D01*
X67957285Y-27095571D01*
X67885857Y-27238428D01*
X67814428Y-27309857D01*
X67671571Y-27381285D01*
X67100142Y-27381285D01*
X69457285Y-28095571D02*
X68957285Y-27381285D01*
X68600142Y-28095571D02*
X68600142Y-26595571D01*
X69171571Y-26595571D01*
X69314428Y-26667000D01*
X69385857Y-26738428D01*
X69457285Y-26881285D01*
X69457285Y-27095571D01*
X69385857Y-27238428D01*
X69314428Y-27309857D01*
X69171571Y-27381285D01*
X68600142Y-27381285D01*
X70385857Y-26595571D02*
X70671571Y-26595571D01*
X70814428Y-26667000D01*
X70957285Y-26809857D01*
X71028714Y-27095571D01*
X71028714Y-27595571D01*
X70957285Y-27881285D01*
X70814428Y-28024142D01*
X70671571Y-28095571D01*
X70385857Y-28095571D01*
X70243000Y-28024142D01*
X70100142Y-27881285D01*
X70028714Y-27595571D01*
X70028714Y-27095571D01*
X70100142Y-26809857D01*
X70243000Y-26667000D01*
X70385857Y-26595571D01*
X71671571Y-28095571D02*
X71671571Y-26595571D01*
X72171571Y-27667000D01*
X72671571Y-26595571D01*
X72671571Y-28095571D01*
X73385857Y-27309857D02*
X73885857Y-27309857D01*
X74100142Y-28095571D02*
X73385857Y-28095571D01*
X73385857Y-26595571D01*
X74100142Y-26595571D01*
X74671571Y-28024142D02*
X74885857Y-28095571D01*
X75243000Y-28095571D01*
X75385857Y-28024142D01*
X75457285Y-27952714D01*
X75528714Y-27809857D01*
X75528714Y-27667000D01*
X75457285Y-27524142D01*
X75385857Y-27452714D01*
X75243000Y-27381285D01*
X74957285Y-27309857D01*
X74814428Y-27238428D01*
X74743000Y-27167000D01*
X74671571Y-27024142D01*
X74671571Y-26881285D01*
X74743000Y-26738428D01*
X74814428Y-26667000D01*
X74957285Y-26595571D01*
X75314428Y-26595571D01*
X75528714Y-26667000D01*
X76457285Y-26595571D02*
X76743000Y-26595571D01*
X76885857Y-26667000D01*
X77028714Y-26809857D01*
X77100142Y-27095571D01*
X77100142Y-27595571D01*
X77028714Y-27881285D01*
X76885857Y-28024142D01*
X76743000Y-28095571D01*
X76457285Y-28095571D01*
X76314428Y-28024142D01*
X76171571Y-27881285D01*
X76100142Y-27595571D01*
X76100142Y-27095571D01*
X76171571Y-26809857D01*
X76314428Y-26667000D01*
X76457285Y-26595571D01*
X78243000Y-27309857D02*
X77743000Y-27309857D01*
X77743000Y-28095571D02*
X77743000Y-26595571D01*
X78457285Y-26595571D01*
X78814428Y-26595571D02*
X79671571Y-26595571D01*
X79243000Y-28095571D02*
X79243000Y-26595571D01*
X67528714Y-29145571D02*
X67528714Y-30217000D01*
X67457285Y-30431285D01*
X67314428Y-30574142D01*
X67100142Y-30645571D01*
X66957285Y-30645571D01*
X68457285Y-30645571D02*
X68314428Y-30574142D01*
X68243000Y-30502714D01*
X68171571Y-30359857D01*
X68171571Y-29931285D01*
X68243000Y-29788428D01*
X68314428Y-29717000D01*
X68457285Y-29645571D01*
X68671571Y-29645571D01*
X68814428Y-29717000D01*
X68885857Y-29788428D01*
X68957285Y-29931285D01*
X68957285Y-30359857D01*
X68885857Y-30502714D01*
X68814428Y-30574142D01*
X68671571Y-30645571D01*
X68457285Y-30645571D01*
X69600142Y-30645571D02*
X69600142Y-29145571D01*
X70243000Y-30645571D02*
X70243000Y-29859857D01*
X70171571Y-29717000D01*
X70028714Y-29645571D01*
X69814428Y-29645571D01*
X69671571Y-29717000D01*
X69600142Y-29788428D01*
X71600142Y-30645571D02*
X71600142Y-29859857D01*
X71528714Y-29717000D01*
X71385857Y-29645571D01*
X71100142Y-29645571D01*
X70957285Y-29717000D01*
X71600142Y-30574142D02*
X71457285Y-30645571D01*
X71100142Y-30645571D01*
X70957285Y-30574142D01*
X70885857Y-30431285D01*
X70885857Y-30288428D01*
X70957285Y-30145571D01*
X71100142Y-30074142D01*
X71457285Y-30074142D01*
X71600142Y-30002714D01*
X72314428Y-29645571D02*
X72314428Y-30645571D01*
X72314428Y-29788428D02*
X72385857Y-29717000D01*
X72528714Y-29645571D01*
X72743000Y-29645571D01*
X72885857Y-29717000D01*
X72957285Y-29859857D01*
X72957285Y-30645571D01*
X73600142Y-30574142D02*
X73743000Y-30645571D01*
X74028714Y-30645571D01*
X74171571Y-30574142D01*
X74243000Y-30431285D01*
X74243000Y-30359857D01*
X74171571Y-30217000D01*
X74028714Y-30145571D01*
X73814428Y-30145571D01*
X73671571Y-30074142D01*
X73600142Y-29931285D01*
X73600142Y-29859857D01*
X73671571Y-29717000D01*
X73814428Y-29645571D01*
X74028714Y-29645571D01*
X74171571Y-29717000D01*
X75457285Y-30574142D02*
X75314428Y-30645571D01*
X75028714Y-30645571D01*
X74885857Y-30574142D01*
X74814428Y-30431285D01*
X74814428Y-29859857D01*
X74885857Y-29717000D01*
X75028714Y-29645571D01*
X75314428Y-29645571D01*
X75457285Y-29717000D01*
X75528714Y-29859857D01*
X75528714Y-30002714D01*
X74814428Y-30145571D01*
X76171571Y-29645571D02*
X76171571Y-30645571D01*
X76171571Y-29788428D02*
X76243000Y-29717000D01*
X76385857Y-29645571D01*
X76600142Y-29645571D01*
X76743000Y-29717000D01*
X76814428Y-29859857D01*
X76814428Y-30645571D01*
X78671571Y-29859857D02*
X79171571Y-29859857D01*
X79385857Y-30645571D02*
X78671571Y-30645571D01*
X78671571Y-29145571D01*
X79385857Y-29145571D01*
X80028714Y-29645571D02*
X80028714Y-30645571D01*
X80028714Y-29788428D02*
X80100142Y-29717000D01*
X80243000Y-29645571D01*
X80457285Y-29645571D01*
X80600142Y-29717000D01*
X80671571Y-29859857D01*
X80671571Y-30645571D01*
X82028714Y-29645571D02*
X82028714Y-30859857D01*
X81957285Y-31002714D01*
X81885857Y-31074142D01*
X81743000Y-31145571D01*
X81528714Y-31145571D01*
X81385857Y-31074142D01*
X82028714Y-30574142D02*
X81885857Y-30645571D01*
X81600142Y-30645571D01*
X81457285Y-30574142D01*
X81385857Y-30502714D01*
X81314428Y-30359857D01*
X81314428Y-29931285D01*
X81385857Y-29788428D01*
X81457285Y-29717000D01*
X81600142Y-29645571D01*
X81885857Y-29645571D01*
X82028714Y-29717000D01*
X82743000Y-30645571D02*
X82743000Y-29645571D01*
X82743000Y-29145571D02*
X82671571Y-29217000D01*
X82743000Y-29288428D01*
X82814428Y-29217000D01*
X82743000Y-29145571D01*
X82743000Y-29288428D01*
X83457285Y-29645571D02*
X83457285Y-30645571D01*
X83457285Y-29788428D02*
X83528714Y-29717000D01*
X83671571Y-29645571D01*
X83885857Y-29645571D01*
X84028714Y-29717000D01*
X84100142Y-29859857D01*
X84100142Y-30645571D01*
X85385857Y-30574142D02*
X85243000Y-30645571D01*
X84957285Y-30645571D01*
X84814428Y-30574142D01*
X84743000Y-30431285D01*
X84743000Y-29859857D01*
X84814428Y-29717000D01*
X84957285Y-29645571D01*
X85243000Y-29645571D01*
X85385857Y-29717000D01*
X85457285Y-29859857D01*
X85457285Y-30002714D01*
X84743000Y-30145571D01*
X86100142Y-30645571D02*
X86100142Y-29645571D01*
X86100142Y-29931285D02*
X86171571Y-29788428D01*
X86243000Y-29717000D01*
X86385857Y-29645571D01*
X86528714Y-29645571D01*
X87028714Y-30645571D02*
X87028714Y-29645571D01*
X87028714Y-29931285D02*
X87100142Y-29788428D01*
X87171571Y-29717000D01*
X87314428Y-29645571D01*
X87457285Y-29645571D01*
X87957285Y-30645571D02*
X87957285Y-29645571D01*
X87957285Y-29145571D02*
X87885857Y-29217000D01*
X87957285Y-29288428D01*
X88028714Y-29217000D01*
X87957285Y-29145571D01*
X87957285Y-29288428D01*
X88671571Y-29645571D02*
X88671571Y-30645571D01*
X88671571Y-29788428D02*
X88743000Y-29717000D01*
X88885857Y-29645571D01*
X89100142Y-29645571D01*
X89243000Y-29717000D01*
X89314428Y-29859857D01*
X89314428Y-30645571D01*
X90671571Y-29645571D02*
X90671571Y-30859857D01*
X90600142Y-31002714D01*
X90528714Y-31074142D01*
X90385857Y-31145571D01*
X90171571Y-31145571D01*
X90028714Y-31074142D01*
X90671571Y-30574142D02*
X90528714Y-30645571D01*
X90243000Y-30645571D01*
X90100142Y-30574142D01*
X90028714Y-30502714D01*
X89957285Y-30359857D01*
X89957285Y-29931285D01*
X90028714Y-29788428D01*
X90100142Y-29717000D01*
X90243000Y-29645571D01*
X90528714Y-29645571D01*
X90671571Y-29717000D01*
X67100142Y-33195571D02*
X67100142Y-31695571D01*
X67600142Y-32767000D01*
X68100142Y-31695571D01*
X68100142Y-33195571D01*
X68814428Y-33195571D02*
X68814428Y-31695571D01*
X69528714Y-33195571D02*
X69528714Y-31695571D01*
X69885857Y-31695571D01*
X70100142Y-31767000D01*
X70243000Y-31909857D01*
X70314428Y-32052714D01*
X70385857Y-32338428D01*
X70385857Y-32552714D01*
X70314428Y-32838428D01*
X70243000Y-32981285D01*
X70100142Y-33124142D01*
X69885857Y-33195571D01*
X69528714Y-33195571D01*
X71028714Y-33195571D02*
X71028714Y-31695571D01*
X71671571Y-31838428D02*
X71743000Y-31767000D01*
X71885857Y-31695571D01*
X72243000Y-31695571D01*
X72385857Y-31767000D01*
X72457285Y-31838428D01*
X72528714Y-31981285D01*
X72528714Y-32124142D01*
X72457285Y-32338428D01*
X71600142Y-33195571D01*
X72528714Y-33195571D01*
X74028714Y-33052714D02*
X73957285Y-33124142D01*
X73743000Y-33195571D01*
X73600142Y-33195571D01*
X73385857Y-33124142D01*
X73243000Y-32981285D01*
X73171571Y-32838428D01*
X73100142Y-32552714D01*
X73100142Y-32338428D01*
X73171571Y-32052714D01*
X73243000Y-31909857D01*
X73385857Y-31767000D01*
X73600142Y-31695571D01*
X73743000Y-31695571D01*
X73957285Y-31767000D01*
X74028714Y-31838428D01*
X74457285Y-31695571D02*
X74957285Y-33195571D01*
X75457285Y-31695571D01*
X77957285Y-33195571D02*
X77457285Y-32481285D01*
X77100142Y-33195571D02*
X77100142Y-31695571D01*
X77671571Y-31695571D01*
X77814428Y-31767000D01*
X77885857Y-31838428D01*
X77957285Y-31981285D01*
X77957285Y-32195571D01*
X77885857Y-32338428D01*
X77814428Y-32409857D01*
X77671571Y-32481285D01*
X77100142Y-32481285D01*
X79171571Y-33124142D02*
X79028714Y-33195571D01*
X78743000Y-33195571D01*
X78600142Y-33124142D01*
X78528714Y-32981285D01*
X78528714Y-32409857D01*
X78600142Y-32267000D01*
X78743000Y-32195571D01*
X79028714Y-32195571D01*
X79171571Y-32267000D01*
X79243000Y-32409857D01*
X79243000Y-32552714D01*
X78528714Y-32695571D01*
X79743000Y-32195571D02*
X80100142Y-33195571D01*
X80457285Y-32195571D01*
X82100142Y-32767000D02*
X82814428Y-32767000D01*
X81957285Y-33195571D02*
X82457285Y-31695571D01*
X82957285Y-33195571D01*
X67028714Y-34388428D02*
X67100142Y-34317000D01*
X67243000Y-34245571D01*
X67600142Y-34245571D01*
X67743000Y-34317000D01*
X67814428Y-34388428D01*
X67885857Y-34531285D01*
X67885857Y-34674142D01*
X67814428Y-34888428D01*
X66957285Y-35745571D01*
X67885857Y-35745571D01*
X68814428Y-34245571D02*
X68957285Y-34245571D01*
X69100142Y-34317000D01*
X69171571Y-34388428D01*
X69243000Y-34531285D01*
X69314428Y-34817000D01*
X69314428Y-35174142D01*
X69243000Y-35459857D01*
X69171571Y-35602714D01*
X69100142Y-35674142D01*
X68957285Y-35745571D01*
X68814428Y-35745571D01*
X68671571Y-35674142D01*
X68600142Y-35602714D01*
X68528714Y-35459857D01*
X68457285Y-35174142D01*
X68457285Y-34817000D01*
X68528714Y-34531285D01*
X68600142Y-34388428D01*
X68671571Y-34317000D01*
X68814428Y-34245571D01*
X70743000Y-35745571D02*
X69885857Y-35745571D01*
X70314428Y-35745571D02*
X70314428Y-34245571D01*
X70171571Y-34459857D01*
X70028714Y-34602714D01*
X69885857Y-34674142D01*
X71600142Y-34888428D02*
X71457285Y-34817000D01*
X71385857Y-34745571D01*
X71314428Y-34602714D01*
X71314428Y-34531285D01*
X71385857Y-34388428D01*
X71457285Y-34317000D01*
X71600142Y-34245571D01*
X71885857Y-34245571D01*
X72028714Y-34317000D01*
X72100142Y-34388428D01*
X72171571Y-34531285D01*
X72171571Y-34602714D01*
X72100142Y-34745571D01*
X72028714Y-34817000D01*
X71885857Y-34888428D01*
X71600142Y-34888428D01*
X71457285Y-34959857D01*
X71385857Y-35031285D01*
X71314428Y-35174142D01*
X71314428Y-35459857D01*
X71385857Y-35602714D01*
X71457285Y-35674142D01*
X71600142Y-35745571D01*
X71885857Y-35745571D01*
X72028714Y-35674142D01*
X72100142Y-35602714D01*
X72171571Y-35459857D01*
X72171571Y-35174142D01*
X72100142Y-35031285D01*
X72028714Y-34959857D01*
X71885857Y-34888428D01*
X72671571Y-34245571D02*
X73028714Y-35745571D01*
X73314428Y-34674142D01*
X73600142Y-35745571D01*
X73957285Y-34245571D01*
X75243000Y-34245571D02*
X74528714Y-34245571D01*
X74457285Y-34959857D01*
X74528714Y-34888428D01*
X74671571Y-34817000D01*
X75028714Y-34817000D01*
X75171571Y-34888428D01*
X75243000Y-34959857D01*
X75314428Y-35102714D01*
X75314428Y-35459857D01*
X75243000Y-35602714D01*
X75171571Y-35674142D01*
X75028714Y-35745571D01*
X74671571Y-35745571D01*
X74528714Y-35674142D01*
X74457285Y-35602714D01*
X75885857Y-34388428D02*
X75957285Y-34317000D01*
X76100142Y-34245571D01*
X76457285Y-34245571D01*
X76600142Y-34317000D01*
X76671571Y-34388428D01*
X76743000Y-34531285D01*
X76743000Y-34674142D01*
X76671571Y-34888428D01*
X75814428Y-35745571D01*
X76743000Y-35745571D01*
D12*
X63500000Y-106680000D02*
X63500000Y-39370000D01*
X64135000Y-106680000D02*
X63500000Y-106680000D01*
X64135000Y-39370000D02*
X64135000Y-106680000D01*
X63500000Y-39370000D02*
X64135000Y-39370000D01*
D13*
X25400000Y-125095000D02*
X25400000Y-25400000D01*
X125095000Y-125095000D02*
X25400000Y-125095000D01*
X125095000Y-25400000D02*
X125095000Y-125095000D01*
X25400000Y-25400000D02*
X125095000Y-25400000D01*
D14*
X86868000Y-83820000D02*
X86868000Y-86360000D01*
X86868000Y-86360000D02*
X89538000Y-86360000D01*
X89538000Y-83820000D02*
X89538000Y-45590000D01*
X89538000Y-89030000D02*
X89538000Y-86360000D01*
X74168000Y-86360000D02*
X71498000Y-86360000D01*
X74168000Y-86360000D02*
X74168000Y-48260000D01*
X74168000Y-48260000D02*
X71498000Y-48260000D01*
X86868000Y-83820000D02*
X89538000Y-83820000D01*
X86868000Y-83820000D02*
X86868000Y-48260000D01*
X86868000Y-48260000D02*
X89538000Y-48260000D01*
X89538000Y-45590000D02*
X71498000Y-45590000D01*
X71498000Y-45590000D02*
X71498000Y-89030000D01*
X71498000Y-89030000D02*
X89538000Y-89030000D01*
D13*
X47635000Y-44875000D02*
X47635000Y-43125000D01*
X41880000Y-44875000D02*
X41880000Y-50375000D01*
X48290000Y-44875000D02*
X48290000Y-50375000D01*
X41880000Y-44875000D02*
X42630000Y-44875000D01*
X41880000Y-50375000D02*
X42630000Y-50375000D01*
X48290000Y-50375000D02*
X47540000Y-50375000D01*
X48290000Y-44875000D02*
X47635000Y-44875000D01*
X47185000Y-44975000D02*
X48185000Y-45975000D01*
X25805000Y-42291000D02*
X36425000Y-42291001D01*
X36449000Y-42291000D02*
X36449000Y-35179000D01*
X36425000Y-35179000D02*
X25805000Y-35178999D01*
X25781000Y-35179000D02*
X25781000Y-37211000D01*
X25781000Y-37211000D02*
X24765000Y-37211000D01*
X24765000Y-37211000D02*
X24765000Y-40005000D01*
X24765000Y-40005000D02*
X25781000Y-40005000D01*
X25781000Y-40005000D02*
X25781000Y-42291000D01*
D14*
X85150000Y-106680000D02*
G75*
G03X85150000Y-106680000I-2620000J0D01*
G01*
X82530000Y-104100000D02*
X82530000Y-109260000D01*
X82570000Y-104100000D02*
X82570000Y-109260000D01*
X82610000Y-104101000D02*
X82610000Y-109259000D01*
X82650000Y-104102000D02*
X82650000Y-109258000D01*
X82690000Y-104104000D02*
X82690000Y-109256000D01*
X82730000Y-104107000D02*
X82730000Y-109253000D01*
X82770000Y-104111000D02*
X82770000Y-105640000D01*
X82770000Y-107720000D02*
X82770000Y-109249000D01*
X82810000Y-104115000D02*
X82810000Y-105640000D01*
X82810000Y-107720000D02*
X82810000Y-109245000D01*
X82850000Y-104119000D02*
X82850000Y-105640000D01*
X82850000Y-107720000D02*
X82850000Y-109241000D01*
X82890000Y-104124000D02*
X82890000Y-105640000D01*
X82890000Y-107720000D02*
X82890000Y-109236000D01*
X82930000Y-104130000D02*
X82930000Y-105640000D01*
X82930000Y-107720000D02*
X82930000Y-109230000D01*
X82970000Y-104137000D02*
X82970000Y-105640000D01*
X82970000Y-107720000D02*
X82970000Y-109223000D01*
X83010000Y-104144000D02*
X83010000Y-105640000D01*
X83010000Y-107720000D02*
X83010000Y-109216000D01*
X83050000Y-104152000D02*
X83050000Y-105640000D01*
X83050000Y-107720000D02*
X83050000Y-109208000D01*
X83090000Y-104160000D02*
X83090000Y-105640000D01*
X83090000Y-107720000D02*
X83090000Y-109200000D01*
X83130000Y-104169000D02*
X83130000Y-105640000D01*
X83130000Y-107720000D02*
X83130000Y-109191000D01*
X83170000Y-104179000D02*
X83170000Y-105640000D01*
X83170000Y-107720000D02*
X83170000Y-109181000D01*
X83210000Y-104189000D02*
X83210000Y-105640000D01*
X83210000Y-107720000D02*
X83210000Y-109171000D01*
X83251000Y-104200000D02*
X83251000Y-105640000D01*
X83251000Y-107720000D02*
X83251000Y-109160000D01*
X83291000Y-104212000D02*
X83291000Y-105640000D01*
X83291000Y-107720000D02*
X83291000Y-109148000D01*
X83331000Y-104225000D02*
X83331000Y-105640000D01*
X83331000Y-107720000D02*
X83331000Y-109135000D01*
X83371000Y-104238000D02*
X83371000Y-105640000D01*
X83371000Y-107720000D02*
X83371000Y-109122000D01*
X83411000Y-104252000D02*
X83411000Y-105640000D01*
X83411000Y-107720000D02*
X83411000Y-109108000D01*
X83451000Y-104266000D02*
X83451000Y-105640000D01*
X83451000Y-107720000D02*
X83451000Y-109094000D01*
X83491000Y-104282000D02*
X83491000Y-105640000D01*
X83491000Y-107720000D02*
X83491000Y-109078000D01*
X83531000Y-104298000D02*
X83531000Y-105640000D01*
X83531000Y-107720000D02*
X83531000Y-109062000D01*
X83571000Y-104315000D02*
X83571000Y-105640000D01*
X83571000Y-107720000D02*
X83571000Y-109045000D01*
X83611000Y-104332000D02*
X83611000Y-105640000D01*
X83611000Y-107720000D02*
X83611000Y-109028000D01*
X83651000Y-104351000D02*
X83651000Y-105640000D01*
X83651000Y-107720000D02*
X83651000Y-109009000D01*
X83691000Y-104370000D02*
X83691000Y-105640000D01*
X83691000Y-107720000D02*
X83691000Y-108990000D01*
X83731000Y-104390000D02*
X83731000Y-105640000D01*
X83731000Y-107720000D02*
X83731000Y-108970000D01*
X83771000Y-104412000D02*
X83771000Y-105640000D01*
X83771000Y-107720000D02*
X83771000Y-108948000D01*
X83811000Y-104433000D02*
X83811000Y-105640000D01*
X83811000Y-107720000D02*
X83811000Y-108927000D01*
X83851000Y-104456000D02*
X83851000Y-105640000D01*
X83851000Y-107720000D02*
X83851000Y-108904000D01*
X83891000Y-104480000D02*
X83891000Y-105640000D01*
X83891000Y-107720000D02*
X83891000Y-108880000D01*
X83931000Y-104505000D02*
X83931000Y-105640000D01*
X83931000Y-107720000D02*
X83931000Y-108855000D01*
X83971000Y-104531000D02*
X83971000Y-105640000D01*
X83971000Y-107720000D02*
X83971000Y-108829000D01*
X84011000Y-104558000D02*
X84011000Y-105640000D01*
X84011000Y-107720000D02*
X84011000Y-108802000D01*
X84051000Y-104585000D02*
X84051000Y-105640000D01*
X84051000Y-107720000D02*
X84051000Y-108775000D01*
X84091000Y-104615000D02*
X84091000Y-105640000D01*
X84091000Y-107720000D02*
X84091000Y-108745000D01*
X84131000Y-104645000D02*
X84131000Y-105640000D01*
X84131000Y-107720000D02*
X84131000Y-108715000D01*
X84171000Y-104676000D02*
X84171000Y-105640000D01*
X84171000Y-107720000D02*
X84171000Y-108684000D01*
X84211000Y-104709000D02*
X84211000Y-105640000D01*
X84211000Y-107720000D02*
X84211000Y-108651000D01*
X84251000Y-104743000D02*
X84251000Y-105640000D01*
X84251000Y-107720000D02*
X84251000Y-108617000D01*
X84291000Y-104779000D02*
X84291000Y-105640000D01*
X84291000Y-107720000D02*
X84291000Y-108581000D01*
X84331000Y-104816000D02*
X84331000Y-105640000D01*
X84331000Y-107720000D02*
X84331000Y-108544000D01*
X84371000Y-104854000D02*
X84371000Y-105640000D01*
X84371000Y-107720000D02*
X84371000Y-108506000D01*
X84411000Y-104895000D02*
X84411000Y-105640000D01*
X84411000Y-107720000D02*
X84411000Y-108465000D01*
X84451000Y-104937000D02*
X84451000Y-105640000D01*
X84451000Y-107720000D02*
X84451000Y-108423000D01*
X84491000Y-104981000D02*
X84491000Y-105640000D01*
X84491000Y-107720000D02*
X84491000Y-108379000D01*
X84531000Y-105027000D02*
X84531000Y-105640000D01*
X84531000Y-107720000D02*
X84531000Y-108333000D01*
X84571000Y-105075000D02*
X84571000Y-105640000D01*
X84571000Y-107720000D02*
X84571000Y-108285000D01*
X84611000Y-105126000D02*
X84611000Y-105640000D01*
X84611000Y-107720000D02*
X84611000Y-108234000D01*
X84651000Y-105180000D02*
X84651000Y-105640000D01*
X84651000Y-107720000D02*
X84651000Y-108180000D01*
X84691000Y-105237000D02*
X84691000Y-105640000D01*
X84691000Y-107720000D02*
X84691000Y-108123000D01*
X84731000Y-105297000D02*
X84731000Y-105640000D01*
X84731000Y-107720000D02*
X84731000Y-108063000D01*
X84771000Y-105361000D02*
X84771000Y-105640000D01*
X84771000Y-107720000D02*
X84771000Y-107999000D01*
X84811000Y-105429000D02*
X84811000Y-105640000D01*
X84811000Y-107720000D02*
X84811000Y-107931000D01*
X84851000Y-105502000D02*
X84851000Y-107858000D01*
X84891000Y-105582000D02*
X84891000Y-107778000D01*
X84931000Y-105669000D02*
X84931000Y-107691000D01*
X84971000Y-105765000D02*
X84971000Y-107595000D01*
X85011000Y-105875000D02*
X85011000Y-107485000D01*
X85051000Y-106003000D02*
X85051000Y-107357000D01*
X85091000Y-106162000D02*
X85091000Y-107198000D01*
X85131000Y-106396000D02*
X85131000Y-106964000D01*
X79725225Y-105205000D02*
X80225225Y-105205000D01*
X79975225Y-104955000D02*
X79975225Y-105455000D01*
X70052000Y-84081252D02*
X70052000Y-83558748D01*
X68632000Y-84081252D02*
X68632000Y-83558748D01*
X40080000Y-68826748D02*
X40080000Y-69349252D01*
X38660000Y-68826748D02*
X38660000Y-69349252D01*
X45458748Y-54812000D02*
X45981252Y-54812000D01*
X45458748Y-53392000D02*
X45981252Y-53392000D01*
X44823748Y-40715000D02*
X45346252Y-40715000D01*
X44823748Y-39295000D02*
X45346252Y-39295000D01*
X132197000Y-77179999D02*
G75*
G02X132197000Y-80299999I0J-1560000D01*
G01*
X128337000Y-80299999D02*
X132197000Y-80299999D01*
X128337000Y-77179999D02*
X132197000Y-77179999D01*
X128337000Y-80299999D02*
X128337000Y-77179999D01*
X128337000Y-76779999D02*
X129457000Y-76779999D01*
X129457000Y-76779999D02*
X129457000Y-77179999D01*
X129457000Y-77179999D02*
X128337000Y-77179999D01*
X128337000Y-77179999D02*
X128337000Y-76779999D01*
X123127000Y-80009999D02*
X128337000Y-80009999D01*
X128337000Y-80009999D02*
X128337000Y-80009999D01*
X128337000Y-80009999D02*
X123127000Y-80009999D01*
X123127000Y-80009999D02*
X123127000Y-80009999D01*
X123127000Y-77469999D02*
X128337000Y-77469999D01*
X128337000Y-77469999D02*
X128337000Y-77469999D01*
X128337000Y-77469999D02*
X123127000Y-77469999D01*
X123127000Y-77469999D02*
X123127000Y-77469999D01*
X123127000Y-72384285D02*
X123127000Y-72384285D01*
X128337000Y-72384285D02*
X123127000Y-72384285D01*
X128337000Y-72384285D02*
X128337000Y-72384285D01*
X123127000Y-72384285D02*
X128337000Y-72384285D01*
X123127000Y-74924285D02*
X123127000Y-74924285D01*
X128337000Y-74924285D02*
X123127000Y-74924285D01*
X128337000Y-74924285D02*
X128337000Y-74924285D01*
X123127000Y-74924285D02*
X128337000Y-74924285D01*
X128337000Y-72094285D02*
X128337000Y-71694285D01*
X129457000Y-72094285D02*
X128337000Y-72094285D01*
X129457000Y-71694285D02*
X129457000Y-72094285D01*
X128337000Y-71694285D02*
X129457000Y-71694285D01*
X128337000Y-75214285D02*
X128337000Y-72094285D01*
X128337000Y-72094285D02*
X132197000Y-72094285D01*
X128337000Y-75214285D02*
X132197000Y-75214285D01*
X132197000Y-72094285D02*
G75*
G02X132197000Y-75214285I0J-1560000D01*
G01*
X132197000Y-67008571D02*
G75*
G02X132197000Y-70128571I0J-1560000D01*
G01*
X128337000Y-70128571D02*
X132197000Y-70128571D01*
X128337000Y-67008571D02*
X132197000Y-67008571D01*
X128337000Y-70128571D02*
X128337000Y-67008571D01*
X128337000Y-66608571D02*
X129457000Y-66608571D01*
X129457000Y-66608571D02*
X129457000Y-67008571D01*
X129457000Y-67008571D02*
X128337000Y-67008571D01*
X128337000Y-67008571D02*
X128337000Y-66608571D01*
X123127000Y-69838571D02*
X128337000Y-69838571D01*
X128337000Y-69838571D02*
X128337000Y-69838571D01*
X128337000Y-69838571D02*
X123127000Y-69838571D01*
X123127000Y-69838571D02*
X123127000Y-69838571D01*
X123127000Y-67298571D02*
X128337000Y-67298571D01*
X128337000Y-67298571D02*
X128337000Y-67298571D01*
X128337000Y-67298571D02*
X123127000Y-67298571D01*
X123127000Y-67298571D02*
X123127000Y-67298571D01*
X123127000Y-62212857D02*
X123127000Y-62212857D01*
X128337000Y-62212857D02*
X123127000Y-62212857D01*
X128337000Y-62212857D02*
X128337000Y-62212857D01*
X123127000Y-62212857D02*
X128337000Y-62212857D01*
X123127000Y-64752857D02*
X123127000Y-64752857D01*
X128337000Y-64752857D02*
X123127000Y-64752857D01*
X128337000Y-64752857D02*
X128337000Y-64752857D01*
X123127000Y-64752857D02*
X128337000Y-64752857D01*
X128337000Y-61922857D02*
X128337000Y-61522857D01*
X129457000Y-61922857D02*
X128337000Y-61922857D01*
X129457000Y-61522857D02*
X129457000Y-61922857D01*
X128337000Y-61522857D02*
X129457000Y-61522857D01*
X128337000Y-65042857D02*
X128337000Y-61922857D01*
X128337000Y-61922857D02*
X132197000Y-61922857D01*
X128337000Y-65042857D02*
X132197000Y-65042857D01*
X132197000Y-61922857D02*
G75*
G02X132197000Y-65042857I0J-1560000D01*
G01*
X132197000Y-54320000D02*
G75*
G02X132197000Y-57440000I0J-1560000D01*
G01*
X128337000Y-57440000D02*
X132197000Y-57440000D01*
X128337000Y-54320000D02*
X132197000Y-54320000D01*
X128337000Y-57440000D02*
X128337000Y-54320000D01*
X128337000Y-53920000D02*
X129457000Y-53920000D01*
X129457000Y-53920000D02*
X129457000Y-54320000D01*
X129457000Y-54320000D02*
X128337000Y-54320000D01*
X128337000Y-54320000D02*
X128337000Y-53920000D01*
X123127000Y-57150000D02*
X128337000Y-57150000D01*
X128337000Y-57150000D02*
X128337000Y-57150000D01*
X128337000Y-57150000D02*
X123127000Y-57150000D01*
X123127000Y-57150000D02*
X123127000Y-57150000D01*
X123127000Y-54610000D02*
X128337000Y-54610000D01*
X128337000Y-54610000D02*
X128337000Y-54610000D01*
X128337000Y-54610000D02*
X123127000Y-54610000D01*
X123127000Y-54610000D02*
X123127000Y-54610000D01*
X123127000Y-49530000D02*
X123127000Y-49530000D01*
X128337000Y-49530000D02*
X123127000Y-49530000D01*
X128337000Y-49530000D02*
X128337000Y-49530000D01*
X123127000Y-49530000D02*
X128337000Y-49530000D01*
X123127000Y-52070000D02*
X123127000Y-52070000D01*
X128337000Y-52070000D02*
X123127000Y-52070000D01*
X128337000Y-52070000D02*
X128337000Y-52070000D01*
X123127000Y-52070000D02*
X128337000Y-52070000D01*
X128337000Y-49240000D02*
X128337000Y-48840000D01*
X129457000Y-49240000D02*
X128337000Y-49240000D01*
X129457000Y-48840000D02*
X129457000Y-49240000D01*
X128337000Y-48840000D02*
X129457000Y-48840000D01*
X128337000Y-52360000D02*
X128337000Y-49240000D01*
X128337000Y-49240000D02*
X132197000Y-49240000D01*
X128337000Y-52360000D02*
X132197000Y-52360000D01*
X132197000Y-49240000D02*
G75*
G02X132197000Y-52360000I0J-1560000D01*
G01*
X52070000Y-36135000D02*
X53400000Y-36135000D01*
X53400000Y-36135000D02*
X53400000Y-37465000D01*
X53400000Y-38735000D02*
X53400000Y-51495000D01*
X50740000Y-51495000D02*
X53400000Y-51495000D01*
X50740000Y-38735000D02*
X50740000Y-51495000D01*
X50740000Y-38735000D02*
X53400000Y-38735000D01*
X50740000Y-57150000D02*
X53400000Y-57150000D01*
X50740000Y-57150000D02*
X50740000Y-69910000D01*
X50740000Y-69910000D02*
X53400000Y-69910000D01*
X53400000Y-57150000D02*
X53400000Y-69910000D01*
X53400000Y-54550000D02*
X53400000Y-55880000D01*
X52070000Y-54550000D02*
X53400000Y-54550000D01*
X101090000Y-113340000D02*
X101090000Y-112410000D01*
X101090000Y-110180000D02*
X101090000Y-111110000D01*
X101090000Y-110180000D02*
X97930000Y-110180000D01*
X101090000Y-113340000D02*
X99630000Y-113340000D01*
X84330000Y-92400000D02*
X85790000Y-92400000D01*
X84330000Y-95560000D02*
X87490000Y-95560000D01*
X84330000Y-95560000D02*
X84330000Y-94630000D01*
X84330000Y-92400000D02*
X84330000Y-93330000D01*
X34663748Y-44375000D02*
X35186252Y-44375000D01*
X34663748Y-45795000D02*
X35186252Y-45795000D01*
X34663748Y-52145000D02*
X35186252Y-52145000D01*
X34663748Y-50725000D02*
X35186252Y-50725000D01*
X71830000Y-113291252D02*
X71830000Y-112768748D01*
X70410000Y-113291252D02*
X70410000Y-112768748D01*
X38473748Y-45795000D02*
X38996252Y-45795000D01*
X38473748Y-44375000D02*
X38996252Y-44375000D01*
X38863748Y-50725000D02*
X39386252Y-50725000D01*
X38863748Y-52145000D02*
X39386252Y-52145000D01*
X99956252Y-106755000D02*
X99433748Y-106755000D01*
X99956252Y-105335000D02*
X99433748Y-105335000D01*
X103878748Y-106755000D02*
X104401252Y-106755000D01*
X103878748Y-105335000D02*
X104401252Y-105335000D01*
X39743748Y-121360000D02*
X40266252Y-121360000D01*
X39743748Y-119940000D02*
X40266252Y-119940000D01*
X94988748Y-106755000D02*
X95511252Y-106755000D01*
X94988748Y-105335000D02*
X95511252Y-105335000D01*
X69349252Y-73100000D02*
X68826748Y-73100000D01*
X69349252Y-71680000D02*
X68826748Y-71680000D01*
X47550000Y-65143748D02*
X47550000Y-65666252D01*
X48970000Y-65143748D02*
X48970000Y-65666252D01*
X48970000Y-61333748D02*
X48970000Y-61856252D01*
X47550000Y-61333748D02*
X47550000Y-61856252D01*
X79300000Y-94241252D02*
X79300000Y-93718748D01*
X80720000Y-94241252D02*
X80720000Y-93718748D01*
X102608748Y-88190000D02*
X103131252Y-88190000D01*
X102608748Y-89610000D02*
X103131252Y-89610000D01*
X89460000Y-93718748D02*
X89460000Y-94241252D01*
X90880000Y-93718748D02*
X90880000Y-94241252D01*
X47998748Y-36755000D02*
X48521252Y-36755000D01*
X47998748Y-38175000D02*
X48521252Y-38175000D01*
X47550000Y-57396748D02*
X47550000Y-57919252D01*
X48970000Y-57396748D02*
X48970000Y-57919252D01*
X117213748Y-76777142D02*
X117736252Y-76777142D01*
X117213748Y-78197142D02*
X117736252Y-78197142D01*
X117213748Y-73111428D02*
X117736252Y-73111428D01*
X117213748Y-71691428D02*
X117736252Y-71691428D01*
X117213748Y-68025714D02*
X117736252Y-68025714D01*
X117213748Y-66605714D02*
X117736252Y-66605714D01*
X117213748Y-61520000D02*
X117736252Y-61520000D01*
X117213748Y-62940000D02*
X117736252Y-62940000D01*
X117213748Y-53900000D02*
X117736252Y-53900000D01*
X117213748Y-55320000D02*
X117736252Y-55320000D01*
X117213748Y-48820000D02*
X117736252Y-48820000D01*
X117213748Y-50240000D02*
X117736252Y-50240000D01*
X114038748Y-33095000D02*
X114561252Y-33095000D01*
X114038748Y-31675000D02*
X114561252Y-31675000D01*
X32650000Y-53090000D02*
X25360000Y-53090000D01*
X32650000Y-43350000D02*
X25360000Y-43350000D01*
X32650000Y-53090000D02*
X32650000Y-43350000D01*
X25360000Y-53090000D02*
X25360000Y-43350000D01*
X25360000Y-51840000D02*
X20360000Y-51840000D01*
X25360000Y-44600000D02*
X20360000Y-44600000D01*
X25360000Y-51840000D02*
X25360000Y-44600000D01*
X20360000Y-51840000D02*
X20360000Y-44600000D01*
X20360000Y-51340000D02*
X10360000Y-51340000D01*
X20360000Y-45100000D02*
X10360000Y-45100000D01*
X20360000Y-51340000D02*
X20360000Y-45100000D01*
X10360000Y-51340000D02*
X10360000Y-45100000D01*
X10360000Y-61500000D02*
X10360000Y-55260000D01*
X20360000Y-61500000D02*
X20360000Y-55260000D01*
X20360000Y-55260000D02*
X10360000Y-55260000D01*
X20360000Y-61500000D02*
X10360000Y-61500000D01*
X20360000Y-62000000D02*
X20360000Y-54760000D01*
X25360000Y-62000000D02*
X25360000Y-54760000D01*
X25360000Y-54760000D02*
X20360000Y-54760000D01*
X25360000Y-62000000D02*
X20360000Y-62000000D01*
X25360000Y-63250000D02*
X25360000Y-53510000D01*
X32650000Y-63250000D02*
X32650000Y-53510000D01*
X32650000Y-53510000D02*
X25360000Y-53510000D01*
X32650000Y-63250000D02*
X25360000Y-63250000D01*
X97425000Y-97215000D02*
G75*
G02X99425000Y-97215000I1000000J0D01*
G01*
X99425000Y-97215000D02*
X100675000Y-97215000D01*
X100675000Y-97215000D02*
X100675000Y-92015000D01*
X100675000Y-92015000D02*
X96175000Y-92015000D01*
X96175000Y-92015000D02*
X96175000Y-97215000D01*
X96175000Y-97215000D02*
X97425000Y-97215000D01*
D13*
X40997000Y-71017000D02*
X41222000Y-71017000D01*
X40997000Y-67667000D02*
X41297000Y-67667000D01*
X44347000Y-67667000D02*
X44047000Y-67667000D01*
X44347000Y-71017000D02*
X44047000Y-71017000D01*
X40997000Y-71017000D02*
X40997000Y-67667000D01*
X44347000Y-71017000D02*
X44347000Y-67667000D01*
X41222000Y-71017000D02*
X41222000Y-72242000D01*
X25805000Y-33401000D02*
X36425000Y-33401001D01*
X36449000Y-33401000D02*
X36449000Y-26289000D01*
X36425000Y-26289000D02*
X25805000Y-26288999D01*
X25781000Y-26289000D02*
X25781000Y-28321000D01*
X25781000Y-28321000D02*
X24765000Y-28321000D01*
X24765000Y-28321000D02*
X24765000Y-31115000D01*
X24765000Y-31115000D02*
X25781000Y-31115000D01*
X25781000Y-31115000D02*
X25781000Y-33401000D01*
X25805000Y-71501000D02*
X36425000Y-71501001D01*
X36449000Y-71501000D02*
X36449000Y-64389000D01*
X36425000Y-64389000D02*
X25805000Y-64388999D01*
X25781000Y-64389000D02*
X25781000Y-66421000D01*
X25781000Y-66421000D02*
X24765000Y-66421000D01*
X24765000Y-66421000D02*
X24765000Y-69215000D01*
X24765000Y-69215000D02*
X25781000Y-69215000D01*
X25781000Y-69215000D02*
X25781000Y-71501000D01*
X25781000Y-77470000D02*
X25781000Y-79756000D01*
X24765000Y-77470000D02*
X25781000Y-77470000D01*
X24765000Y-74676000D02*
X24765000Y-77470000D01*
X25781000Y-74676000D02*
X24765000Y-74676000D01*
X25781000Y-72644000D02*
X25781000Y-74676000D01*
X36425000Y-72644000D02*
X25805000Y-72643999D01*
X36449000Y-79756000D02*
X36449000Y-72644000D01*
X25805000Y-79756000D02*
X36425000Y-79756001D01*
X25805000Y-88646000D02*
X36425000Y-88646001D01*
X36449000Y-88646000D02*
X36449000Y-81534000D01*
X36425000Y-81534000D02*
X25805000Y-81533999D01*
X25781000Y-81534000D02*
X25781000Y-83566000D01*
X25781000Y-83566000D02*
X24765000Y-83566000D01*
X24765000Y-83566000D02*
X24765000Y-86360000D01*
X24765000Y-86360000D02*
X25781000Y-86360000D01*
X25781000Y-86360000D02*
X25781000Y-88646000D01*
X25805000Y-97536000D02*
X36425000Y-97536001D01*
X36449000Y-97536000D02*
X36449000Y-90424000D01*
X36425000Y-90424000D02*
X25805000Y-90423999D01*
X25781000Y-90424000D02*
X25781000Y-92456000D01*
X25781000Y-92456000D02*
X24765000Y-92456000D01*
X24765000Y-92456000D02*
X24765000Y-95250000D01*
X24765000Y-95250000D02*
X25781000Y-95250000D01*
X25781000Y-95250000D02*
X25781000Y-97536000D01*
D14*
X122615000Y-36195000D02*
X119955000Y-36195000D01*
X122615000Y-36195000D02*
X122615000Y-25975000D01*
X122615000Y-25975000D02*
X119955000Y-25975000D01*
X119955000Y-36195000D02*
X119955000Y-25975000D01*
X119955000Y-38795000D02*
X119955000Y-37465000D01*
X121285000Y-38795000D02*
X119955000Y-38795000D01*
X71830000Y-118761252D02*
X71830000Y-118238748D01*
X70410000Y-118761252D02*
X70410000Y-118238748D01*
X69442569Y-57780764D02*
X68920065Y-57780764D01*
X69442569Y-56360764D02*
X68920065Y-56360764D01*
X69442569Y-58900764D02*
X68920065Y-58900764D01*
X69442569Y-60320764D02*
X68920065Y-60320764D01*
X69442569Y-62860764D02*
X68920065Y-62860764D01*
X69442569Y-61440764D02*
X68920065Y-61440764D01*
D13*
X25781000Y-104140000D02*
X25781000Y-106426000D01*
X24765000Y-104140000D02*
X25781000Y-104140000D01*
X24765000Y-101346000D02*
X24765000Y-104140000D01*
X25781000Y-101346000D02*
X24765000Y-101346000D01*
X25781000Y-99314000D02*
X25781000Y-101346000D01*
X36425000Y-99314000D02*
X25805000Y-99313999D01*
X36449000Y-106426000D02*
X36449000Y-99314000D01*
X25805000Y-106426000D02*
X36425000Y-106426001D01*
X25805000Y-115316000D02*
X36425000Y-115316001D01*
X36449000Y-115316000D02*
X36449000Y-108204000D01*
X36425000Y-108204000D02*
X25805000Y-108203999D01*
X25781000Y-108204000D02*
X25781000Y-110236000D01*
X25781000Y-110236000D02*
X24765000Y-110236000D01*
X24765000Y-110236000D02*
X24765000Y-113030000D01*
X24765000Y-113030000D02*
X25781000Y-113030000D01*
X25781000Y-113030000D02*
X25781000Y-115316000D01*
D14*
X57090000Y-57150000D02*
X59750000Y-57150000D01*
X57090000Y-57150000D02*
X57090000Y-69910000D01*
X57090000Y-69910000D02*
X59750000Y-69910000D01*
X59750000Y-57150000D02*
X59750000Y-69910000D01*
X59750000Y-54550000D02*
X59750000Y-55880000D01*
X58420000Y-54550000D02*
X59750000Y-54550000D01*
X92075000Y-54550000D02*
X93405000Y-54550000D01*
X93405000Y-54550000D02*
X93405000Y-55880000D01*
X93405000Y-57150000D02*
X93405000Y-69910000D01*
X90745000Y-69910000D02*
X93405000Y-69910000D01*
X90745000Y-57150000D02*
X90745000Y-69910000D01*
X90745000Y-57150000D02*
X93405000Y-57150000D01*
X60385000Y-50165000D02*
G75*
G03X60385000Y-50165000I-2620000J0D01*
G01*
X57765000Y-47585000D02*
X57765000Y-52745000D01*
X57805000Y-47585000D02*
X57805000Y-52745000D01*
X57845000Y-47586000D02*
X57845000Y-52744000D01*
X57885000Y-47587000D02*
X57885000Y-52743000D01*
X57925000Y-47589000D02*
X57925000Y-52741000D01*
X57965000Y-47592000D02*
X57965000Y-52738000D01*
X58005000Y-47596000D02*
X58005000Y-49125000D01*
X58005000Y-51205000D02*
X58005000Y-52734000D01*
X58045000Y-47600000D02*
X58045000Y-49125000D01*
X58045000Y-51205000D02*
X58045000Y-52730000D01*
X58085000Y-47604000D02*
X58085000Y-49125000D01*
X58085000Y-51205000D02*
X58085000Y-52726000D01*
X58125000Y-47609000D02*
X58125000Y-49125000D01*
X58125000Y-51205000D02*
X58125000Y-52721000D01*
X58165000Y-47615000D02*
X58165000Y-49125000D01*
X58165000Y-51205000D02*
X58165000Y-52715000D01*
X58205000Y-47622000D02*
X58205000Y-49125000D01*
X58205000Y-51205000D02*
X58205000Y-52708000D01*
X58245000Y-47629000D02*
X58245000Y-49125000D01*
X58245000Y-51205000D02*
X58245000Y-52701000D01*
X58285000Y-47637000D02*
X58285000Y-49125000D01*
X58285000Y-51205000D02*
X58285000Y-52693000D01*
X58325000Y-47645000D02*
X58325000Y-49125000D01*
X58325000Y-51205000D02*
X58325000Y-52685000D01*
X58365000Y-47654000D02*
X58365000Y-49125000D01*
X58365000Y-51205000D02*
X58365000Y-52676000D01*
X58405000Y-47664000D02*
X58405000Y-49125000D01*
X58405000Y-51205000D02*
X58405000Y-52666000D01*
X58445000Y-47674000D02*
X58445000Y-49125000D01*
X58445000Y-51205000D02*
X58445000Y-52656000D01*
X58486000Y-47685000D02*
X58486000Y-49125000D01*
X58486000Y-51205000D02*
X58486000Y-52645000D01*
X58526000Y-47697000D02*
X58526000Y-49125000D01*
X58526000Y-51205000D02*
X58526000Y-52633000D01*
X58566000Y-47710000D02*
X58566000Y-49125000D01*
X58566000Y-51205000D02*
X58566000Y-52620000D01*
X58606000Y-47723000D02*
X58606000Y-49125000D01*
X58606000Y-51205000D02*
X58606000Y-52607000D01*
X58646000Y-47737000D02*
X58646000Y-49125000D01*
X58646000Y-51205000D02*
X58646000Y-52593000D01*
X58686000Y-47751000D02*
X58686000Y-49125000D01*
X58686000Y-51205000D02*
X58686000Y-52579000D01*
X58726000Y-47767000D02*
X58726000Y-49125000D01*
X58726000Y-51205000D02*
X58726000Y-52563000D01*
X58766000Y-47783000D02*
X58766000Y-49125000D01*
X58766000Y-51205000D02*
X58766000Y-52547000D01*
X58806000Y-47800000D02*
X58806000Y-49125000D01*
X58806000Y-51205000D02*
X58806000Y-52530000D01*
X58846000Y-47817000D02*
X58846000Y-49125000D01*
X58846000Y-51205000D02*
X58846000Y-52513000D01*
X58886000Y-47836000D02*
X58886000Y-49125000D01*
X58886000Y-51205000D02*
X58886000Y-52494000D01*
X58926000Y-47855000D02*
X58926000Y-49125000D01*
X58926000Y-51205000D02*
X58926000Y-52475000D01*
X58966000Y-47875000D02*
X58966000Y-49125000D01*
X58966000Y-51205000D02*
X58966000Y-52455000D01*
X59006000Y-47897000D02*
X59006000Y-49125000D01*
X59006000Y-51205000D02*
X59006000Y-52433000D01*
X59046000Y-47918000D02*
X59046000Y-49125000D01*
X59046000Y-51205000D02*
X59046000Y-52412000D01*
X59086000Y-47941000D02*
X59086000Y-49125000D01*
X59086000Y-51205000D02*
X59086000Y-52389000D01*
X59126000Y-47965000D02*
X59126000Y-49125000D01*
X59126000Y-51205000D02*
X59126000Y-52365000D01*
X59166000Y-47990000D02*
X59166000Y-49125000D01*
X59166000Y-51205000D02*
X59166000Y-52340000D01*
X59206000Y-48016000D02*
X59206000Y-49125000D01*
X59206000Y-51205000D02*
X59206000Y-52314000D01*
X59246000Y-48043000D02*
X59246000Y-49125000D01*
X59246000Y-51205000D02*
X59246000Y-52287000D01*
X59286000Y-48070000D02*
X59286000Y-49125000D01*
X59286000Y-51205000D02*
X59286000Y-52260000D01*
X59326000Y-48100000D02*
X59326000Y-49125000D01*
X59326000Y-51205000D02*
X59326000Y-52230000D01*
X59366000Y-48130000D02*
X59366000Y-49125000D01*
X59366000Y-51205000D02*
X59366000Y-52200000D01*
X59406000Y-48161000D02*
X59406000Y-49125000D01*
X59406000Y-51205000D02*
X59406000Y-52169000D01*
X59446000Y-48194000D02*
X59446000Y-49125000D01*
X59446000Y-51205000D02*
X59446000Y-52136000D01*
X59486000Y-48228000D02*
X59486000Y-49125000D01*
X59486000Y-51205000D02*
X59486000Y-52102000D01*
X59526000Y-48264000D02*
X59526000Y-49125000D01*
X59526000Y-51205000D02*
X59526000Y-52066000D01*
X59566000Y-48301000D02*
X59566000Y-49125000D01*
X59566000Y-51205000D02*
X59566000Y-52029000D01*
X59606000Y-48339000D02*
X59606000Y-49125000D01*
X59606000Y-51205000D02*
X59606000Y-51991000D01*
X59646000Y-48380000D02*
X59646000Y-49125000D01*
X59646000Y-51205000D02*
X59646000Y-51950000D01*
X59686000Y-48422000D02*
X59686000Y-49125000D01*
X59686000Y-51205000D02*
X59686000Y-51908000D01*
X59726000Y-48466000D02*
X59726000Y-49125000D01*
X59726000Y-51205000D02*
X59726000Y-51864000D01*
X59766000Y-48512000D02*
X59766000Y-49125000D01*
X59766000Y-51205000D02*
X59766000Y-51818000D01*
X59806000Y-48560000D02*
X59806000Y-49125000D01*
X59806000Y-51205000D02*
X59806000Y-51770000D01*
X59846000Y-48611000D02*
X59846000Y-49125000D01*
X59846000Y-51205000D02*
X59846000Y-51719000D01*
X59886000Y-48665000D02*
X59886000Y-49125000D01*
X59886000Y-51205000D02*
X59886000Y-51665000D01*
X59926000Y-48722000D02*
X59926000Y-49125000D01*
X59926000Y-51205000D02*
X59926000Y-51608000D01*
X59966000Y-48782000D02*
X59966000Y-49125000D01*
X59966000Y-51205000D02*
X59966000Y-51548000D01*
X60006000Y-48846000D02*
X60006000Y-49125000D01*
X60006000Y-51205000D02*
X60006000Y-51484000D01*
X60046000Y-48914000D02*
X60046000Y-49125000D01*
X60046000Y-51205000D02*
X60046000Y-51416000D01*
X60086000Y-48987000D02*
X60086000Y-51343000D01*
X60126000Y-49067000D02*
X60126000Y-51263000D01*
X60166000Y-49154000D02*
X60166000Y-51176000D01*
X60206000Y-49250000D02*
X60206000Y-51080000D01*
X60246000Y-49360000D02*
X60246000Y-50970000D01*
X60286000Y-49488000D02*
X60286000Y-50842000D01*
X60326000Y-49647000D02*
X60326000Y-50683000D01*
X60366000Y-49881000D02*
X60366000Y-50449000D01*
X54960225Y-48690000D02*
X55460225Y-48690000D01*
X55210225Y-48440000D02*
X55210225Y-48940000D01*
X60359775Y-41730000D02*
X60359775Y-41230000D01*
X60609775Y-41480000D02*
X60109775Y-41480000D01*
X55204000Y-40289000D02*
X55204000Y-39721000D01*
X55244000Y-40523000D02*
X55244000Y-39487000D01*
X55284000Y-40682000D02*
X55284000Y-39328000D01*
X55324000Y-40810000D02*
X55324000Y-39200000D01*
X55364000Y-40920000D02*
X55364000Y-39090000D01*
X55404000Y-41016000D02*
X55404000Y-38994000D01*
X55444000Y-41103000D02*
X55444000Y-38907000D01*
X55484000Y-41183000D02*
X55484000Y-38827000D01*
X55524000Y-38965000D02*
X55524000Y-38754000D01*
X55524000Y-41256000D02*
X55524000Y-41045000D01*
X55564000Y-38965000D02*
X55564000Y-38686000D01*
X55564000Y-41324000D02*
X55564000Y-41045000D01*
X55604000Y-38965000D02*
X55604000Y-38622000D01*
X55604000Y-41388000D02*
X55604000Y-41045000D01*
X55644000Y-38965000D02*
X55644000Y-38562000D01*
X55644000Y-41448000D02*
X55644000Y-41045000D01*
X55684000Y-38965000D02*
X55684000Y-38505000D01*
X55684000Y-41505000D02*
X55684000Y-41045000D01*
X55724000Y-38965000D02*
X55724000Y-38451000D01*
X55724000Y-41559000D02*
X55724000Y-41045000D01*
X55764000Y-38965000D02*
X55764000Y-38400000D01*
X55764000Y-41610000D02*
X55764000Y-41045000D01*
X55804000Y-38965000D02*
X55804000Y-38352000D01*
X55804000Y-41658000D02*
X55804000Y-41045000D01*
X55844000Y-38965000D02*
X55844000Y-38306000D01*
X55844000Y-41704000D02*
X55844000Y-41045000D01*
X55884000Y-38965000D02*
X55884000Y-38262000D01*
X55884000Y-41748000D02*
X55884000Y-41045000D01*
X55924000Y-38965000D02*
X55924000Y-38220000D01*
X55924000Y-41790000D02*
X55924000Y-41045000D01*
X55964000Y-38965000D02*
X55964000Y-38179000D01*
X55964000Y-41831000D02*
X55964000Y-41045000D01*
X56004000Y-38965000D02*
X56004000Y-38141000D01*
X56004000Y-41869000D02*
X56004000Y-41045000D01*
X56044000Y-38965000D02*
X56044000Y-38104000D01*
X56044000Y-41906000D02*
X56044000Y-41045000D01*
X56084000Y-38965000D02*
X56084000Y-38068000D01*
X56084000Y-41942000D02*
X56084000Y-41045000D01*
X56124000Y-38965000D02*
X56124000Y-38034000D01*
X56124000Y-41976000D02*
X56124000Y-41045000D01*
X56164000Y-38965000D02*
X56164000Y-38001000D01*
X56164000Y-42009000D02*
X56164000Y-41045000D01*
X56204000Y-38965000D02*
X56204000Y-37970000D01*
X56204000Y-42040000D02*
X56204000Y-41045000D01*
X56244000Y-38965000D02*
X56244000Y-37940000D01*
X56244000Y-42070000D02*
X56244000Y-41045000D01*
X56284000Y-38965000D02*
X56284000Y-37910000D01*
X56284000Y-42100000D02*
X56284000Y-41045000D01*
X56324000Y-38965000D02*
X56324000Y-37883000D01*
X56324000Y-42127000D02*
X56324000Y-41045000D01*
X56364000Y-38965000D02*
X56364000Y-37856000D01*
X56364000Y-42154000D02*
X56364000Y-41045000D01*
X56404000Y-38965000D02*
X56404000Y-37830000D01*
X56404000Y-42180000D02*
X56404000Y-41045000D01*
X56444000Y-38965000D02*
X56444000Y-37805000D01*
X56444000Y-42205000D02*
X56444000Y-41045000D01*
X56484000Y-38965000D02*
X56484000Y-37781000D01*
X56484000Y-42229000D02*
X56484000Y-41045000D01*
X56524000Y-38965000D02*
X56524000Y-37758000D01*
X56524000Y-42252000D02*
X56524000Y-41045000D01*
X56564000Y-38965000D02*
X56564000Y-37737000D01*
X56564000Y-42273000D02*
X56564000Y-41045000D01*
X56604000Y-38965000D02*
X56604000Y-37715000D01*
X56604000Y-42295000D02*
X56604000Y-41045000D01*
X56644000Y-38965000D02*
X56644000Y-37695000D01*
X56644000Y-42315000D02*
X56644000Y-41045000D01*
X56684000Y-38965000D02*
X56684000Y-37676000D01*
X56684000Y-42334000D02*
X56684000Y-41045000D01*
X56724000Y-38965000D02*
X56724000Y-37657000D01*
X56724000Y-42353000D02*
X56724000Y-41045000D01*
X56764000Y-38965000D02*
X56764000Y-37640000D01*
X56764000Y-42370000D02*
X56764000Y-41045000D01*
X56804000Y-38965000D02*
X56804000Y-37623000D01*
X56804000Y-42387000D02*
X56804000Y-41045000D01*
X56844000Y-38965000D02*
X56844000Y-37607000D01*
X56844000Y-42403000D02*
X56844000Y-41045000D01*
X56884000Y-38965000D02*
X56884000Y-37591000D01*
X56884000Y-42419000D02*
X56884000Y-41045000D01*
X56924000Y-38965000D02*
X56924000Y-37577000D01*
X56924000Y-42433000D02*
X56924000Y-41045000D01*
X56964000Y-38965000D02*
X56964000Y-37563000D01*
X56964000Y-42447000D02*
X56964000Y-41045000D01*
X57004000Y-38965000D02*
X57004000Y-37550000D01*
X57004000Y-42460000D02*
X57004000Y-41045000D01*
X57044000Y-38965000D02*
X57044000Y-37537000D01*
X57044000Y-42473000D02*
X57044000Y-41045000D01*
X57084000Y-38965000D02*
X57084000Y-37525000D01*
X57084000Y-42485000D02*
X57084000Y-41045000D01*
X57125000Y-38965000D02*
X57125000Y-37514000D01*
X57125000Y-42496000D02*
X57125000Y-41045000D01*
X57165000Y-38965000D02*
X57165000Y-37504000D01*
X57165000Y-42506000D02*
X57165000Y-41045000D01*
X57205000Y-38965000D02*
X57205000Y-37494000D01*
X57205000Y-42516000D02*
X57205000Y-41045000D01*
X57245000Y-38965000D02*
X57245000Y-37485000D01*
X57245000Y-42525000D02*
X57245000Y-41045000D01*
X57285000Y-38965000D02*
X57285000Y-37477000D01*
X57285000Y-42533000D02*
X57285000Y-41045000D01*
X57325000Y-38965000D02*
X57325000Y-37469000D01*
X57325000Y-42541000D02*
X57325000Y-41045000D01*
X57365000Y-38965000D02*
X57365000Y-37462000D01*
X57365000Y-42548000D02*
X57365000Y-41045000D01*
X57405000Y-38965000D02*
X57405000Y-37455000D01*
X57405000Y-42555000D02*
X57405000Y-41045000D01*
X57445000Y-38965000D02*
X57445000Y-37449000D01*
X57445000Y-42561000D02*
X57445000Y-41045000D01*
X57485000Y-38965000D02*
X57485000Y-37444000D01*
X57485000Y-42566000D02*
X57485000Y-41045000D01*
X57525000Y-38965000D02*
X57525000Y-37440000D01*
X57525000Y-42570000D02*
X57525000Y-41045000D01*
X57565000Y-38965000D02*
X57565000Y-37436000D01*
X57565000Y-42574000D02*
X57565000Y-41045000D01*
X57605000Y-42578000D02*
X57605000Y-37432000D01*
X57645000Y-42581000D02*
X57645000Y-37429000D01*
X57685000Y-42583000D02*
X57685000Y-37427000D01*
X57725000Y-42584000D02*
X57725000Y-37426000D01*
X57765000Y-42585000D02*
X57765000Y-37425000D01*
X57805000Y-42585000D02*
X57805000Y-37425000D01*
X60425000Y-40005000D02*
G75*
G03X60425000Y-40005000I-2620000J0D01*
G01*
X54550000Y-103445000D02*
X57150000Y-103445000D01*
X54550000Y-103445000D02*
X54550000Y-123885000D01*
X54550000Y-123885000D02*
X59750000Y-123885000D01*
X59750000Y-106045000D02*
X59750000Y-123885000D01*
X57150000Y-106045000D02*
X59750000Y-106045000D01*
X57150000Y-103445000D02*
X57150000Y-106045000D01*
X59750000Y-103445000D02*
X59750000Y-104775000D01*
X58420000Y-103445000D02*
X59750000Y-103445000D01*
X76170000Y-117980000D02*
X76170000Y-111920000D01*
X76170000Y-111920000D02*
X78980000Y-111920000D01*
X83580000Y-111920000D02*
X86390000Y-111920000D01*
X86390000Y-111920000D02*
X86390000Y-117980000D01*
X86390000Y-122080000D02*
X86390000Y-125140000D01*
X86390000Y-125140000D02*
X76170000Y-125140000D01*
X76170000Y-125140000D02*
X76170000Y-122080000D01*
X80280000Y-111730000D02*
X82280000Y-111730000D01*
D15*
X124703840Y-103799640D02*
X125204220Y-103799640D01*
X125704600Y-124800360D02*
X125204220Y-124800360D01*
X124206000Y-122798840D02*
X124703840Y-122798840D01*
X124703840Y-105801160D02*
X124206000Y-105801160D01*
X124206000Y-123299220D02*
X124206000Y-122798840D01*
X124206000Y-105300780D02*
X124206000Y-105801160D01*
X124703840Y-123299220D02*
X124703840Y-103799640D01*
X125204220Y-123299220D02*
X124703840Y-123299220D01*
X125204220Y-124800360D02*
X125204220Y-123299220D01*
X125704600Y-105300780D02*
X125704600Y-124800360D01*
X125204220Y-105300780D02*
X125704600Y-105300780D01*
X125204220Y-103799640D02*
X125204220Y-105300780D01*
X107205780Y-112301020D02*
X109204760Y-112301020D01*
X106705400Y-112798860D02*
X107205780Y-112301020D01*
X106705400Y-115801140D02*
X106705400Y-112798860D01*
X107205780Y-116298980D02*
X109204760Y-116298980D01*
X106705400Y-115801140D02*
X107205780Y-116298980D01*
X109204760Y-108800900D02*
X109204760Y-112301020D01*
X107205780Y-108800900D02*
X109204760Y-108800900D01*
X106705400Y-108300520D02*
X107205780Y-108800900D01*
X106705400Y-107800140D02*
X106705400Y-108300520D01*
X106705400Y-105801160D02*
X106705400Y-107800140D01*
X107205780Y-105300780D02*
X106705400Y-105801160D01*
X107205780Y-105300780D02*
X124206000Y-105300780D01*
X109204760Y-119799100D02*
X109204760Y-116298980D01*
X107205780Y-119799100D02*
X109204760Y-119799100D01*
X106705400Y-120299480D02*
X107205780Y-119799100D01*
X106705400Y-122798840D02*
X106705400Y-120299480D01*
X107205780Y-123299220D02*
X106705400Y-122798840D01*
X107205780Y-123299220D02*
X124206000Y-123299220D01*
X125455680Y-124800360D02*
X125455680Y-105300780D01*
X125204220Y-105300780D02*
X125204220Y-123299220D01*
X124955300Y-123299220D02*
X124955300Y-103799640D01*
D13*
X25781000Y-121920000D02*
X25781000Y-124206000D01*
X24765000Y-121920000D02*
X25781000Y-121920000D01*
X24765000Y-119126000D02*
X24765000Y-121920000D01*
X25781000Y-119126000D02*
X24765000Y-119126000D01*
X25781000Y-117094000D02*
X25781000Y-119126000D01*
X36425000Y-117094000D02*
X25805000Y-117093999D01*
X36449000Y-124206000D02*
X36449000Y-117094000D01*
X25805000Y-124206000D02*
X36425000Y-124206001D01*
D14*
X65345000Y-121345000D02*
X68005000Y-121345000D01*
X65345000Y-113665000D02*
X65345000Y-121345000D01*
X68005000Y-113665000D02*
X68005000Y-121345000D01*
X65345000Y-113665000D02*
X68005000Y-113665000D01*
X65345000Y-112395000D02*
X65345000Y-111065000D01*
X65345000Y-111065000D02*
X66675000Y-111065000D01*
D15*
X124955300Y-102979220D02*
X124955300Y-83479640D01*
X125204220Y-84980780D02*
X125204220Y-102979220D01*
X125455680Y-104480360D02*
X125455680Y-84980780D01*
X107205780Y-102979220D02*
X124206000Y-102979220D01*
X107205780Y-102979220D02*
X106705400Y-102478840D01*
X106705400Y-102478840D02*
X106705400Y-99979480D01*
X106705400Y-99979480D02*
X107205780Y-99479100D01*
X107205780Y-99479100D02*
X109204760Y-99479100D01*
X109204760Y-99479100D02*
X109204760Y-95978980D01*
X107205780Y-84980780D02*
X124206000Y-84980780D01*
X107205780Y-84980780D02*
X106705400Y-85481160D01*
X106705400Y-85481160D02*
X106705400Y-87480140D01*
X106705400Y-87480140D02*
X106705400Y-87980520D01*
X106705400Y-87980520D02*
X107205780Y-88480900D01*
X107205780Y-88480900D02*
X109204760Y-88480900D01*
X109204760Y-88480900D02*
X109204760Y-91981020D01*
X106705400Y-95481140D02*
X107205780Y-95978980D01*
X107205780Y-95978980D02*
X109204760Y-95978980D01*
X106705400Y-95481140D02*
X106705400Y-92478860D01*
X106705400Y-92478860D02*
X107205780Y-91981020D01*
X107205780Y-91981020D02*
X109204760Y-91981020D01*
X125204220Y-83479640D02*
X125204220Y-84980780D01*
X125204220Y-84980780D02*
X125704600Y-84980780D01*
X125704600Y-84980780D02*
X125704600Y-104480360D01*
X125204220Y-104480360D02*
X125204220Y-102979220D01*
X125204220Y-102979220D02*
X124703840Y-102979220D01*
X124703840Y-102979220D02*
X124703840Y-83479640D01*
X124206000Y-84980780D02*
X124206000Y-85481160D01*
X124206000Y-102979220D02*
X124206000Y-102478840D01*
X124703840Y-85481160D02*
X124206000Y-85481160D01*
X124206000Y-102478840D02*
X124703840Y-102478840D01*
X125704600Y-104480360D02*
X125204220Y-104480360D01*
X124703840Y-83479640D02*
X125204220Y-83479640D01*
D14*
X58420000Y-73600000D02*
X59750000Y-73600000D01*
X59750000Y-73600000D02*
X59750000Y-74930000D01*
X59750000Y-76200000D02*
X59750000Y-88960000D01*
X57090000Y-88960000D02*
X59750000Y-88960000D01*
X57090000Y-76200000D02*
X57090000Y-88960000D01*
X57090000Y-76200000D02*
X59750000Y-76200000D01*
X90745000Y-76200000D02*
X93405000Y-76200000D01*
X90745000Y-76200000D02*
X90745000Y-88960000D01*
X90745000Y-88960000D02*
X93405000Y-88960000D01*
X93405000Y-76200000D02*
X93405000Y-88960000D01*
X93405000Y-73600000D02*
X93405000Y-74930000D01*
X92075000Y-73600000D02*
X93405000Y-73600000D01*
D13*
X61062708Y-95472424D02*
X61062708Y-93186424D01*
X62078708Y-95472424D02*
X61062708Y-95472424D01*
X62078708Y-98266424D02*
X62078708Y-95472424D01*
X61062708Y-98266424D02*
X62078708Y-98266424D01*
X61062708Y-100298424D02*
X61062708Y-98266424D01*
X50418708Y-100298424D02*
X61038708Y-100298425D01*
X50394708Y-93186424D02*
X50394708Y-100298424D01*
X61038708Y-93186424D02*
X50418708Y-93186423D01*
X124944000Y-40132000D02*
X114324000Y-40131999D01*
X114300000Y-40132000D02*
X114300000Y-47244000D01*
X114324000Y-47244000D02*
X124944000Y-47244001D01*
X124968000Y-47244000D02*
X124968000Y-45212000D01*
X124968000Y-45212000D02*
X125984000Y-45212000D01*
X125984000Y-45212000D02*
X125984000Y-42418000D01*
X125984000Y-42418000D02*
X124968000Y-42418000D01*
X124968000Y-42418000D02*
X124968000Y-40132000D01*
D14*
X58427252Y-90476000D02*
X57904748Y-90476000D01*
X58427252Y-91896000D02*
X57904748Y-91896000D01*
X69349252Y-75640000D02*
X68826748Y-75640000D01*
X69349252Y-74220000D02*
X68826748Y-74220000D01*
X76715252Y-64060000D02*
X76192748Y-64060000D01*
X76715252Y-65480000D02*
X76192748Y-65480000D01*
X69603252Y-65480000D02*
X69080748Y-65480000D01*
X69603252Y-64060000D02*
X69080748Y-64060000D01*
X52272000Y-105910748D02*
X52272000Y-106433252D01*
X50852000Y-105910748D02*
X50852000Y-106433252D01*
D13*
X79803714Y-90336666D02*
X80279904Y-90336666D01*
X79708476Y-90622380D02*
X80041809Y-89622380D01*
X80375142Y-90622380D01*
X81232285Y-90622380D02*
X80660857Y-90622380D01*
X80946571Y-90622380D02*
X80946571Y-89622380D01*
X80851333Y-89765238D01*
X80756095Y-89860476D01*
X80660857Y-89908095D01*
X48667380Y-48386904D02*
X49476904Y-48386904D01*
X49572142Y-48339285D01*
X49619761Y-48291666D01*
X49667380Y-48196428D01*
X49667380Y-48005952D01*
X49619761Y-47910714D01*
X49572142Y-47863095D01*
X49476904Y-47815476D01*
X48667380Y-47815476D01*
X49667380Y-46815476D02*
X49667380Y-47386904D01*
X49667380Y-47101190D02*
X48667380Y-47101190D01*
X48810238Y-47196428D01*
X48905476Y-47291666D01*
X48953095Y-47386904D01*
X36917380Y-39068333D02*
X37631666Y-39068333D01*
X37774523Y-39115952D01*
X37869761Y-39211190D01*
X37917380Y-39354047D01*
X37917380Y-39449285D01*
X36917380Y-38687380D02*
X36917380Y-38020714D01*
X37917380Y-38449285D01*
X30519761Y-39092142D02*
X30472142Y-39139761D01*
X30329285Y-39187380D01*
X30234047Y-39187380D01*
X30091190Y-39139761D01*
X29995952Y-39044523D01*
X29948333Y-38949285D01*
X29900714Y-38758809D01*
X29900714Y-38615952D01*
X29948333Y-38425476D01*
X29995952Y-38330238D01*
X30091190Y-38235000D01*
X30234047Y-38187380D01*
X30329285Y-38187380D01*
X30472142Y-38235000D01*
X30519761Y-38282619D01*
X30805476Y-38187380D02*
X31138809Y-39187380D01*
X31472142Y-38187380D01*
X31757857Y-38282619D02*
X31805476Y-38235000D01*
X31900714Y-38187380D01*
X32138809Y-38187380D01*
X32234047Y-38235000D01*
X32281666Y-38282619D01*
X32329285Y-38377857D01*
X32329285Y-38473095D01*
X32281666Y-38615952D01*
X31710238Y-39187380D01*
X32329285Y-39187380D01*
X32694523Y-36647380D02*
X32361190Y-36171190D01*
X32123095Y-36647380D02*
X32123095Y-35647380D01*
X32504047Y-35647380D01*
X32599285Y-35695000D01*
X32646904Y-35742619D01*
X32694523Y-35837857D01*
X32694523Y-35980714D01*
X32646904Y-36075952D01*
X32599285Y-36123571D01*
X32504047Y-36171190D01*
X32123095Y-36171190D01*
X28884523Y-36647380D02*
X28408333Y-36647380D01*
X28408333Y-35647380D01*
X28884523Y-41727380D02*
X28408333Y-41727380D01*
X28408333Y-40727380D01*
X31623095Y-40775000D02*
X31527857Y-40727380D01*
X31385000Y-40727380D01*
X31242142Y-40775000D01*
X31146904Y-40870238D01*
X31099285Y-40965476D01*
X31051666Y-41155952D01*
X31051666Y-41298809D01*
X31099285Y-41489285D01*
X31146904Y-41584523D01*
X31242142Y-41679761D01*
X31385000Y-41727380D01*
X31480238Y-41727380D01*
X31623095Y-41679761D01*
X31670714Y-41632142D01*
X31670714Y-41298809D01*
X31480238Y-41298809D01*
X32099285Y-41727380D02*
X32099285Y-40727380D01*
X32670714Y-41727380D01*
X32670714Y-40727380D01*
X33146904Y-41727380D02*
X33146904Y-40727380D01*
X33385000Y-40727380D01*
X33527857Y-40775000D01*
X33623095Y-40870238D01*
X33670714Y-40965476D01*
X33718333Y-41155952D01*
X33718333Y-41298809D01*
X33670714Y-41489285D01*
X33623095Y-41584523D01*
X33527857Y-41679761D01*
X33385000Y-41727380D01*
X33146904Y-41727380D01*
X82363333Y-103287142D02*
X82315714Y-103334761D01*
X82172857Y-103382380D01*
X82077619Y-103382380D01*
X81934761Y-103334761D01*
X81839523Y-103239523D01*
X81791904Y-103144285D01*
X81744285Y-102953809D01*
X81744285Y-102810952D01*
X81791904Y-102620476D01*
X81839523Y-102525238D01*
X81934761Y-102430000D01*
X82077619Y-102382380D01*
X82172857Y-102382380D01*
X82315714Y-102430000D01*
X82363333Y-102477619D01*
X83315714Y-103382380D02*
X82744285Y-103382380D01*
X83030000Y-103382380D02*
X83030000Y-102382380D01*
X82934761Y-102525238D01*
X82839523Y-102620476D01*
X82744285Y-102668095D01*
X68049142Y-83986666D02*
X68096761Y-84034285D01*
X68144380Y-84177142D01*
X68144380Y-84272380D01*
X68096761Y-84415238D01*
X68001523Y-84510476D01*
X67906285Y-84558095D01*
X67715809Y-84605714D01*
X67572952Y-84605714D01*
X67382476Y-84558095D01*
X67287238Y-84510476D01*
X67192000Y-84415238D01*
X67144380Y-84272380D01*
X67144380Y-84177142D01*
X67192000Y-84034285D01*
X67239619Y-83986666D01*
X67239619Y-83605714D02*
X67192000Y-83558095D01*
X67144380Y-83462857D01*
X67144380Y-83224761D01*
X67192000Y-83129523D01*
X67239619Y-83081904D01*
X67334857Y-83034285D01*
X67430095Y-83034285D01*
X67572952Y-83081904D01*
X68144380Y-83653333D01*
X68144380Y-83034285D01*
X39727142Y-72429666D02*
X39774761Y-72477285D01*
X39822380Y-72620142D01*
X39822380Y-72715380D01*
X39774761Y-72858238D01*
X39679523Y-72953476D01*
X39584285Y-73001095D01*
X39393809Y-73048714D01*
X39250952Y-73048714D01*
X39060476Y-73001095D01*
X38965238Y-72953476D01*
X38870000Y-72858238D01*
X38822380Y-72715380D01*
X38822380Y-72620142D01*
X38870000Y-72477285D01*
X38917619Y-72429666D01*
X38822380Y-72096333D02*
X38822380Y-71477285D01*
X39203333Y-71810619D01*
X39203333Y-71667761D01*
X39250952Y-71572523D01*
X39298571Y-71524904D01*
X39393809Y-71477285D01*
X39631904Y-71477285D01*
X39727142Y-71524904D01*
X39774761Y-71572523D01*
X39822380Y-71667761D01*
X39822380Y-71953476D01*
X39774761Y-72048714D01*
X39727142Y-72096333D01*
X38172380Y-70207047D02*
X38172380Y-70778476D01*
X38172380Y-70492761D02*
X37172380Y-70492761D01*
X37315238Y-70588000D01*
X37410476Y-70683238D01*
X37458095Y-70778476D01*
X37172380Y-69588000D02*
X37172380Y-69492761D01*
X37220000Y-69397523D01*
X37267619Y-69349904D01*
X37362857Y-69302285D01*
X37553333Y-69254666D01*
X37791428Y-69254666D01*
X37981904Y-69302285D01*
X38077142Y-69349904D01*
X38124761Y-69397523D01*
X38172380Y-69492761D01*
X38172380Y-69588000D01*
X38124761Y-69683238D01*
X38077142Y-69730857D01*
X37981904Y-69778476D01*
X37791428Y-69826095D01*
X37553333Y-69826095D01*
X37362857Y-69778476D01*
X37267619Y-69730857D01*
X37220000Y-69683238D01*
X37172380Y-69588000D01*
X37172380Y-68635619D02*
X37172380Y-68540380D01*
X37220000Y-68445142D01*
X37267619Y-68397523D01*
X37362857Y-68349904D01*
X37553333Y-68302285D01*
X37791428Y-68302285D01*
X37981904Y-68349904D01*
X38077142Y-68397523D01*
X38124761Y-68445142D01*
X38172380Y-68540380D01*
X38172380Y-68635619D01*
X38124761Y-68730857D01*
X38077142Y-68778476D01*
X37981904Y-68826095D01*
X37791428Y-68873714D01*
X37553333Y-68873714D01*
X37362857Y-68826095D01*
X37267619Y-68778476D01*
X37220000Y-68730857D01*
X37172380Y-68635619D01*
X37505714Y-67873714D02*
X38172380Y-67873714D01*
X37600952Y-67873714D02*
X37553333Y-67826095D01*
X37505714Y-67730857D01*
X37505714Y-67588000D01*
X37553333Y-67492761D01*
X37648571Y-67445142D01*
X38172380Y-67445142D01*
X48347333Y-53697142D02*
X48299714Y-53744761D01*
X48156857Y-53792380D01*
X48061619Y-53792380D01*
X47918761Y-53744761D01*
X47823523Y-53649523D01*
X47775904Y-53554285D01*
X47728285Y-53363809D01*
X47728285Y-53220952D01*
X47775904Y-53030476D01*
X47823523Y-52935238D01*
X47918761Y-52840000D01*
X48061619Y-52792380D01*
X48156857Y-52792380D01*
X48299714Y-52840000D01*
X48347333Y-52887619D01*
X49252095Y-52792380D02*
X48775904Y-52792380D01*
X48728285Y-53268571D01*
X48775904Y-53220952D01*
X48871142Y-53173333D01*
X49109238Y-53173333D01*
X49204476Y-53220952D01*
X49252095Y-53268571D01*
X49299714Y-53363809D01*
X49299714Y-53601904D01*
X49252095Y-53697142D01*
X49204476Y-53744761D01*
X49109238Y-53792380D01*
X48871142Y-53792380D01*
X48775904Y-53744761D01*
X48728285Y-53697142D01*
X48156952Y-55316380D02*
X47585523Y-55316380D01*
X47871238Y-55316380D02*
X47871238Y-54316380D01*
X47776000Y-54459238D01*
X47680761Y-54554476D01*
X47585523Y-54602095D01*
X48776000Y-54316380D02*
X48871238Y-54316380D01*
X48966476Y-54364000D01*
X49014095Y-54411619D01*
X49061714Y-54506857D01*
X49109333Y-54697333D01*
X49109333Y-54935428D01*
X49061714Y-55125904D01*
X49014095Y-55221142D01*
X48966476Y-55268761D01*
X48871238Y-55316380D01*
X48776000Y-55316380D01*
X48680761Y-55268761D01*
X48633142Y-55221142D01*
X48585523Y-55125904D01*
X48537904Y-54935428D01*
X48537904Y-54697333D01*
X48585523Y-54506857D01*
X48633142Y-54411619D01*
X48680761Y-54364000D01*
X48776000Y-54316380D01*
X49728380Y-54316380D02*
X49823619Y-54316380D01*
X49918857Y-54364000D01*
X49966476Y-54411619D01*
X50014095Y-54506857D01*
X50061714Y-54697333D01*
X50061714Y-54935428D01*
X50014095Y-55125904D01*
X49966476Y-55221142D01*
X49918857Y-55268761D01*
X49823619Y-55316380D01*
X49728380Y-55316380D01*
X49633142Y-55268761D01*
X49585523Y-55221142D01*
X49537904Y-55125904D01*
X49490285Y-54935428D01*
X49490285Y-54697333D01*
X49537904Y-54506857D01*
X49585523Y-54411619D01*
X49633142Y-54364000D01*
X49728380Y-54316380D01*
X50490285Y-54649714D02*
X50490285Y-55316380D01*
X50490285Y-54744952D02*
X50537904Y-54697333D01*
X50633142Y-54649714D01*
X50776000Y-54649714D01*
X50871238Y-54697333D01*
X50918857Y-54792571D01*
X50918857Y-55316380D01*
X44918333Y-38712142D02*
X44870714Y-38759761D01*
X44727857Y-38807380D01*
X44632619Y-38807380D01*
X44489761Y-38759761D01*
X44394523Y-38664523D01*
X44346904Y-38569285D01*
X44299285Y-38378809D01*
X44299285Y-38235952D01*
X44346904Y-38045476D01*
X44394523Y-37950238D01*
X44489761Y-37855000D01*
X44632619Y-37807380D01*
X44727857Y-37807380D01*
X44870714Y-37855000D01*
X44918333Y-37902619D01*
X45251666Y-37807380D02*
X45918333Y-37807380D01*
X45489761Y-38807380D01*
D16*
X44092952Y-42107380D02*
X43521523Y-42107380D01*
X43807238Y-42107380D02*
X43807238Y-41107380D01*
X43712000Y-41250238D01*
X43616761Y-41345476D01*
X43521523Y-41393095D01*
X44712000Y-41107380D02*
X44807238Y-41107380D01*
X44902476Y-41155000D01*
X44950095Y-41202619D01*
X44997714Y-41297857D01*
X45045333Y-41488333D01*
X45045333Y-41726428D01*
X44997714Y-41916904D01*
X44950095Y-42012142D01*
X44902476Y-42059761D01*
X44807238Y-42107380D01*
X44712000Y-42107380D01*
X44616761Y-42059761D01*
X44569142Y-42012142D01*
X44521523Y-41916904D01*
X44473904Y-41726428D01*
X44473904Y-41488333D01*
X44521523Y-41297857D01*
X44569142Y-41202619D01*
X44616761Y-41155000D01*
X44712000Y-41107380D01*
X45664380Y-41107380D02*
X45759619Y-41107380D01*
X45854857Y-41155000D01*
X45902476Y-41202619D01*
X45950095Y-41297857D01*
X45997714Y-41488333D01*
X45997714Y-41726428D01*
X45950095Y-41916904D01*
X45902476Y-42012142D01*
X45854857Y-42059761D01*
X45759619Y-42107380D01*
X45664380Y-42107380D01*
X45569142Y-42059761D01*
X45521523Y-42012142D01*
X45473904Y-41916904D01*
X45426285Y-41726428D01*
X45426285Y-41488333D01*
X45473904Y-41297857D01*
X45521523Y-41202619D01*
X45569142Y-41155000D01*
X45664380Y-41107380D01*
X46426285Y-41440714D02*
X46426285Y-42107380D01*
X46426285Y-41535952D02*
X46473904Y-41488333D01*
X46569142Y-41440714D01*
X46712000Y-41440714D01*
X46807238Y-41488333D01*
X46854857Y-41583571D01*
X46854857Y-42107380D01*
D13*
X120539380Y-79478094D02*
X119539380Y-79478094D01*
X119539380Y-79239999D01*
X119587000Y-79097141D01*
X119682238Y-79001903D01*
X119777476Y-78954284D01*
X119967952Y-78906665D01*
X120110809Y-78906665D01*
X120301285Y-78954284D01*
X120396523Y-79001903D01*
X120491761Y-79097141D01*
X120539380Y-79239999D01*
X120539380Y-79478094D01*
X120539380Y-77954284D02*
X120539380Y-78525713D01*
X120539380Y-78239999D02*
X119539380Y-78239999D01*
X119682238Y-78335237D01*
X119777476Y-78430475D01*
X119825095Y-78525713D01*
X120539380Y-74392380D02*
X119539380Y-74392380D01*
X119539380Y-74154285D01*
X119587000Y-74011427D01*
X119682238Y-73916189D01*
X119777476Y-73868570D01*
X119967952Y-73820951D01*
X120110809Y-73820951D01*
X120301285Y-73868570D01*
X120396523Y-73916189D01*
X120491761Y-74011427D01*
X120539380Y-74154285D01*
X120539380Y-74392380D01*
X119634619Y-73439999D02*
X119587000Y-73392380D01*
X119539380Y-73297142D01*
X119539380Y-73059046D01*
X119587000Y-72963808D01*
X119634619Y-72916189D01*
X119729857Y-72868570D01*
X119825095Y-72868570D01*
X119967952Y-72916189D01*
X120539380Y-73487618D01*
X120539380Y-72868570D01*
X120539380Y-69306666D02*
X119539380Y-69306666D01*
X119539380Y-69068571D01*
X119587000Y-68925713D01*
X119682238Y-68830475D01*
X119777476Y-68782856D01*
X119967952Y-68735237D01*
X120110809Y-68735237D01*
X120301285Y-68782856D01*
X120396523Y-68830475D01*
X120491761Y-68925713D01*
X120539380Y-69068571D01*
X120539380Y-69306666D01*
X119539380Y-68401904D02*
X119539380Y-67782856D01*
X119920333Y-68116190D01*
X119920333Y-67973332D01*
X119967952Y-67878094D01*
X120015571Y-67830475D01*
X120110809Y-67782856D01*
X120348904Y-67782856D01*
X120444142Y-67830475D01*
X120491761Y-67878094D01*
X120539380Y-67973332D01*
X120539380Y-68259047D01*
X120491761Y-68354285D01*
X120444142Y-68401904D01*
X120539380Y-64220952D02*
X119539380Y-64220952D01*
X119539380Y-63982857D01*
X119587000Y-63839999D01*
X119682238Y-63744761D01*
X119777476Y-63697142D01*
X119967952Y-63649523D01*
X120110809Y-63649523D01*
X120301285Y-63697142D01*
X120396523Y-63744761D01*
X120491761Y-63839999D01*
X120539380Y-63982857D01*
X120539380Y-64220952D01*
X119872714Y-62792380D02*
X120539380Y-62792380D01*
X119491761Y-63030476D02*
X120206047Y-63268571D01*
X120206047Y-62649523D01*
X120539380Y-56618095D02*
X119539380Y-56618095D01*
X119539380Y-56380000D01*
X119587000Y-56237142D01*
X119682238Y-56141904D01*
X119777476Y-56094285D01*
X119967952Y-56046666D01*
X120110809Y-56046666D01*
X120301285Y-56094285D01*
X120396523Y-56141904D01*
X120491761Y-56237142D01*
X120539380Y-56380000D01*
X120539380Y-56618095D01*
X119539380Y-55141904D02*
X119539380Y-55618095D01*
X120015571Y-55665714D01*
X119967952Y-55618095D01*
X119920333Y-55522857D01*
X119920333Y-55284761D01*
X119967952Y-55189523D01*
X120015571Y-55141904D01*
X120110809Y-55094285D01*
X120348904Y-55094285D01*
X120444142Y-55141904D01*
X120491761Y-55189523D01*
X120539380Y-55284761D01*
X120539380Y-55522857D01*
X120491761Y-55618095D01*
X120444142Y-55665714D01*
X120539380Y-51538095D02*
X119539380Y-51538095D01*
X119539380Y-51300000D01*
X119587000Y-51157142D01*
X119682238Y-51061904D01*
X119777476Y-51014285D01*
X119967952Y-50966666D01*
X120110809Y-50966666D01*
X120301285Y-51014285D01*
X120396523Y-51061904D01*
X120491761Y-51157142D01*
X120539380Y-51300000D01*
X120539380Y-51538095D01*
X119539380Y-50109523D02*
X119539380Y-50300000D01*
X119587000Y-50395238D01*
X119634619Y-50442857D01*
X119777476Y-50538095D01*
X119967952Y-50585714D01*
X120348904Y-50585714D01*
X120444142Y-50538095D01*
X120491761Y-50490476D01*
X120539380Y-50395238D01*
X120539380Y-50204761D01*
X120491761Y-50109523D01*
X120444142Y-50061904D01*
X120348904Y-50014285D01*
X120110809Y-50014285D01*
X120015571Y-50061904D01*
X119967952Y-50109523D01*
X119920333Y-50204761D01*
X119920333Y-50395238D01*
X119967952Y-50490476D01*
X120015571Y-50538095D01*
X120110809Y-50585714D01*
X51093809Y-35147380D02*
X51093809Y-34147380D01*
X52141428Y-35052142D02*
X52093809Y-35099761D01*
X51950952Y-35147380D01*
X51855714Y-35147380D01*
X51712857Y-35099761D01*
X51617619Y-35004523D01*
X51570000Y-34909285D01*
X51522380Y-34718809D01*
X51522380Y-34575952D01*
X51570000Y-34385476D01*
X51617619Y-34290238D01*
X51712857Y-34195000D01*
X51855714Y-34147380D01*
X51950952Y-34147380D01*
X52093809Y-34195000D01*
X52141428Y-34242619D01*
X53093809Y-35147380D02*
X52522380Y-35147380D01*
X52808095Y-35147380D02*
X52808095Y-34147380D01*
X52712857Y-34290238D01*
X52617619Y-34385476D01*
X52522380Y-34433095D01*
X51093809Y-53562380D02*
X51093809Y-52562380D01*
X52141428Y-53467142D02*
X52093809Y-53514761D01*
X51950952Y-53562380D01*
X51855714Y-53562380D01*
X51712857Y-53514761D01*
X51617619Y-53419523D01*
X51570000Y-53324285D01*
X51522380Y-53133809D01*
X51522380Y-52990952D01*
X51570000Y-52800476D01*
X51617619Y-52705238D01*
X51712857Y-52610000D01*
X51855714Y-52562380D01*
X51950952Y-52562380D01*
X52093809Y-52610000D01*
X52141428Y-52657619D01*
X52522380Y-52657619D02*
X52570000Y-52610000D01*
X52665238Y-52562380D01*
X52903333Y-52562380D01*
X52998571Y-52610000D01*
X53046190Y-52657619D01*
X53093809Y-52752857D01*
X53093809Y-52848095D01*
X53046190Y-52990952D01*
X52474761Y-53562380D01*
X53093809Y-53562380D01*
X100234761Y-109807619D02*
X100139523Y-109760000D01*
X100044285Y-109664761D01*
X99901428Y-109521904D01*
X99806190Y-109474285D01*
X99710952Y-109474285D01*
X99758571Y-109712380D02*
X99663333Y-109664761D01*
X99568095Y-109569523D01*
X99520476Y-109379047D01*
X99520476Y-109045714D01*
X99568095Y-108855238D01*
X99663333Y-108760000D01*
X99758571Y-108712380D01*
X99949047Y-108712380D01*
X100044285Y-108760000D01*
X100139523Y-108855238D01*
X100187142Y-109045714D01*
X100187142Y-109379047D01*
X100139523Y-109569523D01*
X100044285Y-109664761D01*
X99949047Y-109712380D01*
X99758571Y-109712380D01*
X101139523Y-109712380D02*
X100568095Y-109712380D01*
X100853809Y-109712380D02*
X100853809Y-108712380D01*
X100758571Y-108855238D01*
X100663333Y-108950476D01*
X100568095Y-108998095D01*
X84994761Y-97027619D02*
X84899523Y-96980000D01*
X84804285Y-96884761D01*
X84661428Y-96741904D01*
X84566190Y-96694285D01*
X84470952Y-96694285D01*
X84518571Y-96932380D02*
X84423333Y-96884761D01*
X84328095Y-96789523D01*
X84280476Y-96599047D01*
X84280476Y-96265714D01*
X84328095Y-96075238D01*
X84423333Y-95980000D01*
X84518571Y-95932380D01*
X84709047Y-95932380D01*
X84804285Y-95980000D01*
X84899523Y-96075238D01*
X84947142Y-96265714D01*
X84947142Y-96599047D01*
X84899523Y-96789523D01*
X84804285Y-96884761D01*
X84709047Y-96932380D01*
X84518571Y-96932380D01*
X85328095Y-96027619D02*
X85375714Y-95980000D01*
X85470952Y-95932380D01*
X85709047Y-95932380D01*
X85804285Y-95980000D01*
X85851904Y-96027619D01*
X85899523Y-96122857D01*
X85899523Y-96218095D01*
X85851904Y-96360952D01*
X85280476Y-96932380D01*
X85899523Y-96932380D01*
X34758333Y-43887380D02*
X34425000Y-43411190D01*
X34186904Y-43887380D02*
X34186904Y-42887380D01*
X34567857Y-42887380D01*
X34663095Y-42935000D01*
X34710714Y-42982619D01*
X34758333Y-43077857D01*
X34758333Y-43220714D01*
X34710714Y-43315952D01*
X34663095Y-43363571D01*
X34567857Y-43411190D01*
X34186904Y-43411190D01*
X35710714Y-43887380D02*
X35139285Y-43887380D01*
X35425000Y-43887380D02*
X35425000Y-42887380D01*
X35329761Y-43030238D01*
X35234523Y-43125476D01*
X35139285Y-43173095D01*
X34758333Y-50237380D02*
X34425000Y-49761190D01*
X34186904Y-50237380D02*
X34186904Y-49237380D01*
X34567857Y-49237380D01*
X34663095Y-49285000D01*
X34710714Y-49332619D01*
X34758333Y-49427857D01*
X34758333Y-49570714D01*
X34710714Y-49665952D01*
X34663095Y-49713571D01*
X34567857Y-49761190D01*
X34186904Y-49761190D01*
X35139285Y-49332619D02*
X35186904Y-49285000D01*
X35282142Y-49237380D01*
X35520238Y-49237380D01*
X35615476Y-49285000D01*
X35663095Y-49332619D01*
X35710714Y-49427857D01*
X35710714Y-49523095D01*
X35663095Y-49665952D01*
X35091666Y-50237380D01*
X35710714Y-50237380D01*
X69922380Y-113704666D02*
X69446190Y-114038000D01*
X69922380Y-114276095D02*
X68922380Y-114276095D01*
X68922380Y-113895142D01*
X68970000Y-113799904D01*
X69017619Y-113752285D01*
X69112857Y-113704666D01*
X69255714Y-113704666D01*
X69350952Y-113752285D01*
X69398571Y-113799904D01*
X69446190Y-113895142D01*
X69446190Y-114276095D01*
X68922380Y-113371333D02*
X68922380Y-112752285D01*
X69303333Y-113085619D01*
X69303333Y-112942761D01*
X69350952Y-112847523D01*
X69398571Y-112799904D01*
X69493809Y-112752285D01*
X69731904Y-112752285D01*
X69827142Y-112799904D01*
X69874761Y-112847523D01*
X69922380Y-112942761D01*
X69922380Y-113228476D01*
X69874761Y-113323714D01*
X69827142Y-113371333D01*
X73222380Y-113791904D02*
X73222380Y-114363333D01*
X73222380Y-114077619D02*
X72222380Y-114077619D01*
X72365238Y-114172857D01*
X72460476Y-114268095D01*
X72508095Y-114363333D01*
X72222380Y-113172857D02*
X72222380Y-113077619D01*
X72270000Y-112982380D01*
X72317619Y-112934761D01*
X72412857Y-112887142D01*
X72603333Y-112839523D01*
X72841428Y-112839523D01*
X73031904Y-112887142D01*
X73127142Y-112934761D01*
X73174761Y-112982380D01*
X73222380Y-113077619D01*
X73222380Y-113172857D01*
X73174761Y-113268095D01*
X73127142Y-113315714D01*
X73031904Y-113363333D01*
X72841428Y-113410952D01*
X72603333Y-113410952D01*
X72412857Y-113363333D01*
X72317619Y-113315714D01*
X72270000Y-113268095D01*
X72222380Y-113172857D01*
X73222380Y-112410952D02*
X72222380Y-112410952D01*
X72936666Y-112077619D01*
X72222380Y-111744285D01*
X73222380Y-111744285D01*
X38568333Y-43887380D02*
X38235000Y-43411190D01*
X37996904Y-43887380D02*
X37996904Y-42887380D01*
X38377857Y-42887380D01*
X38473095Y-42935000D01*
X38520714Y-42982619D01*
X38568333Y-43077857D01*
X38568333Y-43220714D01*
X38520714Y-43315952D01*
X38473095Y-43363571D01*
X38377857Y-43411190D01*
X37996904Y-43411190D01*
X39425476Y-43220714D02*
X39425476Y-43887380D01*
X39187380Y-42839761D02*
X38949285Y-43554047D01*
X39568333Y-43554047D01*
X38958333Y-50237380D02*
X38625000Y-49761190D01*
X38386904Y-50237380D02*
X38386904Y-49237380D01*
X38767857Y-49237380D01*
X38863095Y-49285000D01*
X38910714Y-49332619D01*
X38958333Y-49427857D01*
X38958333Y-49570714D01*
X38910714Y-49665952D01*
X38863095Y-49713571D01*
X38767857Y-49761190D01*
X38386904Y-49761190D01*
X39863095Y-49237380D02*
X39386904Y-49237380D01*
X39339285Y-49713571D01*
X39386904Y-49665952D01*
X39482142Y-49618333D01*
X39720238Y-49618333D01*
X39815476Y-49665952D01*
X39863095Y-49713571D01*
X39910714Y-49808809D01*
X39910714Y-50046904D01*
X39863095Y-50142142D01*
X39815476Y-50189761D01*
X39720238Y-50237380D01*
X39482142Y-50237380D01*
X39386904Y-50189761D01*
X39339285Y-50142142D01*
X99655333Y-104846380D02*
X99322000Y-104370190D01*
X99083904Y-104846380D02*
X99083904Y-103846380D01*
X99464857Y-103846380D01*
X99560095Y-103894000D01*
X99607714Y-103941619D01*
X99655333Y-104036857D01*
X99655333Y-104179714D01*
X99607714Y-104274952D01*
X99560095Y-104322571D01*
X99464857Y-104370190D01*
X99083904Y-104370190D01*
X100512476Y-103846380D02*
X100322000Y-103846380D01*
X100226761Y-103894000D01*
X100179142Y-103941619D01*
X100083904Y-104084476D01*
X100036285Y-104274952D01*
X100036285Y-104655904D01*
X100083904Y-104751142D01*
X100131523Y-104798761D01*
X100226761Y-104846380D01*
X100417238Y-104846380D01*
X100512476Y-104798761D01*
X100560095Y-104751142D01*
X100607714Y-104655904D01*
X100607714Y-104417809D01*
X100560095Y-104322571D01*
X100512476Y-104274952D01*
X100417238Y-104227333D01*
X100226761Y-104227333D01*
X100131523Y-104274952D01*
X100083904Y-104322571D01*
X100036285Y-104417809D01*
X99448952Y-108148380D02*
X98877523Y-108148380D01*
X99163238Y-108148380D02*
X99163238Y-107148380D01*
X99068000Y-107291238D01*
X98972761Y-107386476D01*
X98877523Y-107434095D01*
X99877523Y-108148380D02*
X99877523Y-107148380D01*
X99972761Y-107767428D02*
X100258476Y-108148380D01*
X100258476Y-107481714D02*
X99877523Y-107862666D01*
X103973333Y-104847380D02*
X103640000Y-104371190D01*
X103401904Y-104847380D02*
X103401904Y-103847380D01*
X103782857Y-103847380D01*
X103878095Y-103895000D01*
X103925714Y-103942619D01*
X103973333Y-104037857D01*
X103973333Y-104180714D01*
X103925714Y-104275952D01*
X103878095Y-104323571D01*
X103782857Y-104371190D01*
X103401904Y-104371190D01*
X104306666Y-103847380D02*
X104973333Y-103847380D01*
X104544761Y-104847380D01*
X102401904Y-107242619D02*
X102449523Y-107195000D01*
X102544761Y-107147380D01*
X102782857Y-107147380D01*
X102878095Y-107195000D01*
X102925714Y-107242619D01*
X102973333Y-107337857D01*
X102973333Y-107433095D01*
X102925714Y-107575952D01*
X102354285Y-108147380D01*
X102973333Y-108147380D01*
X103354285Y-107242619D02*
X103401904Y-107195000D01*
X103497142Y-107147380D01*
X103735238Y-107147380D01*
X103830476Y-107195000D01*
X103878095Y-107242619D01*
X103925714Y-107337857D01*
X103925714Y-107433095D01*
X103878095Y-107575952D01*
X103306666Y-108147380D01*
X103925714Y-108147380D01*
X104544761Y-107147380D02*
X104640000Y-107147380D01*
X104735238Y-107195000D01*
X104782857Y-107242619D01*
X104830476Y-107337857D01*
X104878095Y-107528333D01*
X104878095Y-107766428D01*
X104830476Y-107956904D01*
X104782857Y-108052142D01*
X104735238Y-108099761D01*
X104640000Y-108147380D01*
X104544761Y-108147380D01*
X104449523Y-108099761D01*
X104401904Y-108052142D01*
X104354285Y-107956904D01*
X104306666Y-107766428D01*
X104306666Y-107528333D01*
X104354285Y-107337857D01*
X104401904Y-107242619D01*
X104449523Y-107195000D01*
X104544761Y-107147380D01*
X105878095Y-108147380D02*
X105544761Y-107671190D01*
X105306666Y-108147380D02*
X105306666Y-107147380D01*
X105687619Y-107147380D01*
X105782857Y-107195000D01*
X105830476Y-107242619D01*
X105878095Y-107337857D01*
X105878095Y-107480714D01*
X105830476Y-107575952D01*
X105782857Y-107623571D01*
X105687619Y-107671190D01*
X105306666Y-107671190D01*
X39838333Y-119452380D02*
X39505000Y-118976190D01*
X39266904Y-119452380D02*
X39266904Y-118452380D01*
X39647857Y-118452380D01*
X39743095Y-118500000D01*
X39790714Y-118547619D01*
X39838333Y-118642857D01*
X39838333Y-118785714D01*
X39790714Y-118880952D01*
X39743095Y-118928571D01*
X39647857Y-118976190D01*
X39266904Y-118976190D01*
X40409761Y-118880952D02*
X40314523Y-118833333D01*
X40266904Y-118785714D01*
X40219285Y-118690476D01*
X40219285Y-118642857D01*
X40266904Y-118547619D01*
X40314523Y-118500000D01*
X40409761Y-118452380D01*
X40600238Y-118452380D01*
X40695476Y-118500000D01*
X40743095Y-118547619D01*
X40790714Y-118642857D01*
X40790714Y-118690476D01*
X40743095Y-118785714D01*
X40695476Y-118833333D01*
X40600238Y-118880952D01*
X40409761Y-118880952D01*
X40314523Y-118928571D01*
X40266904Y-118976190D01*
X40219285Y-119071428D01*
X40219285Y-119261904D01*
X40266904Y-119357142D01*
X40314523Y-119404761D01*
X40409761Y-119452380D01*
X40600238Y-119452380D01*
X40695476Y-119404761D01*
X40743095Y-119357142D01*
X40790714Y-119261904D01*
X40790714Y-119071428D01*
X40743095Y-118976190D01*
X40695476Y-118928571D01*
X40600238Y-118880952D01*
X95083333Y-104847380D02*
X94750000Y-104371190D01*
X94511904Y-104847380D02*
X94511904Y-103847380D01*
X94892857Y-103847380D01*
X94988095Y-103895000D01*
X95035714Y-103942619D01*
X95083333Y-104037857D01*
X95083333Y-104180714D01*
X95035714Y-104275952D01*
X94988095Y-104323571D01*
X94892857Y-104371190D01*
X94511904Y-104371190D01*
X95559523Y-104847380D02*
X95750000Y-104847380D01*
X95845238Y-104799761D01*
X95892857Y-104752142D01*
X95988095Y-104609285D01*
X96035714Y-104418809D01*
X96035714Y-104037857D01*
X95988095Y-103942619D01*
X95940476Y-103895000D01*
X95845238Y-103847380D01*
X95654761Y-103847380D01*
X95559523Y-103895000D01*
X95511904Y-103942619D01*
X95464285Y-104037857D01*
X95464285Y-104275952D01*
X95511904Y-104371190D01*
X95559523Y-104418809D01*
X95654761Y-104466428D01*
X95845238Y-104466428D01*
X95940476Y-104418809D01*
X95988095Y-104371190D01*
X96035714Y-104275952D01*
X95130952Y-108147380D02*
X94559523Y-108147380D01*
X94845238Y-108147380D02*
X94845238Y-107147380D01*
X94750000Y-107290238D01*
X94654761Y-107385476D01*
X94559523Y-107433095D01*
X95559523Y-108147380D02*
X95559523Y-107147380D01*
X95654761Y-107766428D02*
X95940476Y-108147380D01*
X95940476Y-107480714D02*
X95559523Y-107861666D01*
X65397142Y-71318380D02*
X65063809Y-70842190D01*
X64825714Y-71318380D02*
X64825714Y-70318380D01*
X65206666Y-70318380D01*
X65301904Y-70366000D01*
X65349523Y-70413619D01*
X65397142Y-70508857D01*
X65397142Y-70651714D01*
X65349523Y-70746952D01*
X65301904Y-70794571D01*
X65206666Y-70842190D01*
X64825714Y-70842190D01*
X66349523Y-71318380D02*
X65778095Y-71318380D01*
X66063809Y-71318380D02*
X66063809Y-70318380D01*
X65968571Y-70461238D01*
X65873333Y-70556476D01*
X65778095Y-70604095D01*
X66968571Y-70318380D02*
X67063809Y-70318380D01*
X67159047Y-70366000D01*
X67206666Y-70413619D01*
X67254285Y-70508857D01*
X67301904Y-70699333D01*
X67301904Y-70937428D01*
X67254285Y-71127904D01*
X67206666Y-71223142D01*
X67159047Y-71270761D01*
X67063809Y-71318380D01*
X66968571Y-71318380D01*
X66873333Y-71270761D01*
X66825714Y-71223142D01*
X66778095Y-71127904D01*
X66730476Y-70937428D01*
X66730476Y-70699333D01*
X66778095Y-70508857D01*
X66825714Y-70413619D01*
X66873333Y-70366000D01*
X66968571Y-70318380D01*
X46934380Y-65920857D02*
X46458190Y-66254190D01*
X46934380Y-66492285D02*
X45934380Y-66492285D01*
X45934380Y-66111333D01*
X45982000Y-66016095D01*
X46029619Y-65968476D01*
X46124857Y-65920857D01*
X46267714Y-65920857D01*
X46362952Y-65968476D01*
X46410571Y-66016095D01*
X46458190Y-66111333D01*
X46458190Y-66492285D01*
X46934380Y-64968476D02*
X46934380Y-65539904D01*
X46934380Y-65254190D02*
X45934380Y-65254190D01*
X46077238Y-65349428D01*
X46172476Y-65444666D01*
X46220095Y-65539904D01*
X46934380Y-64016095D02*
X46934380Y-64587523D01*
X46934380Y-64301809D02*
X45934380Y-64301809D01*
X46077238Y-64397047D01*
X46172476Y-64492285D01*
X46220095Y-64587523D01*
D16*
X45092952Y-65492190D02*
X45045333Y-65587428D01*
X44997714Y-65635047D01*
X44902476Y-65682666D01*
X44854857Y-65682666D01*
X44759619Y-65635047D01*
X44712000Y-65587428D01*
X44664380Y-65492190D01*
X44664380Y-65301714D01*
X44712000Y-65206476D01*
X44759619Y-65158857D01*
X44854857Y-65111238D01*
X44902476Y-65111238D01*
X44997714Y-65158857D01*
X45045333Y-65206476D01*
X45092952Y-65301714D01*
X45092952Y-65492190D01*
X45140571Y-65587428D01*
X45188190Y-65635047D01*
X45283428Y-65682666D01*
X45473904Y-65682666D01*
X45569142Y-65635047D01*
X45616761Y-65587428D01*
X45664380Y-65492190D01*
X45664380Y-65301714D01*
X45616761Y-65206476D01*
X45569142Y-65158857D01*
X45473904Y-65111238D01*
X45283428Y-65111238D01*
X45188190Y-65158857D01*
X45140571Y-65206476D01*
X45092952Y-65301714D01*
X45664380Y-64682666D02*
X44664380Y-64682666D01*
X45283428Y-64587428D02*
X45664380Y-64301714D01*
X44997714Y-64301714D02*
X45378666Y-64682666D01*
X44759619Y-63920761D02*
X44712000Y-63873142D01*
X44664380Y-63777904D01*
X44664380Y-63539809D01*
X44712000Y-63444571D01*
X44759619Y-63396952D01*
X44854857Y-63349333D01*
X44950095Y-63349333D01*
X45092952Y-63396952D01*
X45664380Y-63968380D01*
X45664380Y-63349333D01*
D13*
X47188380Y-62237857D02*
X46712190Y-62571190D01*
X47188380Y-62809285D02*
X46188380Y-62809285D01*
X46188380Y-62428333D01*
X46236000Y-62333095D01*
X46283619Y-62285476D01*
X46378857Y-62237857D01*
X46521714Y-62237857D01*
X46616952Y-62285476D01*
X46664571Y-62333095D01*
X46712190Y-62428333D01*
X46712190Y-62809285D01*
X47188380Y-61285476D02*
X47188380Y-61856904D01*
X47188380Y-61571190D02*
X46188380Y-61571190D01*
X46331238Y-61666428D01*
X46426476Y-61761666D01*
X46474095Y-61856904D01*
X46283619Y-60904523D02*
X46236000Y-60856904D01*
X46188380Y-60761666D01*
X46188380Y-60523571D01*
X46236000Y-60428333D01*
X46283619Y-60380714D01*
X46378857Y-60333095D01*
X46474095Y-60333095D01*
X46616952Y-60380714D01*
X47188380Y-60952142D01*
X47188380Y-60333095D01*
D16*
X45092952Y-62571190D02*
X45045333Y-62666428D01*
X44997714Y-62714047D01*
X44902476Y-62761666D01*
X44854857Y-62761666D01*
X44759619Y-62714047D01*
X44712000Y-62666428D01*
X44664380Y-62571190D01*
X44664380Y-62380714D01*
X44712000Y-62285476D01*
X44759619Y-62237857D01*
X44854857Y-62190238D01*
X44902476Y-62190238D01*
X44997714Y-62237857D01*
X45045333Y-62285476D01*
X45092952Y-62380714D01*
X45092952Y-62571190D01*
X45140571Y-62666428D01*
X45188190Y-62714047D01*
X45283428Y-62761666D01*
X45473904Y-62761666D01*
X45569142Y-62714047D01*
X45616761Y-62666428D01*
X45664380Y-62571190D01*
X45664380Y-62380714D01*
X45616761Y-62285476D01*
X45569142Y-62237857D01*
X45473904Y-62190238D01*
X45283428Y-62190238D01*
X45188190Y-62237857D01*
X45140571Y-62285476D01*
X45092952Y-62380714D01*
X45664380Y-61761666D02*
X44664380Y-61761666D01*
X45283428Y-61666428D02*
X45664380Y-61380714D01*
X44997714Y-61380714D02*
X45378666Y-61761666D01*
X44759619Y-60999761D02*
X44712000Y-60952142D01*
X44664380Y-60856904D01*
X44664380Y-60618809D01*
X44712000Y-60523571D01*
X44759619Y-60475952D01*
X44854857Y-60428333D01*
X44950095Y-60428333D01*
X45092952Y-60475952D01*
X45664380Y-61047380D01*
X45664380Y-60428333D01*
D13*
X78812380Y-94622857D02*
X78336190Y-94956190D01*
X78812380Y-95194285D02*
X77812380Y-95194285D01*
X77812380Y-94813333D01*
X77860000Y-94718095D01*
X77907619Y-94670476D01*
X78002857Y-94622857D01*
X78145714Y-94622857D01*
X78240952Y-94670476D01*
X78288571Y-94718095D01*
X78336190Y-94813333D01*
X78336190Y-95194285D01*
X78812380Y-93670476D02*
X78812380Y-94241904D01*
X78812380Y-93956190D02*
X77812380Y-93956190D01*
X77955238Y-94051428D01*
X78050476Y-94146666D01*
X78098095Y-94241904D01*
X77812380Y-93337142D02*
X77812380Y-92718095D01*
X78193333Y-93051428D01*
X78193333Y-92908571D01*
X78240952Y-92813333D01*
X78288571Y-92765714D01*
X78383809Y-92718095D01*
X78621904Y-92718095D01*
X78717142Y-92765714D01*
X78764761Y-92813333D01*
X78812380Y-92908571D01*
X78812380Y-93194285D01*
X78764761Y-93289523D01*
X78717142Y-93337142D01*
X82112380Y-94099047D02*
X82112380Y-94670476D01*
X82112380Y-94384761D02*
X81112380Y-94384761D01*
X81255238Y-94480000D01*
X81350476Y-94575238D01*
X81398095Y-94670476D01*
X82112380Y-93670476D02*
X81112380Y-93670476D01*
X81731428Y-93575238D02*
X82112380Y-93289523D01*
X81445714Y-93289523D02*
X81826666Y-93670476D01*
X102227142Y-87702380D02*
X101893809Y-87226190D01*
X101655714Y-87702380D02*
X101655714Y-86702380D01*
X102036666Y-86702380D01*
X102131904Y-86750000D01*
X102179523Y-86797619D01*
X102227142Y-86892857D01*
X102227142Y-87035714D01*
X102179523Y-87130952D01*
X102131904Y-87178571D01*
X102036666Y-87226190D01*
X101655714Y-87226190D01*
X103179523Y-87702380D02*
X102608095Y-87702380D01*
X102893809Y-87702380D02*
X102893809Y-86702380D01*
X102798571Y-86845238D01*
X102703333Y-86940476D01*
X102608095Y-86988095D01*
X104036666Y-87035714D02*
X104036666Y-87702380D01*
X103798571Y-86654761D02*
X103560476Y-87369047D01*
X104179523Y-87369047D01*
X101131904Y-90097619D02*
X101179523Y-90050000D01*
X101274761Y-90002380D01*
X101512857Y-90002380D01*
X101608095Y-90050000D01*
X101655714Y-90097619D01*
X101703333Y-90192857D01*
X101703333Y-90288095D01*
X101655714Y-90430952D01*
X101084285Y-91002380D01*
X101703333Y-91002380D01*
X102084285Y-90097619D02*
X102131904Y-90050000D01*
X102227142Y-90002380D01*
X102465238Y-90002380D01*
X102560476Y-90050000D01*
X102608095Y-90097619D01*
X102655714Y-90192857D01*
X102655714Y-90288095D01*
X102608095Y-90430952D01*
X102036666Y-91002380D01*
X102655714Y-91002380D01*
X103274761Y-90002380D02*
X103370000Y-90002380D01*
X103465238Y-90050000D01*
X103512857Y-90097619D01*
X103560476Y-90192857D01*
X103608095Y-90383333D01*
X103608095Y-90621428D01*
X103560476Y-90811904D01*
X103512857Y-90907142D01*
X103465238Y-90954761D01*
X103370000Y-91002380D01*
X103274761Y-91002380D01*
X103179523Y-90954761D01*
X103131904Y-90907142D01*
X103084285Y-90811904D01*
X103036666Y-90621428D01*
X103036666Y-90383333D01*
X103084285Y-90192857D01*
X103131904Y-90097619D01*
X103179523Y-90050000D01*
X103274761Y-90002380D01*
X104608095Y-91002380D02*
X104274761Y-90526190D01*
X104036666Y-91002380D02*
X104036666Y-90002380D01*
X104417619Y-90002380D01*
X104512857Y-90050000D01*
X104560476Y-90097619D01*
X104608095Y-90192857D01*
X104608095Y-90335714D01*
X104560476Y-90430952D01*
X104512857Y-90478571D01*
X104417619Y-90526190D01*
X104036666Y-90526190D01*
X92272380Y-94622857D02*
X91796190Y-94956190D01*
X92272380Y-95194285D02*
X91272380Y-95194285D01*
X91272380Y-94813333D01*
X91320000Y-94718095D01*
X91367619Y-94670476D01*
X91462857Y-94622857D01*
X91605714Y-94622857D01*
X91700952Y-94670476D01*
X91748571Y-94718095D01*
X91796190Y-94813333D01*
X91796190Y-95194285D01*
X92272380Y-93670476D02*
X92272380Y-94241904D01*
X92272380Y-93956190D02*
X91272380Y-93956190D01*
X91415238Y-94051428D01*
X91510476Y-94146666D01*
X91558095Y-94241904D01*
X91272380Y-92765714D02*
X91272380Y-93241904D01*
X91748571Y-93289523D01*
X91700952Y-93241904D01*
X91653333Y-93146666D01*
X91653333Y-92908571D01*
X91700952Y-92813333D01*
X91748571Y-92765714D01*
X91843809Y-92718095D01*
X92081904Y-92718095D01*
X92177142Y-92765714D01*
X92224761Y-92813333D01*
X92272380Y-92908571D01*
X92272380Y-93146666D01*
X92224761Y-93241904D01*
X92177142Y-93289523D01*
X88972380Y-94099047D02*
X88972380Y-94670476D01*
X88972380Y-94384761D02*
X87972380Y-94384761D01*
X88115238Y-94480000D01*
X88210476Y-94575238D01*
X88258095Y-94670476D01*
X88972380Y-93670476D02*
X87972380Y-93670476D01*
X88591428Y-93575238D02*
X88972380Y-93289523D01*
X88305714Y-93289523D02*
X88686666Y-93670476D01*
X47617142Y-36267380D02*
X47283809Y-35791190D01*
X47045714Y-36267380D02*
X47045714Y-35267380D01*
X47426666Y-35267380D01*
X47521904Y-35315000D01*
X47569523Y-35362619D01*
X47617142Y-35457857D01*
X47617142Y-35600714D01*
X47569523Y-35695952D01*
X47521904Y-35743571D01*
X47426666Y-35791190D01*
X47045714Y-35791190D01*
X48569523Y-36267380D02*
X47998095Y-36267380D01*
X48283809Y-36267380D02*
X48283809Y-35267380D01*
X48188571Y-35410238D01*
X48093333Y-35505476D01*
X47998095Y-35553095D01*
X49426666Y-35267380D02*
X49236190Y-35267380D01*
X49140952Y-35315000D01*
X49093333Y-35362619D01*
X48998095Y-35505476D01*
X48950476Y-35695952D01*
X48950476Y-36076904D01*
X48998095Y-36172142D01*
X49045714Y-36219761D01*
X49140952Y-36267380D01*
X49331428Y-36267380D01*
X49426666Y-36219761D01*
X49474285Y-36172142D01*
X49521904Y-36076904D01*
X49521904Y-35838809D01*
X49474285Y-35743571D01*
X49426666Y-35695952D01*
X49331428Y-35648333D01*
X49140952Y-35648333D01*
X49045714Y-35695952D01*
X48998095Y-35743571D01*
X48950476Y-35838809D01*
D16*
X47712380Y-33742380D02*
X47807619Y-33742380D01*
X47902857Y-33790000D01*
X47950476Y-33837619D01*
X47998095Y-33932857D01*
X48045714Y-34123333D01*
X48045714Y-34361428D01*
X47998095Y-34551904D01*
X47950476Y-34647142D01*
X47902857Y-34694761D01*
X47807619Y-34742380D01*
X47712380Y-34742380D01*
X47617142Y-34694761D01*
X47569523Y-34647142D01*
X47521904Y-34551904D01*
X47474285Y-34361428D01*
X47474285Y-34123333D01*
X47521904Y-33932857D01*
X47569523Y-33837619D01*
X47617142Y-33790000D01*
X47712380Y-33742380D01*
X49045714Y-34742380D02*
X48712380Y-34266190D01*
X48474285Y-34742380D02*
X48474285Y-33742380D01*
X48855238Y-33742380D01*
X48950476Y-33790000D01*
X48998095Y-33837619D01*
X49045714Y-33932857D01*
X49045714Y-34075714D01*
X48998095Y-34170952D01*
X48950476Y-34218571D01*
X48855238Y-34266190D01*
X48474285Y-34266190D01*
D13*
X47188380Y-58300857D02*
X46712190Y-58634190D01*
X47188380Y-58872285D02*
X46188380Y-58872285D01*
X46188380Y-58491333D01*
X46236000Y-58396095D01*
X46283619Y-58348476D01*
X46378857Y-58300857D01*
X46521714Y-58300857D01*
X46616952Y-58348476D01*
X46664571Y-58396095D01*
X46712190Y-58491333D01*
X46712190Y-58872285D01*
X47188380Y-57348476D02*
X47188380Y-57919904D01*
X47188380Y-57634190D02*
X46188380Y-57634190D01*
X46331238Y-57729428D01*
X46426476Y-57824666D01*
X46474095Y-57919904D01*
X46188380Y-57015142D02*
X46188380Y-56348476D01*
X47188380Y-56777047D01*
D16*
X44664380Y-58205619D02*
X44664380Y-58110380D01*
X44712000Y-58015142D01*
X44759619Y-57967523D01*
X44854857Y-57919904D01*
X45045333Y-57872285D01*
X45283428Y-57872285D01*
X45473904Y-57919904D01*
X45569142Y-57967523D01*
X45616761Y-58015142D01*
X45664380Y-58110380D01*
X45664380Y-58205619D01*
X45616761Y-58300857D01*
X45569142Y-58348476D01*
X45473904Y-58396095D01*
X45283428Y-58443714D01*
X45045333Y-58443714D01*
X44854857Y-58396095D01*
X44759619Y-58348476D01*
X44712000Y-58300857D01*
X44664380Y-58205619D01*
X45664380Y-56872285D02*
X45188190Y-57205619D01*
X45664380Y-57443714D02*
X44664380Y-57443714D01*
X44664380Y-57062761D01*
X44712000Y-56967523D01*
X44759619Y-56919904D01*
X44854857Y-56872285D01*
X44997714Y-56872285D01*
X45092952Y-56919904D01*
X45140571Y-56967523D01*
X45188190Y-57062761D01*
X45188190Y-57443714D01*
D13*
X116832142Y-76289522D02*
X116498809Y-75813332D01*
X116260714Y-76289522D02*
X116260714Y-75289522D01*
X116641666Y-75289522D01*
X116736904Y-75337142D01*
X116784523Y-75384761D01*
X116832142Y-75479999D01*
X116832142Y-75622856D01*
X116784523Y-75718094D01*
X116736904Y-75765713D01*
X116641666Y-75813332D01*
X116260714Y-75813332D01*
X117784523Y-76289522D02*
X117213095Y-76289522D01*
X117498809Y-76289522D02*
X117498809Y-75289522D01*
X117403571Y-75432380D01*
X117308333Y-75527618D01*
X117213095Y-75575237D01*
X118355952Y-75718094D02*
X118260714Y-75670475D01*
X118213095Y-75622856D01*
X118165476Y-75527618D01*
X118165476Y-75479999D01*
X118213095Y-75384761D01*
X118260714Y-75337142D01*
X118355952Y-75289522D01*
X118546428Y-75289522D01*
X118641666Y-75337142D01*
X118689285Y-75384761D01*
X118736904Y-75479999D01*
X118736904Y-75527618D01*
X118689285Y-75622856D01*
X118641666Y-75670475D01*
X118546428Y-75718094D01*
X118355952Y-75718094D01*
X118260714Y-75765713D01*
X118213095Y-75813332D01*
X118165476Y-75908570D01*
X118165476Y-76099046D01*
X118213095Y-76194284D01*
X118260714Y-76241903D01*
X118355952Y-76289522D01*
X118546428Y-76289522D01*
X118641666Y-76241903D01*
X118689285Y-76194284D01*
X118736904Y-76099046D01*
X118736904Y-75908570D01*
X118689285Y-75813332D01*
X118641666Y-75765713D01*
X118546428Y-75718094D01*
X116832142Y-71203808D02*
X116498809Y-70727618D01*
X116260714Y-71203808D02*
X116260714Y-70203808D01*
X116641666Y-70203808D01*
X116736904Y-70251428D01*
X116784523Y-70299047D01*
X116832142Y-70394285D01*
X116832142Y-70537142D01*
X116784523Y-70632380D01*
X116736904Y-70679999D01*
X116641666Y-70727618D01*
X116260714Y-70727618D01*
X117784523Y-71203808D02*
X117213095Y-71203808D01*
X117498809Y-71203808D02*
X117498809Y-70203808D01*
X117403571Y-70346666D01*
X117308333Y-70441904D01*
X117213095Y-70489523D01*
X118260714Y-71203808D02*
X118451190Y-71203808D01*
X118546428Y-71156189D01*
X118594047Y-71108570D01*
X118689285Y-70965713D01*
X118736904Y-70775237D01*
X118736904Y-70394285D01*
X118689285Y-70299047D01*
X118641666Y-70251428D01*
X118546428Y-70203808D01*
X118355952Y-70203808D01*
X118260714Y-70251428D01*
X118213095Y-70299047D01*
X118165476Y-70394285D01*
X118165476Y-70632380D01*
X118213095Y-70727618D01*
X118260714Y-70775237D01*
X118355952Y-70822856D01*
X118546428Y-70822856D01*
X118641666Y-70775237D01*
X118689285Y-70727618D01*
X118736904Y-70632380D01*
X116832142Y-66118094D02*
X116498809Y-65641904D01*
X116260714Y-66118094D02*
X116260714Y-65118094D01*
X116641666Y-65118094D01*
X116736904Y-65165714D01*
X116784523Y-65213333D01*
X116832142Y-65308571D01*
X116832142Y-65451428D01*
X116784523Y-65546666D01*
X116736904Y-65594285D01*
X116641666Y-65641904D01*
X116260714Y-65641904D01*
X117213095Y-65213333D02*
X117260714Y-65165714D01*
X117355952Y-65118094D01*
X117594047Y-65118094D01*
X117689285Y-65165714D01*
X117736904Y-65213333D01*
X117784523Y-65308571D01*
X117784523Y-65403809D01*
X117736904Y-65546666D01*
X117165476Y-66118094D01*
X117784523Y-66118094D01*
X118403571Y-65118094D02*
X118498809Y-65118094D01*
X118594047Y-65165714D01*
X118641666Y-65213333D01*
X118689285Y-65308571D01*
X118736904Y-65499047D01*
X118736904Y-65737142D01*
X118689285Y-65927618D01*
X118641666Y-66022856D01*
X118594047Y-66070475D01*
X118498809Y-66118094D01*
X118403571Y-66118094D01*
X118308333Y-66070475D01*
X118260714Y-66022856D01*
X118213095Y-65927618D01*
X118165476Y-65737142D01*
X118165476Y-65499047D01*
X118213095Y-65308571D01*
X118260714Y-65213333D01*
X118308333Y-65165714D01*
X118403571Y-65118094D01*
X116832142Y-61032380D02*
X116498809Y-60556190D01*
X116260714Y-61032380D02*
X116260714Y-60032380D01*
X116641666Y-60032380D01*
X116736904Y-60080000D01*
X116784523Y-60127619D01*
X116832142Y-60222857D01*
X116832142Y-60365714D01*
X116784523Y-60460952D01*
X116736904Y-60508571D01*
X116641666Y-60556190D01*
X116260714Y-60556190D01*
X117213095Y-60127619D02*
X117260714Y-60080000D01*
X117355952Y-60032380D01*
X117594047Y-60032380D01*
X117689285Y-60080000D01*
X117736904Y-60127619D01*
X117784523Y-60222857D01*
X117784523Y-60318095D01*
X117736904Y-60460952D01*
X117165476Y-61032380D01*
X117784523Y-61032380D01*
X118736904Y-61032380D02*
X118165476Y-61032380D01*
X118451190Y-61032380D02*
X118451190Y-60032380D01*
X118355952Y-60175238D01*
X118260714Y-60270476D01*
X118165476Y-60318095D01*
X116832142Y-53412380D02*
X116498809Y-52936190D01*
X116260714Y-53412380D02*
X116260714Y-52412380D01*
X116641666Y-52412380D01*
X116736904Y-52460000D01*
X116784523Y-52507619D01*
X116832142Y-52602857D01*
X116832142Y-52745714D01*
X116784523Y-52840952D01*
X116736904Y-52888571D01*
X116641666Y-52936190D01*
X116260714Y-52936190D01*
X117213095Y-52507619D02*
X117260714Y-52460000D01*
X117355952Y-52412380D01*
X117594047Y-52412380D01*
X117689285Y-52460000D01*
X117736904Y-52507619D01*
X117784523Y-52602857D01*
X117784523Y-52698095D01*
X117736904Y-52840952D01*
X117165476Y-53412380D01*
X117784523Y-53412380D01*
X118165476Y-52507619D02*
X118213095Y-52460000D01*
X118308333Y-52412380D01*
X118546428Y-52412380D01*
X118641666Y-52460000D01*
X118689285Y-52507619D01*
X118736904Y-52602857D01*
X118736904Y-52698095D01*
X118689285Y-52840952D01*
X118117857Y-53412380D01*
X118736904Y-53412380D01*
X116832142Y-48332380D02*
X116498809Y-47856190D01*
X116260714Y-48332380D02*
X116260714Y-47332380D01*
X116641666Y-47332380D01*
X116736904Y-47380000D01*
X116784523Y-47427619D01*
X116832142Y-47522857D01*
X116832142Y-47665714D01*
X116784523Y-47760952D01*
X116736904Y-47808571D01*
X116641666Y-47856190D01*
X116260714Y-47856190D01*
X117213095Y-47427619D02*
X117260714Y-47380000D01*
X117355952Y-47332380D01*
X117594047Y-47332380D01*
X117689285Y-47380000D01*
X117736904Y-47427619D01*
X117784523Y-47522857D01*
X117784523Y-47618095D01*
X117736904Y-47760952D01*
X117165476Y-48332380D01*
X117784523Y-48332380D01*
X118117857Y-47332380D02*
X118736904Y-47332380D01*
X118403571Y-47713333D01*
X118546428Y-47713333D01*
X118641666Y-47760952D01*
X118689285Y-47808571D01*
X118736904Y-47903809D01*
X118736904Y-48141904D01*
X118689285Y-48237142D01*
X118641666Y-48284761D01*
X118546428Y-48332380D01*
X118260714Y-48332380D01*
X118165476Y-48284761D01*
X118117857Y-48237142D01*
X113657142Y-31187380D02*
X113323809Y-30711190D01*
X113085714Y-31187380D02*
X113085714Y-30187380D01*
X113466666Y-30187380D01*
X113561904Y-30235000D01*
X113609523Y-30282619D01*
X113657142Y-30377857D01*
X113657142Y-30520714D01*
X113609523Y-30615952D01*
X113561904Y-30663571D01*
X113466666Y-30711190D01*
X113085714Y-30711190D01*
X114038095Y-30282619D02*
X114085714Y-30235000D01*
X114180952Y-30187380D01*
X114419047Y-30187380D01*
X114514285Y-30235000D01*
X114561904Y-30282619D01*
X114609523Y-30377857D01*
X114609523Y-30473095D01*
X114561904Y-30615952D01*
X113990476Y-31187380D01*
X114609523Y-31187380D01*
X115466666Y-30520714D02*
X115466666Y-31187380D01*
X115228571Y-30139761D02*
X114990476Y-30854047D01*
X115609523Y-30854047D01*
X29884761Y-54672380D02*
X29551428Y-54196190D01*
X29313333Y-54672380D02*
X29313333Y-53672380D01*
X29694285Y-53672380D01*
X29789523Y-53720000D01*
X29837142Y-53767619D01*
X29884761Y-53862857D01*
X29884761Y-54005714D01*
X29837142Y-54100952D01*
X29789523Y-54148571D01*
X29694285Y-54196190D01*
X29313333Y-54196190D01*
X30170476Y-53672380D02*
X30503809Y-54672380D01*
X30837142Y-53672380D01*
X31694285Y-54672380D02*
X31122857Y-54672380D01*
X31408571Y-54672380D02*
X31408571Y-53672380D01*
X31313333Y-53815238D01*
X31218095Y-53910476D01*
X31122857Y-53958095D01*
X32424761Y-48577142D02*
X32377142Y-48624761D01*
X32234285Y-48672380D01*
X32139047Y-48672380D01*
X31996190Y-48624761D01*
X31900952Y-48529523D01*
X31853333Y-48434285D01*
X31805714Y-48243809D01*
X31805714Y-48100952D01*
X31853333Y-47910476D01*
X31900952Y-47815238D01*
X31996190Y-47720000D01*
X32139047Y-47672380D01*
X32234285Y-47672380D01*
X32377142Y-47720000D01*
X32424761Y-47767619D01*
X32710476Y-47672380D02*
X33043809Y-48672380D01*
X33377142Y-47672380D01*
X34234285Y-48672380D02*
X33662857Y-48672380D01*
X33948571Y-48672380D02*
X33948571Y-47672380D01*
X33853333Y-47815238D01*
X33758095Y-47910476D01*
X33662857Y-47958095D01*
X29884761Y-64832380D02*
X29551428Y-64356190D01*
X29313333Y-64832380D02*
X29313333Y-63832380D01*
X29694285Y-63832380D01*
X29789523Y-63880000D01*
X29837142Y-63927619D01*
X29884761Y-64022857D01*
X29884761Y-64165714D01*
X29837142Y-64260952D01*
X29789523Y-64308571D01*
X29694285Y-64356190D01*
X29313333Y-64356190D01*
X30170476Y-63832380D02*
X30503809Y-64832380D01*
X30837142Y-63832380D01*
X31122857Y-63927619D02*
X31170476Y-63880000D01*
X31265714Y-63832380D01*
X31503809Y-63832380D01*
X31599047Y-63880000D01*
X31646666Y-63927619D01*
X31694285Y-64022857D01*
X31694285Y-64118095D01*
X31646666Y-64260952D01*
X31075238Y-64832380D01*
X31694285Y-64832380D01*
X32932761Y-58777142D02*
X32885142Y-58824761D01*
X32742285Y-58872380D01*
X32647047Y-58872380D01*
X32504190Y-58824761D01*
X32408952Y-58729523D01*
X32361333Y-58634285D01*
X32313714Y-58443809D01*
X32313714Y-58300952D01*
X32361333Y-58110476D01*
X32408952Y-58015238D01*
X32504190Y-57920000D01*
X32647047Y-57872380D01*
X32742285Y-57872380D01*
X32885142Y-57920000D01*
X32932761Y-57967619D01*
X33218476Y-57872380D02*
X33551809Y-58872380D01*
X33885142Y-57872380D01*
X34170857Y-57967619D02*
X34218476Y-57920000D01*
X34313714Y-57872380D01*
X34551809Y-57872380D01*
X34647047Y-57920000D01*
X34694666Y-57967619D01*
X34742285Y-58062857D01*
X34742285Y-58158095D01*
X34694666Y-58300952D01*
X34123238Y-58872380D01*
X34742285Y-58872380D01*
X97663095Y-97667380D02*
X97663095Y-98476904D01*
X97710714Y-98572142D01*
X97758333Y-98619761D01*
X97853571Y-98667380D01*
X98044047Y-98667380D01*
X98139285Y-98619761D01*
X98186904Y-98572142D01*
X98234523Y-98476904D01*
X98234523Y-97667380D01*
X98663095Y-97762619D02*
X98710714Y-97715000D01*
X98805952Y-97667380D01*
X99044047Y-97667380D01*
X99139285Y-97715000D01*
X99186904Y-97762619D01*
X99234523Y-97857857D01*
X99234523Y-97953095D01*
X99186904Y-98095952D01*
X98615476Y-98667380D01*
X99234523Y-98667380D01*
X96377380Y-90943571D02*
X96710714Y-90943571D01*
X96853571Y-91467380D02*
X96377380Y-91467380D01*
X96377380Y-90467380D01*
X96853571Y-90467380D01*
X97758333Y-91467380D02*
X97282142Y-91467380D01*
X97282142Y-90467380D01*
X98234523Y-90895952D02*
X98139285Y-90848333D01*
X98091666Y-90800714D01*
X98044047Y-90705476D01*
X98044047Y-90657857D01*
X98091666Y-90562619D01*
X98139285Y-90515000D01*
X98234523Y-90467380D01*
X98425000Y-90467380D01*
X98520238Y-90515000D01*
X98567857Y-90562619D01*
X98615476Y-90657857D01*
X98615476Y-90705476D01*
X98567857Y-90800714D01*
X98520238Y-90848333D01*
X98425000Y-90895952D01*
X98234523Y-90895952D01*
X98139285Y-90943571D01*
X98091666Y-90991190D01*
X98044047Y-91086428D01*
X98044047Y-91276904D01*
X98091666Y-91372142D01*
X98139285Y-91419761D01*
X98234523Y-91467380D01*
X98425000Y-91467380D01*
X98520238Y-91419761D01*
X98567857Y-91372142D01*
X98615476Y-91276904D01*
X98615476Y-91086428D01*
X98567857Y-90991190D01*
X98520238Y-90943571D01*
X98425000Y-90895952D01*
X99567857Y-91467380D02*
X98996428Y-91467380D01*
X99282142Y-91467380D02*
X99282142Y-90467380D01*
X99186904Y-90610238D01*
X99091666Y-90705476D01*
X98996428Y-90753095D01*
X100425000Y-90800714D02*
X100425000Y-91467380D01*
X100186904Y-90419761D02*
X99948809Y-91134047D01*
X100567857Y-91134047D01*
X46188380Y-70103904D02*
X46997904Y-70103904D01*
X47093142Y-70056285D01*
X47140761Y-70008666D01*
X47188380Y-69913428D01*
X47188380Y-69722952D01*
X47140761Y-69627714D01*
X47093142Y-69580095D01*
X46997904Y-69532476D01*
X46188380Y-69532476D01*
X46188380Y-69151523D02*
X46188380Y-68532476D01*
X46569333Y-68865809D01*
X46569333Y-68722952D01*
X46616952Y-68627714D01*
X46664571Y-68580095D01*
X46759809Y-68532476D01*
X46997904Y-68532476D01*
X47093142Y-68580095D01*
X47140761Y-68627714D01*
X47188380Y-68722952D01*
X47188380Y-69008666D01*
X47140761Y-69103904D01*
X47093142Y-69151523D01*
X36917380Y-30178333D02*
X37631666Y-30178333D01*
X37774523Y-30225952D01*
X37869761Y-30321190D01*
X37917380Y-30464047D01*
X37917380Y-30559285D01*
X36917380Y-29273571D02*
X36917380Y-29464047D01*
X36965000Y-29559285D01*
X37012619Y-29606904D01*
X37155476Y-29702142D01*
X37345952Y-29749761D01*
X37726904Y-29749761D01*
X37822142Y-29702142D01*
X37869761Y-29654523D01*
X37917380Y-29559285D01*
X37917380Y-29368809D01*
X37869761Y-29273571D01*
X37822142Y-29225952D01*
X37726904Y-29178333D01*
X37488809Y-29178333D01*
X37393571Y-29225952D01*
X37345952Y-29273571D01*
X37298333Y-29368809D01*
X37298333Y-29559285D01*
X37345952Y-29654523D01*
X37393571Y-29702142D01*
X37488809Y-29749761D01*
X30674760Y-30202142D02*
X30627141Y-30249761D01*
X30484284Y-30297380D01*
X30389046Y-30297380D01*
X30246189Y-30249761D01*
X30150951Y-30154523D01*
X30103332Y-30059285D01*
X30055713Y-29868809D01*
X30055713Y-29725952D01*
X30103332Y-29535476D01*
X30150951Y-29440238D01*
X30246189Y-29345000D01*
X30389046Y-29297380D01*
X30484284Y-29297380D01*
X30627141Y-29345000D01*
X30674760Y-29392619D01*
X30960475Y-29297380D02*
X31293808Y-30297380D01*
X31627141Y-29297380D01*
X32484284Y-30297380D02*
X31912856Y-30297380D01*
X32198570Y-30297380D02*
X32198570Y-29297380D01*
X32103332Y-29440238D01*
X32008094Y-29535476D01*
X31912856Y-29583095D01*
X32694523Y-27757380D02*
X32361190Y-27281190D01*
X32123095Y-27757380D02*
X32123095Y-26757380D01*
X32504047Y-26757380D01*
X32599285Y-26805000D01*
X32646904Y-26852619D01*
X32694523Y-26947857D01*
X32694523Y-27090714D01*
X32646904Y-27185952D01*
X32599285Y-27233571D01*
X32504047Y-27281190D01*
X32123095Y-27281190D01*
X28884523Y-27757380D02*
X28408333Y-27757380D01*
X28408333Y-26757380D01*
X28884523Y-32837380D02*
X28408333Y-32837380D01*
X28408333Y-31837380D01*
X31623095Y-31885000D02*
X31527857Y-31837380D01*
X31385000Y-31837380D01*
X31242142Y-31885000D01*
X31146904Y-31980238D01*
X31099285Y-32075476D01*
X31051666Y-32265952D01*
X31051666Y-32408809D01*
X31099285Y-32599285D01*
X31146904Y-32694523D01*
X31242142Y-32789761D01*
X31385000Y-32837380D01*
X31480238Y-32837380D01*
X31623095Y-32789761D01*
X31670714Y-32742142D01*
X31670714Y-32408809D01*
X31480238Y-32408809D01*
X32099285Y-32837380D02*
X32099285Y-31837380D01*
X32670714Y-32837380D01*
X32670714Y-31837380D01*
X33146904Y-32837380D02*
X33146904Y-31837380D01*
X33385000Y-31837380D01*
X33527857Y-31885000D01*
X33623095Y-31980238D01*
X33670714Y-32075476D01*
X33718333Y-32265952D01*
X33718333Y-32408809D01*
X33670714Y-32599285D01*
X33623095Y-32694523D01*
X33527857Y-32789761D01*
X33385000Y-32837380D01*
X33146904Y-32837380D01*
X36917380Y-65865333D02*
X37631666Y-65865333D01*
X37774523Y-65912952D01*
X37869761Y-66008190D01*
X37917380Y-66151047D01*
X37917380Y-66246285D01*
X37917380Y-65341523D02*
X37917380Y-65151047D01*
X37869761Y-65055809D01*
X37822142Y-65008190D01*
X37679285Y-64912952D01*
X37488809Y-64865333D01*
X37107857Y-64865333D01*
X37012619Y-64912952D01*
X36965000Y-64960571D01*
X36917380Y-65055809D01*
X36917380Y-65246285D01*
X36965000Y-65341523D01*
X37012619Y-65389142D01*
X37107857Y-65436761D01*
X37345952Y-65436761D01*
X37441190Y-65389142D01*
X37488809Y-65341523D01*
X37536428Y-65246285D01*
X37536428Y-65055809D01*
X37488809Y-64960571D01*
X37441190Y-64912952D01*
X37345952Y-64865333D01*
X30519761Y-68302142D02*
X30472142Y-68349761D01*
X30329285Y-68397380D01*
X30234047Y-68397380D01*
X30091190Y-68349761D01*
X29995952Y-68254523D01*
X29948333Y-68159285D01*
X29900714Y-67968809D01*
X29900714Y-67825952D01*
X29948333Y-67635476D01*
X29995952Y-67540238D01*
X30091190Y-67445000D01*
X30234047Y-67397380D01*
X30329285Y-67397380D01*
X30472142Y-67445000D01*
X30519761Y-67492619D01*
X30805476Y-67397380D02*
X31138809Y-68397380D01*
X31472142Y-67397380D01*
X31710238Y-67397380D02*
X32329285Y-67397380D01*
X31995952Y-67778333D01*
X32138809Y-67778333D01*
X32234047Y-67825952D01*
X32281666Y-67873571D01*
X32329285Y-67968809D01*
X32329285Y-68206904D01*
X32281666Y-68302142D01*
X32234047Y-68349761D01*
X32138809Y-68397380D01*
X31853095Y-68397380D01*
X31757857Y-68349761D01*
X31710238Y-68302142D01*
X32694523Y-65857380D02*
X32361190Y-65381190D01*
X32123095Y-65857380D02*
X32123095Y-64857380D01*
X32504047Y-64857380D01*
X32599285Y-64905000D01*
X32646904Y-64952619D01*
X32694523Y-65047857D01*
X32694523Y-65190714D01*
X32646904Y-65285952D01*
X32599285Y-65333571D01*
X32504047Y-65381190D01*
X32123095Y-65381190D01*
X28884523Y-65857380D02*
X28408333Y-65857380D01*
X28408333Y-64857380D01*
X28884523Y-70937380D02*
X28408333Y-70937380D01*
X28408333Y-69937380D01*
X31623095Y-69985000D02*
X31527857Y-69937380D01*
X31385000Y-69937380D01*
X31242142Y-69985000D01*
X31146904Y-70080238D01*
X31099285Y-70175476D01*
X31051666Y-70365952D01*
X31051666Y-70508809D01*
X31099285Y-70699285D01*
X31146904Y-70794523D01*
X31242142Y-70889761D01*
X31385000Y-70937380D01*
X31480238Y-70937380D01*
X31623095Y-70889761D01*
X31670714Y-70842142D01*
X31670714Y-70508809D01*
X31480238Y-70508809D01*
X32099285Y-70937380D02*
X32099285Y-69937380D01*
X32670714Y-70937380D01*
X32670714Y-69937380D01*
X33146904Y-70937380D02*
X33146904Y-69937380D01*
X33385000Y-69937380D01*
X33527857Y-69985000D01*
X33623095Y-70080238D01*
X33670714Y-70175476D01*
X33718333Y-70365952D01*
X33718333Y-70508809D01*
X33670714Y-70699285D01*
X33623095Y-70794523D01*
X33527857Y-70889761D01*
X33385000Y-70937380D01*
X33146904Y-70937380D01*
X36917380Y-77009523D02*
X37631666Y-77009523D01*
X37774523Y-77057142D01*
X37869761Y-77152380D01*
X37917380Y-77295238D01*
X37917380Y-77390476D01*
X37917380Y-76009523D02*
X37917380Y-76580952D01*
X37917380Y-76295238D02*
X36917380Y-76295238D01*
X37060238Y-76390476D01*
X37155476Y-76485714D01*
X37203095Y-76580952D01*
X36917380Y-75390476D02*
X36917380Y-75295238D01*
X36965000Y-75200000D01*
X37012619Y-75152380D01*
X37107857Y-75104761D01*
X37298333Y-75057142D01*
X37536428Y-75057142D01*
X37726904Y-75104761D01*
X37822142Y-75152380D01*
X37869761Y-75200000D01*
X37917380Y-75295238D01*
X37917380Y-75390476D01*
X37869761Y-75485714D01*
X37822142Y-75533333D01*
X37726904Y-75580952D01*
X37536428Y-75628571D01*
X37298333Y-75628571D01*
X37107857Y-75580952D01*
X37012619Y-75533333D01*
X36965000Y-75485714D01*
X36917380Y-75390476D01*
X30519761Y-76557142D02*
X30472142Y-76604761D01*
X30329285Y-76652380D01*
X30234047Y-76652380D01*
X30091190Y-76604761D01*
X29995952Y-76509523D01*
X29948333Y-76414285D01*
X29900714Y-76223809D01*
X29900714Y-76080952D01*
X29948333Y-75890476D01*
X29995952Y-75795238D01*
X30091190Y-75700000D01*
X30234047Y-75652380D01*
X30329285Y-75652380D01*
X30472142Y-75700000D01*
X30519761Y-75747619D01*
X30805476Y-75652380D02*
X31138809Y-76652380D01*
X31472142Y-75652380D01*
X32234047Y-75985714D02*
X32234047Y-76652380D01*
X31995952Y-75604761D02*
X31757857Y-76319047D01*
X32376904Y-76319047D01*
X31623095Y-78240000D02*
X31527857Y-78192380D01*
X31385000Y-78192380D01*
X31242142Y-78240000D01*
X31146904Y-78335238D01*
X31099285Y-78430476D01*
X31051666Y-78620952D01*
X31051666Y-78763809D01*
X31099285Y-78954285D01*
X31146904Y-79049523D01*
X31242142Y-79144761D01*
X31385000Y-79192380D01*
X31480238Y-79192380D01*
X31623095Y-79144761D01*
X31670714Y-79097142D01*
X31670714Y-78763809D01*
X31480238Y-78763809D01*
X32099285Y-79192380D02*
X32099285Y-78192380D01*
X32670714Y-79192380D01*
X32670714Y-78192380D01*
X33146904Y-79192380D02*
X33146904Y-78192380D01*
X33385000Y-78192380D01*
X33527857Y-78240000D01*
X33623095Y-78335238D01*
X33670714Y-78430476D01*
X33718333Y-78620952D01*
X33718333Y-78763809D01*
X33670714Y-78954285D01*
X33623095Y-79049523D01*
X33527857Y-79144761D01*
X33385000Y-79192380D01*
X33146904Y-79192380D01*
X28884523Y-79192380D02*
X28408333Y-79192380D01*
X28408333Y-78192380D01*
X28884523Y-74112380D02*
X28408333Y-74112380D01*
X28408333Y-73112380D01*
X32694523Y-74112380D02*
X32361190Y-73636190D01*
X32123095Y-74112380D02*
X32123095Y-73112380D01*
X32504047Y-73112380D01*
X32599285Y-73160000D01*
X32646904Y-73207619D01*
X32694523Y-73302857D01*
X32694523Y-73445714D01*
X32646904Y-73540952D01*
X32599285Y-73588571D01*
X32504047Y-73636190D01*
X32123095Y-73636190D01*
X36917380Y-85899523D02*
X37631666Y-85899523D01*
X37774523Y-85947142D01*
X37869761Y-86042380D01*
X37917380Y-86185238D01*
X37917380Y-86280476D01*
X37917380Y-84899523D02*
X37917380Y-85470952D01*
X37917380Y-85185238D02*
X36917380Y-85185238D01*
X37060238Y-85280476D01*
X37155476Y-85375714D01*
X37203095Y-85470952D01*
X37917380Y-83947142D02*
X37917380Y-84518571D01*
X37917380Y-84232857D02*
X36917380Y-84232857D01*
X37060238Y-84328095D01*
X37155476Y-84423333D01*
X37203095Y-84518571D01*
X29734047Y-84590000D02*
X29638809Y-84542380D01*
X29495952Y-84542380D01*
X29353095Y-84590000D01*
X29257857Y-84685238D01*
X29210238Y-84780476D01*
X29162619Y-84970952D01*
X29162619Y-85113809D01*
X29210238Y-85304285D01*
X29257857Y-85399523D01*
X29353095Y-85494761D01*
X29495952Y-85542380D01*
X29591190Y-85542380D01*
X29734047Y-85494761D01*
X29781666Y-85447142D01*
X29781666Y-85113809D01*
X29591190Y-85113809D01*
X30638809Y-85542380D02*
X30638809Y-85018571D01*
X30591190Y-84923333D01*
X30495952Y-84875714D01*
X30305476Y-84875714D01*
X30210238Y-84923333D01*
X30638809Y-85494761D02*
X30543571Y-85542380D01*
X30305476Y-85542380D01*
X30210238Y-85494761D01*
X30162619Y-85399523D01*
X30162619Y-85304285D01*
X30210238Y-85209047D01*
X30305476Y-85161428D01*
X30543571Y-85161428D01*
X30638809Y-85113809D01*
X30972142Y-84875714D02*
X31353095Y-84875714D01*
X31115000Y-84542380D02*
X31115000Y-85399523D01*
X31162619Y-85494761D01*
X31257857Y-85542380D01*
X31353095Y-85542380D01*
X32067380Y-85494761D02*
X31972142Y-85542380D01*
X31781666Y-85542380D01*
X31686428Y-85494761D01*
X31638809Y-85399523D01*
X31638809Y-85018571D01*
X31686428Y-84923333D01*
X31781666Y-84875714D01*
X31972142Y-84875714D01*
X32067380Y-84923333D01*
X32115000Y-85018571D01*
X32115000Y-85113809D01*
X31638809Y-85209047D01*
X33067380Y-85542380D02*
X32495952Y-85542380D01*
X32781666Y-85542380D02*
X32781666Y-84542380D01*
X32686428Y-84685238D01*
X32591190Y-84780476D01*
X32495952Y-84828095D01*
X32694523Y-83002380D02*
X32361190Y-82526190D01*
X32123095Y-83002380D02*
X32123095Y-82002380D01*
X32504047Y-82002380D01*
X32599285Y-82050000D01*
X32646904Y-82097619D01*
X32694523Y-82192857D01*
X32694523Y-82335714D01*
X32646904Y-82430952D01*
X32599285Y-82478571D01*
X32504047Y-82526190D01*
X32123095Y-82526190D01*
X28884523Y-83002380D02*
X28408333Y-83002380D01*
X28408333Y-82002380D01*
X28884523Y-88082380D02*
X28408333Y-88082380D01*
X28408333Y-87082380D01*
X31623095Y-87130000D02*
X31527857Y-87082380D01*
X31385000Y-87082380D01*
X31242142Y-87130000D01*
X31146904Y-87225238D01*
X31099285Y-87320476D01*
X31051666Y-87510952D01*
X31051666Y-87653809D01*
X31099285Y-87844285D01*
X31146904Y-87939523D01*
X31242142Y-88034761D01*
X31385000Y-88082380D01*
X31480238Y-88082380D01*
X31623095Y-88034761D01*
X31670714Y-87987142D01*
X31670714Y-87653809D01*
X31480238Y-87653809D01*
X32099285Y-88082380D02*
X32099285Y-87082380D01*
X32670714Y-88082380D01*
X32670714Y-87082380D01*
X33146904Y-88082380D02*
X33146904Y-87082380D01*
X33385000Y-87082380D01*
X33527857Y-87130000D01*
X33623095Y-87225238D01*
X33670714Y-87320476D01*
X33718333Y-87510952D01*
X33718333Y-87653809D01*
X33670714Y-87844285D01*
X33623095Y-87939523D01*
X33527857Y-88034761D01*
X33385000Y-88082380D01*
X33146904Y-88082380D01*
X36917380Y-94789523D02*
X37631666Y-94789523D01*
X37774523Y-94837142D01*
X37869761Y-94932380D01*
X37917380Y-95075238D01*
X37917380Y-95170476D01*
X37917380Y-93789523D02*
X37917380Y-94360952D01*
X37917380Y-94075238D02*
X36917380Y-94075238D01*
X37060238Y-94170476D01*
X37155476Y-94265714D01*
X37203095Y-94360952D01*
X36917380Y-93456190D02*
X36917380Y-92837142D01*
X37298333Y-93170476D01*
X37298333Y-93027619D01*
X37345952Y-92932380D01*
X37393571Y-92884761D01*
X37488809Y-92837142D01*
X37726904Y-92837142D01*
X37822142Y-92884761D01*
X37869761Y-92932380D01*
X37917380Y-93027619D01*
X37917380Y-93313333D01*
X37869761Y-93408571D01*
X37822142Y-93456190D01*
X29734047Y-93480000D02*
X29638809Y-93432380D01*
X29495952Y-93432380D01*
X29353095Y-93480000D01*
X29257857Y-93575238D01*
X29210238Y-93670476D01*
X29162619Y-93860952D01*
X29162619Y-94003809D01*
X29210238Y-94194285D01*
X29257857Y-94289523D01*
X29353095Y-94384761D01*
X29495952Y-94432380D01*
X29591190Y-94432380D01*
X29734047Y-94384761D01*
X29781666Y-94337142D01*
X29781666Y-94003809D01*
X29591190Y-94003809D01*
X30638809Y-94432380D02*
X30638809Y-93908571D01*
X30591190Y-93813333D01*
X30495952Y-93765714D01*
X30305476Y-93765714D01*
X30210238Y-93813333D01*
X30638809Y-94384761D02*
X30543571Y-94432380D01*
X30305476Y-94432380D01*
X30210238Y-94384761D01*
X30162619Y-94289523D01*
X30162619Y-94194285D01*
X30210238Y-94099047D01*
X30305476Y-94051428D01*
X30543571Y-94051428D01*
X30638809Y-94003809D01*
X30972142Y-93765714D02*
X31353095Y-93765714D01*
X31115000Y-93432380D02*
X31115000Y-94289523D01*
X31162619Y-94384761D01*
X31257857Y-94432380D01*
X31353095Y-94432380D01*
X32067380Y-94384761D02*
X31972142Y-94432380D01*
X31781666Y-94432380D01*
X31686428Y-94384761D01*
X31638809Y-94289523D01*
X31638809Y-93908571D01*
X31686428Y-93813333D01*
X31781666Y-93765714D01*
X31972142Y-93765714D01*
X32067380Y-93813333D01*
X32115000Y-93908571D01*
X32115000Y-94003809D01*
X31638809Y-94099047D01*
X32495952Y-93527619D02*
X32543571Y-93480000D01*
X32638809Y-93432380D01*
X32876904Y-93432380D01*
X32972142Y-93480000D01*
X33019761Y-93527619D01*
X33067380Y-93622857D01*
X33067380Y-93718095D01*
X33019761Y-93860952D01*
X32448333Y-94432380D01*
X33067380Y-94432380D01*
X32694523Y-91892380D02*
X32361190Y-91416190D01*
X32123095Y-91892380D02*
X32123095Y-90892380D01*
X32504047Y-90892380D01*
X32599285Y-90940000D01*
X32646904Y-90987619D01*
X32694523Y-91082857D01*
X32694523Y-91225714D01*
X32646904Y-91320952D01*
X32599285Y-91368571D01*
X32504047Y-91416190D01*
X32123095Y-91416190D01*
X28884523Y-91892380D02*
X28408333Y-91892380D01*
X28408333Y-90892380D01*
X28884523Y-96972380D02*
X28408333Y-96972380D01*
X28408333Y-95972380D01*
X31623095Y-96020000D02*
X31527857Y-95972380D01*
X31385000Y-95972380D01*
X31242142Y-96020000D01*
X31146904Y-96115238D01*
X31099285Y-96210476D01*
X31051666Y-96400952D01*
X31051666Y-96543809D01*
X31099285Y-96734285D01*
X31146904Y-96829523D01*
X31242142Y-96924761D01*
X31385000Y-96972380D01*
X31480238Y-96972380D01*
X31623095Y-96924761D01*
X31670714Y-96877142D01*
X31670714Y-96543809D01*
X31480238Y-96543809D01*
X32099285Y-96972380D02*
X32099285Y-95972380D01*
X32670714Y-96972380D01*
X32670714Y-95972380D01*
X33146904Y-96972380D02*
X33146904Y-95972380D01*
X33385000Y-95972380D01*
X33527857Y-96020000D01*
X33623095Y-96115238D01*
X33670714Y-96210476D01*
X33718333Y-96400952D01*
X33718333Y-96543809D01*
X33670714Y-96734285D01*
X33623095Y-96829523D01*
X33527857Y-96924761D01*
X33385000Y-96972380D01*
X33146904Y-96972380D01*
X119951666Y-40639761D02*
X120094523Y-40687380D01*
X120332619Y-40687380D01*
X120427857Y-40639761D01*
X120475476Y-40592142D01*
X120523095Y-40496904D01*
X120523095Y-40401666D01*
X120475476Y-40306428D01*
X120427857Y-40258809D01*
X120332619Y-40211190D01*
X120142142Y-40163571D01*
X120046904Y-40115952D01*
X119999285Y-40068333D01*
X119951666Y-39973095D01*
X119951666Y-39877857D01*
X119999285Y-39782619D01*
X120046904Y-39735000D01*
X120142142Y-39687380D01*
X120380238Y-39687380D01*
X120523095Y-39735000D01*
X120856428Y-39687380D02*
X121094523Y-40687380D01*
X121285000Y-39973095D01*
X121475476Y-40687380D01*
X121713571Y-39687380D01*
X122618333Y-40687380D02*
X122046904Y-40687380D01*
X122332619Y-40687380D02*
X122332619Y-39687380D01*
X122237380Y-39830238D01*
X122142142Y-39925476D01*
X122046904Y-39973095D01*
X124277380Y-47591904D02*
X123277380Y-47591904D01*
X124277380Y-47020476D02*
X123705952Y-47449047D01*
X123277380Y-47020476D02*
X123848809Y-47591904D01*
X123801190Y-46401428D02*
X124277380Y-46401428D01*
X123277380Y-46734761D02*
X123801190Y-46401428D01*
X123277380Y-46068095D01*
X123610714Y-45306190D02*
X124277380Y-45306190D01*
X123229761Y-45544285D02*
X123944047Y-45782380D01*
X123944047Y-45163333D01*
X123277380Y-44591904D02*
X123277380Y-44496666D01*
X123325000Y-44401428D01*
X123372619Y-44353809D01*
X123467857Y-44306190D01*
X123658333Y-44258571D01*
X123896428Y-44258571D01*
X124086904Y-44306190D01*
X124182142Y-44353809D01*
X124229761Y-44401428D01*
X124277380Y-44496666D01*
X124277380Y-44591904D01*
X124229761Y-44687142D01*
X124182142Y-44734761D01*
X124086904Y-44782380D01*
X123896428Y-44830000D01*
X123658333Y-44830000D01*
X123467857Y-44782380D01*
X123372619Y-44734761D01*
X123325000Y-44687142D01*
X123277380Y-44591904D01*
X124372619Y-44068095D02*
X124372619Y-43306190D01*
X124277380Y-42496666D02*
X123801190Y-42830000D01*
X124277380Y-43068095D02*
X123277380Y-43068095D01*
X123277380Y-42687142D01*
X123325000Y-42591904D01*
X123372619Y-42544285D01*
X123467857Y-42496666D01*
X123610714Y-42496666D01*
X123705952Y-42544285D01*
X123753571Y-42591904D01*
X123801190Y-42687142D01*
X123801190Y-43068095D01*
X124277380Y-41925238D02*
X124229761Y-42020476D01*
X124182142Y-42068095D01*
X124086904Y-42115714D01*
X123801190Y-42115714D01*
X123705952Y-42068095D01*
X123658333Y-42020476D01*
X123610714Y-41925238D01*
X123610714Y-41782380D01*
X123658333Y-41687142D01*
X123705952Y-41639523D01*
X123801190Y-41591904D01*
X124086904Y-41591904D01*
X124182142Y-41639523D01*
X124229761Y-41687142D01*
X124277380Y-41782380D01*
X124277380Y-41925238D01*
X123610714Y-41306190D02*
X123610714Y-40925238D01*
X123277380Y-41163333D02*
X124134523Y-41163333D01*
X124229761Y-41115714D01*
X124277380Y-41020476D01*
X124277380Y-40925238D01*
X124277380Y-40163333D02*
X123753571Y-40163333D01*
X123658333Y-40210952D01*
X123610714Y-40306190D01*
X123610714Y-40496666D01*
X123658333Y-40591904D01*
X124229761Y-40163333D02*
X124277380Y-40258571D01*
X124277380Y-40496666D01*
X124229761Y-40591904D01*
X124134523Y-40639523D01*
X124039285Y-40639523D01*
X123944047Y-40591904D01*
X123896428Y-40496666D01*
X123896428Y-40258571D01*
X123848809Y-40163333D01*
X124277380Y-39687142D02*
X123610714Y-39687142D01*
X123801190Y-39687142D02*
X123705952Y-39639523D01*
X123658333Y-39591904D01*
X123610714Y-39496666D01*
X123610714Y-39401428D01*
X123610714Y-39163333D02*
X124277380Y-38925238D01*
X123610714Y-38687142D02*
X124277380Y-38925238D01*
X124515476Y-39020476D01*
X124563095Y-39068095D01*
X124610714Y-39163333D01*
X124372619Y-38544285D02*
X124372619Y-37782380D01*
X123753571Y-37544285D02*
X123753571Y-37210952D01*
X124277380Y-37068095D02*
X124277380Y-37544285D01*
X123277380Y-37544285D01*
X123277380Y-37068095D01*
X123610714Y-36639523D02*
X124277380Y-36639523D01*
X123705952Y-36639523D02*
X123658333Y-36591904D01*
X123610714Y-36496666D01*
X123610714Y-36353809D01*
X123658333Y-36258571D01*
X123753571Y-36210952D01*
X124277380Y-36210952D01*
X124229761Y-35306190D02*
X124277380Y-35401428D01*
X124277380Y-35591904D01*
X124229761Y-35687142D01*
X124182142Y-35734761D01*
X124086904Y-35782380D01*
X123801190Y-35782380D01*
X123705952Y-35734761D01*
X123658333Y-35687142D01*
X123610714Y-35591904D01*
X123610714Y-35401428D01*
X123658333Y-35306190D01*
X124277380Y-34734761D02*
X124229761Y-34830000D01*
X124182142Y-34877619D01*
X124086904Y-34925238D01*
X123801190Y-34925238D01*
X123705952Y-34877619D01*
X123658333Y-34830000D01*
X123610714Y-34734761D01*
X123610714Y-34591904D01*
X123658333Y-34496666D01*
X123705952Y-34449047D01*
X123801190Y-34401428D01*
X124086904Y-34401428D01*
X124182142Y-34449047D01*
X124229761Y-34496666D01*
X124277380Y-34591904D01*
X124277380Y-34734761D01*
X124277380Y-33544285D02*
X123277380Y-33544285D01*
X124229761Y-33544285D02*
X124277380Y-33639523D01*
X124277380Y-33830000D01*
X124229761Y-33925238D01*
X124182142Y-33972857D01*
X124086904Y-34020476D01*
X123801190Y-34020476D01*
X123705952Y-33972857D01*
X123658333Y-33925238D01*
X123610714Y-33830000D01*
X123610714Y-33639523D01*
X123658333Y-33544285D01*
X124229761Y-32687142D02*
X124277380Y-32782380D01*
X124277380Y-32972857D01*
X124229761Y-33068095D01*
X124134523Y-33115714D01*
X123753571Y-33115714D01*
X123658333Y-33068095D01*
X123610714Y-32972857D01*
X123610714Y-32782380D01*
X123658333Y-32687142D01*
X123753571Y-32639523D01*
X123848809Y-32639523D01*
X123944047Y-33115714D01*
X124277380Y-32210952D02*
X123610714Y-32210952D01*
X123801190Y-32210952D02*
X123705952Y-32163333D01*
X123658333Y-32115714D01*
X123610714Y-32020476D01*
X123610714Y-31925238D01*
X124372619Y-31830000D02*
X124372619Y-31068095D01*
X124277380Y-30830000D02*
X123277380Y-30830000D01*
X123991666Y-30496666D01*
X123277380Y-30163333D01*
X124277380Y-30163333D01*
X124277380Y-29544285D02*
X124229761Y-29639523D01*
X124182142Y-29687142D01*
X124086904Y-29734761D01*
X123801190Y-29734761D01*
X123705952Y-29687142D01*
X123658333Y-29639523D01*
X123610714Y-29544285D01*
X123610714Y-29401428D01*
X123658333Y-29306190D01*
X123705952Y-29258571D01*
X123801190Y-29210952D01*
X124086904Y-29210952D01*
X124182142Y-29258571D01*
X124229761Y-29306190D01*
X124277380Y-29401428D01*
X124277380Y-29544285D01*
X124277380Y-28353809D02*
X123277380Y-28353809D01*
X124229761Y-28353809D02*
X124277380Y-28449047D01*
X124277380Y-28639523D01*
X124229761Y-28734761D01*
X124182142Y-28782380D01*
X124086904Y-28830000D01*
X123801190Y-28830000D01*
X123705952Y-28782380D01*
X123658333Y-28734761D01*
X123610714Y-28639523D01*
X123610714Y-28449047D01*
X123658333Y-28353809D01*
X123610714Y-27449047D02*
X124277380Y-27449047D01*
X123610714Y-27877619D02*
X124134523Y-27877619D01*
X124229761Y-27830000D01*
X124277380Y-27734761D01*
X124277380Y-27591904D01*
X124229761Y-27496666D01*
X124182142Y-27449047D01*
X124277380Y-26830000D02*
X124229761Y-26925238D01*
X124134523Y-26972857D01*
X123277380Y-26972857D01*
X124229761Y-26068095D02*
X124277380Y-26163333D01*
X124277380Y-26353809D01*
X124229761Y-26449047D01*
X124134523Y-26496666D01*
X123753571Y-26496666D01*
X123658333Y-26449047D01*
X123610714Y-26353809D01*
X123610714Y-26163333D01*
X123658333Y-26068095D01*
X123753571Y-26020476D01*
X123848809Y-26020476D01*
X123944047Y-26496666D01*
X117641761Y-27662142D02*
X117594142Y-27709761D01*
X117451285Y-27757380D01*
X117356047Y-27757380D01*
X117213190Y-27709761D01*
X117117952Y-27614523D01*
X117070333Y-27519285D01*
X117022714Y-27328809D01*
X117022714Y-27185952D01*
X117070333Y-26995476D01*
X117117952Y-26900238D01*
X117213190Y-26805000D01*
X117356047Y-26757380D01*
X117451285Y-26757380D01*
X117594142Y-26805000D01*
X117641761Y-26852619D01*
X118546523Y-27757380D02*
X118070333Y-27757380D01*
X118070333Y-26757380D01*
X118879857Y-27757380D02*
X118879857Y-26757380D01*
X119451285Y-27757380D02*
X119022714Y-27185952D01*
X119451285Y-26757380D02*
X118879857Y-27328809D01*
X117340142Y-30297380D02*
X117340142Y-29297380D01*
X117578238Y-29297380D01*
X117721095Y-29345000D01*
X117816333Y-29440238D01*
X117863952Y-29535476D01*
X117911571Y-29725952D01*
X117911571Y-29868809D01*
X117863952Y-30059285D01*
X117816333Y-30154523D01*
X117721095Y-30249761D01*
X117578238Y-30297380D01*
X117340142Y-30297380D01*
X118197285Y-29297380D02*
X118768714Y-29297380D01*
X118483000Y-30297380D02*
X118483000Y-29297380D01*
X117125857Y-32789761D02*
X117268714Y-32837380D01*
X117506809Y-32837380D01*
X117602047Y-32789761D01*
X117649666Y-32742142D01*
X117697285Y-32646904D01*
X117697285Y-32551666D01*
X117649666Y-32456428D01*
X117602047Y-32408809D01*
X117506809Y-32361190D01*
X117316333Y-32313571D01*
X117221095Y-32265952D01*
X117173476Y-32218333D01*
X117125857Y-32123095D01*
X117125857Y-32027857D01*
X117173476Y-31932619D01*
X117221095Y-31885000D01*
X117316333Y-31837380D01*
X117554428Y-31837380D01*
X117697285Y-31885000D01*
X118030619Y-31837380D02*
X118268714Y-32837380D01*
X118459190Y-32123095D01*
X118649666Y-32837380D01*
X118887761Y-31837380D01*
X117205285Y-34996428D02*
X117967190Y-34996428D01*
X117586238Y-35377380D02*
X117586238Y-34615476D01*
X118919571Y-34377380D02*
X118443380Y-34377380D01*
X118395761Y-34853571D01*
X118443380Y-34805952D01*
X118538619Y-34758333D01*
X118776714Y-34758333D01*
X118871952Y-34805952D01*
X118919571Y-34853571D01*
X118967190Y-34948809D01*
X118967190Y-35186904D01*
X118919571Y-35282142D01*
X118871952Y-35329761D01*
X118776714Y-35377380D01*
X118538619Y-35377380D01*
X118443380Y-35329761D01*
X118395761Y-35282142D01*
X119252904Y-34377380D02*
X119586238Y-35377380D01*
X119919571Y-34377380D01*
X117475095Y-36965000D02*
X117379857Y-36917380D01*
X117237000Y-36917380D01*
X117094142Y-36965000D01*
X116998904Y-37060238D01*
X116951285Y-37155476D01*
X116903666Y-37345952D01*
X116903666Y-37488809D01*
X116951285Y-37679285D01*
X116998904Y-37774523D01*
X117094142Y-37869761D01*
X117237000Y-37917380D01*
X117332238Y-37917380D01*
X117475095Y-37869761D01*
X117522714Y-37822142D01*
X117522714Y-37488809D01*
X117332238Y-37488809D01*
X117951285Y-37917380D02*
X117951285Y-36917380D01*
X118522714Y-37917380D01*
X118522714Y-36917380D01*
X118998904Y-37917380D02*
X118998904Y-36917380D01*
X119237000Y-36917380D01*
X119379857Y-36965000D01*
X119475095Y-37060238D01*
X119522714Y-37155476D01*
X119570333Y-37345952D01*
X119570333Y-37488809D01*
X119522714Y-37679285D01*
X119475095Y-37774523D01*
X119379857Y-37869761D01*
X119237000Y-37917380D01*
X118998904Y-37917380D01*
X69827142Y-118666666D02*
X69874761Y-118714285D01*
X69922380Y-118857142D01*
X69922380Y-118952380D01*
X69874761Y-119095238D01*
X69779523Y-119190476D01*
X69684285Y-119238095D01*
X69493809Y-119285714D01*
X69350952Y-119285714D01*
X69160476Y-119238095D01*
X69065238Y-119190476D01*
X68970000Y-119095238D01*
X68922380Y-118952380D01*
X68922380Y-118857142D01*
X68970000Y-118714285D01*
X69017619Y-118666666D01*
X69350952Y-118095238D02*
X69303333Y-118190476D01*
X69255714Y-118238095D01*
X69160476Y-118285714D01*
X69112857Y-118285714D01*
X69017619Y-118238095D01*
X68970000Y-118190476D01*
X68922380Y-118095238D01*
X68922380Y-117904761D01*
X68970000Y-117809523D01*
X69017619Y-117761904D01*
X69112857Y-117714285D01*
X69160476Y-117714285D01*
X69255714Y-117761904D01*
X69303333Y-117809523D01*
X69350952Y-117904761D01*
X69350952Y-118095238D01*
X69398571Y-118190476D01*
X69446190Y-118238095D01*
X69541428Y-118285714D01*
X69731904Y-118285714D01*
X69827142Y-118238095D01*
X69874761Y-118190476D01*
X69922380Y-118095238D01*
X69922380Y-117904761D01*
X69874761Y-117809523D01*
X69827142Y-117761904D01*
X69731904Y-117714285D01*
X69541428Y-117714285D01*
X69446190Y-117761904D01*
X69398571Y-117809523D01*
X69350952Y-117904761D01*
X73222380Y-119619047D02*
X73222380Y-120190476D01*
X73222380Y-119904761D02*
X72222380Y-119904761D01*
X72365238Y-120000000D01*
X72460476Y-120095238D01*
X72508095Y-120190476D01*
X72222380Y-119000000D02*
X72222380Y-118904761D01*
X72270000Y-118809523D01*
X72317619Y-118761904D01*
X72412857Y-118714285D01*
X72603333Y-118666666D01*
X72841428Y-118666666D01*
X73031904Y-118714285D01*
X73127142Y-118761904D01*
X73174761Y-118809523D01*
X73222380Y-118904761D01*
X73222380Y-119000000D01*
X73174761Y-119095238D01*
X73127142Y-119142857D01*
X73031904Y-119190476D01*
X72841428Y-119238095D01*
X72603333Y-119238095D01*
X72412857Y-119190476D01*
X72317619Y-119142857D01*
X72270000Y-119095238D01*
X72222380Y-119000000D01*
X72222380Y-118047619D02*
X72222380Y-117952380D01*
X72270000Y-117857142D01*
X72317619Y-117809523D01*
X72412857Y-117761904D01*
X72603333Y-117714285D01*
X72841428Y-117714285D01*
X73031904Y-117761904D01*
X73127142Y-117809523D01*
X73174761Y-117857142D01*
X73222380Y-117952380D01*
X73222380Y-118047619D01*
X73174761Y-118142857D01*
X73127142Y-118190476D01*
X73031904Y-118238095D01*
X72841428Y-118285714D01*
X72603333Y-118285714D01*
X72412857Y-118238095D01*
X72317619Y-118190476D01*
X72270000Y-118142857D01*
X72222380Y-118047619D01*
X72555714Y-117285714D02*
X73222380Y-117285714D01*
X72650952Y-117285714D02*
X72603333Y-117238095D01*
X72555714Y-117142857D01*
X72555714Y-117000000D01*
X72603333Y-116904761D01*
X72698571Y-116857142D01*
X73222380Y-116857142D01*
X69014650Y-59077906D02*
X68967031Y-59125525D01*
X68824174Y-59173144D01*
X68728936Y-59173144D01*
X68586078Y-59125525D01*
X68490840Y-59030287D01*
X68443221Y-58935049D01*
X68395602Y-58744573D01*
X68395602Y-58601716D01*
X68443221Y-58411240D01*
X68490840Y-58316002D01*
X68586078Y-58220764D01*
X68728936Y-58173144D01*
X68824174Y-58173144D01*
X68967031Y-58220764D01*
X69014650Y-58268383D01*
X69490840Y-59173144D02*
X69681317Y-59173144D01*
X69776555Y-59125525D01*
X69824174Y-59077906D01*
X69919412Y-58935049D01*
X69967031Y-58744573D01*
X69967031Y-58363621D01*
X69919412Y-58268383D01*
X69871793Y-58220764D01*
X69776555Y-58173144D01*
X69586078Y-58173144D01*
X69490840Y-58220764D01*
X69443221Y-58268383D01*
X69395602Y-58363621D01*
X69395602Y-58601716D01*
X69443221Y-58696954D01*
X69490840Y-58744573D01*
X69586078Y-58792192D01*
X69776555Y-58792192D01*
X69871793Y-58744573D01*
X69919412Y-58696954D01*
X69967031Y-58601716D01*
X68538459Y-61617906D02*
X68490840Y-61665525D01*
X68347983Y-61713144D01*
X68252745Y-61713144D01*
X68109888Y-61665525D01*
X68014650Y-61570287D01*
X67967031Y-61475049D01*
X67919412Y-61284573D01*
X67919412Y-61141716D01*
X67967031Y-60951240D01*
X68014650Y-60856002D01*
X68109888Y-60760764D01*
X68252745Y-60713144D01*
X68347983Y-60713144D01*
X68490840Y-60760764D01*
X68538459Y-60808383D01*
X69490840Y-61713144D02*
X68919412Y-61713144D01*
X69205126Y-61713144D02*
X69205126Y-60713144D01*
X69109888Y-60856002D01*
X69014650Y-60951240D01*
X68919412Y-60998859D01*
X70109888Y-60713144D02*
X70205126Y-60713144D01*
X70300364Y-60760764D01*
X70347983Y-60808383D01*
X70395602Y-60903621D01*
X70443221Y-61094097D01*
X70443221Y-61332192D01*
X70395602Y-61522668D01*
X70347983Y-61617906D01*
X70300364Y-61665525D01*
X70205126Y-61713144D01*
X70109888Y-61713144D01*
X70014650Y-61665525D01*
X69967031Y-61617906D01*
X69919412Y-61522668D01*
X69871793Y-61332192D01*
X69871793Y-61094097D01*
X69919412Y-60903621D01*
X69967031Y-60808383D01*
X70014650Y-60760764D01*
X70109888Y-60713144D01*
X68538459Y-64157906D02*
X68490840Y-64205525D01*
X68347983Y-64253144D01*
X68252745Y-64253144D01*
X68109888Y-64205525D01*
X68014650Y-64110287D01*
X67967031Y-64015049D01*
X67919412Y-63824573D01*
X67919412Y-63681716D01*
X67967031Y-63491240D01*
X68014650Y-63396002D01*
X68109888Y-63300764D01*
X68252745Y-63253144D01*
X68347983Y-63253144D01*
X68490840Y-63300764D01*
X68538459Y-63348383D01*
X69490840Y-64253144D02*
X68919412Y-64253144D01*
X69205126Y-64253144D02*
X69205126Y-63253144D01*
X69109888Y-63396002D01*
X69014650Y-63491240D01*
X68919412Y-63538859D01*
X70443221Y-64253144D02*
X69871793Y-64253144D01*
X70157507Y-64253144D02*
X70157507Y-63253144D01*
X70062269Y-63396002D01*
X69967031Y-63491240D01*
X69871793Y-63538859D01*
X36917380Y-103679523D02*
X37631666Y-103679523D01*
X37774523Y-103727142D01*
X37869761Y-103822380D01*
X37917380Y-103965238D01*
X37917380Y-104060476D01*
X37917380Y-102679523D02*
X37917380Y-103250952D01*
X37917380Y-102965238D02*
X36917380Y-102965238D01*
X37060238Y-103060476D01*
X37155476Y-103155714D01*
X37203095Y-103250952D01*
X37250714Y-101822380D02*
X37917380Y-101822380D01*
X36869761Y-102060476D02*
X37584047Y-102298571D01*
X37584047Y-101679523D01*
X29734047Y-102370000D02*
X29638809Y-102322380D01*
X29495952Y-102322380D01*
X29353095Y-102370000D01*
X29257857Y-102465238D01*
X29210238Y-102560476D01*
X29162619Y-102750952D01*
X29162619Y-102893809D01*
X29210238Y-103084285D01*
X29257857Y-103179523D01*
X29353095Y-103274761D01*
X29495952Y-103322380D01*
X29591190Y-103322380D01*
X29734047Y-103274761D01*
X29781666Y-103227142D01*
X29781666Y-102893809D01*
X29591190Y-102893809D01*
X30638809Y-103322380D02*
X30638809Y-102798571D01*
X30591190Y-102703333D01*
X30495952Y-102655714D01*
X30305476Y-102655714D01*
X30210238Y-102703333D01*
X30638809Y-103274761D02*
X30543571Y-103322380D01*
X30305476Y-103322380D01*
X30210238Y-103274761D01*
X30162619Y-103179523D01*
X30162619Y-103084285D01*
X30210238Y-102989047D01*
X30305476Y-102941428D01*
X30543571Y-102941428D01*
X30638809Y-102893809D01*
X30972142Y-102655714D02*
X31353095Y-102655714D01*
X31115000Y-102322380D02*
X31115000Y-103179523D01*
X31162619Y-103274761D01*
X31257857Y-103322380D01*
X31353095Y-103322380D01*
X32067380Y-103274761D02*
X31972142Y-103322380D01*
X31781666Y-103322380D01*
X31686428Y-103274761D01*
X31638809Y-103179523D01*
X31638809Y-102798571D01*
X31686428Y-102703333D01*
X31781666Y-102655714D01*
X31972142Y-102655714D01*
X32067380Y-102703333D01*
X32115000Y-102798571D01*
X32115000Y-102893809D01*
X31638809Y-102989047D01*
X32448333Y-102322380D02*
X33067380Y-102322380D01*
X32734047Y-102703333D01*
X32876904Y-102703333D01*
X32972142Y-102750952D01*
X33019761Y-102798571D01*
X33067380Y-102893809D01*
X33067380Y-103131904D01*
X33019761Y-103227142D01*
X32972142Y-103274761D01*
X32876904Y-103322380D01*
X32591190Y-103322380D01*
X32495952Y-103274761D01*
X32448333Y-103227142D01*
X31623095Y-104910000D02*
X31527857Y-104862380D01*
X31385000Y-104862380D01*
X31242142Y-104910000D01*
X31146904Y-105005238D01*
X31099285Y-105100476D01*
X31051666Y-105290952D01*
X31051666Y-105433809D01*
X31099285Y-105624285D01*
X31146904Y-105719523D01*
X31242142Y-105814761D01*
X31385000Y-105862380D01*
X31480238Y-105862380D01*
X31623095Y-105814761D01*
X31670714Y-105767142D01*
X31670714Y-105433809D01*
X31480238Y-105433809D01*
X32099285Y-105862380D02*
X32099285Y-104862380D01*
X32670714Y-105862380D01*
X32670714Y-104862380D01*
X33146904Y-105862380D02*
X33146904Y-104862380D01*
X33385000Y-104862380D01*
X33527857Y-104910000D01*
X33623095Y-105005238D01*
X33670714Y-105100476D01*
X33718333Y-105290952D01*
X33718333Y-105433809D01*
X33670714Y-105624285D01*
X33623095Y-105719523D01*
X33527857Y-105814761D01*
X33385000Y-105862380D01*
X33146904Y-105862380D01*
X28884523Y-105862380D02*
X28408333Y-105862380D01*
X28408333Y-104862380D01*
X28884523Y-100782380D02*
X28408333Y-100782380D01*
X28408333Y-99782380D01*
X32694523Y-100782380D02*
X32361190Y-100306190D01*
X32123095Y-100782380D02*
X32123095Y-99782380D01*
X32504047Y-99782380D01*
X32599285Y-99830000D01*
X32646904Y-99877619D01*
X32694523Y-99972857D01*
X32694523Y-100115714D01*
X32646904Y-100210952D01*
X32599285Y-100258571D01*
X32504047Y-100306190D01*
X32123095Y-100306190D01*
X36917380Y-112569523D02*
X37631666Y-112569523D01*
X37774523Y-112617142D01*
X37869761Y-112712380D01*
X37917380Y-112855238D01*
X37917380Y-112950476D01*
X37917380Y-111569523D02*
X37917380Y-112140952D01*
X37917380Y-111855238D02*
X36917380Y-111855238D01*
X37060238Y-111950476D01*
X37155476Y-112045714D01*
X37203095Y-112140952D01*
X36917380Y-110664761D02*
X36917380Y-111140952D01*
X37393571Y-111188571D01*
X37345952Y-111140952D01*
X37298333Y-111045714D01*
X37298333Y-110807619D01*
X37345952Y-110712380D01*
X37393571Y-110664761D01*
X37488809Y-110617142D01*
X37726904Y-110617142D01*
X37822142Y-110664761D01*
X37869761Y-110712380D01*
X37917380Y-110807619D01*
X37917380Y-111045714D01*
X37869761Y-111140952D01*
X37822142Y-111188571D01*
X29734047Y-111260000D02*
X29638809Y-111212380D01*
X29495952Y-111212380D01*
X29353095Y-111260000D01*
X29257857Y-111355238D01*
X29210238Y-111450476D01*
X29162619Y-111640952D01*
X29162619Y-111783809D01*
X29210238Y-111974285D01*
X29257857Y-112069523D01*
X29353095Y-112164761D01*
X29495952Y-112212380D01*
X29591190Y-112212380D01*
X29734047Y-112164761D01*
X29781666Y-112117142D01*
X29781666Y-111783809D01*
X29591190Y-111783809D01*
X30638809Y-112212380D02*
X30638809Y-111688571D01*
X30591190Y-111593333D01*
X30495952Y-111545714D01*
X30305476Y-111545714D01*
X30210238Y-111593333D01*
X30638809Y-112164761D02*
X30543571Y-112212380D01*
X30305476Y-112212380D01*
X30210238Y-112164761D01*
X30162619Y-112069523D01*
X30162619Y-111974285D01*
X30210238Y-111879047D01*
X30305476Y-111831428D01*
X30543571Y-111831428D01*
X30638809Y-111783809D01*
X30972142Y-111545714D02*
X31353095Y-111545714D01*
X31115000Y-111212380D02*
X31115000Y-112069523D01*
X31162619Y-112164761D01*
X31257857Y-112212380D01*
X31353095Y-112212380D01*
X32067380Y-112164761D02*
X31972142Y-112212380D01*
X31781666Y-112212380D01*
X31686428Y-112164761D01*
X31638809Y-112069523D01*
X31638809Y-111688571D01*
X31686428Y-111593333D01*
X31781666Y-111545714D01*
X31972142Y-111545714D01*
X32067380Y-111593333D01*
X32115000Y-111688571D01*
X32115000Y-111783809D01*
X31638809Y-111879047D01*
X32972142Y-111545714D02*
X32972142Y-112212380D01*
X32734047Y-111164761D02*
X32495952Y-111879047D01*
X33115000Y-111879047D01*
X32694523Y-109672380D02*
X32361190Y-109196190D01*
X32123095Y-109672380D02*
X32123095Y-108672380D01*
X32504047Y-108672380D01*
X32599285Y-108720000D01*
X32646904Y-108767619D01*
X32694523Y-108862857D01*
X32694523Y-109005714D01*
X32646904Y-109100952D01*
X32599285Y-109148571D01*
X32504047Y-109196190D01*
X32123095Y-109196190D01*
X28884523Y-109672380D02*
X28408333Y-109672380D01*
X28408333Y-108672380D01*
X28884523Y-114752380D02*
X28408333Y-114752380D01*
X28408333Y-113752380D01*
X31623095Y-113800000D02*
X31527857Y-113752380D01*
X31385000Y-113752380D01*
X31242142Y-113800000D01*
X31146904Y-113895238D01*
X31099285Y-113990476D01*
X31051666Y-114180952D01*
X31051666Y-114323809D01*
X31099285Y-114514285D01*
X31146904Y-114609523D01*
X31242142Y-114704761D01*
X31385000Y-114752380D01*
X31480238Y-114752380D01*
X31623095Y-114704761D01*
X31670714Y-114657142D01*
X31670714Y-114323809D01*
X31480238Y-114323809D01*
X32099285Y-114752380D02*
X32099285Y-113752380D01*
X32670714Y-114752380D01*
X32670714Y-113752380D01*
X33146904Y-114752380D02*
X33146904Y-113752380D01*
X33385000Y-113752380D01*
X33527857Y-113800000D01*
X33623095Y-113895238D01*
X33670714Y-113990476D01*
X33718333Y-114180952D01*
X33718333Y-114323809D01*
X33670714Y-114514285D01*
X33623095Y-114609523D01*
X33527857Y-114704761D01*
X33385000Y-114752380D01*
X33146904Y-114752380D01*
X57610476Y-52562380D02*
X57610476Y-53276666D01*
X57562857Y-53419523D01*
X57467619Y-53514761D01*
X57324761Y-53562380D01*
X57229523Y-53562380D01*
X58610476Y-53562380D02*
X58039047Y-53562380D01*
X58324761Y-53562380D02*
X58324761Y-52562380D01*
X58229523Y-52705238D01*
X58134285Y-52800476D01*
X58039047Y-52848095D01*
X59467619Y-52562380D02*
X59277142Y-52562380D01*
X59181904Y-52610000D01*
X59134285Y-52657619D01*
X59039047Y-52800476D01*
X58991428Y-52990952D01*
X58991428Y-53371904D01*
X59039047Y-53467142D01*
X59086666Y-53514761D01*
X59181904Y-53562380D01*
X59372380Y-53562380D01*
X59467619Y-53514761D01*
X59515238Y-53467142D01*
X59562857Y-53371904D01*
X59562857Y-53133809D01*
X59515238Y-53038571D01*
X59467619Y-52990952D01*
X59372380Y-52943333D01*
X59181904Y-52943333D01*
X59086666Y-52990952D01*
X59039047Y-53038571D01*
X58991428Y-53133809D01*
X91265476Y-52562380D02*
X91265476Y-53276666D01*
X91217857Y-53419523D01*
X91122619Y-53514761D01*
X90979761Y-53562380D01*
X90884523Y-53562380D01*
X92265476Y-53562380D02*
X91694047Y-53562380D01*
X91979761Y-53562380D02*
X91979761Y-52562380D01*
X91884523Y-52705238D01*
X91789285Y-52800476D01*
X91694047Y-52848095D01*
X92598809Y-52562380D02*
X93265476Y-52562380D01*
X92836904Y-53562380D01*
X57598333Y-46772142D02*
X57550714Y-46819761D01*
X57407857Y-46867380D01*
X57312619Y-46867380D01*
X57169761Y-46819761D01*
X57074523Y-46724523D01*
X57026904Y-46629285D01*
X56979285Y-46438809D01*
X56979285Y-46295952D01*
X57026904Y-46105476D01*
X57074523Y-46010238D01*
X57169761Y-45915000D01*
X57312619Y-45867380D01*
X57407857Y-45867380D01*
X57550714Y-45915000D01*
X57598333Y-45962619D01*
X58455476Y-46200714D02*
X58455476Y-46867380D01*
X58217380Y-45819761D02*
X57979285Y-46534047D01*
X58598333Y-46534047D01*
X57638333Y-44112142D02*
X57590714Y-44159761D01*
X57447857Y-44207380D01*
X57352619Y-44207380D01*
X57209761Y-44159761D01*
X57114523Y-44064523D01*
X57066904Y-43969285D01*
X57019285Y-43778809D01*
X57019285Y-43635952D01*
X57066904Y-43445476D01*
X57114523Y-43350238D01*
X57209761Y-43255000D01*
X57352619Y-43207380D01*
X57447857Y-43207380D01*
X57590714Y-43255000D01*
X57638333Y-43302619D01*
X58495476Y-43207380D02*
X58305000Y-43207380D01*
X58209761Y-43255000D01*
X58162142Y-43302619D01*
X58066904Y-43445476D01*
X58019285Y-43635952D01*
X58019285Y-44016904D01*
X58066904Y-44112142D01*
X58114523Y-44159761D01*
X58209761Y-44207380D01*
X58400238Y-44207380D01*
X58495476Y-44159761D01*
X58543095Y-44112142D01*
X58590714Y-44016904D01*
X58590714Y-43778809D01*
X58543095Y-43683571D01*
X58495476Y-43635952D01*
X58400238Y-43588333D01*
X58209761Y-43588333D01*
X58114523Y-43635952D01*
X58066904Y-43683571D01*
X58019285Y-43778809D01*
X56816666Y-101457380D02*
X56816666Y-102171666D01*
X56769047Y-102314523D01*
X56673809Y-102409761D01*
X56530952Y-102457380D01*
X56435714Y-102457380D01*
X57816666Y-102457380D02*
X57245238Y-102457380D01*
X57530952Y-102457380D02*
X57530952Y-101457380D01*
X57435714Y-101600238D01*
X57340476Y-101695476D01*
X57245238Y-101743095D01*
X54046380Y-117180476D02*
X53046380Y-117180476D01*
X53046380Y-116942380D01*
X53094000Y-116799523D01*
X53189238Y-116704285D01*
X53284476Y-116656666D01*
X53474952Y-116609047D01*
X53617809Y-116609047D01*
X53808285Y-116656666D01*
X53903523Y-116704285D01*
X53998761Y-116799523D01*
X54046380Y-116942380D01*
X54046380Y-117180476D01*
X54046380Y-116037619D02*
X53998761Y-116132857D01*
X53951142Y-116180476D01*
X53855904Y-116228095D01*
X53570190Y-116228095D01*
X53474952Y-116180476D01*
X53427333Y-116132857D01*
X53379714Y-116037619D01*
X53379714Y-115894761D01*
X53427333Y-115799523D01*
X53474952Y-115751904D01*
X53570190Y-115704285D01*
X53855904Y-115704285D01*
X53951142Y-115751904D01*
X53998761Y-115799523D01*
X54046380Y-115894761D01*
X54046380Y-116037619D01*
X53998761Y-114894761D02*
X54046380Y-114990000D01*
X54046380Y-115180476D01*
X53998761Y-115275714D01*
X53903523Y-115323333D01*
X53522571Y-115323333D01*
X53427333Y-115275714D01*
X53379714Y-115180476D01*
X53379714Y-114990000D01*
X53427333Y-114894761D01*
X53522571Y-114847142D01*
X53617809Y-114847142D01*
X53713047Y-115323333D01*
X53379714Y-114418571D02*
X54379714Y-114418571D01*
X53427333Y-114418571D02*
X53379714Y-114323333D01*
X53379714Y-114132857D01*
X53427333Y-114037619D01*
X53474952Y-113990000D01*
X53570190Y-113942380D01*
X53855904Y-113942380D01*
X53951142Y-113990000D01*
X53998761Y-114037619D01*
X54046380Y-114132857D01*
X54046380Y-114323333D01*
X53998761Y-114418571D01*
X53379714Y-113656666D02*
X53379714Y-113275714D01*
X54046380Y-113513809D02*
X53189238Y-113513809D01*
X53094000Y-113466190D01*
X53046380Y-113370952D01*
X53046380Y-113275714D01*
X53998761Y-112561428D02*
X54046380Y-112656666D01*
X54046380Y-112847142D01*
X53998761Y-112942380D01*
X53903523Y-112990000D01*
X53522571Y-112990000D01*
X53427333Y-112942380D01*
X53379714Y-112847142D01*
X53379714Y-112656666D01*
X53427333Y-112561428D01*
X53522571Y-112513809D01*
X53617809Y-112513809D01*
X53713047Y-112990000D01*
X54046380Y-112085238D02*
X53379714Y-112085238D01*
X53570190Y-112085238D02*
X53474952Y-112037619D01*
X53427333Y-111990000D01*
X53379714Y-111894761D01*
X53379714Y-111799523D01*
X53998761Y-110275714D02*
X54046380Y-110370952D01*
X54046380Y-110561428D01*
X53998761Y-110656666D01*
X53951142Y-110704285D01*
X53855904Y-110751904D01*
X53570190Y-110751904D01*
X53474952Y-110704285D01*
X53427333Y-110656666D01*
X53379714Y-110561428D01*
X53379714Y-110370952D01*
X53427333Y-110275714D01*
X54046380Y-109704285D02*
X53998761Y-109799523D01*
X53951142Y-109847142D01*
X53855904Y-109894761D01*
X53570190Y-109894761D01*
X53474952Y-109847142D01*
X53427333Y-109799523D01*
X53379714Y-109704285D01*
X53379714Y-109561428D01*
X53427333Y-109466190D01*
X53474952Y-109418571D01*
X53570190Y-109370952D01*
X53855904Y-109370952D01*
X53951142Y-109418571D01*
X53998761Y-109466190D01*
X54046380Y-109561428D01*
X54046380Y-109704285D01*
X53379714Y-108942380D02*
X54046380Y-108942380D01*
X53474952Y-108942380D02*
X53427333Y-108894761D01*
X53379714Y-108799523D01*
X53379714Y-108656666D01*
X53427333Y-108561428D01*
X53522571Y-108513809D01*
X54046380Y-108513809D01*
X53379714Y-108037619D02*
X54046380Y-108037619D01*
X53474952Y-108037619D02*
X53427333Y-107990000D01*
X53379714Y-107894761D01*
X53379714Y-107751904D01*
X53427333Y-107656666D01*
X53522571Y-107609047D01*
X54046380Y-107609047D01*
X53998761Y-106751904D02*
X54046380Y-106847142D01*
X54046380Y-107037619D01*
X53998761Y-107132857D01*
X53903523Y-107180476D01*
X53522571Y-107180476D01*
X53427333Y-107132857D01*
X53379714Y-107037619D01*
X53379714Y-106847142D01*
X53427333Y-106751904D01*
X53522571Y-106704285D01*
X53617809Y-106704285D01*
X53713047Y-107180476D01*
X53998761Y-105847142D02*
X54046380Y-105942380D01*
X54046380Y-106132857D01*
X53998761Y-106228095D01*
X53951142Y-106275714D01*
X53855904Y-106323333D01*
X53570190Y-106323333D01*
X53474952Y-106275714D01*
X53427333Y-106228095D01*
X53379714Y-106132857D01*
X53379714Y-105942380D01*
X53427333Y-105847142D01*
X53379714Y-105561428D02*
X53379714Y-105180476D01*
X53046380Y-105418571D02*
X53903523Y-105418571D01*
X53998761Y-105370952D01*
X54046380Y-105275714D01*
X54046380Y-105180476D01*
X54046380Y-104704285D02*
X53998761Y-104799523D01*
X53951142Y-104847142D01*
X53855904Y-104894761D01*
X53570190Y-104894761D01*
X53474952Y-104847142D01*
X53427333Y-104799523D01*
X53379714Y-104704285D01*
X53379714Y-104561428D01*
X53427333Y-104466190D01*
X53474952Y-104418571D01*
X53570190Y-104370952D01*
X53855904Y-104370952D01*
X53951142Y-104418571D01*
X53998761Y-104466190D01*
X54046380Y-104561428D01*
X54046380Y-104704285D01*
X54046380Y-103942380D02*
X53379714Y-103942380D01*
X53570190Y-103942380D02*
X53474952Y-103894761D01*
X53427333Y-103847142D01*
X53379714Y-103751904D01*
X53379714Y-103656666D01*
X80946666Y-110182380D02*
X80946666Y-110896666D01*
X80899047Y-111039523D01*
X80803809Y-111134761D01*
X80660952Y-111182380D01*
X80565714Y-111182380D01*
X81375238Y-110277619D02*
X81422857Y-110230000D01*
X81518095Y-110182380D01*
X81756190Y-110182380D01*
X81851428Y-110230000D01*
X81899047Y-110277619D01*
X81946666Y-110372857D01*
X81946666Y-110468095D01*
X81899047Y-110610952D01*
X81327619Y-111182380D01*
X81946666Y-111182380D01*
D11*
X122368571Y-115435000D02*
X123440000Y-115435000D01*
X123654285Y-115506428D01*
X123797142Y-115649285D01*
X123868571Y-115863571D01*
X123868571Y-116006428D01*
X122368571Y-114863571D02*
X122368571Y-113935000D01*
X122940000Y-114435000D01*
X122940000Y-114220714D01*
X123011428Y-114077857D01*
X123082857Y-114006428D01*
X123225714Y-113935000D01*
X123582857Y-113935000D01*
X123725714Y-114006428D01*
X123797142Y-114077857D01*
X123868571Y-114220714D01*
X123868571Y-114649285D01*
X123797142Y-114792142D01*
X123725714Y-114863571D01*
X105883571Y-118978571D02*
X104383571Y-118978571D01*
X105455000Y-118478571D01*
X104383571Y-117978571D01*
X105883571Y-117978571D01*
X105883571Y-117264285D02*
X104383571Y-117264285D01*
X105883571Y-116550000D02*
X104383571Y-116550000D01*
X104383571Y-116192857D01*
X104455000Y-115978571D01*
X104597857Y-115835714D01*
X104740714Y-115764285D01*
X105026428Y-115692857D01*
X105240714Y-115692857D01*
X105526428Y-115764285D01*
X105669285Y-115835714D01*
X105812142Y-115978571D01*
X105883571Y-116192857D01*
X105883571Y-116550000D01*
X105883571Y-115050000D02*
X104383571Y-115050000D01*
X104383571Y-112907142D02*
X104383571Y-112621428D01*
X104455000Y-112478571D01*
X104597857Y-112335714D01*
X104883571Y-112264285D01*
X105383571Y-112264285D01*
X105669285Y-112335714D01*
X105812142Y-112478571D01*
X105883571Y-112621428D01*
X105883571Y-112907142D01*
X105812142Y-113050000D01*
X105669285Y-113192857D01*
X105383571Y-113264285D01*
X104883571Y-113264285D01*
X104597857Y-113192857D01*
X104455000Y-113050000D01*
X104383571Y-112907142D01*
X104383571Y-111621428D02*
X105597857Y-111621428D01*
X105740714Y-111550000D01*
X105812142Y-111478571D01*
X105883571Y-111335714D01*
X105883571Y-111050000D01*
X105812142Y-110907142D01*
X105740714Y-110835714D01*
X105597857Y-110764285D01*
X104383571Y-110764285D01*
X104383571Y-110264285D02*
X104383571Y-109407142D01*
X105883571Y-109835714D02*
X104383571Y-109835714D01*
D13*
X36917380Y-120983333D02*
X37631666Y-120983333D01*
X37774523Y-121030952D01*
X37869761Y-121126190D01*
X37917380Y-121269047D01*
X37917380Y-121364285D01*
X37250714Y-120078571D02*
X37917380Y-120078571D01*
X36869761Y-120316666D02*
X37584047Y-120554761D01*
X37584047Y-119935714D01*
X29448333Y-121007142D02*
X29400714Y-121054761D01*
X29257857Y-121102380D01*
X29162619Y-121102380D01*
X29019761Y-121054761D01*
X28924523Y-120959523D01*
X28876904Y-120864285D01*
X28829285Y-120673809D01*
X28829285Y-120530952D01*
X28876904Y-120340476D01*
X28924523Y-120245238D01*
X29019761Y-120150000D01*
X29162619Y-120102380D01*
X29257857Y-120102380D01*
X29400714Y-120150000D01*
X29448333Y-120197619D01*
X29734047Y-120102380D02*
X30067380Y-121102380D01*
X30400714Y-120102380D01*
X31162619Y-120102380D02*
X30972142Y-120102380D01*
X30876904Y-120150000D01*
X30829285Y-120197619D01*
X30734047Y-120340476D01*
X30686428Y-120530952D01*
X30686428Y-120911904D01*
X30734047Y-121007142D01*
X30781666Y-121054761D01*
X30876904Y-121102380D01*
X31067380Y-121102380D01*
X31162619Y-121054761D01*
X31210238Y-121007142D01*
X31257857Y-120911904D01*
X31257857Y-120673809D01*
X31210238Y-120578571D01*
X31162619Y-120530952D01*
X31067380Y-120483333D01*
X30876904Y-120483333D01*
X30781666Y-120530952D01*
X30734047Y-120578571D01*
X30686428Y-120673809D01*
X32448333Y-121102380D02*
X32448333Y-120435714D01*
X32448333Y-120102380D02*
X32400714Y-120150000D01*
X32448333Y-120197619D01*
X32495952Y-120150000D01*
X32448333Y-120102380D01*
X32448333Y-120197619D01*
X32924523Y-120435714D02*
X32924523Y-121102380D01*
X32924523Y-120530952D02*
X32972142Y-120483333D01*
X33067380Y-120435714D01*
X33210238Y-120435714D01*
X33305476Y-120483333D01*
X33353095Y-120578571D01*
X33353095Y-121102380D01*
X31623095Y-122690000D02*
X31527857Y-122642380D01*
X31385000Y-122642380D01*
X31242142Y-122690000D01*
X31146904Y-122785238D01*
X31099285Y-122880476D01*
X31051666Y-123070952D01*
X31051666Y-123213809D01*
X31099285Y-123404285D01*
X31146904Y-123499523D01*
X31242142Y-123594761D01*
X31385000Y-123642380D01*
X31480238Y-123642380D01*
X31623095Y-123594761D01*
X31670714Y-123547142D01*
X31670714Y-123213809D01*
X31480238Y-123213809D01*
X32099285Y-123642380D02*
X32099285Y-122642380D01*
X32670714Y-123642380D01*
X32670714Y-122642380D01*
X33146904Y-123642380D02*
X33146904Y-122642380D01*
X33385000Y-122642380D01*
X33527857Y-122690000D01*
X33623095Y-122785238D01*
X33670714Y-122880476D01*
X33718333Y-123070952D01*
X33718333Y-123213809D01*
X33670714Y-123404285D01*
X33623095Y-123499523D01*
X33527857Y-123594761D01*
X33385000Y-123642380D01*
X33146904Y-123642380D01*
X28884523Y-123642380D02*
X28408333Y-123642380D01*
X28408333Y-122642380D01*
X28884523Y-118562380D02*
X28408333Y-118562380D01*
X28408333Y-117562380D01*
X32694523Y-118562380D02*
X32361190Y-118086190D01*
X32123095Y-118562380D02*
X32123095Y-117562380D01*
X32504047Y-117562380D01*
X32599285Y-117610000D01*
X32646904Y-117657619D01*
X32694523Y-117752857D01*
X32694523Y-117895714D01*
X32646904Y-117990952D01*
X32599285Y-118038571D01*
X32504047Y-118086190D01*
X32123095Y-118086190D01*
X66341666Y-109517380D02*
X66341666Y-110231666D01*
X66294047Y-110374523D01*
X66198809Y-110469761D01*
X66055952Y-110517380D01*
X65960714Y-110517380D01*
X67294047Y-109517380D02*
X66817857Y-109517380D01*
X66770238Y-109993571D01*
X66817857Y-109945952D01*
X66913095Y-109898333D01*
X67151190Y-109898333D01*
X67246428Y-109945952D01*
X67294047Y-109993571D01*
X67341666Y-110088809D01*
X67341666Y-110326904D01*
X67294047Y-110422142D01*
X67246428Y-110469761D01*
X67151190Y-110517380D01*
X66913095Y-110517380D01*
X66817857Y-110469761D01*
X66770238Y-110422142D01*
D11*
X122368571Y-94480000D02*
X123440000Y-94480000D01*
X123654285Y-94551428D01*
X123797142Y-94694285D01*
X123868571Y-94908571D01*
X123868571Y-95051428D01*
X123011428Y-93551428D02*
X122940000Y-93694285D01*
X122868571Y-93765714D01*
X122725714Y-93837142D01*
X122654285Y-93837142D01*
X122511428Y-93765714D01*
X122440000Y-93694285D01*
X122368571Y-93551428D01*
X122368571Y-93265714D01*
X122440000Y-93122857D01*
X122511428Y-93051428D01*
X122654285Y-92980000D01*
X122725714Y-92980000D01*
X122868571Y-93051428D01*
X122940000Y-93122857D01*
X123011428Y-93265714D01*
X123011428Y-93551428D01*
X123082857Y-93694285D01*
X123154285Y-93765714D01*
X123297142Y-93837142D01*
X123582857Y-93837142D01*
X123725714Y-93765714D01*
X123797142Y-93694285D01*
X123868571Y-93551428D01*
X123868571Y-93265714D01*
X123797142Y-93122857D01*
X123725714Y-93051428D01*
X123582857Y-92980000D01*
X123297142Y-92980000D01*
X123154285Y-93051428D01*
X123082857Y-93122857D01*
X123011428Y-93265714D01*
X105883571Y-97658571D02*
X104383571Y-97658571D01*
X105455000Y-97158571D01*
X104383571Y-96658571D01*
X105883571Y-96658571D01*
X105883571Y-95944285D02*
X104383571Y-95944285D01*
X105883571Y-95230000D02*
X104383571Y-95230000D01*
X104383571Y-94872857D01*
X104455000Y-94658571D01*
X104597857Y-94515714D01*
X104740714Y-94444285D01*
X105026428Y-94372857D01*
X105240714Y-94372857D01*
X105526428Y-94444285D01*
X105669285Y-94515714D01*
X105812142Y-94658571D01*
X105883571Y-94872857D01*
X105883571Y-95230000D01*
X105883571Y-93730000D02*
X104383571Y-93730000D01*
X105883571Y-91872857D02*
X104383571Y-91872857D01*
X105883571Y-91158571D02*
X104383571Y-91158571D01*
X105883571Y-90301428D01*
X104383571Y-90301428D01*
D13*
X57610476Y-71612380D02*
X57610476Y-72326666D01*
X57562857Y-72469523D01*
X57467619Y-72564761D01*
X57324761Y-72612380D01*
X57229523Y-72612380D01*
X58610476Y-72612380D02*
X58039047Y-72612380D01*
X58324761Y-72612380D02*
X58324761Y-71612380D01*
X58229523Y-71755238D01*
X58134285Y-71850476D01*
X58039047Y-71898095D01*
X58991428Y-71707619D02*
X59039047Y-71660000D01*
X59134285Y-71612380D01*
X59372380Y-71612380D01*
X59467619Y-71660000D01*
X59515238Y-71707619D01*
X59562857Y-71802857D01*
X59562857Y-71898095D01*
X59515238Y-72040952D01*
X58943809Y-72612380D01*
X59562857Y-72612380D01*
X91265476Y-71612380D02*
X91265476Y-72326666D01*
X91217857Y-72469523D01*
X91122619Y-72564761D01*
X90979761Y-72612380D01*
X90884523Y-72612380D01*
X92265476Y-72612380D02*
X91694047Y-72612380D01*
X91979761Y-72612380D02*
X91979761Y-71612380D01*
X91884523Y-71755238D01*
X91789285Y-71850476D01*
X91694047Y-71898095D01*
X92836904Y-72040952D02*
X92741666Y-71993333D01*
X92694047Y-71945714D01*
X92646428Y-71850476D01*
X92646428Y-71802857D01*
X92694047Y-71707619D01*
X92741666Y-71660000D01*
X92836904Y-71612380D01*
X93027380Y-71612380D01*
X93122619Y-71660000D01*
X93170238Y-71707619D01*
X93217857Y-71802857D01*
X93217857Y-71850476D01*
X93170238Y-71945714D01*
X93122619Y-71993333D01*
X93027380Y-72040952D01*
X92836904Y-72040952D01*
X92741666Y-72088571D01*
X92694047Y-72136190D01*
X92646428Y-72231428D01*
X92646428Y-72421904D01*
X92694047Y-72517142D01*
X92741666Y-72564761D01*
X92836904Y-72612380D01*
X93027380Y-72612380D01*
X93122619Y-72564761D01*
X93170238Y-72517142D01*
X93217857Y-72421904D01*
X93217857Y-72231428D01*
X93170238Y-72136190D01*
X93122619Y-72088571D01*
X93027380Y-72040952D01*
X48831088Y-97551947D02*
X49545374Y-97551947D01*
X49688231Y-97599566D01*
X49783469Y-97694804D01*
X49831088Y-97837662D01*
X49831088Y-97932900D01*
X49831088Y-96551947D02*
X49831088Y-97123376D01*
X49831088Y-96837662D02*
X48831088Y-96837662D01*
X48973946Y-96932900D01*
X49069184Y-97028138D01*
X49116803Y-97123376D01*
X49831088Y-96075757D02*
X49831088Y-95885281D01*
X49783469Y-95790043D01*
X49735850Y-95742424D01*
X49592993Y-95647185D01*
X49402517Y-95599566D01*
X49021565Y-95599566D01*
X48926327Y-95647185D01*
X48878708Y-95694804D01*
X48831088Y-95790043D01*
X48831088Y-95980519D01*
X48878708Y-96075757D01*
X48926327Y-96123376D01*
X49021565Y-96170995D01*
X49259660Y-96170995D01*
X49354898Y-96123376D01*
X49402517Y-96075757D01*
X49450136Y-95980519D01*
X49450136Y-95790043D01*
X49402517Y-95694804D01*
X49354898Y-95647185D01*
X49259660Y-95599566D01*
X54062041Y-97099566D02*
X54014422Y-97147185D01*
X53871565Y-97194804D01*
X53776327Y-97194804D01*
X53633469Y-97147185D01*
X53538231Y-97051947D01*
X53490612Y-96956709D01*
X53442993Y-96766233D01*
X53442993Y-96623376D01*
X53490612Y-96432900D01*
X53538231Y-96337662D01*
X53633469Y-96242424D01*
X53776327Y-96194804D01*
X53871565Y-96194804D01*
X54014422Y-96242424D01*
X54062041Y-96290043D01*
X54347755Y-96194804D02*
X54681088Y-97194804D01*
X55014422Y-96194804D01*
X55252517Y-96194804D02*
X55919184Y-96194804D01*
X55490612Y-97194804D01*
X57062041Y-97194804D02*
X57062041Y-96528138D01*
X57062041Y-96194804D02*
X57014422Y-96242424D01*
X57062041Y-96290043D01*
X57109660Y-96242424D01*
X57062041Y-96194804D01*
X57062041Y-96290043D01*
X57538231Y-96528138D02*
X57538231Y-97194804D01*
X57538231Y-96623376D02*
X57585850Y-96575757D01*
X57681088Y-96528138D01*
X57823946Y-96528138D01*
X57919184Y-96575757D01*
X57966803Y-96670995D01*
X57966803Y-97194804D01*
X53696803Y-93702424D02*
X53601565Y-93654804D01*
X53458708Y-93654804D01*
X53315850Y-93702424D01*
X53220612Y-93797662D01*
X53172993Y-93892900D01*
X53125374Y-94083376D01*
X53125374Y-94226233D01*
X53172993Y-94416709D01*
X53220612Y-94511947D01*
X53315850Y-94607185D01*
X53458708Y-94654804D01*
X53553946Y-94654804D01*
X53696803Y-94607185D01*
X53744422Y-94559566D01*
X53744422Y-94226233D01*
X53553946Y-94226233D01*
X54172993Y-94654804D02*
X54172993Y-93654804D01*
X54744422Y-94654804D01*
X54744422Y-93654804D01*
X55220612Y-94654804D02*
X55220612Y-93654804D01*
X55458708Y-93654804D01*
X55601565Y-93702424D01*
X55696803Y-93797662D01*
X55744422Y-93892900D01*
X55792041Y-94083376D01*
X55792041Y-94226233D01*
X55744422Y-94416709D01*
X55696803Y-94511947D01*
X55601565Y-94607185D01*
X55458708Y-94654804D01*
X55220612Y-94654804D01*
X58578231Y-94654804D02*
X58102041Y-94654804D01*
X58102041Y-93654804D01*
X58578231Y-99734804D02*
X58102041Y-99734804D01*
X58102041Y-98734804D01*
X54768231Y-99734804D02*
X54434898Y-99258614D01*
X54196803Y-99734804D02*
X54196803Y-98734804D01*
X54577755Y-98734804D01*
X54672993Y-98782424D01*
X54720612Y-98830043D01*
X54768231Y-98925281D01*
X54768231Y-99068138D01*
X54720612Y-99163376D01*
X54672993Y-99210995D01*
X54577755Y-99258614D01*
X54196803Y-99258614D01*
X112736380Y-44497523D02*
X113450666Y-44497523D01*
X113593523Y-44545142D01*
X113688761Y-44640380D01*
X113736380Y-44783238D01*
X113736380Y-44878476D01*
X112831619Y-44068952D02*
X112784000Y-44021333D01*
X112736380Y-43926095D01*
X112736380Y-43688000D01*
X112784000Y-43592761D01*
X112831619Y-43545142D01*
X112926857Y-43497523D01*
X113022095Y-43497523D01*
X113164952Y-43545142D01*
X113736380Y-44116571D01*
X113736380Y-43497523D01*
X112736380Y-42878476D02*
X112736380Y-42783238D01*
X112784000Y-42688000D01*
X112831619Y-42640380D01*
X112926857Y-42592761D01*
X113117333Y-42545142D01*
X113355428Y-42545142D01*
X113545904Y-42592761D01*
X113641142Y-42640380D01*
X113688761Y-42688000D01*
X113736380Y-42783238D01*
X113736380Y-42878476D01*
X113688761Y-42973714D01*
X113641142Y-43021333D01*
X113545904Y-43068952D01*
X113355428Y-43116571D01*
X113117333Y-43116571D01*
X112926857Y-43068952D01*
X112831619Y-43021333D01*
X112784000Y-42973714D01*
X112736380Y-42878476D01*
X118673523Y-46680380D02*
X118340190Y-46204190D01*
X118102095Y-46680380D02*
X118102095Y-45680380D01*
X118483047Y-45680380D01*
X118578285Y-45728000D01*
X118625904Y-45775619D01*
X118673523Y-45870857D01*
X118673523Y-46013714D01*
X118625904Y-46108952D01*
X118578285Y-46156571D01*
X118483047Y-46204190D01*
X118102095Y-46204190D01*
X122483523Y-46680380D02*
X122007333Y-46680380D01*
X122007333Y-45680380D01*
X122483523Y-41600380D02*
X122007333Y-41600380D01*
X122007333Y-40600380D01*
X117602095Y-40648000D02*
X117506857Y-40600380D01*
X117364000Y-40600380D01*
X117221142Y-40648000D01*
X117125904Y-40743238D01*
X117078285Y-40838476D01*
X117030666Y-41028952D01*
X117030666Y-41171809D01*
X117078285Y-41362285D01*
X117125904Y-41457523D01*
X117221142Y-41552761D01*
X117364000Y-41600380D01*
X117459238Y-41600380D01*
X117602095Y-41552761D01*
X117649714Y-41505142D01*
X117649714Y-41171809D01*
X117459238Y-41171809D01*
X118078285Y-41600380D02*
X118078285Y-40600380D01*
X118649714Y-41600380D01*
X118649714Y-40600380D01*
X119125904Y-41600380D02*
X119125904Y-40600380D01*
X119364000Y-40600380D01*
X119506857Y-40648000D01*
X119602095Y-40743238D01*
X119649714Y-40838476D01*
X119697333Y-41028952D01*
X119697333Y-41171809D01*
X119649714Y-41362285D01*
X119602095Y-41457523D01*
X119506857Y-41552761D01*
X119364000Y-41600380D01*
X119125904Y-41600380D01*
X57523142Y-93288380D02*
X57189809Y-92812190D01*
X56951714Y-93288380D02*
X56951714Y-92288380D01*
X57332666Y-92288380D01*
X57427904Y-92336000D01*
X57475523Y-92383619D01*
X57523142Y-92478857D01*
X57523142Y-92621714D01*
X57475523Y-92716952D01*
X57427904Y-92764571D01*
X57332666Y-92812190D01*
X56951714Y-92812190D01*
X57904095Y-92383619D02*
X57951714Y-92336000D01*
X58046952Y-92288380D01*
X58285047Y-92288380D01*
X58380285Y-92336000D01*
X58427904Y-92383619D01*
X58475523Y-92478857D01*
X58475523Y-92574095D01*
X58427904Y-92716952D01*
X57856476Y-93288380D01*
X58475523Y-93288380D01*
X59380285Y-92288380D02*
X58904095Y-92288380D01*
X58856476Y-92764571D01*
X58904095Y-92716952D01*
X58999333Y-92669333D01*
X59237428Y-92669333D01*
X59332666Y-92716952D01*
X59380285Y-92764571D01*
X59427904Y-92859809D01*
X59427904Y-93097904D01*
X59380285Y-93193142D01*
X59332666Y-93240761D01*
X59237428Y-93288380D01*
X58999333Y-93288380D01*
X58904095Y-93240761D01*
X58856476Y-93193142D01*
X65397142Y-76906380D02*
X65063809Y-76430190D01*
X64825714Y-76906380D02*
X64825714Y-75906380D01*
X65206666Y-75906380D01*
X65301904Y-75954000D01*
X65349523Y-76001619D01*
X65397142Y-76096857D01*
X65397142Y-76239714D01*
X65349523Y-76334952D01*
X65301904Y-76382571D01*
X65206666Y-76430190D01*
X64825714Y-76430190D01*
X65778095Y-76001619D02*
X65825714Y-75954000D01*
X65920952Y-75906380D01*
X66159047Y-75906380D01*
X66254285Y-75954000D01*
X66301904Y-76001619D01*
X66349523Y-76096857D01*
X66349523Y-76192095D01*
X66301904Y-76334952D01*
X65730476Y-76906380D01*
X66349523Y-76906380D01*
X67206666Y-75906380D02*
X67016190Y-75906380D01*
X66920952Y-75954000D01*
X66873333Y-76001619D01*
X66778095Y-76144476D01*
X66730476Y-76334952D01*
X66730476Y-76715904D01*
X66778095Y-76811142D01*
X66825714Y-76858761D01*
X66920952Y-76906380D01*
X67111428Y-76906380D01*
X67206666Y-76858761D01*
X67254285Y-76811142D01*
X67301904Y-76715904D01*
X67301904Y-76477809D01*
X67254285Y-76382571D01*
X67206666Y-76334952D01*
X67111428Y-76287333D01*
X66920952Y-76287333D01*
X66825714Y-76334952D01*
X66778095Y-76382571D01*
X66730476Y-76477809D01*
X75811142Y-66872380D02*
X75477809Y-66396190D01*
X75239714Y-66872380D02*
X75239714Y-65872380D01*
X75620666Y-65872380D01*
X75715904Y-65920000D01*
X75763523Y-65967619D01*
X75811142Y-66062857D01*
X75811142Y-66205714D01*
X75763523Y-66300952D01*
X75715904Y-66348571D01*
X75620666Y-66396190D01*
X75239714Y-66396190D01*
X76192095Y-65967619D02*
X76239714Y-65920000D01*
X76334952Y-65872380D01*
X76573047Y-65872380D01*
X76668285Y-65920000D01*
X76715904Y-65967619D01*
X76763523Y-66062857D01*
X76763523Y-66158095D01*
X76715904Y-66300952D01*
X76144476Y-66872380D01*
X76763523Y-66872380D01*
X77096857Y-65872380D02*
X77763523Y-65872380D01*
X77334952Y-66872380D01*
X68699142Y-66872380D02*
X68365809Y-66396190D01*
X68127714Y-66872380D02*
X68127714Y-65872380D01*
X68508666Y-65872380D01*
X68603904Y-65920000D01*
X68651523Y-65967619D01*
X68699142Y-66062857D01*
X68699142Y-66205714D01*
X68651523Y-66300952D01*
X68603904Y-66348571D01*
X68508666Y-66396190D01*
X68127714Y-66396190D01*
X69080095Y-65967619D02*
X69127714Y-65920000D01*
X69222952Y-65872380D01*
X69461047Y-65872380D01*
X69556285Y-65920000D01*
X69603904Y-65967619D01*
X69651523Y-66062857D01*
X69651523Y-66158095D01*
X69603904Y-66300952D01*
X69032476Y-66872380D01*
X69651523Y-66872380D01*
X70222952Y-66300952D02*
X70127714Y-66253333D01*
X70080095Y-66205714D01*
X70032476Y-66110476D01*
X70032476Y-66062857D01*
X70080095Y-65967619D01*
X70127714Y-65920000D01*
X70222952Y-65872380D01*
X70413428Y-65872380D01*
X70508666Y-65920000D01*
X70556285Y-65967619D01*
X70603904Y-66062857D01*
X70603904Y-66110476D01*
X70556285Y-66205714D01*
X70508666Y-66253333D01*
X70413428Y-66300952D01*
X70222952Y-66300952D01*
X70127714Y-66348571D01*
X70080095Y-66396190D01*
X70032476Y-66491428D01*
X70032476Y-66681904D01*
X70080095Y-66777142D01*
X70127714Y-66824761D01*
X70222952Y-66872380D01*
X70413428Y-66872380D01*
X70508666Y-66824761D01*
X70556285Y-66777142D01*
X70603904Y-66681904D01*
X70603904Y-66491428D01*
X70556285Y-66396190D01*
X70508666Y-66348571D01*
X70413428Y-66300952D01*
X52014380Y-110624857D02*
X51538190Y-110958190D01*
X52014380Y-111196285D02*
X51014380Y-111196285D01*
X51014380Y-110815333D01*
X51062000Y-110720095D01*
X51109619Y-110672476D01*
X51204857Y-110624857D01*
X51347714Y-110624857D01*
X51442952Y-110672476D01*
X51490571Y-110720095D01*
X51538190Y-110815333D01*
X51538190Y-111196285D01*
X51109619Y-110243904D02*
X51062000Y-110196285D01*
X51014380Y-110101047D01*
X51014380Y-109862952D01*
X51062000Y-109767714D01*
X51109619Y-109720095D01*
X51204857Y-109672476D01*
X51300095Y-109672476D01*
X51442952Y-109720095D01*
X52014380Y-110291523D01*
X52014380Y-109672476D01*
X52014380Y-109196285D02*
X52014380Y-109005809D01*
X51966761Y-108910571D01*
X51919142Y-108862952D01*
X51776285Y-108767714D01*
X51585809Y-108720095D01*
X51204857Y-108720095D01*
X51109619Y-108767714D01*
X51062000Y-108815333D01*
X51014380Y-108910571D01*
X51014380Y-109101047D01*
X51062000Y-109196285D01*
X51109619Y-109243904D01*
X51204857Y-109291523D01*
X51442952Y-109291523D01*
X51538190Y-109243904D01*
X51585809Y-109196285D01*
X51633428Y-109101047D01*
X51633428Y-108910571D01*
X51585809Y-108815333D01*
X51538190Y-108767714D01*
X51442952Y-108720095D01*
M02*
