%TF.GenerationSoftware,KiCad,Pcbnew,(5.0.0)*%
%TF.CreationDate,2018-12-31T00:25:57+01:00*%
%TF.ProjectId,Kicad-Midi2CV,4B696361642D4D6964693243562E6B69,rev?*%
%TF.SameCoordinates,Original*%
%TF.FileFunction,Copper,L2,Bot,Signal*%
%TF.FilePolarity,Positive*%
%FSLAX46Y46*%
G04 Gerber Fmt 4.6, Leading zero omitted, Abs format (unit mm)*
G04 Created by KiCad (PCBNEW (5.0.0)) date 12/31/18 00:25:57*
%MOMM*%
%LPD*%
G01*
G04 APERTURE LIST*
%ADD10C,1.000000*%
%ADD11C,0.150000*%
%ADD12R,1.600000X1.600000*%
%ADD13O,1.600000X1.600000*%
%ADD14C,2.000000*%
%ADD15C,4.400000*%
%ADD16C,0.700000*%
%ADD17C,6.400000*%
%ADD18C,0.800000*%
%ADD19C,1.600000*%
%ADD20R,1.800000X1.800000*%
%ADD21C,1.800000*%
%ADD22O,1.700000X1.700000*%
%ADD23R,1.700000X1.700000*%
%ADD24R,2.400000X1.600000*%
%ADD25O,2.400000X1.600000*%
%ADD26R,4.000000X2.000000*%
%ADD27O,3.300000X2.000000*%
%ADD28O,2.000000X3.500000*%
%ADD29C,2.500000*%
%ADD30C,1.000000*%
%ADD31C,0.250000*%
%ADD32C,0.400000*%
%ADD33C,0.600000*%
%ADD34C,0.500000*%
%ADD35C,0.254000*%
G04 APERTURE END LIST*
D10*
X63500000Y-106680000D02*
X63500000Y-39370000D01*
X64135000Y-106680000D02*
X63500000Y-106680000D01*
X64135000Y-39370000D02*
X64135000Y-106680000D01*
X63500000Y-39370000D02*
X64135000Y-39370000D01*
D11*
X25400000Y-125095000D02*
X25400000Y-25400000D01*
X125095000Y-125095000D02*
X25400000Y-125095000D01*
X125095000Y-25400000D02*
X125095000Y-125095000D01*
X25400000Y-25400000D02*
X125095000Y-25400000D01*
D12*
X88138000Y-85090000D03*
D13*
X72898000Y-52070000D03*
X88138000Y-82550000D03*
X72898000Y-54610000D03*
X88138000Y-80010000D03*
X72898000Y-57150000D03*
X88138000Y-77470000D03*
X72898000Y-59690000D03*
X88138000Y-74930000D03*
X72898000Y-62230000D03*
X88138000Y-72390000D03*
X72898000Y-64770000D03*
X88138000Y-69850000D03*
X72898000Y-67310000D03*
X88138000Y-67310000D03*
X72898000Y-69850000D03*
X88138000Y-64770000D03*
X72898000Y-72390000D03*
X88138000Y-62230000D03*
X72898000Y-74930000D03*
X88138000Y-59690000D03*
X72898000Y-77470000D03*
X88138000Y-57150000D03*
X72898000Y-80010000D03*
X88138000Y-54610000D03*
X72898000Y-82550000D03*
X88138000Y-52070000D03*
X72898000Y-85090000D03*
X88138000Y-49530000D03*
X72898000Y-49530000D03*
D14*
X27305000Y-36195000D03*
X27305000Y-41275000D03*
X34925000Y-36195000D03*
X34925000Y-41275000D03*
D15*
X40640000Y-37465000D03*
D16*
X42290000Y-37465000D03*
X41806726Y-38631726D03*
X40640000Y-39115000D03*
X39473274Y-38631726D03*
X38990000Y-37465000D03*
X39473274Y-36298274D03*
X40640000Y-35815000D03*
X41806726Y-36298274D03*
D17*
X99695000Y-120650000D03*
D18*
X102095000Y-120650000D03*
X101392056Y-122347056D03*
X99695000Y-123050000D03*
X97997944Y-122347056D03*
X97295000Y-120650000D03*
X97997944Y-118952944D03*
X99695000Y-118250000D03*
X101392056Y-118952944D03*
D17*
X95250000Y-31750000D03*
D18*
X97650000Y-31750000D03*
X96947056Y-33447056D03*
X95250000Y-34150000D03*
X93552944Y-33447056D03*
X92850000Y-31750000D03*
X93552944Y-30052944D03*
X95250000Y-29350000D03*
X96947056Y-30052944D03*
X101392056Y-73613944D03*
X99695000Y-72911000D03*
X97997944Y-73613944D03*
X97295000Y-75311000D03*
X97997944Y-77008056D03*
X99695000Y-77711000D03*
X101392056Y-77008056D03*
X102095000Y-75311000D03*
D17*
X99695000Y-75311000D03*
D18*
X52497056Y-118952944D03*
X50800000Y-118250000D03*
X49102944Y-118952944D03*
X48400000Y-120650000D03*
X49102944Y-122347056D03*
X50800000Y-123050000D03*
X52497056Y-122347056D03*
X53200000Y-120650000D03*
D17*
X50800000Y-120650000D03*
X50800000Y-75311000D03*
D18*
X53200000Y-75311000D03*
X52497056Y-77008056D03*
X50800000Y-77711000D03*
X49102944Y-77008056D03*
X48400000Y-75311000D03*
X49102944Y-73613944D03*
X50800000Y-72911000D03*
X52497056Y-73613944D03*
D12*
X81280000Y-106680000D03*
D19*
X83780000Y-106680000D03*
D20*
X122047000Y-80009999D03*
D21*
X122047000Y-77469999D03*
X122047000Y-72384285D03*
D20*
X122047000Y-74924285D03*
X122047000Y-69838571D03*
D21*
X122047000Y-67298571D03*
X122047000Y-62212857D03*
D20*
X122047000Y-64752857D03*
X122047000Y-57150000D03*
D21*
X122047000Y-54610000D03*
X122047000Y-49530000D03*
D20*
X122047000Y-52070000D03*
D22*
X52070000Y-50165000D03*
X52070000Y-47625000D03*
X52070000Y-45085000D03*
X52070000Y-42545000D03*
X52070000Y-40005000D03*
D23*
X52070000Y-37465000D03*
X52070000Y-55880000D03*
D22*
X52070000Y-58420000D03*
X52070000Y-60960000D03*
X52070000Y-63500000D03*
X52070000Y-66040000D03*
X52070000Y-68580000D03*
D21*
X30480000Y-50720000D03*
X30480000Y-48220000D03*
X30480000Y-45720000D03*
X30480000Y-55880000D03*
X30480000Y-58380000D03*
X30480000Y-60880000D03*
D24*
X102235000Y-95885000D03*
D25*
X94615000Y-93345000D03*
X102235000Y-93345000D03*
X94615000Y-95885000D03*
D14*
X27305000Y-27305000D03*
X27305000Y-32385000D03*
X34925000Y-27305000D03*
X34925000Y-32385000D03*
X27305000Y-65405000D03*
X27305000Y-70485000D03*
X34925000Y-65405000D03*
X34925000Y-70485000D03*
X34925000Y-78740000D03*
X34925000Y-73660000D03*
X27305000Y-78740000D03*
X27305000Y-73660000D03*
X27305000Y-82550000D03*
X27305000Y-87630000D03*
X34925000Y-82550000D03*
X34925000Y-87630000D03*
X27305000Y-91440000D03*
X27305000Y-96520000D03*
X34925000Y-91440000D03*
X34925000Y-96520000D03*
D23*
X121285000Y-37465000D03*
D22*
X121285000Y-34925000D03*
X121285000Y-32385000D03*
X121285000Y-29845000D03*
X121285000Y-27305000D03*
D18*
X59482056Y-30052944D03*
X57785000Y-29350000D03*
X56087944Y-30052944D03*
X55385000Y-31750000D03*
X56087944Y-33447056D03*
X57785000Y-34150000D03*
X59482056Y-33447056D03*
X60185000Y-31750000D03*
D17*
X57785000Y-31750000D03*
D14*
X34925000Y-105410000D03*
X34925000Y-100330000D03*
X27305000Y-105410000D03*
X27305000Y-100330000D03*
X27305000Y-109220000D03*
X27305000Y-114300000D03*
X34925000Y-109220000D03*
X34925000Y-114300000D03*
D23*
X58420000Y-55880000D03*
D22*
X58420000Y-58420000D03*
X58420000Y-60960000D03*
X58420000Y-63500000D03*
X58420000Y-66040000D03*
X58420000Y-68580000D03*
X92075000Y-68580000D03*
X92075000Y-66040000D03*
X92075000Y-63500000D03*
X92075000Y-60960000D03*
X92075000Y-58420000D03*
D23*
X92075000Y-55880000D03*
D12*
X56515000Y-50165000D03*
D19*
X59015000Y-50165000D03*
X56555000Y-40005000D03*
D12*
X59055000Y-40005000D03*
D23*
X58420000Y-104775000D03*
D22*
X55880000Y-104775000D03*
X58420000Y-107315000D03*
X55880000Y-107315000D03*
X58420000Y-109855000D03*
X55880000Y-109855000D03*
X58420000Y-112395000D03*
X55880000Y-112395000D03*
X58420000Y-114935000D03*
X55880000Y-114935000D03*
X58420000Y-117475000D03*
X55880000Y-117475000D03*
X58420000Y-120015000D03*
X55880000Y-120015000D03*
X58420000Y-122555000D03*
X55880000Y-122555000D03*
D26*
X81280000Y-113030000D03*
D27*
X81280000Y-119030000D03*
D28*
X76780000Y-120030000D03*
X85780000Y-120030000D03*
D29*
X123205000Y-119300000D03*
X123205000Y-109300000D03*
X110705000Y-119300000D03*
X113205000Y-106800000D03*
X113205000Y-114300000D03*
X110705000Y-109300000D03*
X113205000Y-121800000D03*
D14*
X34925000Y-123190000D03*
X34925000Y-118110000D03*
X27305000Y-123190000D03*
X27305000Y-118110000D03*
D23*
X66675000Y-112395000D03*
D22*
X66675000Y-114935000D03*
X66675000Y-117475000D03*
X66675000Y-120015000D03*
D29*
X113205000Y-101480000D03*
X110705000Y-88980000D03*
X113205000Y-93980000D03*
X113205000Y-86480000D03*
X110705000Y-98980000D03*
X123205000Y-88980000D03*
X123205000Y-98980000D03*
D22*
X58420000Y-87630000D03*
X58420000Y-85090000D03*
X58420000Y-82550000D03*
X58420000Y-80010000D03*
X58420000Y-77470000D03*
D23*
X58420000Y-74930000D03*
X92075000Y-74930000D03*
D22*
X92075000Y-77470000D03*
X92075000Y-80010000D03*
X92075000Y-82550000D03*
X92075000Y-85090000D03*
X92075000Y-87630000D03*
D16*
X41806726Y-54713274D03*
X40640000Y-54230000D03*
X39473274Y-54713274D03*
X38990000Y-55880000D03*
X39473274Y-57046726D03*
X40640000Y-57530000D03*
X41806726Y-57046726D03*
X42290000Y-55880000D03*
D15*
X40640000Y-55880000D03*
D14*
X51918708Y-94202424D03*
X51918708Y-99282424D03*
X59538708Y-94202424D03*
X59538708Y-99282424D03*
X123444000Y-46228000D03*
X123444000Y-41148000D03*
X115824000Y-46228000D03*
X115824000Y-41148000D03*
D18*
X92456000Y-92620000D03*
X94234000Y-97536000D03*
X85852000Y-84400001D03*
X53416293Y-60235000D03*
D30*
X45212000Y-55626000D03*
X43688000Y-48514000D03*
X86087135Y-78250865D03*
X41402000Y-45403000D03*
D18*
X71047999Y-66040000D03*
D30*
X55563000Y-67818000D03*
X45795364Y-69417364D03*
X45720000Y-71691000D03*
X94234000Y-66485000D03*
D18*
X86110653Y-50042653D03*
X83307347Y-48255347D03*
X26948653Y-43663347D03*
X26924000Y-45974000D03*
X43897000Y-65786000D03*
X42447000Y-63754000D03*
D30*
X41656000Y-50546000D03*
X88900000Y-91440000D03*
D18*
X53133458Y-51150692D03*
X53086000Y-52832000D03*
X85648417Y-63129260D03*
X54102006Y-53086000D03*
X54075578Y-51485982D03*
X86110660Y-62234660D03*
X86614000Y-64262000D03*
D30*
X50292000Y-62738000D03*
X49530000Y-51561998D03*
X49784000Y-56896000D03*
X99568010Y-51048979D03*
X99568000Y-53848000D03*
X68580000Y-111252000D03*
X81026000Y-103632000D03*
X79444585Y-105198815D03*
D18*
X90678000Y-52832000D03*
X41910000Y-51980000D03*
X42545000Y-53430000D03*
X86284846Y-52907154D03*
X84198731Y-63499029D03*
X86106002Y-59944000D03*
X88646000Y-47498000D03*
D31*
X93089990Y-96391990D02*
X94234000Y-97536000D01*
X92456000Y-92620000D02*
X92456000Y-95758000D01*
X92456000Y-95758000D02*
X93089990Y-96391990D01*
X87702001Y-82550000D02*
X88138000Y-82550000D01*
X85852000Y-84400001D02*
X87702001Y-82550000D01*
D32*
X58420000Y-120015000D02*
X66675000Y-120015000D01*
X58420000Y-120015000D02*
X58420000Y-117475000D01*
X58420000Y-117475000D02*
X58420000Y-114935000D01*
X58420000Y-114935000D02*
X55880000Y-114935000D01*
X55880000Y-120015000D02*
X55880000Y-117475000D01*
X55880000Y-117475000D02*
X55880000Y-114935000D01*
X55880000Y-120015000D02*
X58420000Y-120015000D01*
X55880000Y-117475000D02*
X58420000Y-117475000D01*
D31*
X53416293Y-62153707D02*
X52070000Y-63500000D01*
X53416293Y-60235000D02*
X53416293Y-62153707D01*
X27305000Y-86215787D02*
X27305000Y-87630000D01*
X27305000Y-82550000D02*
X27305000Y-86215787D01*
X27305000Y-96520000D02*
X27305000Y-91440000D01*
X27305000Y-105410000D02*
X27305000Y-100330000D01*
D32*
X58420000Y-109855000D02*
X63500000Y-109855000D01*
X63500000Y-109855000D02*
X63500000Y-114935000D01*
X63500000Y-114935000D02*
X66675000Y-114935000D01*
X55880000Y-109855000D02*
X58420000Y-109855000D01*
D31*
X27305000Y-114300000D02*
X27305000Y-109220000D01*
X30480000Y-50720000D02*
X30480000Y-48220000D01*
X30480000Y-60880000D02*
X30480000Y-58380000D01*
X30480000Y-58380000D02*
X28615000Y-58380000D01*
X28615000Y-58380000D02*
X26115000Y-55880000D01*
X26115000Y-42465000D02*
X27305000Y-41275000D01*
X26115000Y-55880000D02*
X26115000Y-42465000D01*
X27305000Y-70485000D02*
X27305000Y-65405000D01*
X27305000Y-78740000D02*
X27305000Y-73660000D01*
X71628000Y-66040000D02*
X72898000Y-64770000D01*
X71047999Y-66040000D02*
X71628000Y-66040000D01*
D33*
X58420000Y-109855000D02*
X61976000Y-106299000D01*
X61976000Y-72136000D02*
X58420000Y-68580000D01*
X61976000Y-106299000D02*
X61976000Y-72136000D01*
D32*
X58420000Y-68580000D02*
X56325000Y-68580000D01*
X56325000Y-68580000D02*
X55563000Y-67818000D01*
X45795364Y-69417364D02*
X45795364Y-71615636D01*
X45795364Y-71615636D02*
X45720000Y-71691000D01*
D34*
X94170000Y-66485000D02*
X92075000Y-68580000D01*
D32*
X94234000Y-66485000D02*
X94170000Y-66485000D01*
D31*
X86110653Y-50042653D02*
X85094653Y-50042653D01*
X85094653Y-50042653D02*
X83307347Y-48255347D01*
X26924000Y-43688000D02*
X26948653Y-43663347D01*
X26924000Y-45974000D02*
X26924000Y-43688000D01*
X43897000Y-65786000D02*
X43897000Y-65204000D01*
X43897000Y-65204000D02*
X42447000Y-63754000D01*
X42545000Y-53430000D02*
X42545000Y-52615000D01*
X53133458Y-51150692D02*
X53133458Y-52784542D01*
X53133458Y-52784542D02*
X53086000Y-52832000D01*
X86214102Y-63129260D02*
X85648417Y-63129260D01*
X87190335Y-63529259D02*
X86790336Y-63129260D01*
X86790336Y-63129260D02*
X86214102Y-63129260D01*
X89505741Y-63529259D02*
X87190335Y-63529259D01*
X92075000Y-60960000D02*
X89505741Y-63529259D01*
X54075578Y-51485982D02*
X54075578Y-53059572D01*
X54075578Y-53059572D02*
X54102006Y-53086000D01*
X92075000Y-58420000D02*
X89535000Y-60960000D01*
X86510659Y-61834661D02*
X86110660Y-62234660D01*
X87385320Y-60960000D02*
X86510659Y-61834661D01*
X89535000Y-60960000D02*
X87385320Y-60960000D01*
X92075000Y-77470000D02*
X90805000Y-76200000D01*
X86614000Y-64827685D02*
X86614000Y-64262000D01*
X87742998Y-76200000D02*
X86614000Y-75071002D01*
X86614000Y-75071002D02*
X86614000Y-64827685D01*
X90805000Y-76200000D02*
X87742998Y-76200000D01*
X84923415Y-62396585D02*
X87630000Y-59690000D01*
X84923415Y-63477262D02*
X84923415Y-62396585D01*
X85019829Y-63573676D02*
X84923415Y-63477262D01*
X92075000Y-80010000D02*
X90805000Y-78740000D01*
X87742998Y-78740000D02*
X86106000Y-77103002D01*
X90805000Y-78740000D02*
X87742998Y-78740000D01*
X86106000Y-77103002D02*
X86106000Y-65081004D01*
X87630000Y-59690000D02*
X88138000Y-59690000D01*
X86106000Y-65081004D02*
X85019829Y-63994833D01*
X85019829Y-63994833D02*
X85019829Y-63573676D01*
D32*
X51220001Y-65190001D02*
X52070000Y-66040000D01*
X50292000Y-64262000D02*
X51220001Y-65190001D01*
X50292000Y-62738000D02*
X50292000Y-64262000D01*
X52070000Y-47625000D02*
X49530000Y-50165000D01*
X49530000Y-50165000D02*
X49530000Y-51561998D01*
X49784000Y-62230000D02*
X50292000Y-62738000D01*
X49784000Y-56896000D02*
X49784000Y-62230000D01*
D33*
X99568010Y-51048979D02*
X99568010Y-53847990D01*
D32*
X99568010Y-53847990D02*
X99568000Y-53848000D01*
X66675000Y-114935000D02*
X67945000Y-114935000D01*
X67945000Y-114935000D02*
X68580000Y-114300000D01*
X68580000Y-114300000D02*
X68580000Y-111252000D01*
X79444585Y-105198815D02*
X81011400Y-103632000D01*
X81011400Y-103632000D02*
X81026000Y-103632000D01*
D31*
X90112315Y-52832000D02*
X90678000Y-52832000D01*
X89916000Y-52832000D02*
X90112315Y-52832000D01*
X88138000Y-54610000D02*
X89916000Y-52832000D01*
X42545000Y-52615000D02*
X41910000Y-51980000D01*
X55880000Y-104775000D02*
X58420000Y-104775000D01*
X27305000Y-123190000D02*
X27305000Y-118110000D01*
X55880000Y-107315000D02*
X58420000Y-107315000D01*
D32*
X55880000Y-112395000D02*
X58420000Y-112395000D01*
X58420000Y-122555000D02*
X55880000Y-122555000D01*
D31*
X84198731Y-61851271D02*
X85706003Y-60343999D01*
X85706003Y-60343999D02*
X86106002Y-59944000D01*
X84198731Y-63499029D02*
X84198731Y-61851271D01*
X87012999Y-48565316D02*
X88080315Y-47498000D01*
X87012999Y-52179001D02*
X87012999Y-48565316D01*
X86284846Y-52907154D02*
X87012999Y-52179001D01*
X88080315Y-47498000D02*
X88646000Y-47498000D01*
D35*
G36*
X33290000Y-26979778D02*
X33290000Y-27630222D01*
X33538914Y-28231153D01*
X33998847Y-28691086D01*
X34599778Y-28940000D01*
X35250222Y-28940000D01*
X35851153Y-28691086D01*
X36311086Y-28231153D01*
X36560000Y-27630222D01*
X36560000Y-26979778D01*
X36484291Y-26797000D01*
X62101340Y-26797000D01*
X61535416Y-70373127D01*
X59902270Y-68739981D01*
X59934092Y-68580000D01*
X59818839Y-68000582D01*
X59490625Y-67509375D01*
X59192239Y-67310000D01*
X59490625Y-67110625D01*
X59818839Y-66619418D01*
X59934092Y-66040000D01*
X59818839Y-65460582D01*
X59490625Y-64969375D01*
X59192239Y-64770000D01*
X59490625Y-64570625D01*
X59818839Y-64079418D01*
X59934092Y-63500000D01*
X59818839Y-62920582D01*
X59490625Y-62429375D01*
X59192239Y-62230000D01*
X59490625Y-62030625D01*
X59818839Y-61539418D01*
X59934092Y-60960000D01*
X59818839Y-60380582D01*
X59490625Y-59889375D01*
X59192239Y-59690000D01*
X59490625Y-59490625D01*
X59818839Y-58999418D01*
X59934092Y-58420000D01*
X59818839Y-57840582D01*
X59490625Y-57349375D01*
X59468967Y-57334904D01*
X59629698Y-57268327D01*
X59808327Y-57089699D01*
X59905000Y-56856310D01*
X59905000Y-56165750D01*
X59746250Y-56007000D01*
X58547000Y-56007000D01*
X58547000Y-56027000D01*
X58293000Y-56027000D01*
X58293000Y-56007000D01*
X57093750Y-56007000D01*
X56935000Y-56165750D01*
X56935000Y-56856310D01*
X57031673Y-57089699D01*
X57210302Y-57268327D01*
X57371033Y-57334904D01*
X57349375Y-57349375D01*
X57021161Y-57840582D01*
X56905908Y-58420000D01*
X57021161Y-58999418D01*
X57349375Y-59490625D01*
X57647761Y-59690000D01*
X57349375Y-59889375D01*
X57021161Y-60380582D01*
X56905908Y-60960000D01*
X57021161Y-61539418D01*
X57349375Y-62030625D01*
X57647761Y-62230000D01*
X57349375Y-62429375D01*
X57021161Y-62920582D01*
X56905908Y-63500000D01*
X57021161Y-64079418D01*
X57349375Y-64570625D01*
X57647761Y-64770000D01*
X57349375Y-64969375D01*
X57021161Y-65460582D01*
X56905908Y-66040000D01*
X57021161Y-66619418D01*
X57349375Y-67110625D01*
X57647761Y-67310000D01*
X57349375Y-67509375D01*
X57191935Y-67745000D01*
X56698000Y-67745000D01*
X56698000Y-67592234D01*
X56525207Y-67175074D01*
X56205926Y-66855793D01*
X55788766Y-66683000D01*
X55337234Y-66683000D01*
X54920074Y-66855793D01*
X54600793Y-67175074D01*
X54428000Y-67592234D01*
X54428000Y-68043766D01*
X54600793Y-68460926D01*
X54920074Y-68780207D01*
X55337234Y-68953000D01*
X55517132Y-68953000D01*
X55676414Y-69112282D01*
X55722999Y-69182001D01*
X55999199Y-69366552D01*
X56242763Y-69415000D01*
X56325000Y-69431358D01*
X56407237Y-69415000D01*
X57191935Y-69415000D01*
X57349375Y-69650625D01*
X57840582Y-69978839D01*
X58273744Y-70065000D01*
X58566256Y-70065000D01*
X58579981Y-70062270D01*
X61041001Y-72523291D01*
X61041000Y-93556818D01*
X60924794Y-93276271D01*
X60464861Y-92816338D01*
X59863930Y-92567424D01*
X59213486Y-92567424D01*
X58612555Y-92816338D01*
X58152622Y-93276271D01*
X57903708Y-93877202D01*
X57903708Y-94527646D01*
X58152622Y-95128577D01*
X58612555Y-95588510D01*
X59213486Y-95837424D01*
X59863930Y-95837424D01*
X60464861Y-95588510D01*
X60924794Y-95128577D01*
X61041000Y-94848030D01*
X61041000Y-98636817D01*
X60924794Y-98356271D01*
X60464861Y-97896338D01*
X59863930Y-97647424D01*
X59213486Y-97647424D01*
X58612555Y-97896338D01*
X58152622Y-98356271D01*
X57903708Y-98957202D01*
X57903708Y-99607646D01*
X58152622Y-100208577D01*
X58612555Y-100668510D01*
X59213486Y-100917424D01*
X59863930Y-100917424D01*
X60464861Y-100668510D01*
X60924794Y-100208577D01*
X61041000Y-99928031D01*
X61041000Y-105911710D01*
X59884919Y-107067791D01*
X59818839Y-106735582D01*
X59490625Y-106244375D01*
X59472381Y-106232184D01*
X59517765Y-106223157D01*
X59727809Y-106082809D01*
X59868157Y-105872765D01*
X59917440Y-105625000D01*
X59917440Y-103925000D01*
X59868157Y-103677235D01*
X59727809Y-103467191D01*
X59517765Y-103326843D01*
X59270000Y-103277560D01*
X57570000Y-103277560D01*
X57322235Y-103326843D01*
X57112191Y-103467191D01*
X56971843Y-103677235D01*
X56962816Y-103722619D01*
X56950625Y-103704375D01*
X56459418Y-103376161D01*
X56026256Y-103290000D01*
X55733744Y-103290000D01*
X55300582Y-103376161D01*
X54809375Y-103704375D01*
X54481161Y-104195582D01*
X54365908Y-104775000D01*
X54481161Y-105354418D01*
X54809375Y-105845625D01*
X55107761Y-106045000D01*
X54809375Y-106244375D01*
X54481161Y-106735582D01*
X54365908Y-107315000D01*
X54481161Y-107894418D01*
X54809375Y-108385625D01*
X55107761Y-108585000D01*
X54809375Y-108784375D01*
X54481161Y-109275582D01*
X54365908Y-109855000D01*
X54481161Y-110434418D01*
X54809375Y-110925625D01*
X55107761Y-111125000D01*
X54809375Y-111324375D01*
X54481161Y-111815582D01*
X54365908Y-112395000D01*
X54481161Y-112974418D01*
X54809375Y-113465625D01*
X55128478Y-113678843D01*
X54998642Y-113739817D01*
X54608355Y-114168076D01*
X54438524Y-114578110D01*
X54559845Y-114808000D01*
X55753000Y-114808000D01*
X55753000Y-114788000D01*
X56007000Y-114788000D01*
X56007000Y-114808000D01*
X58293000Y-114808000D01*
X58293000Y-114788000D01*
X58547000Y-114788000D01*
X58547000Y-114808000D01*
X59740155Y-114808000D01*
X59861476Y-114578110D01*
X59691645Y-114168076D01*
X59301358Y-113739817D01*
X59171522Y-113678843D01*
X59490625Y-113465625D01*
X59818839Y-112974418D01*
X59934092Y-112395000D01*
X59818839Y-111815582D01*
X59490625Y-111324375D01*
X59192239Y-111125000D01*
X59490625Y-110925625D01*
X59648065Y-110690000D01*
X61011821Y-110690000D01*
X60834639Y-124333000D01*
X51929789Y-124333000D01*
X52972353Y-123901156D01*
X54051156Y-122822353D01*
X54635000Y-121412829D01*
X54635000Y-120811161D01*
X54998642Y-121210183D01*
X55128478Y-121271157D01*
X54809375Y-121484375D01*
X54481161Y-121975582D01*
X54365908Y-122555000D01*
X54481161Y-123134418D01*
X54809375Y-123625625D01*
X55300582Y-123953839D01*
X55733744Y-124040000D01*
X56026256Y-124040000D01*
X56459418Y-123953839D01*
X56950625Y-123625625D01*
X57108065Y-123390000D01*
X57191935Y-123390000D01*
X57349375Y-123625625D01*
X57840582Y-123953839D01*
X58273744Y-124040000D01*
X58566256Y-124040000D01*
X58999418Y-123953839D01*
X59490625Y-123625625D01*
X59818839Y-123134418D01*
X59934092Y-122555000D01*
X59818839Y-121975582D01*
X59490625Y-121484375D01*
X59171522Y-121271157D01*
X59301358Y-121210183D01*
X59691645Y-120781924D01*
X59861476Y-120371890D01*
X59740155Y-120142000D01*
X58547000Y-120142000D01*
X58547000Y-120162000D01*
X58293000Y-120162000D01*
X58293000Y-120142000D01*
X56007000Y-120142000D01*
X56007000Y-120162000D01*
X55753000Y-120162000D01*
X55753000Y-120142000D01*
X55733000Y-120142000D01*
X55733000Y-119888000D01*
X55753000Y-119888000D01*
X55753000Y-117602000D01*
X56007000Y-117602000D01*
X56007000Y-119888000D01*
X58293000Y-119888000D01*
X58293000Y-117602000D01*
X58547000Y-117602000D01*
X58547000Y-119888000D01*
X59740155Y-119888000D01*
X59861476Y-119658110D01*
X59691645Y-119248076D01*
X59301358Y-118819817D01*
X59142046Y-118745000D01*
X59301358Y-118670183D01*
X59691645Y-118241924D01*
X59861476Y-117831890D01*
X59740155Y-117602000D01*
X58547000Y-117602000D01*
X58293000Y-117602000D01*
X56007000Y-117602000D01*
X55753000Y-117602000D01*
X54559845Y-117602000D01*
X54438524Y-117831890D01*
X54608355Y-118241924D01*
X54998642Y-118670183D01*
X55157954Y-118745000D01*
X54998642Y-118819817D01*
X54608355Y-119248076D01*
X54489320Y-119535469D01*
X54051156Y-118477647D01*
X52972353Y-117398844D01*
X51562829Y-116815000D01*
X50037171Y-116815000D01*
X48627647Y-117398844D01*
X47548844Y-118477647D01*
X46965000Y-119887171D01*
X46965000Y-121412829D01*
X47548844Y-122822353D01*
X48627647Y-123901156D01*
X49670211Y-124333000D01*
X36136020Y-124333000D01*
X36191814Y-124277206D01*
X36077534Y-124162926D01*
X36344387Y-124064264D01*
X36570908Y-123454539D01*
X36546856Y-122804540D01*
X36344387Y-122315736D01*
X36077532Y-122217073D01*
X35104605Y-123190000D01*
X35118748Y-123204143D01*
X34939143Y-123383748D01*
X34925000Y-123369605D01*
X34910858Y-123383748D01*
X34731253Y-123204143D01*
X34745395Y-123190000D01*
X33772468Y-122217073D01*
X33505613Y-122315736D01*
X33279092Y-122925461D01*
X33303144Y-123575460D01*
X33505613Y-124064264D01*
X33772466Y-124162926D01*
X33658186Y-124277206D01*
X33713980Y-124333000D01*
X28474239Y-124333000D01*
X28691086Y-124116153D01*
X28940000Y-123515222D01*
X28940000Y-122864778D01*
X28691086Y-122263847D01*
X28464707Y-122037468D01*
X33952073Y-122037468D01*
X34925000Y-123010395D01*
X35897927Y-122037468D01*
X35799264Y-121770613D01*
X35189539Y-121544092D01*
X34539540Y-121568144D01*
X34050736Y-121770613D01*
X33952073Y-122037468D01*
X28464707Y-122037468D01*
X28231153Y-121803914D01*
X28065000Y-121735091D01*
X28065000Y-119564909D01*
X28231153Y-119496086D01*
X28691086Y-119036153D01*
X28940000Y-118435222D01*
X28940000Y-117784778D01*
X33290000Y-117784778D01*
X33290000Y-118435222D01*
X33538914Y-119036153D01*
X33998847Y-119496086D01*
X34599778Y-119745000D01*
X35250222Y-119745000D01*
X35851153Y-119496086D01*
X36311086Y-119036153D01*
X36560000Y-118435222D01*
X36560000Y-117784778D01*
X36311086Y-117183847D01*
X35851153Y-116723914D01*
X35250222Y-116475000D01*
X34599778Y-116475000D01*
X33998847Y-116723914D01*
X33538914Y-117183847D01*
X33290000Y-117784778D01*
X28940000Y-117784778D01*
X28691086Y-117183847D01*
X28231153Y-116723914D01*
X27630222Y-116475000D01*
X26979778Y-116475000D01*
X26797000Y-116550709D01*
X26797000Y-115859291D01*
X26979778Y-115935000D01*
X27630222Y-115935000D01*
X28231153Y-115686086D01*
X28464707Y-115452532D01*
X33952073Y-115452532D01*
X34050736Y-115719387D01*
X34660461Y-115945908D01*
X35310460Y-115921856D01*
X35799264Y-115719387D01*
X35897927Y-115452532D01*
X35737285Y-115291890D01*
X54438524Y-115291890D01*
X54608355Y-115701924D01*
X54998642Y-116130183D01*
X55157954Y-116205000D01*
X54998642Y-116279817D01*
X54608355Y-116708076D01*
X54438524Y-117118110D01*
X54559845Y-117348000D01*
X55753000Y-117348000D01*
X55753000Y-115062000D01*
X56007000Y-115062000D01*
X56007000Y-117348000D01*
X58293000Y-117348000D01*
X58293000Y-115062000D01*
X58547000Y-115062000D01*
X58547000Y-117348000D01*
X59740155Y-117348000D01*
X59861476Y-117118110D01*
X59691645Y-116708076D01*
X59301358Y-116279817D01*
X59142046Y-116205000D01*
X59301358Y-116130183D01*
X59691645Y-115701924D01*
X59861476Y-115291890D01*
X59740155Y-115062000D01*
X58547000Y-115062000D01*
X58293000Y-115062000D01*
X56007000Y-115062000D01*
X55753000Y-115062000D01*
X54559845Y-115062000D01*
X54438524Y-115291890D01*
X35737285Y-115291890D01*
X34925000Y-114479605D01*
X33952073Y-115452532D01*
X28464707Y-115452532D01*
X28691086Y-115226153D01*
X28940000Y-114625222D01*
X28940000Y-114035461D01*
X33279092Y-114035461D01*
X33303144Y-114685460D01*
X33505613Y-115174264D01*
X33772468Y-115272927D01*
X34745395Y-114300000D01*
X35104605Y-114300000D01*
X36077532Y-115272927D01*
X36344387Y-115174264D01*
X36570908Y-114564539D01*
X36546856Y-113914540D01*
X36344387Y-113425736D01*
X36077532Y-113327073D01*
X35104605Y-114300000D01*
X34745395Y-114300000D01*
X33772468Y-113327073D01*
X33505613Y-113425736D01*
X33279092Y-114035461D01*
X28940000Y-114035461D01*
X28940000Y-113974778D01*
X28691086Y-113373847D01*
X28464707Y-113147468D01*
X33952073Y-113147468D01*
X34925000Y-114120395D01*
X35897927Y-113147468D01*
X35799264Y-112880613D01*
X35189539Y-112654092D01*
X34539540Y-112678144D01*
X34050736Y-112880613D01*
X33952073Y-113147468D01*
X28464707Y-113147468D01*
X28231153Y-112913914D01*
X28065000Y-112845091D01*
X28065000Y-110674909D01*
X28231153Y-110606086D01*
X28691086Y-110146153D01*
X28940000Y-109545222D01*
X28940000Y-108894778D01*
X33290000Y-108894778D01*
X33290000Y-109545222D01*
X33538914Y-110146153D01*
X33998847Y-110606086D01*
X34599778Y-110855000D01*
X35250222Y-110855000D01*
X35851153Y-110606086D01*
X36311086Y-110146153D01*
X36560000Y-109545222D01*
X36560000Y-108894778D01*
X36311086Y-108293847D01*
X35851153Y-107833914D01*
X35250222Y-107585000D01*
X34599778Y-107585000D01*
X33998847Y-107833914D01*
X33538914Y-108293847D01*
X33290000Y-108894778D01*
X28940000Y-108894778D01*
X28691086Y-108293847D01*
X28231153Y-107833914D01*
X27630222Y-107585000D01*
X26979778Y-107585000D01*
X26797000Y-107660709D01*
X26797000Y-106969291D01*
X26979778Y-107045000D01*
X27630222Y-107045000D01*
X28231153Y-106796086D01*
X28464707Y-106562532D01*
X33952073Y-106562532D01*
X34050736Y-106829387D01*
X34660461Y-107055908D01*
X35310460Y-107031856D01*
X35799264Y-106829387D01*
X35897927Y-106562532D01*
X34925000Y-105589605D01*
X33952073Y-106562532D01*
X28464707Y-106562532D01*
X28691086Y-106336153D01*
X28940000Y-105735222D01*
X28940000Y-105145461D01*
X33279092Y-105145461D01*
X33303144Y-105795460D01*
X33505613Y-106284264D01*
X33772468Y-106382927D01*
X34745395Y-105410000D01*
X35104605Y-105410000D01*
X36077532Y-106382927D01*
X36344387Y-106284264D01*
X36570908Y-105674539D01*
X36546856Y-105024540D01*
X36344387Y-104535736D01*
X36077532Y-104437073D01*
X35104605Y-105410000D01*
X34745395Y-105410000D01*
X33772468Y-104437073D01*
X33505613Y-104535736D01*
X33279092Y-105145461D01*
X28940000Y-105145461D01*
X28940000Y-105084778D01*
X28691086Y-104483847D01*
X28464707Y-104257468D01*
X33952073Y-104257468D01*
X34925000Y-105230395D01*
X35897927Y-104257468D01*
X35799264Y-103990613D01*
X35189539Y-103764092D01*
X34539540Y-103788144D01*
X34050736Y-103990613D01*
X33952073Y-104257468D01*
X28464707Y-104257468D01*
X28231153Y-104023914D01*
X28065000Y-103955091D01*
X28065000Y-101784909D01*
X28231153Y-101716086D01*
X28691086Y-101256153D01*
X28940000Y-100655222D01*
X28940000Y-100004778D01*
X33290000Y-100004778D01*
X33290000Y-100655222D01*
X33538914Y-101256153D01*
X33998847Y-101716086D01*
X34599778Y-101965000D01*
X35250222Y-101965000D01*
X35851153Y-101716086D01*
X36311086Y-101256153D01*
X36560000Y-100655222D01*
X36560000Y-100004778D01*
X36311086Y-99403847D01*
X35864441Y-98957202D01*
X50283708Y-98957202D01*
X50283708Y-99607646D01*
X50532622Y-100208577D01*
X50992555Y-100668510D01*
X51593486Y-100917424D01*
X52243930Y-100917424D01*
X52844861Y-100668510D01*
X53304794Y-100208577D01*
X53553708Y-99607646D01*
X53553708Y-98957202D01*
X53304794Y-98356271D01*
X52844861Y-97896338D01*
X52243930Y-97647424D01*
X51593486Y-97647424D01*
X50992555Y-97896338D01*
X50532622Y-98356271D01*
X50283708Y-98957202D01*
X35864441Y-98957202D01*
X35851153Y-98943914D01*
X35250222Y-98695000D01*
X34599778Y-98695000D01*
X33998847Y-98943914D01*
X33538914Y-99403847D01*
X33290000Y-100004778D01*
X28940000Y-100004778D01*
X28691086Y-99403847D01*
X28231153Y-98943914D01*
X27630222Y-98695000D01*
X26979778Y-98695000D01*
X26797000Y-98770709D01*
X26797000Y-98079291D01*
X26979778Y-98155000D01*
X27630222Y-98155000D01*
X28231153Y-97906086D01*
X28464707Y-97672532D01*
X33952073Y-97672532D01*
X34050736Y-97939387D01*
X34660461Y-98165908D01*
X35310460Y-98141856D01*
X35799264Y-97939387D01*
X35897927Y-97672532D01*
X34925000Y-96699605D01*
X33952073Y-97672532D01*
X28464707Y-97672532D01*
X28691086Y-97446153D01*
X28940000Y-96845222D01*
X28940000Y-96255461D01*
X33279092Y-96255461D01*
X33303144Y-96905460D01*
X33505613Y-97394264D01*
X33772468Y-97492927D01*
X34745395Y-96520000D01*
X35104605Y-96520000D01*
X36077532Y-97492927D01*
X36344387Y-97394264D01*
X36570908Y-96784539D01*
X36546856Y-96134540D01*
X36344387Y-95645736D01*
X36077532Y-95547073D01*
X35104605Y-96520000D01*
X34745395Y-96520000D01*
X33772468Y-95547073D01*
X33505613Y-95645736D01*
X33279092Y-96255461D01*
X28940000Y-96255461D01*
X28940000Y-96194778D01*
X28691086Y-95593847D01*
X28464707Y-95367468D01*
X33952073Y-95367468D01*
X34925000Y-96340395D01*
X35897927Y-95367468D01*
X35893301Y-95354956D01*
X50945781Y-95354956D01*
X51044444Y-95621811D01*
X51654169Y-95848332D01*
X52304168Y-95824280D01*
X52792972Y-95621811D01*
X52891635Y-95354956D01*
X51918708Y-94382029D01*
X50945781Y-95354956D01*
X35893301Y-95354956D01*
X35799264Y-95100613D01*
X35189539Y-94874092D01*
X34539540Y-94898144D01*
X34050736Y-95100613D01*
X33952073Y-95367468D01*
X28464707Y-95367468D01*
X28231153Y-95133914D01*
X28065000Y-95065091D01*
X28065000Y-93937885D01*
X50272800Y-93937885D01*
X50296852Y-94587884D01*
X50499321Y-95076688D01*
X50766176Y-95175351D01*
X51739103Y-94202424D01*
X52098313Y-94202424D01*
X53071240Y-95175351D01*
X53338095Y-95076688D01*
X53564616Y-94466963D01*
X53540564Y-93816964D01*
X53338095Y-93328160D01*
X53071240Y-93229497D01*
X52098313Y-94202424D01*
X51739103Y-94202424D01*
X50766176Y-93229497D01*
X50499321Y-93328160D01*
X50272800Y-93937885D01*
X28065000Y-93937885D01*
X28065000Y-92894909D01*
X28231153Y-92826086D01*
X28691086Y-92366153D01*
X28940000Y-91765222D01*
X28940000Y-91114778D01*
X33290000Y-91114778D01*
X33290000Y-91765222D01*
X33538914Y-92366153D01*
X33998847Y-92826086D01*
X34599778Y-93075000D01*
X35250222Y-93075000D01*
X35310838Y-93049892D01*
X50945781Y-93049892D01*
X51918708Y-94022819D01*
X52891635Y-93049892D01*
X52792972Y-92783037D01*
X52183247Y-92556516D01*
X51533248Y-92580568D01*
X51044444Y-92783037D01*
X50945781Y-93049892D01*
X35310838Y-93049892D01*
X35851153Y-92826086D01*
X36311086Y-92366153D01*
X36560000Y-91765222D01*
X36560000Y-91114778D01*
X36311086Y-90513847D01*
X35851153Y-90053914D01*
X35250222Y-89805000D01*
X34599778Y-89805000D01*
X33998847Y-90053914D01*
X33538914Y-90513847D01*
X33290000Y-91114778D01*
X28940000Y-91114778D01*
X28691086Y-90513847D01*
X28231153Y-90053914D01*
X27630222Y-89805000D01*
X26979778Y-89805000D01*
X26797000Y-89880709D01*
X26797000Y-89189291D01*
X26979778Y-89265000D01*
X27630222Y-89265000D01*
X28231153Y-89016086D01*
X28464707Y-88782532D01*
X33952073Y-88782532D01*
X34050736Y-89049387D01*
X34660461Y-89275908D01*
X35310460Y-89251856D01*
X35799264Y-89049387D01*
X35897927Y-88782532D01*
X34925000Y-87809605D01*
X33952073Y-88782532D01*
X28464707Y-88782532D01*
X28691086Y-88556153D01*
X28940000Y-87955222D01*
X28940000Y-87365461D01*
X33279092Y-87365461D01*
X33303144Y-88015460D01*
X33505613Y-88504264D01*
X33772468Y-88602927D01*
X34745395Y-87630000D01*
X35104605Y-87630000D01*
X36077532Y-88602927D01*
X36344387Y-88504264D01*
X36570908Y-87894539D01*
X36546856Y-87244540D01*
X36344387Y-86755736D01*
X36077532Y-86657073D01*
X35104605Y-87630000D01*
X34745395Y-87630000D01*
X33772468Y-86657073D01*
X33505613Y-86755736D01*
X33279092Y-87365461D01*
X28940000Y-87365461D01*
X28940000Y-87304778D01*
X28691086Y-86703847D01*
X28464707Y-86477468D01*
X33952073Y-86477468D01*
X34925000Y-87450395D01*
X35897927Y-86477468D01*
X35799264Y-86210613D01*
X35189539Y-85984092D01*
X34539540Y-86008144D01*
X34050736Y-86210613D01*
X33952073Y-86477468D01*
X28464707Y-86477468D01*
X28231153Y-86243914D01*
X28065000Y-86175091D01*
X28065000Y-84004909D01*
X28231153Y-83936086D01*
X28691086Y-83476153D01*
X28940000Y-82875222D01*
X28940000Y-82224778D01*
X33290000Y-82224778D01*
X33290000Y-82875222D01*
X33538914Y-83476153D01*
X33998847Y-83936086D01*
X34599778Y-84185000D01*
X35250222Y-84185000D01*
X35851153Y-83936086D01*
X36311086Y-83476153D01*
X36560000Y-82875222D01*
X36560000Y-82224778D01*
X36311086Y-81623847D01*
X35851153Y-81163914D01*
X35250222Y-80915000D01*
X34599778Y-80915000D01*
X33998847Y-81163914D01*
X33538914Y-81623847D01*
X33290000Y-82224778D01*
X28940000Y-82224778D01*
X28691086Y-81623847D01*
X28231153Y-81163914D01*
X27630222Y-80915000D01*
X26979778Y-80915000D01*
X26797000Y-80990709D01*
X26797000Y-80299291D01*
X26979778Y-80375000D01*
X27630222Y-80375000D01*
X28231153Y-80126086D01*
X28464707Y-79892532D01*
X33952073Y-79892532D01*
X34050736Y-80159387D01*
X34660461Y-80385908D01*
X35310460Y-80361856D01*
X35799264Y-80159387D01*
X35897927Y-79892532D01*
X34925000Y-78919605D01*
X33952073Y-79892532D01*
X28464707Y-79892532D01*
X28691086Y-79666153D01*
X28940000Y-79065222D01*
X28940000Y-78475461D01*
X33279092Y-78475461D01*
X33303144Y-79125460D01*
X33505613Y-79614264D01*
X33772468Y-79712927D01*
X34745395Y-78740000D01*
X35104605Y-78740000D01*
X36077532Y-79712927D01*
X36344387Y-79614264D01*
X36570908Y-79004539D01*
X36546856Y-78354540D01*
X36344387Y-77865736D01*
X36077532Y-77767073D01*
X35104605Y-78740000D01*
X34745395Y-78740000D01*
X33772468Y-77767073D01*
X33505613Y-77865736D01*
X33279092Y-78475461D01*
X28940000Y-78475461D01*
X28940000Y-78414778D01*
X28691086Y-77813847D01*
X28464707Y-77587468D01*
X33952073Y-77587468D01*
X34925000Y-78560395D01*
X35897927Y-77587468D01*
X35799264Y-77320613D01*
X35189539Y-77094092D01*
X34539540Y-77118144D01*
X34050736Y-77320613D01*
X33952073Y-77587468D01*
X28464707Y-77587468D01*
X28231153Y-77353914D01*
X28065000Y-77285091D01*
X28065000Y-75114909D01*
X28231153Y-75046086D01*
X28691086Y-74586153D01*
X28940000Y-73985222D01*
X28940000Y-73334778D01*
X33290000Y-73334778D01*
X33290000Y-73985222D01*
X33538914Y-74586153D01*
X33998847Y-75046086D01*
X34599778Y-75295000D01*
X35250222Y-75295000D01*
X35851153Y-75046086D01*
X36311086Y-74586153D01*
X36326818Y-74548171D01*
X46965000Y-74548171D01*
X46965000Y-76073829D01*
X47548844Y-77483353D01*
X48627647Y-78562156D01*
X50037171Y-79146000D01*
X51562829Y-79146000D01*
X52972353Y-78562156D01*
X54051156Y-77483353D01*
X54056686Y-77470000D01*
X56905908Y-77470000D01*
X57021161Y-78049418D01*
X57349375Y-78540625D01*
X57647761Y-78740000D01*
X57349375Y-78939375D01*
X57021161Y-79430582D01*
X56905908Y-80010000D01*
X57021161Y-80589418D01*
X57349375Y-81080625D01*
X57647761Y-81280000D01*
X57349375Y-81479375D01*
X57021161Y-81970582D01*
X56905908Y-82550000D01*
X57021161Y-83129418D01*
X57349375Y-83620625D01*
X57647761Y-83820000D01*
X57349375Y-84019375D01*
X57021161Y-84510582D01*
X56905908Y-85090000D01*
X57021161Y-85669418D01*
X57349375Y-86160625D01*
X57647761Y-86360000D01*
X57349375Y-86559375D01*
X57021161Y-87050582D01*
X56905908Y-87630000D01*
X57021161Y-88209418D01*
X57349375Y-88700625D01*
X57840582Y-89028839D01*
X58273744Y-89115000D01*
X58566256Y-89115000D01*
X58999418Y-89028839D01*
X59490625Y-88700625D01*
X59818839Y-88209418D01*
X59934092Y-87630000D01*
X59818839Y-87050582D01*
X59490625Y-86559375D01*
X59192239Y-86360000D01*
X59490625Y-86160625D01*
X59818839Y-85669418D01*
X59934092Y-85090000D01*
X59818839Y-84510582D01*
X59490625Y-84019375D01*
X59192239Y-83820000D01*
X59490625Y-83620625D01*
X59818839Y-83129418D01*
X59934092Y-82550000D01*
X59818839Y-81970582D01*
X59490625Y-81479375D01*
X59192239Y-81280000D01*
X59490625Y-81080625D01*
X59818839Y-80589418D01*
X59934092Y-80010000D01*
X59818839Y-79430582D01*
X59490625Y-78939375D01*
X59192239Y-78740000D01*
X59490625Y-78540625D01*
X59818839Y-78049418D01*
X59934092Y-77470000D01*
X59818839Y-76890582D01*
X59490625Y-76399375D01*
X59472381Y-76387184D01*
X59517765Y-76378157D01*
X59727809Y-76237809D01*
X59868157Y-76027765D01*
X59917440Y-75780000D01*
X59917440Y-74080000D01*
X59868157Y-73832235D01*
X59727809Y-73622191D01*
X59517765Y-73481843D01*
X59270000Y-73432560D01*
X57570000Y-73432560D01*
X57322235Y-73481843D01*
X57112191Y-73622191D01*
X56971843Y-73832235D01*
X56922560Y-74080000D01*
X56922560Y-75780000D01*
X56971843Y-76027765D01*
X57112191Y-76237809D01*
X57322235Y-76378157D01*
X57367619Y-76387184D01*
X57349375Y-76399375D01*
X57021161Y-76890582D01*
X56905908Y-77470000D01*
X54056686Y-77470000D01*
X54635000Y-76073829D01*
X54635000Y-74548171D01*
X54051156Y-73138647D01*
X52972353Y-72059844D01*
X51562829Y-71476000D01*
X50037171Y-71476000D01*
X48627647Y-72059844D01*
X47548844Y-73138647D01*
X46965000Y-74548171D01*
X36326818Y-74548171D01*
X36560000Y-73985222D01*
X36560000Y-73334778D01*
X36311086Y-72733847D01*
X35851153Y-72273914D01*
X35379150Y-72078404D01*
X35799264Y-71904387D01*
X35897927Y-71637532D01*
X35725629Y-71465234D01*
X44585000Y-71465234D01*
X44585000Y-71916766D01*
X44757793Y-72333926D01*
X45077074Y-72653207D01*
X45494234Y-72826000D01*
X45945766Y-72826000D01*
X46362926Y-72653207D01*
X46682207Y-72333926D01*
X46855000Y-71916766D01*
X46855000Y-71465234D01*
X46682207Y-71048074D01*
X46630364Y-70996231D01*
X46630364Y-70187497D01*
X46757571Y-70060290D01*
X46930364Y-69643130D01*
X46930364Y-69191598D01*
X46824861Y-68936890D01*
X50628524Y-68936890D01*
X50798355Y-69346924D01*
X51188642Y-69775183D01*
X51713108Y-70021486D01*
X51943000Y-69900819D01*
X51943000Y-68707000D01*
X52197000Y-68707000D01*
X52197000Y-69900819D01*
X52426892Y-70021486D01*
X52951358Y-69775183D01*
X53341645Y-69346924D01*
X53511476Y-68936890D01*
X53390155Y-68707000D01*
X52197000Y-68707000D01*
X51943000Y-68707000D01*
X50749845Y-68707000D01*
X50628524Y-68936890D01*
X46824861Y-68936890D01*
X46757571Y-68774438D01*
X46438290Y-68455157D01*
X46021130Y-68282364D01*
X45569598Y-68282364D01*
X45152438Y-68455157D01*
X44833157Y-68774438D01*
X44660364Y-69191598D01*
X44660364Y-69643130D01*
X44833157Y-70060290D01*
X44960364Y-70187497D01*
X44960365Y-70845502D01*
X44757793Y-71048074D01*
X44585000Y-71465234D01*
X35725629Y-71465234D01*
X34925000Y-70664605D01*
X33952073Y-71637532D01*
X34050736Y-71904387D01*
X34493681Y-72068947D01*
X33998847Y-72273914D01*
X33538914Y-72733847D01*
X33290000Y-73334778D01*
X28940000Y-73334778D01*
X28691086Y-72733847D01*
X28231153Y-72273914D01*
X27744897Y-72072500D01*
X28231153Y-71871086D01*
X28691086Y-71411153D01*
X28940000Y-70810222D01*
X28940000Y-70220461D01*
X33279092Y-70220461D01*
X33303144Y-70870460D01*
X33505613Y-71359264D01*
X33772468Y-71457927D01*
X34745395Y-70485000D01*
X35104605Y-70485000D01*
X36077532Y-71457927D01*
X36344387Y-71359264D01*
X36570908Y-70749539D01*
X36546856Y-70099540D01*
X36344387Y-69610736D01*
X36077532Y-69512073D01*
X35104605Y-70485000D01*
X34745395Y-70485000D01*
X33772468Y-69512073D01*
X33505613Y-69610736D01*
X33279092Y-70220461D01*
X28940000Y-70220461D01*
X28940000Y-70159778D01*
X28691086Y-69558847D01*
X28464707Y-69332468D01*
X33952073Y-69332468D01*
X34925000Y-70305395D01*
X35897927Y-69332468D01*
X35799264Y-69065613D01*
X35189539Y-68839092D01*
X34539540Y-68863144D01*
X34050736Y-69065613D01*
X33952073Y-69332468D01*
X28464707Y-69332468D01*
X28231153Y-69098914D01*
X28065000Y-69030091D01*
X28065000Y-66859909D01*
X28231153Y-66791086D01*
X28691086Y-66331153D01*
X28940000Y-65730222D01*
X28940000Y-65079778D01*
X33290000Y-65079778D01*
X33290000Y-65730222D01*
X33538914Y-66331153D01*
X33998847Y-66791086D01*
X34599778Y-67040000D01*
X35250222Y-67040000D01*
X35851153Y-66791086D01*
X36311086Y-66331153D01*
X36560000Y-65730222D01*
X36560000Y-65079778D01*
X36311086Y-64478847D01*
X35851153Y-64018914D01*
X35250222Y-63770000D01*
X34599778Y-63770000D01*
X33998847Y-64018914D01*
X33538914Y-64478847D01*
X33290000Y-65079778D01*
X28940000Y-65079778D01*
X28691086Y-64478847D01*
X28231153Y-64018914D01*
X27630222Y-63770000D01*
X26979778Y-63770000D01*
X26797000Y-63845709D01*
X26797000Y-63548126D01*
X41412000Y-63548126D01*
X41412000Y-63959874D01*
X41569569Y-64340280D01*
X41860720Y-64631431D01*
X42241126Y-64789000D01*
X42407199Y-64789000D01*
X42960507Y-65342309D01*
X42862000Y-65580126D01*
X42862000Y-65991874D01*
X43019569Y-66372280D01*
X43310720Y-66663431D01*
X43691126Y-66821000D01*
X44102874Y-66821000D01*
X44483280Y-66663431D01*
X44774431Y-66372280D01*
X44932000Y-65991874D01*
X44932000Y-65580126D01*
X44774431Y-65199720D01*
X44645365Y-65070654D01*
X44612904Y-64907463D01*
X44612904Y-64907462D01*
X44487329Y-64719527D01*
X44444929Y-64656071D01*
X44381473Y-64613671D01*
X43482000Y-63714199D01*
X43482000Y-63548126D01*
X43324431Y-63167720D01*
X43033280Y-62876569D01*
X42652874Y-62719000D01*
X42241126Y-62719000D01*
X41860720Y-62876569D01*
X41569569Y-63167720D01*
X41412000Y-63548126D01*
X26797000Y-63548126D01*
X26797000Y-57636801D01*
X28024671Y-58864473D01*
X28067071Y-58927929D01*
X28318463Y-59095904D01*
X28540148Y-59140000D01*
X28540153Y-59140000D01*
X28615000Y-59154888D01*
X28689847Y-59140000D01*
X29133331Y-59140000D01*
X29178690Y-59249507D01*
X29559183Y-59630000D01*
X29178690Y-60010493D01*
X28945000Y-60574670D01*
X28945000Y-61185330D01*
X29178690Y-61749507D01*
X29610493Y-62181310D01*
X30174670Y-62415000D01*
X30785330Y-62415000D01*
X31349507Y-62181310D01*
X31781310Y-61749507D01*
X32015000Y-61185330D01*
X32015000Y-60574670D01*
X31781310Y-60010493D01*
X31400817Y-59630000D01*
X31781310Y-59249507D01*
X32015000Y-58685330D01*
X32015000Y-58074670D01*
X31781310Y-57510493D01*
X31400817Y-57130000D01*
X31781310Y-56749507D01*
X32015000Y-56185330D01*
X32015000Y-55574670D01*
X31907890Y-55316083D01*
X37805000Y-55316083D01*
X37805000Y-56443917D01*
X38236603Y-57485899D01*
X39034101Y-58283397D01*
X40076083Y-58715000D01*
X41203917Y-58715000D01*
X42245899Y-58283397D01*
X43043397Y-57485899D01*
X43381256Y-56670234D01*
X48649000Y-56670234D01*
X48649000Y-57121766D01*
X48821793Y-57538926D01*
X48949000Y-57666133D01*
X48949001Y-62147762D01*
X48932643Y-62230000D01*
X48997448Y-62555800D01*
X48997449Y-62555801D01*
X49157000Y-62794586D01*
X49157000Y-62963766D01*
X49329793Y-63380926D01*
X49457001Y-63508134D01*
X49457001Y-64179762D01*
X49440643Y-64262000D01*
X49505448Y-64587800D01*
X49613092Y-64748900D01*
X49690000Y-64864001D01*
X49759718Y-64910585D01*
X50611193Y-65762061D01*
X50555908Y-66040000D01*
X50671161Y-66619418D01*
X50999375Y-67110625D01*
X51318478Y-67323843D01*
X51188642Y-67384817D01*
X50798355Y-67813076D01*
X50628524Y-68223110D01*
X50749845Y-68453000D01*
X51943000Y-68453000D01*
X51943000Y-68433000D01*
X52197000Y-68433000D01*
X52197000Y-68453000D01*
X53390155Y-68453000D01*
X53511476Y-68223110D01*
X53341645Y-67813076D01*
X52951358Y-67384817D01*
X52821522Y-67323843D01*
X53140625Y-67110625D01*
X53468839Y-66619418D01*
X53584092Y-66040000D01*
X53468839Y-65460582D01*
X53140625Y-64969375D01*
X52842239Y-64770000D01*
X53140625Y-64570625D01*
X53468839Y-64079418D01*
X53584092Y-63500000D01*
X53511209Y-63133592D01*
X53900766Y-62744036D01*
X53964222Y-62701636D01*
X54090777Y-62512234D01*
X54132197Y-62450245D01*
X54141773Y-62402102D01*
X54176293Y-62228559D01*
X54176293Y-62228555D01*
X54191181Y-62153707D01*
X54176293Y-62078859D01*
X54176293Y-60938711D01*
X54293724Y-60821280D01*
X54451293Y-60440874D01*
X54451293Y-60029126D01*
X54293724Y-59648720D01*
X54002573Y-59357569D01*
X53622167Y-59200000D01*
X53329728Y-59200000D01*
X53341645Y-59186924D01*
X53511476Y-58776890D01*
X53390155Y-58547000D01*
X52197000Y-58547000D01*
X52197000Y-58567000D01*
X51943000Y-58567000D01*
X51943000Y-58547000D01*
X51923000Y-58547000D01*
X51923000Y-58293000D01*
X51943000Y-58293000D01*
X51943000Y-58273000D01*
X52197000Y-58273000D01*
X52197000Y-58293000D01*
X53390155Y-58293000D01*
X53511476Y-58063110D01*
X53341645Y-57653076D01*
X53064292Y-57348739D01*
X53167765Y-57328157D01*
X53377809Y-57187809D01*
X53518157Y-56977765D01*
X53567440Y-56730000D01*
X53567440Y-55030000D01*
X53542316Y-54903690D01*
X56935000Y-54903690D01*
X56935000Y-55594250D01*
X57093750Y-55753000D01*
X58293000Y-55753000D01*
X58293000Y-54553750D01*
X58547000Y-54553750D01*
X58547000Y-55753000D01*
X59746250Y-55753000D01*
X59905000Y-55594250D01*
X59905000Y-54903690D01*
X59808327Y-54670301D01*
X59629698Y-54491673D01*
X59396309Y-54395000D01*
X58705750Y-54395000D01*
X58547000Y-54553750D01*
X58293000Y-54553750D01*
X58134250Y-54395000D01*
X57443691Y-54395000D01*
X57210302Y-54491673D01*
X57031673Y-54670301D01*
X56935000Y-54903690D01*
X53542316Y-54903690D01*
X53518157Y-54782235D01*
X53377809Y-54572191D01*
X53167765Y-54431843D01*
X52920000Y-54382560D01*
X51220000Y-54382560D01*
X50972235Y-54431843D01*
X50762191Y-54572191D01*
X50621843Y-54782235D01*
X50572560Y-55030000D01*
X50572560Y-56079427D01*
X50426926Y-55933793D01*
X50009766Y-55761000D01*
X49558234Y-55761000D01*
X49141074Y-55933793D01*
X48821793Y-56253074D01*
X48649000Y-56670234D01*
X43381256Y-56670234D01*
X43475000Y-56443917D01*
X43475000Y-55316083D01*
X43068051Y-54333621D01*
X43131280Y-54307431D01*
X43422431Y-54016280D01*
X43580000Y-53635874D01*
X43580000Y-53224126D01*
X43422431Y-52843720D01*
X43305000Y-52726289D01*
X43305000Y-52689848D01*
X43319888Y-52615000D01*
X43305000Y-52540152D01*
X43305000Y-52540148D01*
X43260904Y-52318463D01*
X43092929Y-52067071D01*
X43029473Y-52024671D01*
X42945000Y-51940198D01*
X42945000Y-51774126D01*
X42787431Y-51393720D01*
X42729943Y-51336232D01*
X48395000Y-51336232D01*
X48395000Y-51787764D01*
X48567793Y-52204924D01*
X48887074Y-52524205D01*
X49304234Y-52696998D01*
X49755766Y-52696998D01*
X49926866Y-52626126D01*
X52051000Y-52626126D01*
X52051000Y-53037874D01*
X52208569Y-53418280D01*
X52499720Y-53709431D01*
X52880126Y-53867000D01*
X53291874Y-53867000D01*
X53381974Y-53829679D01*
X53515726Y-53963431D01*
X53896132Y-54121000D01*
X54307880Y-54121000D01*
X54688286Y-53963431D01*
X54979437Y-53672280D01*
X55137006Y-53291874D01*
X55137006Y-52880126D01*
X54979437Y-52499720D01*
X54835578Y-52355861D01*
X54835578Y-52189693D01*
X54953009Y-52072262D01*
X55110578Y-51691856D01*
X55110578Y-51280108D01*
X54953009Y-50899702D01*
X54661858Y-50608551D01*
X54281452Y-50450982D01*
X53897459Y-50450982D01*
X53719738Y-50273261D01*
X53339332Y-50115692D01*
X52927584Y-50115692D01*
X52547178Y-50273261D01*
X52528439Y-50292000D01*
X52197000Y-50292000D01*
X52197000Y-50706916D01*
X52098458Y-50944818D01*
X52098458Y-51356566D01*
X52256027Y-51736972D01*
X52373458Y-51854403D01*
X52373459Y-52080830D01*
X52208569Y-52245720D01*
X52051000Y-52626126D01*
X49926866Y-52626126D01*
X50172926Y-52524205D01*
X50492207Y-52204924D01*
X50665000Y-51787764D01*
X50665000Y-51336232D01*
X50492207Y-50919072D01*
X50365000Y-50791865D01*
X50365000Y-50510867D01*
X50585000Y-50290867D01*
X50585000Y-50292002D01*
X50749844Y-50292002D01*
X50628524Y-50521890D01*
X50798355Y-50931924D01*
X51188642Y-51360183D01*
X51713108Y-51606486D01*
X51943000Y-51485819D01*
X51943000Y-50292000D01*
X51923000Y-50292000D01*
X51923000Y-50038000D01*
X51943000Y-50038000D01*
X51943000Y-50018000D01*
X52197000Y-50018000D01*
X52197000Y-50038000D01*
X53390155Y-50038000D01*
X53511476Y-49808110D01*
X53341645Y-49398076D01*
X53311502Y-49365000D01*
X55067560Y-49365000D01*
X55067560Y-50965000D01*
X55116843Y-51212765D01*
X55257191Y-51422809D01*
X55467235Y-51563157D01*
X55715000Y-51612440D01*
X57315000Y-51612440D01*
X57562765Y-51563157D01*
X57772809Y-51422809D01*
X57913157Y-51212765D01*
X57921117Y-51172745D01*
X58186861Y-51172745D01*
X58260995Y-51418864D01*
X58798223Y-51611965D01*
X59368454Y-51584778D01*
X59769005Y-51418864D01*
X59843139Y-51172745D01*
X59015000Y-50344605D01*
X58186861Y-51172745D01*
X57921117Y-51172745D01*
X57959693Y-50978813D01*
X58007255Y-50993139D01*
X58835395Y-50165000D01*
X59194605Y-50165000D01*
X60022745Y-50993139D01*
X60268864Y-50919005D01*
X60461965Y-50381777D01*
X60434778Y-49811546D01*
X60268864Y-49410995D01*
X60022745Y-49336861D01*
X59194605Y-50165000D01*
X58835395Y-50165000D01*
X58007255Y-49336861D01*
X57959693Y-49351187D01*
X57921118Y-49157255D01*
X58186861Y-49157255D01*
X59015000Y-49985395D01*
X59843139Y-49157255D01*
X59769005Y-48911136D01*
X59231777Y-48718035D01*
X58661546Y-48745222D01*
X58260995Y-48911136D01*
X58186861Y-49157255D01*
X57921118Y-49157255D01*
X57913157Y-49117235D01*
X57772809Y-48907191D01*
X57562765Y-48766843D01*
X57315000Y-48717560D01*
X55715000Y-48717560D01*
X55467235Y-48766843D01*
X55257191Y-48907191D01*
X55116843Y-49117235D01*
X55067560Y-49365000D01*
X53311502Y-49365000D01*
X52951358Y-48969817D01*
X52821522Y-48908843D01*
X53140625Y-48695625D01*
X53468839Y-48204418D01*
X53584092Y-47625000D01*
X53468839Y-47045582D01*
X53140625Y-46554375D01*
X52842239Y-46355000D01*
X53140625Y-46155625D01*
X53468839Y-45664418D01*
X53584092Y-45085000D01*
X53468839Y-44505582D01*
X53140625Y-44014375D01*
X52842239Y-43815000D01*
X53140625Y-43615625D01*
X53468839Y-43124418D01*
X53584092Y-42545000D01*
X53468839Y-41965582D01*
X53140625Y-41474375D01*
X52821522Y-41261157D01*
X52951358Y-41200183D01*
X53341645Y-40771924D01*
X53511476Y-40361890D01*
X53390155Y-40132000D01*
X52197000Y-40132000D01*
X52197000Y-40152000D01*
X51943000Y-40152000D01*
X51943000Y-40132000D01*
X50749845Y-40132000D01*
X50628524Y-40361890D01*
X50798355Y-40771924D01*
X51188642Y-41200183D01*
X51318478Y-41261157D01*
X50999375Y-41474375D01*
X50671161Y-41965582D01*
X50555908Y-42545000D01*
X50671161Y-43124418D01*
X50999375Y-43615625D01*
X51297761Y-43815000D01*
X50999375Y-44014375D01*
X50671161Y-44505582D01*
X50555908Y-45085000D01*
X50671161Y-45664418D01*
X50999375Y-46155625D01*
X51297761Y-46355000D01*
X50999375Y-46554375D01*
X50671161Y-47045582D01*
X50555908Y-47625000D01*
X50611193Y-47902938D01*
X48997720Y-49516413D01*
X48927999Y-49562999D01*
X48743448Y-49839200D01*
X48695000Y-50082764D01*
X48695000Y-50082767D01*
X48678643Y-50165000D01*
X48695000Y-50247234D01*
X48695000Y-50791865D01*
X48567793Y-50919072D01*
X48395000Y-51336232D01*
X42729943Y-51336232D01*
X42496280Y-51102569D01*
X42115874Y-50945000D01*
X41704126Y-50945000D01*
X41323720Y-51102569D01*
X41032569Y-51393720D01*
X40875000Y-51774126D01*
X40875000Y-52185874D01*
X41032569Y-52566280D01*
X41323720Y-52857431D01*
X41612366Y-52976992D01*
X41528506Y-53179449D01*
X41203917Y-53045000D01*
X40076083Y-53045000D01*
X39034101Y-53476603D01*
X38236603Y-54274101D01*
X37805000Y-55316083D01*
X31907890Y-55316083D01*
X31781310Y-55010493D01*
X31349507Y-54578690D01*
X30785330Y-54345000D01*
X30174670Y-54345000D01*
X29610493Y-54578690D01*
X29178690Y-55010493D01*
X28945000Y-55574670D01*
X28945000Y-56185330D01*
X29178690Y-56749507D01*
X29559183Y-57130000D01*
X29178690Y-57510493D01*
X29133331Y-57620000D01*
X28929802Y-57620000D01*
X26875000Y-55565199D01*
X26875000Y-47009000D01*
X27129874Y-47009000D01*
X27510280Y-46851431D01*
X27801431Y-46560280D01*
X27959000Y-46179874D01*
X27959000Y-45768126D01*
X27812595Y-45414670D01*
X28945000Y-45414670D01*
X28945000Y-46025330D01*
X29178690Y-46589507D01*
X29559183Y-46970000D01*
X29178690Y-47350493D01*
X28945000Y-47914670D01*
X28945000Y-48525330D01*
X29178690Y-49089507D01*
X29559183Y-49470000D01*
X29178690Y-49850493D01*
X28945000Y-50414670D01*
X28945000Y-51025330D01*
X29178690Y-51589507D01*
X29610493Y-52021310D01*
X30174670Y-52255000D01*
X30785330Y-52255000D01*
X31349507Y-52021310D01*
X31781310Y-51589507D01*
X32015000Y-51025330D01*
X32015000Y-50414670D01*
X31781310Y-49850493D01*
X31400817Y-49470000D01*
X31781310Y-49089507D01*
X32015000Y-48525330D01*
X32015000Y-47914670D01*
X31781310Y-47350493D01*
X31400817Y-46970000D01*
X31781310Y-46589507D01*
X32015000Y-46025330D01*
X32015000Y-45414670D01*
X31781310Y-44850493D01*
X31349507Y-44418690D01*
X30785330Y-44185000D01*
X30174670Y-44185000D01*
X29610493Y-44418690D01*
X29178690Y-44850493D01*
X28945000Y-45414670D01*
X27812595Y-45414670D01*
X27801431Y-45387720D01*
X27684000Y-45270289D01*
X27684000Y-44391711D01*
X27826084Y-44249627D01*
X27983653Y-43869221D01*
X27983653Y-43457473D01*
X27826084Y-43077067D01*
X27650583Y-42901566D01*
X28231153Y-42661086D01*
X28464707Y-42427532D01*
X33952073Y-42427532D01*
X34050736Y-42694387D01*
X34660461Y-42920908D01*
X35310460Y-42896856D01*
X35799264Y-42694387D01*
X35897927Y-42427532D01*
X34925000Y-41454605D01*
X33952073Y-42427532D01*
X28464707Y-42427532D01*
X28691086Y-42201153D01*
X28940000Y-41600222D01*
X28940000Y-41010461D01*
X33279092Y-41010461D01*
X33303144Y-41660460D01*
X33505613Y-42149264D01*
X33772468Y-42247927D01*
X34745395Y-41275000D01*
X35104605Y-41275000D01*
X36077532Y-42247927D01*
X36344387Y-42149264D01*
X36570908Y-41539539D01*
X36546856Y-40889540D01*
X36344387Y-40400736D01*
X36077532Y-40302073D01*
X35104605Y-41275000D01*
X34745395Y-41275000D01*
X33772468Y-40302073D01*
X33505613Y-40400736D01*
X33279092Y-41010461D01*
X28940000Y-41010461D01*
X28940000Y-40949778D01*
X28691086Y-40348847D01*
X28464707Y-40122468D01*
X33952073Y-40122468D01*
X34925000Y-41095395D01*
X35897927Y-40122468D01*
X35799264Y-39855613D01*
X35189539Y-39629092D01*
X34539540Y-39653144D01*
X34050736Y-39855613D01*
X33952073Y-40122468D01*
X28464707Y-40122468D01*
X28231153Y-39888914D01*
X27630222Y-39640000D01*
X26979778Y-39640000D01*
X26797000Y-39715709D01*
X26797000Y-37754291D01*
X26979778Y-37830000D01*
X27630222Y-37830000D01*
X28231153Y-37581086D01*
X28691086Y-37121153D01*
X28940000Y-36520222D01*
X28940000Y-35869778D01*
X33290000Y-35869778D01*
X33290000Y-36520222D01*
X33538914Y-37121153D01*
X33998847Y-37581086D01*
X34599778Y-37830000D01*
X35250222Y-37830000D01*
X35851153Y-37581086D01*
X36311086Y-37121153D01*
X36402242Y-36901083D01*
X37805000Y-36901083D01*
X37805000Y-38028917D01*
X38236603Y-39070899D01*
X39034101Y-39868397D01*
X40076083Y-40300000D01*
X41203917Y-40300000D01*
X42245899Y-39868397D01*
X43043397Y-39070899D01*
X43475000Y-38028917D01*
X43475000Y-36901083D01*
X43356501Y-36615000D01*
X50572560Y-36615000D01*
X50572560Y-38315000D01*
X50621843Y-38562765D01*
X50762191Y-38772809D01*
X50972235Y-38913157D01*
X51075708Y-38933739D01*
X50798355Y-39238076D01*
X50628524Y-39648110D01*
X50749845Y-39878000D01*
X51943000Y-39878000D01*
X51943000Y-39858000D01*
X52197000Y-39858000D01*
X52197000Y-39878000D01*
X53390155Y-39878000D01*
X53473768Y-39719561D01*
X55120000Y-39719561D01*
X55120000Y-40290439D01*
X55338466Y-40817862D01*
X55742138Y-41221534D01*
X56269561Y-41440000D01*
X56840439Y-41440000D01*
X57367862Y-41221534D01*
X57631155Y-40958241D01*
X57716673Y-41164699D01*
X57895302Y-41343327D01*
X58128691Y-41440000D01*
X58769250Y-41440000D01*
X58928000Y-41281250D01*
X58928000Y-40132000D01*
X59182000Y-40132000D01*
X59182000Y-41281250D01*
X59340750Y-41440000D01*
X59981309Y-41440000D01*
X60214698Y-41343327D01*
X60393327Y-41164699D01*
X60490000Y-40931310D01*
X60490000Y-40290750D01*
X60331250Y-40132000D01*
X59182000Y-40132000D01*
X58928000Y-40132000D01*
X58908000Y-40132000D01*
X58908000Y-39878000D01*
X58928000Y-39878000D01*
X58928000Y-38728750D01*
X59182000Y-38728750D01*
X59182000Y-39878000D01*
X60331250Y-39878000D01*
X60490000Y-39719250D01*
X60490000Y-39078690D01*
X60393327Y-38845301D01*
X60214698Y-38666673D01*
X59981309Y-38570000D01*
X59340750Y-38570000D01*
X59182000Y-38728750D01*
X58928000Y-38728750D01*
X58769250Y-38570000D01*
X58128691Y-38570000D01*
X57895302Y-38666673D01*
X57716673Y-38845301D01*
X57631155Y-39051759D01*
X57367862Y-38788466D01*
X56840439Y-38570000D01*
X56269561Y-38570000D01*
X55742138Y-38788466D01*
X55338466Y-39192138D01*
X55120000Y-39719561D01*
X53473768Y-39719561D01*
X53511476Y-39648110D01*
X53341645Y-39238076D01*
X53064292Y-38933739D01*
X53167765Y-38913157D01*
X53377809Y-38772809D01*
X53518157Y-38562765D01*
X53567440Y-38315000D01*
X53567440Y-36615000D01*
X53518157Y-36367235D01*
X53377809Y-36157191D01*
X53167765Y-36016843D01*
X52920000Y-35967560D01*
X51220000Y-35967560D01*
X50972235Y-36016843D01*
X50762191Y-36157191D01*
X50621843Y-36367235D01*
X50572560Y-36615000D01*
X43356501Y-36615000D01*
X43043397Y-35859101D01*
X42245899Y-35061603D01*
X41203917Y-34630000D01*
X40076083Y-34630000D01*
X39034101Y-35061603D01*
X38236603Y-35859101D01*
X37805000Y-36901083D01*
X36402242Y-36901083D01*
X36560000Y-36520222D01*
X36560000Y-35869778D01*
X36311086Y-35268847D01*
X35851153Y-34808914D01*
X35250222Y-34560000D01*
X34599778Y-34560000D01*
X33998847Y-34808914D01*
X33538914Y-35268847D01*
X33290000Y-35869778D01*
X28940000Y-35869778D01*
X28691086Y-35268847D01*
X28231153Y-34808914D01*
X27630222Y-34560000D01*
X26979778Y-34560000D01*
X26797000Y-34635709D01*
X26797000Y-33944291D01*
X26979778Y-34020000D01*
X27630222Y-34020000D01*
X28231153Y-33771086D01*
X28464707Y-33537532D01*
X33952073Y-33537532D01*
X34050736Y-33804387D01*
X34660461Y-34030908D01*
X35310460Y-34006856D01*
X35799264Y-33804387D01*
X35897927Y-33537532D01*
X34925000Y-32564605D01*
X33952073Y-33537532D01*
X28464707Y-33537532D01*
X28691086Y-33311153D01*
X28940000Y-32710222D01*
X28940000Y-32120461D01*
X33279092Y-32120461D01*
X33303144Y-32770460D01*
X33505613Y-33259264D01*
X33772468Y-33357927D01*
X34745395Y-32385000D01*
X35104605Y-32385000D01*
X36077532Y-33357927D01*
X36344387Y-33259264D01*
X36570908Y-32649539D01*
X36546856Y-31999540D01*
X36344387Y-31510736D01*
X36077532Y-31412073D01*
X35104605Y-32385000D01*
X34745395Y-32385000D01*
X33772468Y-31412073D01*
X33505613Y-31510736D01*
X33279092Y-32120461D01*
X28940000Y-32120461D01*
X28940000Y-32059778D01*
X28691086Y-31458847D01*
X28464707Y-31232468D01*
X33952073Y-31232468D01*
X34925000Y-32205395D01*
X35897927Y-31232468D01*
X35807235Y-30987171D01*
X53950000Y-30987171D01*
X53950000Y-32512829D01*
X54533844Y-33922353D01*
X55612647Y-35001156D01*
X57022171Y-35585000D01*
X58547829Y-35585000D01*
X59957353Y-35001156D01*
X61036156Y-33922353D01*
X61620000Y-32512829D01*
X61620000Y-30987171D01*
X61036156Y-29577647D01*
X59957353Y-28498844D01*
X58547829Y-27915000D01*
X57022171Y-27915000D01*
X55612647Y-28498844D01*
X54533844Y-29577647D01*
X53950000Y-30987171D01*
X35807235Y-30987171D01*
X35799264Y-30965613D01*
X35189539Y-30739092D01*
X34539540Y-30763144D01*
X34050736Y-30965613D01*
X33952073Y-31232468D01*
X28464707Y-31232468D01*
X28231153Y-30998914D01*
X27630222Y-30750000D01*
X26979778Y-30750000D01*
X26797000Y-30825709D01*
X26797000Y-28864291D01*
X26979778Y-28940000D01*
X27630222Y-28940000D01*
X28231153Y-28691086D01*
X28691086Y-28231153D01*
X28940000Y-27630222D01*
X28940000Y-26979778D01*
X28864291Y-26797000D01*
X33365709Y-26797000D01*
X33290000Y-26979778D01*
X33290000Y-26979778D01*
G37*
X33290000Y-26979778D02*
X33290000Y-27630222D01*
X33538914Y-28231153D01*
X33998847Y-28691086D01*
X34599778Y-28940000D01*
X35250222Y-28940000D01*
X35851153Y-28691086D01*
X36311086Y-28231153D01*
X36560000Y-27630222D01*
X36560000Y-26979778D01*
X36484291Y-26797000D01*
X62101340Y-26797000D01*
X61535416Y-70373127D01*
X59902270Y-68739981D01*
X59934092Y-68580000D01*
X59818839Y-68000582D01*
X59490625Y-67509375D01*
X59192239Y-67310000D01*
X59490625Y-67110625D01*
X59818839Y-66619418D01*
X59934092Y-66040000D01*
X59818839Y-65460582D01*
X59490625Y-64969375D01*
X59192239Y-64770000D01*
X59490625Y-64570625D01*
X59818839Y-64079418D01*
X59934092Y-63500000D01*
X59818839Y-62920582D01*
X59490625Y-62429375D01*
X59192239Y-62230000D01*
X59490625Y-62030625D01*
X59818839Y-61539418D01*
X59934092Y-60960000D01*
X59818839Y-60380582D01*
X59490625Y-59889375D01*
X59192239Y-59690000D01*
X59490625Y-59490625D01*
X59818839Y-58999418D01*
X59934092Y-58420000D01*
X59818839Y-57840582D01*
X59490625Y-57349375D01*
X59468967Y-57334904D01*
X59629698Y-57268327D01*
X59808327Y-57089699D01*
X59905000Y-56856310D01*
X59905000Y-56165750D01*
X59746250Y-56007000D01*
X58547000Y-56007000D01*
X58547000Y-56027000D01*
X58293000Y-56027000D01*
X58293000Y-56007000D01*
X57093750Y-56007000D01*
X56935000Y-56165750D01*
X56935000Y-56856310D01*
X57031673Y-57089699D01*
X57210302Y-57268327D01*
X57371033Y-57334904D01*
X57349375Y-57349375D01*
X57021161Y-57840582D01*
X56905908Y-58420000D01*
X57021161Y-58999418D01*
X57349375Y-59490625D01*
X57647761Y-59690000D01*
X57349375Y-59889375D01*
X57021161Y-60380582D01*
X56905908Y-60960000D01*
X57021161Y-61539418D01*
X57349375Y-62030625D01*
X57647761Y-62230000D01*
X57349375Y-62429375D01*
X57021161Y-62920582D01*
X56905908Y-63500000D01*
X57021161Y-64079418D01*
X57349375Y-64570625D01*
X57647761Y-64770000D01*
X57349375Y-64969375D01*
X57021161Y-65460582D01*
X56905908Y-66040000D01*
X57021161Y-66619418D01*
X57349375Y-67110625D01*
X57647761Y-67310000D01*
X57349375Y-67509375D01*
X57191935Y-67745000D01*
X56698000Y-67745000D01*
X56698000Y-67592234D01*
X56525207Y-67175074D01*
X56205926Y-66855793D01*
X55788766Y-66683000D01*
X55337234Y-66683000D01*
X54920074Y-66855793D01*
X54600793Y-67175074D01*
X54428000Y-67592234D01*
X54428000Y-68043766D01*
X54600793Y-68460926D01*
X54920074Y-68780207D01*
X55337234Y-68953000D01*
X55517132Y-68953000D01*
X55676414Y-69112282D01*
X55722999Y-69182001D01*
X55999199Y-69366552D01*
X56242763Y-69415000D01*
X56325000Y-69431358D01*
X56407237Y-69415000D01*
X57191935Y-69415000D01*
X57349375Y-69650625D01*
X57840582Y-69978839D01*
X58273744Y-70065000D01*
X58566256Y-70065000D01*
X58579981Y-70062270D01*
X61041001Y-72523291D01*
X61041000Y-93556818D01*
X60924794Y-93276271D01*
X60464861Y-92816338D01*
X59863930Y-92567424D01*
X59213486Y-92567424D01*
X58612555Y-92816338D01*
X58152622Y-93276271D01*
X57903708Y-93877202D01*
X57903708Y-94527646D01*
X58152622Y-95128577D01*
X58612555Y-95588510D01*
X59213486Y-95837424D01*
X59863930Y-95837424D01*
X60464861Y-95588510D01*
X60924794Y-95128577D01*
X61041000Y-94848030D01*
X61041000Y-98636817D01*
X60924794Y-98356271D01*
X60464861Y-97896338D01*
X59863930Y-97647424D01*
X59213486Y-97647424D01*
X58612555Y-97896338D01*
X58152622Y-98356271D01*
X57903708Y-98957202D01*
X57903708Y-99607646D01*
X58152622Y-100208577D01*
X58612555Y-100668510D01*
X59213486Y-100917424D01*
X59863930Y-100917424D01*
X60464861Y-100668510D01*
X60924794Y-100208577D01*
X61041000Y-99928031D01*
X61041000Y-105911710D01*
X59884919Y-107067791D01*
X59818839Y-106735582D01*
X59490625Y-106244375D01*
X59472381Y-106232184D01*
X59517765Y-106223157D01*
X59727809Y-106082809D01*
X59868157Y-105872765D01*
X59917440Y-105625000D01*
X59917440Y-103925000D01*
X59868157Y-103677235D01*
X59727809Y-103467191D01*
X59517765Y-103326843D01*
X59270000Y-103277560D01*
X57570000Y-103277560D01*
X57322235Y-103326843D01*
X57112191Y-103467191D01*
X56971843Y-103677235D01*
X56962816Y-103722619D01*
X56950625Y-103704375D01*
X56459418Y-103376161D01*
X56026256Y-103290000D01*
X55733744Y-103290000D01*
X55300582Y-103376161D01*
X54809375Y-103704375D01*
X54481161Y-104195582D01*
X54365908Y-104775000D01*
X54481161Y-105354418D01*
X54809375Y-105845625D01*
X55107761Y-106045000D01*
X54809375Y-106244375D01*
X54481161Y-106735582D01*
X54365908Y-107315000D01*
X54481161Y-107894418D01*
X54809375Y-108385625D01*
X55107761Y-108585000D01*
X54809375Y-108784375D01*
X54481161Y-109275582D01*
X54365908Y-109855000D01*
X54481161Y-110434418D01*
X54809375Y-110925625D01*
X55107761Y-111125000D01*
X54809375Y-111324375D01*
X54481161Y-111815582D01*
X54365908Y-112395000D01*
X54481161Y-112974418D01*
X54809375Y-113465625D01*
X55128478Y-113678843D01*
X54998642Y-113739817D01*
X54608355Y-114168076D01*
X54438524Y-114578110D01*
X54559845Y-114808000D01*
X55753000Y-114808000D01*
X55753000Y-114788000D01*
X56007000Y-114788000D01*
X56007000Y-114808000D01*
X58293000Y-114808000D01*
X58293000Y-114788000D01*
X58547000Y-114788000D01*
X58547000Y-114808000D01*
X59740155Y-114808000D01*
X59861476Y-114578110D01*
X59691645Y-114168076D01*
X59301358Y-113739817D01*
X59171522Y-113678843D01*
X59490625Y-113465625D01*
X59818839Y-112974418D01*
X59934092Y-112395000D01*
X59818839Y-111815582D01*
X59490625Y-111324375D01*
X59192239Y-111125000D01*
X59490625Y-110925625D01*
X59648065Y-110690000D01*
X61011821Y-110690000D01*
X60834639Y-124333000D01*
X51929789Y-124333000D01*
X52972353Y-123901156D01*
X54051156Y-122822353D01*
X54635000Y-121412829D01*
X54635000Y-120811161D01*
X54998642Y-121210183D01*
X55128478Y-121271157D01*
X54809375Y-121484375D01*
X54481161Y-121975582D01*
X54365908Y-122555000D01*
X54481161Y-123134418D01*
X54809375Y-123625625D01*
X55300582Y-123953839D01*
X55733744Y-124040000D01*
X56026256Y-124040000D01*
X56459418Y-123953839D01*
X56950625Y-123625625D01*
X57108065Y-123390000D01*
X57191935Y-123390000D01*
X57349375Y-123625625D01*
X57840582Y-123953839D01*
X58273744Y-124040000D01*
X58566256Y-124040000D01*
X58999418Y-123953839D01*
X59490625Y-123625625D01*
X59818839Y-123134418D01*
X59934092Y-122555000D01*
X59818839Y-121975582D01*
X59490625Y-121484375D01*
X59171522Y-121271157D01*
X59301358Y-121210183D01*
X59691645Y-120781924D01*
X59861476Y-120371890D01*
X59740155Y-120142000D01*
X58547000Y-120142000D01*
X58547000Y-120162000D01*
X58293000Y-120162000D01*
X58293000Y-120142000D01*
X56007000Y-120142000D01*
X56007000Y-120162000D01*
X55753000Y-120162000D01*
X55753000Y-120142000D01*
X55733000Y-120142000D01*
X55733000Y-119888000D01*
X55753000Y-119888000D01*
X55753000Y-117602000D01*
X56007000Y-117602000D01*
X56007000Y-119888000D01*
X58293000Y-119888000D01*
X58293000Y-117602000D01*
X58547000Y-117602000D01*
X58547000Y-119888000D01*
X59740155Y-119888000D01*
X59861476Y-119658110D01*
X59691645Y-119248076D01*
X59301358Y-118819817D01*
X59142046Y-118745000D01*
X59301358Y-118670183D01*
X59691645Y-118241924D01*
X59861476Y-117831890D01*
X59740155Y-117602000D01*
X58547000Y-117602000D01*
X58293000Y-117602000D01*
X56007000Y-117602000D01*
X55753000Y-117602000D01*
X54559845Y-117602000D01*
X54438524Y-117831890D01*
X54608355Y-118241924D01*
X54998642Y-118670183D01*
X55157954Y-118745000D01*
X54998642Y-118819817D01*
X54608355Y-119248076D01*
X54489320Y-119535469D01*
X54051156Y-118477647D01*
X52972353Y-117398844D01*
X51562829Y-116815000D01*
X50037171Y-116815000D01*
X48627647Y-117398844D01*
X47548844Y-118477647D01*
X46965000Y-119887171D01*
X46965000Y-121412829D01*
X47548844Y-122822353D01*
X48627647Y-123901156D01*
X49670211Y-124333000D01*
X36136020Y-124333000D01*
X36191814Y-124277206D01*
X36077534Y-124162926D01*
X36344387Y-124064264D01*
X36570908Y-123454539D01*
X36546856Y-122804540D01*
X36344387Y-122315736D01*
X36077532Y-122217073D01*
X35104605Y-123190000D01*
X35118748Y-123204143D01*
X34939143Y-123383748D01*
X34925000Y-123369605D01*
X34910858Y-123383748D01*
X34731253Y-123204143D01*
X34745395Y-123190000D01*
X33772468Y-122217073D01*
X33505613Y-122315736D01*
X33279092Y-122925461D01*
X33303144Y-123575460D01*
X33505613Y-124064264D01*
X33772466Y-124162926D01*
X33658186Y-124277206D01*
X33713980Y-124333000D01*
X28474239Y-124333000D01*
X28691086Y-124116153D01*
X28940000Y-123515222D01*
X28940000Y-122864778D01*
X28691086Y-122263847D01*
X28464707Y-122037468D01*
X33952073Y-122037468D01*
X34925000Y-123010395D01*
X35897927Y-122037468D01*
X35799264Y-121770613D01*
X35189539Y-121544092D01*
X34539540Y-121568144D01*
X34050736Y-121770613D01*
X33952073Y-122037468D01*
X28464707Y-122037468D01*
X28231153Y-121803914D01*
X28065000Y-121735091D01*
X28065000Y-119564909D01*
X28231153Y-119496086D01*
X28691086Y-119036153D01*
X28940000Y-118435222D01*
X28940000Y-117784778D01*
X33290000Y-117784778D01*
X33290000Y-118435222D01*
X33538914Y-119036153D01*
X33998847Y-119496086D01*
X34599778Y-119745000D01*
X35250222Y-119745000D01*
X35851153Y-119496086D01*
X36311086Y-119036153D01*
X36560000Y-118435222D01*
X36560000Y-117784778D01*
X36311086Y-117183847D01*
X35851153Y-116723914D01*
X35250222Y-116475000D01*
X34599778Y-116475000D01*
X33998847Y-116723914D01*
X33538914Y-117183847D01*
X33290000Y-117784778D01*
X28940000Y-117784778D01*
X28691086Y-117183847D01*
X28231153Y-116723914D01*
X27630222Y-116475000D01*
X26979778Y-116475000D01*
X26797000Y-116550709D01*
X26797000Y-115859291D01*
X26979778Y-115935000D01*
X27630222Y-115935000D01*
X28231153Y-115686086D01*
X28464707Y-115452532D01*
X33952073Y-115452532D01*
X34050736Y-115719387D01*
X34660461Y-115945908D01*
X35310460Y-115921856D01*
X35799264Y-115719387D01*
X35897927Y-115452532D01*
X35737285Y-115291890D01*
X54438524Y-115291890D01*
X54608355Y-115701924D01*
X54998642Y-116130183D01*
X55157954Y-116205000D01*
X54998642Y-116279817D01*
X54608355Y-116708076D01*
X54438524Y-117118110D01*
X54559845Y-117348000D01*
X55753000Y-117348000D01*
X55753000Y-115062000D01*
X56007000Y-115062000D01*
X56007000Y-117348000D01*
X58293000Y-117348000D01*
X58293000Y-115062000D01*
X58547000Y-115062000D01*
X58547000Y-117348000D01*
X59740155Y-117348000D01*
X59861476Y-117118110D01*
X59691645Y-116708076D01*
X59301358Y-116279817D01*
X59142046Y-116205000D01*
X59301358Y-116130183D01*
X59691645Y-115701924D01*
X59861476Y-115291890D01*
X59740155Y-115062000D01*
X58547000Y-115062000D01*
X58293000Y-115062000D01*
X56007000Y-115062000D01*
X55753000Y-115062000D01*
X54559845Y-115062000D01*
X54438524Y-115291890D01*
X35737285Y-115291890D01*
X34925000Y-114479605D01*
X33952073Y-115452532D01*
X28464707Y-115452532D01*
X28691086Y-115226153D01*
X28940000Y-114625222D01*
X28940000Y-114035461D01*
X33279092Y-114035461D01*
X33303144Y-114685460D01*
X33505613Y-115174264D01*
X33772468Y-115272927D01*
X34745395Y-114300000D01*
X35104605Y-114300000D01*
X36077532Y-115272927D01*
X36344387Y-115174264D01*
X36570908Y-114564539D01*
X36546856Y-113914540D01*
X36344387Y-113425736D01*
X36077532Y-113327073D01*
X35104605Y-114300000D01*
X34745395Y-114300000D01*
X33772468Y-113327073D01*
X33505613Y-113425736D01*
X33279092Y-114035461D01*
X28940000Y-114035461D01*
X28940000Y-113974778D01*
X28691086Y-113373847D01*
X28464707Y-113147468D01*
X33952073Y-113147468D01*
X34925000Y-114120395D01*
X35897927Y-113147468D01*
X35799264Y-112880613D01*
X35189539Y-112654092D01*
X34539540Y-112678144D01*
X34050736Y-112880613D01*
X33952073Y-113147468D01*
X28464707Y-113147468D01*
X28231153Y-112913914D01*
X28065000Y-112845091D01*
X28065000Y-110674909D01*
X28231153Y-110606086D01*
X28691086Y-110146153D01*
X28940000Y-109545222D01*
X28940000Y-108894778D01*
X33290000Y-108894778D01*
X33290000Y-109545222D01*
X33538914Y-110146153D01*
X33998847Y-110606086D01*
X34599778Y-110855000D01*
X35250222Y-110855000D01*
X35851153Y-110606086D01*
X36311086Y-110146153D01*
X36560000Y-109545222D01*
X36560000Y-108894778D01*
X36311086Y-108293847D01*
X35851153Y-107833914D01*
X35250222Y-107585000D01*
X34599778Y-107585000D01*
X33998847Y-107833914D01*
X33538914Y-108293847D01*
X33290000Y-108894778D01*
X28940000Y-108894778D01*
X28691086Y-108293847D01*
X28231153Y-107833914D01*
X27630222Y-107585000D01*
X26979778Y-107585000D01*
X26797000Y-107660709D01*
X26797000Y-106969291D01*
X26979778Y-107045000D01*
X27630222Y-107045000D01*
X28231153Y-106796086D01*
X28464707Y-106562532D01*
X33952073Y-106562532D01*
X34050736Y-106829387D01*
X34660461Y-107055908D01*
X35310460Y-107031856D01*
X35799264Y-106829387D01*
X35897927Y-106562532D01*
X34925000Y-105589605D01*
X33952073Y-106562532D01*
X28464707Y-106562532D01*
X28691086Y-106336153D01*
X28940000Y-105735222D01*
X28940000Y-105145461D01*
X33279092Y-105145461D01*
X33303144Y-105795460D01*
X33505613Y-106284264D01*
X33772468Y-106382927D01*
X34745395Y-105410000D01*
X35104605Y-105410000D01*
X36077532Y-106382927D01*
X36344387Y-106284264D01*
X36570908Y-105674539D01*
X36546856Y-105024540D01*
X36344387Y-104535736D01*
X36077532Y-104437073D01*
X35104605Y-105410000D01*
X34745395Y-105410000D01*
X33772468Y-104437073D01*
X33505613Y-104535736D01*
X33279092Y-105145461D01*
X28940000Y-105145461D01*
X28940000Y-105084778D01*
X28691086Y-104483847D01*
X28464707Y-104257468D01*
X33952073Y-104257468D01*
X34925000Y-105230395D01*
X35897927Y-104257468D01*
X35799264Y-103990613D01*
X35189539Y-103764092D01*
X34539540Y-103788144D01*
X34050736Y-103990613D01*
X33952073Y-104257468D01*
X28464707Y-104257468D01*
X28231153Y-104023914D01*
X28065000Y-103955091D01*
X28065000Y-101784909D01*
X28231153Y-101716086D01*
X28691086Y-101256153D01*
X28940000Y-100655222D01*
X28940000Y-100004778D01*
X33290000Y-100004778D01*
X33290000Y-100655222D01*
X33538914Y-101256153D01*
X33998847Y-101716086D01*
X34599778Y-101965000D01*
X35250222Y-101965000D01*
X35851153Y-101716086D01*
X36311086Y-101256153D01*
X36560000Y-100655222D01*
X36560000Y-100004778D01*
X36311086Y-99403847D01*
X35864441Y-98957202D01*
X50283708Y-98957202D01*
X50283708Y-99607646D01*
X50532622Y-100208577D01*
X50992555Y-100668510D01*
X51593486Y-100917424D01*
X52243930Y-100917424D01*
X52844861Y-100668510D01*
X53304794Y-100208577D01*
X53553708Y-99607646D01*
X53553708Y-98957202D01*
X53304794Y-98356271D01*
X52844861Y-97896338D01*
X52243930Y-97647424D01*
X51593486Y-97647424D01*
X50992555Y-97896338D01*
X50532622Y-98356271D01*
X50283708Y-98957202D01*
X35864441Y-98957202D01*
X35851153Y-98943914D01*
X35250222Y-98695000D01*
X34599778Y-98695000D01*
X33998847Y-98943914D01*
X33538914Y-99403847D01*
X33290000Y-100004778D01*
X28940000Y-100004778D01*
X28691086Y-99403847D01*
X28231153Y-98943914D01*
X27630222Y-98695000D01*
X26979778Y-98695000D01*
X26797000Y-98770709D01*
X26797000Y-98079291D01*
X26979778Y-98155000D01*
X27630222Y-98155000D01*
X28231153Y-97906086D01*
X28464707Y-97672532D01*
X33952073Y-97672532D01*
X34050736Y-97939387D01*
X34660461Y-98165908D01*
X35310460Y-98141856D01*
X35799264Y-97939387D01*
X35897927Y-97672532D01*
X34925000Y-96699605D01*
X33952073Y-97672532D01*
X28464707Y-97672532D01*
X28691086Y-97446153D01*
X28940000Y-96845222D01*
X28940000Y-96255461D01*
X33279092Y-96255461D01*
X33303144Y-96905460D01*
X33505613Y-97394264D01*
X33772468Y-97492927D01*
X34745395Y-96520000D01*
X35104605Y-96520000D01*
X36077532Y-97492927D01*
X36344387Y-97394264D01*
X36570908Y-96784539D01*
X36546856Y-96134540D01*
X36344387Y-95645736D01*
X36077532Y-95547073D01*
X35104605Y-96520000D01*
X34745395Y-96520000D01*
X33772468Y-95547073D01*
X33505613Y-95645736D01*
X33279092Y-96255461D01*
X28940000Y-96255461D01*
X28940000Y-96194778D01*
X28691086Y-95593847D01*
X28464707Y-95367468D01*
X33952073Y-95367468D01*
X34925000Y-96340395D01*
X35897927Y-95367468D01*
X35893301Y-95354956D01*
X50945781Y-95354956D01*
X51044444Y-95621811D01*
X51654169Y-95848332D01*
X52304168Y-95824280D01*
X52792972Y-95621811D01*
X52891635Y-95354956D01*
X51918708Y-94382029D01*
X50945781Y-95354956D01*
X35893301Y-95354956D01*
X35799264Y-95100613D01*
X35189539Y-94874092D01*
X34539540Y-94898144D01*
X34050736Y-95100613D01*
X33952073Y-95367468D01*
X28464707Y-95367468D01*
X28231153Y-95133914D01*
X28065000Y-95065091D01*
X28065000Y-93937885D01*
X50272800Y-93937885D01*
X50296852Y-94587884D01*
X50499321Y-95076688D01*
X50766176Y-95175351D01*
X51739103Y-94202424D01*
X52098313Y-94202424D01*
X53071240Y-95175351D01*
X53338095Y-95076688D01*
X53564616Y-94466963D01*
X53540564Y-93816964D01*
X53338095Y-93328160D01*
X53071240Y-93229497D01*
X52098313Y-94202424D01*
X51739103Y-94202424D01*
X50766176Y-93229497D01*
X50499321Y-93328160D01*
X50272800Y-93937885D01*
X28065000Y-93937885D01*
X28065000Y-92894909D01*
X28231153Y-92826086D01*
X28691086Y-92366153D01*
X28940000Y-91765222D01*
X28940000Y-91114778D01*
X33290000Y-91114778D01*
X33290000Y-91765222D01*
X33538914Y-92366153D01*
X33998847Y-92826086D01*
X34599778Y-93075000D01*
X35250222Y-93075000D01*
X35310838Y-93049892D01*
X50945781Y-93049892D01*
X51918708Y-94022819D01*
X52891635Y-93049892D01*
X52792972Y-92783037D01*
X52183247Y-92556516D01*
X51533248Y-92580568D01*
X51044444Y-92783037D01*
X50945781Y-93049892D01*
X35310838Y-93049892D01*
X35851153Y-92826086D01*
X36311086Y-92366153D01*
X36560000Y-91765222D01*
X36560000Y-91114778D01*
X36311086Y-90513847D01*
X35851153Y-90053914D01*
X35250222Y-89805000D01*
X34599778Y-89805000D01*
X33998847Y-90053914D01*
X33538914Y-90513847D01*
X33290000Y-91114778D01*
X28940000Y-91114778D01*
X28691086Y-90513847D01*
X28231153Y-90053914D01*
X27630222Y-89805000D01*
X26979778Y-89805000D01*
X26797000Y-89880709D01*
X26797000Y-89189291D01*
X26979778Y-89265000D01*
X27630222Y-89265000D01*
X28231153Y-89016086D01*
X28464707Y-88782532D01*
X33952073Y-88782532D01*
X34050736Y-89049387D01*
X34660461Y-89275908D01*
X35310460Y-89251856D01*
X35799264Y-89049387D01*
X35897927Y-88782532D01*
X34925000Y-87809605D01*
X33952073Y-88782532D01*
X28464707Y-88782532D01*
X28691086Y-88556153D01*
X28940000Y-87955222D01*
X28940000Y-87365461D01*
X33279092Y-87365461D01*
X33303144Y-88015460D01*
X33505613Y-88504264D01*
X33772468Y-88602927D01*
X34745395Y-87630000D01*
X35104605Y-87630000D01*
X36077532Y-88602927D01*
X36344387Y-88504264D01*
X36570908Y-87894539D01*
X36546856Y-87244540D01*
X36344387Y-86755736D01*
X36077532Y-86657073D01*
X35104605Y-87630000D01*
X34745395Y-87630000D01*
X33772468Y-86657073D01*
X33505613Y-86755736D01*
X33279092Y-87365461D01*
X28940000Y-87365461D01*
X28940000Y-87304778D01*
X28691086Y-86703847D01*
X28464707Y-86477468D01*
X33952073Y-86477468D01*
X34925000Y-87450395D01*
X35897927Y-86477468D01*
X35799264Y-86210613D01*
X35189539Y-85984092D01*
X34539540Y-86008144D01*
X34050736Y-86210613D01*
X33952073Y-86477468D01*
X28464707Y-86477468D01*
X28231153Y-86243914D01*
X28065000Y-86175091D01*
X28065000Y-84004909D01*
X28231153Y-83936086D01*
X28691086Y-83476153D01*
X28940000Y-82875222D01*
X28940000Y-82224778D01*
X33290000Y-82224778D01*
X33290000Y-82875222D01*
X33538914Y-83476153D01*
X33998847Y-83936086D01*
X34599778Y-84185000D01*
X35250222Y-84185000D01*
X35851153Y-83936086D01*
X36311086Y-83476153D01*
X36560000Y-82875222D01*
X36560000Y-82224778D01*
X36311086Y-81623847D01*
X35851153Y-81163914D01*
X35250222Y-80915000D01*
X34599778Y-80915000D01*
X33998847Y-81163914D01*
X33538914Y-81623847D01*
X33290000Y-82224778D01*
X28940000Y-82224778D01*
X28691086Y-81623847D01*
X28231153Y-81163914D01*
X27630222Y-80915000D01*
X26979778Y-80915000D01*
X26797000Y-80990709D01*
X26797000Y-80299291D01*
X26979778Y-80375000D01*
X27630222Y-80375000D01*
X28231153Y-80126086D01*
X28464707Y-79892532D01*
X33952073Y-79892532D01*
X34050736Y-80159387D01*
X34660461Y-80385908D01*
X35310460Y-80361856D01*
X35799264Y-80159387D01*
X35897927Y-79892532D01*
X34925000Y-78919605D01*
X33952073Y-79892532D01*
X28464707Y-79892532D01*
X28691086Y-79666153D01*
X28940000Y-79065222D01*
X28940000Y-78475461D01*
X33279092Y-78475461D01*
X33303144Y-79125460D01*
X33505613Y-79614264D01*
X33772468Y-79712927D01*
X34745395Y-78740000D01*
X35104605Y-78740000D01*
X36077532Y-79712927D01*
X36344387Y-79614264D01*
X36570908Y-79004539D01*
X36546856Y-78354540D01*
X36344387Y-77865736D01*
X36077532Y-77767073D01*
X35104605Y-78740000D01*
X34745395Y-78740000D01*
X33772468Y-77767073D01*
X33505613Y-77865736D01*
X33279092Y-78475461D01*
X28940000Y-78475461D01*
X28940000Y-78414778D01*
X28691086Y-77813847D01*
X28464707Y-77587468D01*
X33952073Y-77587468D01*
X34925000Y-78560395D01*
X35897927Y-77587468D01*
X35799264Y-77320613D01*
X35189539Y-77094092D01*
X34539540Y-77118144D01*
X34050736Y-77320613D01*
X33952073Y-77587468D01*
X28464707Y-77587468D01*
X28231153Y-77353914D01*
X28065000Y-77285091D01*
X28065000Y-75114909D01*
X28231153Y-75046086D01*
X28691086Y-74586153D01*
X28940000Y-73985222D01*
X28940000Y-73334778D01*
X33290000Y-73334778D01*
X33290000Y-73985222D01*
X33538914Y-74586153D01*
X33998847Y-75046086D01*
X34599778Y-75295000D01*
X35250222Y-75295000D01*
X35851153Y-75046086D01*
X36311086Y-74586153D01*
X36326818Y-74548171D01*
X46965000Y-74548171D01*
X46965000Y-76073829D01*
X47548844Y-77483353D01*
X48627647Y-78562156D01*
X50037171Y-79146000D01*
X51562829Y-79146000D01*
X52972353Y-78562156D01*
X54051156Y-77483353D01*
X54056686Y-77470000D01*
X56905908Y-77470000D01*
X57021161Y-78049418D01*
X57349375Y-78540625D01*
X57647761Y-78740000D01*
X57349375Y-78939375D01*
X57021161Y-79430582D01*
X56905908Y-80010000D01*
X57021161Y-80589418D01*
X57349375Y-81080625D01*
X57647761Y-81280000D01*
X57349375Y-81479375D01*
X57021161Y-81970582D01*
X56905908Y-82550000D01*
X57021161Y-83129418D01*
X57349375Y-83620625D01*
X57647761Y-83820000D01*
X57349375Y-84019375D01*
X57021161Y-84510582D01*
X56905908Y-85090000D01*
X57021161Y-85669418D01*
X57349375Y-86160625D01*
X57647761Y-86360000D01*
X57349375Y-86559375D01*
X57021161Y-87050582D01*
X56905908Y-87630000D01*
X57021161Y-88209418D01*
X57349375Y-88700625D01*
X57840582Y-89028839D01*
X58273744Y-89115000D01*
X58566256Y-89115000D01*
X58999418Y-89028839D01*
X59490625Y-88700625D01*
X59818839Y-88209418D01*
X59934092Y-87630000D01*
X59818839Y-87050582D01*
X59490625Y-86559375D01*
X59192239Y-86360000D01*
X59490625Y-86160625D01*
X59818839Y-85669418D01*
X59934092Y-85090000D01*
X59818839Y-84510582D01*
X59490625Y-84019375D01*
X59192239Y-83820000D01*
X59490625Y-83620625D01*
X59818839Y-83129418D01*
X59934092Y-82550000D01*
X59818839Y-81970582D01*
X59490625Y-81479375D01*
X59192239Y-81280000D01*
X59490625Y-81080625D01*
X59818839Y-80589418D01*
X59934092Y-80010000D01*
X59818839Y-79430582D01*
X59490625Y-78939375D01*
X59192239Y-78740000D01*
X59490625Y-78540625D01*
X59818839Y-78049418D01*
X59934092Y-77470000D01*
X59818839Y-76890582D01*
X59490625Y-76399375D01*
X59472381Y-76387184D01*
X59517765Y-76378157D01*
X59727809Y-76237809D01*
X59868157Y-76027765D01*
X59917440Y-75780000D01*
X59917440Y-74080000D01*
X59868157Y-73832235D01*
X59727809Y-73622191D01*
X59517765Y-73481843D01*
X59270000Y-73432560D01*
X57570000Y-73432560D01*
X57322235Y-73481843D01*
X57112191Y-73622191D01*
X56971843Y-73832235D01*
X56922560Y-74080000D01*
X56922560Y-75780000D01*
X56971843Y-76027765D01*
X57112191Y-76237809D01*
X57322235Y-76378157D01*
X57367619Y-76387184D01*
X57349375Y-76399375D01*
X57021161Y-76890582D01*
X56905908Y-77470000D01*
X54056686Y-77470000D01*
X54635000Y-76073829D01*
X54635000Y-74548171D01*
X54051156Y-73138647D01*
X52972353Y-72059844D01*
X51562829Y-71476000D01*
X50037171Y-71476000D01*
X48627647Y-72059844D01*
X47548844Y-73138647D01*
X46965000Y-74548171D01*
X36326818Y-74548171D01*
X36560000Y-73985222D01*
X36560000Y-73334778D01*
X36311086Y-72733847D01*
X35851153Y-72273914D01*
X35379150Y-72078404D01*
X35799264Y-71904387D01*
X35897927Y-71637532D01*
X35725629Y-71465234D01*
X44585000Y-71465234D01*
X44585000Y-71916766D01*
X44757793Y-72333926D01*
X45077074Y-72653207D01*
X45494234Y-72826000D01*
X45945766Y-72826000D01*
X46362926Y-72653207D01*
X46682207Y-72333926D01*
X46855000Y-71916766D01*
X46855000Y-71465234D01*
X46682207Y-71048074D01*
X46630364Y-70996231D01*
X46630364Y-70187497D01*
X46757571Y-70060290D01*
X46930364Y-69643130D01*
X46930364Y-69191598D01*
X46824861Y-68936890D01*
X50628524Y-68936890D01*
X50798355Y-69346924D01*
X51188642Y-69775183D01*
X51713108Y-70021486D01*
X51943000Y-69900819D01*
X51943000Y-68707000D01*
X52197000Y-68707000D01*
X52197000Y-69900819D01*
X52426892Y-70021486D01*
X52951358Y-69775183D01*
X53341645Y-69346924D01*
X53511476Y-68936890D01*
X53390155Y-68707000D01*
X52197000Y-68707000D01*
X51943000Y-68707000D01*
X50749845Y-68707000D01*
X50628524Y-68936890D01*
X46824861Y-68936890D01*
X46757571Y-68774438D01*
X46438290Y-68455157D01*
X46021130Y-68282364D01*
X45569598Y-68282364D01*
X45152438Y-68455157D01*
X44833157Y-68774438D01*
X44660364Y-69191598D01*
X44660364Y-69643130D01*
X44833157Y-70060290D01*
X44960364Y-70187497D01*
X44960365Y-70845502D01*
X44757793Y-71048074D01*
X44585000Y-71465234D01*
X35725629Y-71465234D01*
X34925000Y-70664605D01*
X33952073Y-71637532D01*
X34050736Y-71904387D01*
X34493681Y-72068947D01*
X33998847Y-72273914D01*
X33538914Y-72733847D01*
X33290000Y-73334778D01*
X28940000Y-73334778D01*
X28691086Y-72733847D01*
X28231153Y-72273914D01*
X27744897Y-72072500D01*
X28231153Y-71871086D01*
X28691086Y-71411153D01*
X28940000Y-70810222D01*
X28940000Y-70220461D01*
X33279092Y-70220461D01*
X33303144Y-70870460D01*
X33505613Y-71359264D01*
X33772468Y-71457927D01*
X34745395Y-70485000D01*
X35104605Y-70485000D01*
X36077532Y-71457927D01*
X36344387Y-71359264D01*
X36570908Y-70749539D01*
X36546856Y-70099540D01*
X36344387Y-69610736D01*
X36077532Y-69512073D01*
X35104605Y-70485000D01*
X34745395Y-70485000D01*
X33772468Y-69512073D01*
X33505613Y-69610736D01*
X33279092Y-70220461D01*
X28940000Y-70220461D01*
X28940000Y-70159778D01*
X28691086Y-69558847D01*
X28464707Y-69332468D01*
X33952073Y-69332468D01*
X34925000Y-70305395D01*
X35897927Y-69332468D01*
X35799264Y-69065613D01*
X35189539Y-68839092D01*
X34539540Y-68863144D01*
X34050736Y-69065613D01*
X33952073Y-69332468D01*
X28464707Y-69332468D01*
X28231153Y-69098914D01*
X28065000Y-69030091D01*
X28065000Y-66859909D01*
X28231153Y-66791086D01*
X28691086Y-66331153D01*
X28940000Y-65730222D01*
X28940000Y-65079778D01*
X33290000Y-65079778D01*
X33290000Y-65730222D01*
X33538914Y-66331153D01*
X33998847Y-66791086D01*
X34599778Y-67040000D01*
X35250222Y-67040000D01*
X35851153Y-66791086D01*
X36311086Y-66331153D01*
X36560000Y-65730222D01*
X36560000Y-65079778D01*
X36311086Y-64478847D01*
X35851153Y-64018914D01*
X35250222Y-63770000D01*
X34599778Y-63770000D01*
X33998847Y-64018914D01*
X33538914Y-64478847D01*
X33290000Y-65079778D01*
X28940000Y-65079778D01*
X28691086Y-64478847D01*
X28231153Y-64018914D01*
X27630222Y-63770000D01*
X26979778Y-63770000D01*
X26797000Y-63845709D01*
X26797000Y-63548126D01*
X41412000Y-63548126D01*
X41412000Y-63959874D01*
X41569569Y-64340280D01*
X41860720Y-64631431D01*
X42241126Y-64789000D01*
X42407199Y-64789000D01*
X42960507Y-65342309D01*
X42862000Y-65580126D01*
X42862000Y-65991874D01*
X43019569Y-66372280D01*
X43310720Y-66663431D01*
X43691126Y-66821000D01*
X44102874Y-66821000D01*
X44483280Y-66663431D01*
X44774431Y-66372280D01*
X44932000Y-65991874D01*
X44932000Y-65580126D01*
X44774431Y-65199720D01*
X44645365Y-65070654D01*
X44612904Y-64907463D01*
X44612904Y-64907462D01*
X44487329Y-64719527D01*
X44444929Y-64656071D01*
X44381473Y-64613671D01*
X43482000Y-63714199D01*
X43482000Y-63548126D01*
X43324431Y-63167720D01*
X43033280Y-62876569D01*
X42652874Y-62719000D01*
X42241126Y-62719000D01*
X41860720Y-62876569D01*
X41569569Y-63167720D01*
X41412000Y-63548126D01*
X26797000Y-63548126D01*
X26797000Y-57636801D01*
X28024671Y-58864473D01*
X28067071Y-58927929D01*
X28318463Y-59095904D01*
X28540148Y-59140000D01*
X28540153Y-59140000D01*
X28615000Y-59154888D01*
X28689847Y-59140000D01*
X29133331Y-59140000D01*
X29178690Y-59249507D01*
X29559183Y-59630000D01*
X29178690Y-60010493D01*
X28945000Y-60574670D01*
X28945000Y-61185330D01*
X29178690Y-61749507D01*
X29610493Y-62181310D01*
X30174670Y-62415000D01*
X30785330Y-62415000D01*
X31349507Y-62181310D01*
X31781310Y-61749507D01*
X32015000Y-61185330D01*
X32015000Y-60574670D01*
X31781310Y-60010493D01*
X31400817Y-59630000D01*
X31781310Y-59249507D01*
X32015000Y-58685330D01*
X32015000Y-58074670D01*
X31781310Y-57510493D01*
X31400817Y-57130000D01*
X31781310Y-56749507D01*
X32015000Y-56185330D01*
X32015000Y-55574670D01*
X31907890Y-55316083D01*
X37805000Y-55316083D01*
X37805000Y-56443917D01*
X38236603Y-57485899D01*
X39034101Y-58283397D01*
X40076083Y-58715000D01*
X41203917Y-58715000D01*
X42245899Y-58283397D01*
X43043397Y-57485899D01*
X43381256Y-56670234D01*
X48649000Y-56670234D01*
X48649000Y-57121766D01*
X48821793Y-57538926D01*
X48949000Y-57666133D01*
X48949001Y-62147762D01*
X48932643Y-62230000D01*
X48997448Y-62555800D01*
X48997449Y-62555801D01*
X49157000Y-62794586D01*
X49157000Y-62963766D01*
X49329793Y-63380926D01*
X49457001Y-63508134D01*
X49457001Y-64179762D01*
X49440643Y-64262000D01*
X49505448Y-64587800D01*
X49613092Y-64748900D01*
X49690000Y-64864001D01*
X49759718Y-64910585D01*
X50611193Y-65762061D01*
X50555908Y-66040000D01*
X50671161Y-66619418D01*
X50999375Y-67110625D01*
X51318478Y-67323843D01*
X51188642Y-67384817D01*
X50798355Y-67813076D01*
X50628524Y-68223110D01*
X50749845Y-68453000D01*
X51943000Y-68453000D01*
X51943000Y-68433000D01*
X52197000Y-68433000D01*
X52197000Y-68453000D01*
X53390155Y-68453000D01*
X53511476Y-68223110D01*
X53341645Y-67813076D01*
X52951358Y-67384817D01*
X52821522Y-67323843D01*
X53140625Y-67110625D01*
X53468839Y-66619418D01*
X53584092Y-66040000D01*
X53468839Y-65460582D01*
X53140625Y-64969375D01*
X52842239Y-64770000D01*
X53140625Y-64570625D01*
X53468839Y-64079418D01*
X53584092Y-63500000D01*
X53511209Y-63133592D01*
X53900766Y-62744036D01*
X53964222Y-62701636D01*
X54090777Y-62512234D01*
X54132197Y-62450245D01*
X54141773Y-62402102D01*
X54176293Y-62228559D01*
X54176293Y-62228555D01*
X54191181Y-62153707D01*
X54176293Y-62078859D01*
X54176293Y-60938711D01*
X54293724Y-60821280D01*
X54451293Y-60440874D01*
X54451293Y-60029126D01*
X54293724Y-59648720D01*
X54002573Y-59357569D01*
X53622167Y-59200000D01*
X53329728Y-59200000D01*
X53341645Y-59186924D01*
X53511476Y-58776890D01*
X53390155Y-58547000D01*
X52197000Y-58547000D01*
X52197000Y-58567000D01*
X51943000Y-58567000D01*
X51943000Y-58547000D01*
X51923000Y-58547000D01*
X51923000Y-58293000D01*
X51943000Y-58293000D01*
X51943000Y-58273000D01*
X52197000Y-58273000D01*
X52197000Y-58293000D01*
X53390155Y-58293000D01*
X53511476Y-58063110D01*
X53341645Y-57653076D01*
X53064292Y-57348739D01*
X53167765Y-57328157D01*
X53377809Y-57187809D01*
X53518157Y-56977765D01*
X53567440Y-56730000D01*
X53567440Y-55030000D01*
X53542316Y-54903690D01*
X56935000Y-54903690D01*
X56935000Y-55594250D01*
X57093750Y-55753000D01*
X58293000Y-55753000D01*
X58293000Y-54553750D01*
X58547000Y-54553750D01*
X58547000Y-55753000D01*
X59746250Y-55753000D01*
X59905000Y-55594250D01*
X59905000Y-54903690D01*
X59808327Y-54670301D01*
X59629698Y-54491673D01*
X59396309Y-54395000D01*
X58705750Y-54395000D01*
X58547000Y-54553750D01*
X58293000Y-54553750D01*
X58134250Y-54395000D01*
X57443691Y-54395000D01*
X57210302Y-54491673D01*
X57031673Y-54670301D01*
X56935000Y-54903690D01*
X53542316Y-54903690D01*
X53518157Y-54782235D01*
X53377809Y-54572191D01*
X53167765Y-54431843D01*
X52920000Y-54382560D01*
X51220000Y-54382560D01*
X50972235Y-54431843D01*
X50762191Y-54572191D01*
X50621843Y-54782235D01*
X50572560Y-55030000D01*
X50572560Y-56079427D01*
X50426926Y-55933793D01*
X50009766Y-55761000D01*
X49558234Y-55761000D01*
X49141074Y-55933793D01*
X48821793Y-56253074D01*
X48649000Y-56670234D01*
X43381256Y-56670234D01*
X43475000Y-56443917D01*
X43475000Y-55316083D01*
X43068051Y-54333621D01*
X43131280Y-54307431D01*
X43422431Y-54016280D01*
X43580000Y-53635874D01*
X43580000Y-53224126D01*
X43422431Y-52843720D01*
X43305000Y-52726289D01*
X43305000Y-52689848D01*
X43319888Y-52615000D01*
X43305000Y-52540152D01*
X43305000Y-52540148D01*
X43260904Y-52318463D01*
X43092929Y-52067071D01*
X43029473Y-52024671D01*
X42945000Y-51940198D01*
X42945000Y-51774126D01*
X42787431Y-51393720D01*
X42729943Y-51336232D01*
X48395000Y-51336232D01*
X48395000Y-51787764D01*
X48567793Y-52204924D01*
X48887074Y-52524205D01*
X49304234Y-52696998D01*
X49755766Y-52696998D01*
X49926866Y-52626126D01*
X52051000Y-52626126D01*
X52051000Y-53037874D01*
X52208569Y-53418280D01*
X52499720Y-53709431D01*
X52880126Y-53867000D01*
X53291874Y-53867000D01*
X53381974Y-53829679D01*
X53515726Y-53963431D01*
X53896132Y-54121000D01*
X54307880Y-54121000D01*
X54688286Y-53963431D01*
X54979437Y-53672280D01*
X55137006Y-53291874D01*
X55137006Y-52880126D01*
X54979437Y-52499720D01*
X54835578Y-52355861D01*
X54835578Y-52189693D01*
X54953009Y-52072262D01*
X55110578Y-51691856D01*
X55110578Y-51280108D01*
X54953009Y-50899702D01*
X54661858Y-50608551D01*
X54281452Y-50450982D01*
X53897459Y-50450982D01*
X53719738Y-50273261D01*
X53339332Y-50115692D01*
X52927584Y-50115692D01*
X52547178Y-50273261D01*
X52528439Y-50292000D01*
X52197000Y-50292000D01*
X52197000Y-50706916D01*
X52098458Y-50944818D01*
X52098458Y-51356566D01*
X52256027Y-51736972D01*
X52373458Y-51854403D01*
X52373459Y-52080830D01*
X52208569Y-52245720D01*
X52051000Y-52626126D01*
X49926866Y-52626126D01*
X50172926Y-52524205D01*
X50492207Y-52204924D01*
X50665000Y-51787764D01*
X50665000Y-51336232D01*
X50492207Y-50919072D01*
X50365000Y-50791865D01*
X50365000Y-50510867D01*
X50585000Y-50290867D01*
X50585000Y-50292002D01*
X50749844Y-50292002D01*
X50628524Y-50521890D01*
X50798355Y-50931924D01*
X51188642Y-51360183D01*
X51713108Y-51606486D01*
X51943000Y-51485819D01*
X51943000Y-50292000D01*
X51923000Y-50292000D01*
X51923000Y-50038000D01*
X51943000Y-50038000D01*
X51943000Y-50018000D01*
X52197000Y-50018000D01*
X52197000Y-50038000D01*
X53390155Y-50038000D01*
X53511476Y-49808110D01*
X53341645Y-49398076D01*
X53311502Y-49365000D01*
X55067560Y-49365000D01*
X55067560Y-50965000D01*
X55116843Y-51212765D01*
X55257191Y-51422809D01*
X55467235Y-51563157D01*
X55715000Y-51612440D01*
X57315000Y-51612440D01*
X57562765Y-51563157D01*
X57772809Y-51422809D01*
X57913157Y-51212765D01*
X57921117Y-51172745D01*
X58186861Y-51172745D01*
X58260995Y-51418864D01*
X58798223Y-51611965D01*
X59368454Y-51584778D01*
X59769005Y-51418864D01*
X59843139Y-51172745D01*
X59015000Y-50344605D01*
X58186861Y-51172745D01*
X57921117Y-51172745D01*
X57959693Y-50978813D01*
X58007255Y-50993139D01*
X58835395Y-50165000D01*
X59194605Y-50165000D01*
X60022745Y-50993139D01*
X60268864Y-50919005D01*
X60461965Y-50381777D01*
X60434778Y-49811546D01*
X60268864Y-49410995D01*
X60022745Y-49336861D01*
X59194605Y-50165000D01*
X58835395Y-50165000D01*
X58007255Y-49336861D01*
X57959693Y-49351187D01*
X57921118Y-49157255D01*
X58186861Y-49157255D01*
X59015000Y-49985395D01*
X59843139Y-49157255D01*
X59769005Y-48911136D01*
X59231777Y-48718035D01*
X58661546Y-48745222D01*
X58260995Y-48911136D01*
X58186861Y-49157255D01*
X57921118Y-49157255D01*
X57913157Y-49117235D01*
X57772809Y-48907191D01*
X57562765Y-48766843D01*
X57315000Y-48717560D01*
X55715000Y-48717560D01*
X55467235Y-48766843D01*
X55257191Y-48907191D01*
X55116843Y-49117235D01*
X55067560Y-49365000D01*
X53311502Y-49365000D01*
X52951358Y-48969817D01*
X52821522Y-48908843D01*
X53140625Y-48695625D01*
X53468839Y-48204418D01*
X53584092Y-47625000D01*
X53468839Y-47045582D01*
X53140625Y-46554375D01*
X52842239Y-46355000D01*
X53140625Y-46155625D01*
X53468839Y-45664418D01*
X53584092Y-45085000D01*
X53468839Y-44505582D01*
X53140625Y-44014375D01*
X52842239Y-43815000D01*
X53140625Y-43615625D01*
X53468839Y-43124418D01*
X53584092Y-42545000D01*
X53468839Y-41965582D01*
X53140625Y-41474375D01*
X52821522Y-41261157D01*
X52951358Y-41200183D01*
X53341645Y-40771924D01*
X53511476Y-40361890D01*
X53390155Y-40132000D01*
X52197000Y-40132000D01*
X52197000Y-40152000D01*
X51943000Y-40152000D01*
X51943000Y-40132000D01*
X50749845Y-40132000D01*
X50628524Y-40361890D01*
X50798355Y-40771924D01*
X51188642Y-41200183D01*
X51318478Y-41261157D01*
X50999375Y-41474375D01*
X50671161Y-41965582D01*
X50555908Y-42545000D01*
X50671161Y-43124418D01*
X50999375Y-43615625D01*
X51297761Y-43815000D01*
X50999375Y-44014375D01*
X50671161Y-44505582D01*
X50555908Y-45085000D01*
X50671161Y-45664418D01*
X50999375Y-46155625D01*
X51297761Y-46355000D01*
X50999375Y-46554375D01*
X50671161Y-47045582D01*
X50555908Y-47625000D01*
X50611193Y-47902938D01*
X48997720Y-49516413D01*
X48927999Y-49562999D01*
X48743448Y-49839200D01*
X48695000Y-50082764D01*
X48695000Y-50082767D01*
X48678643Y-50165000D01*
X48695000Y-50247234D01*
X48695000Y-50791865D01*
X48567793Y-50919072D01*
X48395000Y-51336232D01*
X42729943Y-51336232D01*
X42496280Y-51102569D01*
X42115874Y-50945000D01*
X41704126Y-50945000D01*
X41323720Y-51102569D01*
X41032569Y-51393720D01*
X40875000Y-51774126D01*
X40875000Y-52185874D01*
X41032569Y-52566280D01*
X41323720Y-52857431D01*
X41612366Y-52976992D01*
X41528506Y-53179449D01*
X41203917Y-53045000D01*
X40076083Y-53045000D01*
X39034101Y-53476603D01*
X38236603Y-54274101D01*
X37805000Y-55316083D01*
X31907890Y-55316083D01*
X31781310Y-55010493D01*
X31349507Y-54578690D01*
X30785330Y-54345000D01*
X30174670Y-54345000D01*
X29610493Y-54578690D01*
X29178690Y-55010493D01*
X28945000Y-55574670D01*
X28945000Y-56185330D01*
X29178690Y-56749507D01*
X29559183Y-57130000D01*
X29178690Y-57510493D01*
X29133331Y-57620000D01*
X28929802Y-57620000D01*
X26875000Y-55565199D01*
X26875000Y-47009000D01*
X27129874Y-47009000D01*
X27510280Y-46851431D01*
X27801431Y-46560280D01*
X27959000Y-46179874D01*
X27959000Y-45768126D01*
X27812595Y-45414670D01*
X28945000Y-45414670D01*
X28945000Y-46025330D01*
X29178690Y-46589507D01*
X29559183Y-46970000D01*
X29178690Y-47350493D01*
X28945000Y-47914670D01*
X28945000Y-48525330D01*
X29178690Y-49089507D01*
X29559183Y-49470000D01*
X29178690Y-49850493D01*
X28945000Y-50414670D01*
X28945000Y-51025330D01*
X29178690Y-51589507D01*
X29610493Y-52021310D01*
X30174670Y-52255000D01*
X30785330Y-52255000D01*
X31349507Y-52021310D01*
X31781310Y-51589507D01*
X32015000Y-51025330D01*
X32015000Y-50414670D01*
X31781310Y-49850493D01*
X31400817Y-49470000D01*
X31781310Y-49089507D01*
X32015000Y-48525330D01*
X32015000Y-47914670D01*
X31781310Y-47350493D01*
X31400817Y-46970000D01*
X31781310Y-46589507D01*
X32015000Y-46025330D01*
X32015000Y-45414670D01*
X31781310Y-44850493D01*
X31349507Y-44418690D01*
X30785330Y-44185000D01*
X30174670Y-44185000D01*
X29610493Y-44418690D01*
X29178690Y-44850493D01*
X28945000Y-45414670D01*
X27812595Y-45414670D01*
X27801431Y-45387720D01*
X27684000Y-45270289D01*
X27684000Y-44391711D01*
X27826084Y-44249627D01*
X27983653Y-43869221D01*
X27983653Y-43457473D01*
X27826084Y-43077067D01*
X27650583Y-42901566D01*
X28231153Y-42661086D01*
X28464707Y-42427532D01*
X33952073Y-42427532D01*
X34050736Y-42694387D01*
X34660461Y-42920908D01*
X35310460Y-42896856D01*
X35799264Y-42694387D01*
X35897927Y-42427532D01*
X34925000Y-41454605D01*
X33952073Y-42427532D01*
X28464707Y-42427532D01*
X28691086Y-42201153D01*
X28940000Y-41600222D01*
X28940000Y-41010461D01*
X33279092Y-41010461D01*
X33303144Y-41660460D01*
X33505613Y-42149264D01*
X33772468Y-42247927D01*
X34745395Y-41275000D01*
X35104605Y-41275000D01*
X36077532Y-42247927D01*
X36344387Y-42149264D01*
X36570908Y-41539539D01*
X36546856Y-40889540D01*
X36344387Y-40400736D01*
X36077532Y-40302073D01*
X35104605Y-41275000D01*
X34745395Y-41275000D01*
X33772468Y-40302073D01*
X33505613Y-40400736D01*
X33279092Y-41010461D01*
X28940000Y-41010461D01*
X28940000Y-40949778D01*
X28691086Y-40348847D01*
X28464707Y-40122468D01*
X33952073Y-40122468D01*
X34925000Y-41095395D01*
X35897927Y-40122468D01*
X35799264Y-39855613D01*
X35189539Y-39629092D01*
X34539540Y-39653144D01*
X34050736Y-39855613D01*
X33952073Y-40122468D01*
X28464707Y-40122468D01*
X28231153Y-39888914D01*
X27630222Y-39640000D01*
X26979778Y-39640000D01*
X26797000Y-39715709D01*
X26797000Y-37754291D01*
X26979778Y-37830000D01*
X27630222Y-37830000D01*
X28231153Y-37581086D01*
X28691086Y-37121153D01*
X28940000Y-36520222D01*
X28940000Y-35869778D01*
X33290000Y-35869778D01*
X33290000Y-36520222D01*
X33538914Y-37121153D01*
X33998847Y-37581086D01*
X34599778Y-37830000D01*
X35250222Y-37830000D01*
X35851153Y-37581086D01*
X36311086Y-37121153D01*
X36402242Y-36901083D01*
X37805000Y-36901083D01*
X37805000Y-38028917D01*
X38236603Y-39070899D01*
X39034101Y-39868397D01*
X40076083Y-40300000D01*
X41203917Y-40300000D01*
X42245899Y-39868397D01*
X43043397Y-39070899D01*
X43475000Y-38028917D01*
X43475000Y-36901083D01*
X43356501Y-36615000D01*
X50572560Y-36615000D01*
X50572560Y-38315000D01*
X50621843Y-38562765D01*
X50762191Y-38772809D01*
X50972235Y-38913157D01*
X51075708Y-38933739D01*
X50798355Y-39238076D01*
X50628524Y-39648110D01*
X50749845Y-39878000D01*
X51943000Y-39878000D01*
X51943000Y-39858000D01*
X52197000Y-39858000D01*
X52197000Y-39878000D01*
X53390155Y-39878000D01*
X53473768Y-39719561D01*
X55120000Y-39719561D01*
X55120000Y-40290439D01*
X55338466Y-40817862D01*
X55742138Y-41221534D01*
X56269561Y-41440000D01*
X56840439Y-41440000D01*
X57367862Y-41221534D01*
X57631155Y-40958241D01*
X57716673Y-41164699D01*
X57895302Y-41343327D01*
X58128691Y-41440000D01*
X58769250Y-41440000D01*
X58928000Y-41281250D01*
X58928000Y-40132000D01*
X59182000Y-40132000D01*
X59182000Y-41281250D01*
X59340750Y-41440000D01*
X59981309Y-41440000D01*
X60214698Y-41343327D01*
X60393327Y-41164699D01*
X60490000Y-40931310D01*
X60490000Y-40290750D01*
X60331250Y-40132000D01*
X59182000Y-40132000D01*
X58928000Y-40132000D01*
X58908000Y-40132000D01*
X58908000Y-39878000D01*
X58928000Y-39878000D01*
X58928000Y-38728750D01*
X59182000Y-38728750D01*
X59182000Y-39878000D01*
X60331250Y-39878000D01*
X60490000Y-39719250D01*
X60490000Y-39078690D01*
X60393327Y-38845301D01*
X60214698Y-38666673D01*
X59981309Y-38570000D01*
X59340750Y-38570000D01*
X59182000Y-38728750D01*
X58928000Y-38728750D01*
X58769250Y-38570000D01*
X58128691Y-38570000D01*
X57895302Y-38666673D01*
X57716673Y-38845301D01*
X57631155Y-39051759D01*
X57367862Y-38788466D01*
X56840439Y-38570000D01*
X56269561Y-38570000D01*
X55742138Y-38788466D01*
X55338466Y-39192138D01*
X55120000Y-39719561D01*
X53473768Y-39719561D01*
X53511476Y-39648110D01*
X53341645Y-39238076D01*
X53064292Y-38933739D01*
X53167765Y-38913157D01*
X53377809Y-38772809D01*
X53518157Y-38562765D01*
X53567440Y-38315000D01*
X53567440Y-36615000D01*
X53518157Y-36367235D01*
X53377809Y-36157191D01*
X53167765Y-36016843D01*
X52920000Y-35967560D01*
X51220000Y-35967560D01*
X50972235Y-36016843D01*
X50762191Y-36157191D01*
X50621843Y-36367235D01*
X50572560Y-36615000D01*
X43356501Y-36615000D01*
X43043397Y-35859101D01*
X42245899Y-35061603D01*
X41203917Y-34630000D01*
X40076083Y-34630000D01*
X39034101Y-35061603D01*
X38236603Y-35859101D01*
X37805000Y-36901083D01*
X36402242Y-36901083D01*
X36560000Y-36520222D01*
X36560000Y-35869778D01*
X36311086Y-35268847D01*
X35851153Y-34808914D01*
X35250222Y-34560000D01*
X34599778Y-34560000D01*
X33998847Y-34808914D01*
X33538914Y-35268847D01*
X33290000Y-35869778D01*
X28940000Y-35869778D01*
X28691086Y-35268847D01*
X28231153Y-34808914D01*
X27630222Y-34560000D01*
X26979778Y-34560000D01*
X26797000Y-34635709D01*
X26797000Y-33944291D01*
X26979778Y-34020000D01*
X27630222Y-34020000D01*
X28231153Y-33771086D01*
X28464707Y-33537532D01*
X33952073Y-33537532D01*
X34050736Y-33804387D01*
X34660461Y-34030908D01*
X35310460Y-34006856D01*
X35799264Y-33804387D01*
X35897927Y-33537532D01*
X34925000Y-32564605D01*
X33952073Y-33537532D01*
X28464707Y-33537532D01*
X28691086Y-33311153D01*
X28940000Y-32710222D01*
X28940000Y-32120461D01*
X33279092Y-32120461D01*
X33303144Y-32770460D01*
X33505613Y-33259264D01*
X33772468Y-33357927D01*
X34745395Y-32385000D01*
X35104605Y-32385000D01*
X36077532Y-33357927D01*
X36344387Y-33259264D01*
X36570908Y-32649539D01*
X36546856Y-31999540D01*
X36344387Y-31510736D01*
X36077532Y-31412073D01*
X35104605Y-32385000D01*
X34745395Y-32385000D01*
X33772468Y-31412073D01*
X33505613Y-31510736D01*
X33279092Y-32120461D01*
X28940000Y-32120461D01*
X28940000Y-32059778D01*
X28691086Y-31458847D01*
X28464707Y-31232468D01*
X33952073Y-31232468D01*
X34925000Y-32205395D01*
X35897927Y-31232468D01*
X35807235Y-30987171D01*
X53950000Y-30987171D01*
X53950000Y-32512829D01*
X54533844Y-33922353D01*
X55612647Y-35001156D01*
X57022171Y-35585000D01*
X58547829Y-35585000D01*
X59957353Y-35001156D01*
X61036156Y-33922353D01*
X61620000Y-32512829D01*
X61620000Y-30987171D01*
X61036156Y-29577647D01*
X59957353Y-28498844D01*
X58547829Y-27915000D01*
X57022171Y-27915000D01*
X55612647Y-28498844D01*
X54533844Y-29577647D01*
X53950000Y-30987171D01*
X35807235Y-30987171D01*
X35799264Y-30965613D01*
X35189539Y-30739092D01*
X34539540Y-30763144D01*
X34050736Y-30965613D01*
X33952073Y-31232468D01*
X28464707Y-31232468D01*
X28231153Y-30998914D01*
X27630222Y-30750000D01*
X26979778Y-30750000D01*
X26797000Y-30825709D01*
X26797000Y-28864291D01*
X26979778Y-28940000D01*
X27630222Y-28940000D01*
X28231153Y-28691086D01*
X28691086Y-28231153D01*
X28940000Y-27630222D01*
X28940000Y-26979778D01*
X28864291Y-26797000D01*
X33365709Y-26797000D01*
X33290000Y-26979778D01*
G36*
X119770908Y-27305000D02*
X119886161Y-27884418D01*
X120214375Y-28375625D01*
X120512761Y-28575000D01*
X120214375Y-28774375D01*
X119886161Y-29265582D01*
X119770908Y-29845000D01*
X119886161Y-30424418D01*
X120214375Y-30915625D01*
X120512761Y-31115000D01*
X120214375Y-31314375D01*
X119886161Y-31805582D01*
X119770908Y-32385000D01*
X119886161Y-32964418D01*
X120214375Y-33455625D01*
X120512761Y-33655000D01*
X120214375Y-33854375D01*
X119886161Y-34345582D01*
X119770908Y-34925000D01*
X119886161Y-35504418D01*
X120214375Y-35995625D01*
X120236033Y-36010096D01*
X120075302Y-36076673D01*
X119896673Y-36255301D01*
X119800000Y-36488690D01*
X119800000Y-37179250D01*
X119958750Y-37338000D01*
X121158000Y-37338000D01*
X121158000Y-37318000D01*
X121412000Y-37318000D01*
X121412000Y-37338000D01*
X122611250Y-37338000D01*
X122770000Y-37179250D01*
X122770000Y-36488690D01*
X122673327Y-36255301D01*
X122494698Y-36076673D01*
X122333967Y-36010096D01*
X122355625Y-35995625D01*
X122683839Y-35504418D01*
X122799092Y-34925000D01*
X122683839Y-34345582D01*
X122355625Y-33854375D01*
X122057239Y-33655000D01*
X122355625Y-33455625D01*
X122683839Y-32964418D01*
X122799092Y-32385000D01*
X122683839Y-31805582D01*
X122355625Y-31314375D01*
X122057239Y-31115000D01*
X122355625Y-30915625D01*
X122683839Y-30424418D01*
X122799092Y-29845000D01*
X122683839Y-29265582D01*
X122355625Y-28774375D01*
X122057239Y-28575000D01*
X122355625Y-28375625D01*
X122683839Y-27884418D01*
X122799092Y-27305000D01*
X122698045Y-26797000D01*
X124333000Y-26797000D01*
X124333000Y-39746525D01*
X123769222Y-39513000D01*
X123118778Y-39513000D01*
X122517847Y-39761914D01*
X122057914Y-40221847D01*
X121809000Y-40822778D01*
X121809000Y-41473222D01*
X122057914Y-42074153D01*
X122517847Y-42534086D01*
X123118778Y-42783000D01*
X123769222Y-42783000D01*
X124333000Y-42549475D01*
X124333000Y-44826525D01*
X123769222Y-44593000D01*
X123118778Y-44593000D01*
X122517847Y-44841914D01*
X122057914Y-45301847D01*
X121809000Y-45902778D01*
X121809000Y-46553222D01*
X122057914Y-47154153D01*
X122517847Y-47614086D01*
X123118778Y-47863000D01*
X123769222Y-47863000D01*
X124333000Y-47629475D01*
X124333000Y-87442207D01*
X124272767Y-87381974D01*
X123579950Y-87095000D01*
X122830050Y-87095000D01*
X122137233Y-87381974D01*
X121606974Y-87912233D01*
X121320000Y-88605050D01*
X121320000Y-89354950D01*
X121606974Y-90047767D01*
X122137233Y-90578026D01*
X122830050Y-90865000D01*
X123579950Y-90865000D01*
X124272767Y-90578026D01*
X124333000Y-90517793D01*
X124333000Y-97442207D01*
X124272767Y-97381974D01*
X123579950Y-97095000D01*
X122830050Y-97095000D01*
X122137233Y-97381974D01*
X121606974Y-97912233D01*
X121320000Y-98605050D01*
X121320000Y-99354950D01*
X121606974Y-100047767D01*
X122137233Y-100578026D01*
X122830050Y-100865000D01*
X123579950Y-100865000D01*
X124272767Y-100578026D01*
X124333000Y-100517793D01*
X124333000Y-107762207D01*
X124272767Y-107701974D01*
X123579950Y-107415000D01*
X122830050Y-107415000D01*
X122137233Y-107701974D01*
X121606974Y-108232233D01*
X121320000Y-108925050D01*
X121320000Y-109674950D01*
X121606974Y-110367767D01*
X122137233Y-110898026D01*
X122830050Y-111185000D01*
X123579950Y-111185000D01*
X124272767Y-110898026D01*
X124333000Y-110837793D01*
X124333000Y-117762207D01*
X124272767Y-117701974D01*
X123579950Y-117415000D01*
X122830050Y-117415000D01*
X122137233Y-117701974D01*
X121606974Y-118232233D01*
X121320000Y-118925050D01*
X121320000Y-119674950D01*
X121606974Y-120367767D01*
X122137233Y-120898026D01*
X122830050Y-121185000D01*
X123579950Y-121185000D01*
X124272767Y-120898026D01*
X124333000Y-120837793D01*
X124333000Y-124333000D01*
X100824789Y-124333000D01*
X101867353Y-123901156D01*
X102946156Y-122822353D01*
X103530000Y-121412829D01*
X103530000Y-120633320D01*
X109551285Y-120633320D01*
X109680533Y-120926123D01*
X110380806Y-121194388D01*
X111130435Y-121174250D01*
X111484660Y-121027525D01*
X111320000Y-121425050D01*
X111320000Y-122174950D01*
X111606974Y-122867767D01*
X112137233Y-123398026D01*
X112830050Y-123685000D01*
X113579950Y-123685000D01*
X114272767Y-123398026D01*
X114803026Y-122867767D01*
X115090000Y-122174950D01*
X115090000Y-121425050D01*
X114803026Y-120732233D01*
X114272767Y-120201974D01*
X113579950Y-119915000D01*
X112830050Y-119915000D01*
X112423468Y-120083412D01*
X112599388Y-119624194D01*
X112579250Y-118874565D01*
X112331123Y-118275533D01*
X112038320Y-118146285D01*
X110884605Y-119300000D01*
X110898748Y-119314143D01*
X110719143Y-119493748D01*
X110705000Y-119479605D01*
X109551285Y-120633320D01*
X103530000Y-120633320D01*
X103530000Y-119887171D01*
X103152501Y-118975806D01*
X108810612Y-118975806D01*
X108830750Y-119725435D01*
X109078877Y-120324467D01*
X109371680Y-120453715D01*
X110525395Y-119300000D01*
X109371680Y-118146285D01*
X109078877Y-118275533D01*
X108810612Y-118975806D01*
X103152501Y-118975806D01*
X102946156Y-118477647D01*
X102435189Y-117966680D01*
X109551285Y-117966680D01*
X110705000Y-119120395D01*
X111858715Y-117966680D01*
X111729467Y-117673877D01*
X111029194Y-117405612D01*
X110279565Y-117425750D01*
X109680533Y-117673877D01*
X109551285Y-117966680D01*
X102435189Y-117966680D01*
X101867353Y-117398844D01*
X100457829Y-116815000D01*
X98932171Y-116815000D01*
X97522647Y-117398844D01*
X96443844Y-118477647D01*
X95860000Y-119887171D01*
X95860000Y-121412829D01*
X96443844Y-122822353D01*
X97522647Y-123901156D01*
X98565211Y-124333000D01*
X66167000Y-124333000D01*
X66167000Y-121385522D01*
X66318108Y-121456486D01*
X66548000Y-121335819D01*
X66548000Y-120142000D01*
X66802000Y-120142000D01*
X66802000Y-121335819D01*
X67031892Y-121456486D01*
X67556358Y-121210183D01*
X67946645Y-120781924D01*
X68116476Y-120371890D01*
X67995155Y-120142000D01*
X66802000Y-120142000D01*
X66548000Y-120142000D01*
X66528000Y-120142000D01*
X66528000Y-119888000D01*
X66548000Y-119888000D01*
X66548000Y-119868000D01*
X66802000Y-119868000D01*
X66802000Y-119888000D01*
X67995155Y-119888000D01*
X68116476Y-119658110D01*
X67946645Y-119248076D01*
X67828987Y-119118970D01*
X75145000Y-119118970D01*
X75145000Y-120941031D01*
X75239865Y-121417945D01*
X75601232Y-121958769D01*
X76142056Y-122320136D01*
X76780000Y-122447031D01*
X77417945Y-122320136D01*
X77958769Y-121958769D01*
X78320136Y-121417945D01*
X78415000Y-120941031D01*
X78415000Y-119410434D01*
X79039876Y-119410434D01*
X79070856Y-119538355D01*
X79384078Y-120096317D01*
X79886980Y-120491942D01*
X80503000Y-120665000D01*
X80825566Y-120665000D01*
X80467138Y-120813466D01*
X80063466Y-121217138D01*
X79845000Y-121744561D01*
X79845000Y-122315439D01*
X80063466Y-122842862D01*
X80467138Y-123246534D01*
X80994561Y-123465000D01*
X81565439Y-123465000D01*
X82092862Y-123246534D01*
X82496534Y-122842862D01*
X82715000Y-122315439D01*
X82715000Y-121744561D01*
X82496534Y-121217138D01*
X82092862Y-120813466D01*
X81734434Y-120665000D01*
X82057000Y-120665000D01*
X82673020Y-120491942D01*
X83175922Y-120096317D01*
X83489144Y-119538355D01*
X83520124Y-119410434D01*
X83400777Y-119157000D01*
X81407000Y-119157000D01*
X81407000Y-119177000D01*
X81153000Y-119177000D01*
X81153000Y-119157000D01*
X79159223Y-119157000D01*
X79039876Y-119410434D01*
X78415000Y-119410434D01*
X78415000Y-119118970D01*
X84145000Y-119118970D01*
X84145000Y-120941031D01*
X84239865Y-121417945D01*
X84601232Y-121958769D01*
X85142056Y-122320136D01*
X85780000Y-122447031D01*
X86417945Y-122320136D01*
X86958769Y-121958769D01*
X87320136Y-121417945D01*
X87415000Y-120941031D01*
X87415000Y-119118969D01*
X87320136Y-118642055D01*
X86958769Y-118101231D01*
X86417944Y-117739864D01*
X85780000Y-117612969D01*
X85142055Y-117739864D01*
X84601231Y-118101231D01*
X84239864Y-118642056D01*
X84145000Y-119118970D01*
X78415000Y-119118970D01*
X78415000Y-119118969D01*
X78321631Y-118649566D01*
X79039876Y-118649566D01*
X79159223Y-118903000D01*
X81153000Y-118903000D01*
X81153000Y-117395000D01*
X81407000Y-117395000D01*
X81407000Y-118903000D01*
X83400777Y-118903000D01*
X83520124Y-118649566D01*
X83489144Y-118521645D01*
X83175922Y-117963683D01*
X82673020Y-117568058D01*
X82057000Y-117395000D01*
X81407000Y-117395000D01*
X81153000Y-117395000D01*
X80503000Y-117395000D01*
X79886980Y-117568058D01*
X79384078Y-117963683D01*
X79070856Y-118521645D01*
X79039876Y-118649566D01*
X78321631Y-118649566D01*
X78320136Y-118642055D01*
X77958769Y-118101231D01*
X77417944Y-117739864D01*
X76780000Y-117612969D01*
X76142055Y-117739864D01*
X75601231Y-118101231D01*
X75239864Y-118642056D01*
X75145000Y-119118970D01*
X67828987Y-119118970D01*
X67556358Y-118819817D01*
X67426522Y-118758843D01*
X67745625Y-118545625D01*
X68073839Y-118054418D01*
X68189092Y-117475000D01*
X68073839Y-116895582D01*
X67745625Y-116404375D01*
X67447239Y-116205000D01*
X67745625Y-116005625D01*
X67898337Y-115777075D01*
X67945000Y-115786357D01*
X68027233Y-115770000D01*
X68027237Y-115770000D01*
X68270801Y-115721552D01*
X68547001Y-115537001D01*
X68593587Y-115467280D01*
X69112283Y-114948585D01*
X69182001Y-114902001D01*
X69366552Y-114625801D01*
X69415000Y-114382237D01*
X69415000Y-114382236D01*
X69431358Y-114300000D01*
X69415000Y-114217763D01*
X69415000Y-112030000D01*
X78632560Y-112030000D01*
X78632560Y-114030000D01*
X78681843Y-114277765D01*
X78822191Y-114487809D01*
X79032235Y-114628157D01*
X79280000Y-114677440D01*
X83280000Y-114677440D01*
X83527765Y-114628157D01*
X83737809Y-114487809D01*
X83878157Y-114277765D01*
X83927440Y-114030000D01*
X83927440Y-113925050D01*
X111320000Y-113925050D01*
X111320000Y-114674950D01*
X111606974Y-115367767D01*
X112137233Y-115898026D01*
X112830050Y-116185000D01*
X113579950Y-116185000D01*
X114272767Y-115898026D01*
X114803026Y-115367767D01*
X115090000Y-114674950D01*
X115090000Y-113925050D01*
X114803026Y-113232233D01*
X114272767Y-112701974D01*
X113579950Y-112415000D01*
X112830050Y-112415000D01*
X112137233Y-112701974D01*
X111606974Y-113232233D01*
X111320000Y-113925050D01*
X83927440Y-113925050D01*
X83927440Y-112030000D01*
X83878157Y-111782235D01*
X83737809Y-111572191D01*
X83527765Y-111431843D01*
X83280000Y-111382560D01*
X79280000Y-111382560D01*
X79032235Y-111431843D01*
X78822191Y-111572191D01*
X78681843Y-111782235D01*
X78632560Y-112030000D01*
X69415000Y-112030000D01*
X69415000Y-112022133D01*
X69542207Y-111894926D01*
X69715000Y-111477766D01*
X69715000Y-111026234D01*
X69542207Y-110609074D01*
X69222926Y-110289793D01*
X68805766Y-110117000D01*
X68354234Y-110117000D01*
X67937074Y-110289793D01*
X67617793Y-110609074D01*
X67498298Y-110897560D01*
X66167000Y-110897560D01*
X66167000Y-108925050D01*
X108820000Y-108925050D01*
X108820000Y-109674950D01*
X109106974Y-110367767D01*
X109637233Y-110898026D01*
X110330050Y-111185000D01*
X111079950Y-111185000D01*
X111772767Y-110898026D01*
X112303026Y-110367767D01*
X112590000Y-109674950D01*
X112590000Y-108925050D01*
X112420259Y-108515259D01*
X112830050Y-108685000D01*
X113579950Y-108685000D01*
X114272767Y-108398026D01*
X114803026Y-107867767D01*
X115090000Y-107174950D01*
X115090000Y-106425050D01*
X114803026Y-105732233D01*
X114272767Y-105201974D01*
X113579950Y-104915000D01*
X112830050Y-104915000D01*
X112137233Y-105201974D01*
X111606974Y-105732233D01*
X111320000Y-106425050D01*
X111320000Y-107174950D01*
X111489741Y-107584741D01*
X111079950Y-107415000D01*
X110330050Y-107415000D01*
X109637233Y-107701974D01*
X109106974Y-108232233D01*
X108820000Y-108925050D01*
X66167000Y-108925050D01*
X66167000Y-104973049D01*
X78309585Y-104973049D01*
X78309585Y-105424581D01*
X78482378Y-105841741D01*
X78801659Y-106161022D01*
X79218819Y-106333815D01*
X79670351Y-106333815D01*
X79832560Y-106266626D01*
X79832560Y-107480000D01*
X79881843Y-107727765D01*
X80022191Y-107937809D01*
X80232235Y-108078157D01*
X80480000Y-108127440D01*
X82080000Y-108127440D01*
X82327765Y-108078157D01*
X82537809Y-107937809D01*
X82678157Y-107727765D01*
X82686117Y-107687745D01*
X82951861Y-107687745D01*
X83025995Y-107933864D01*
X83563223Y-108126965D01*
X84133454Y-108099778D01*
X84534005Y-107933864D01*
X84608139Y-107687745D01*
X83780000Y-106859605D01*
X82951861Y-107687745D01*
X82686117Y-107687745D01*
X82724693Y-107493813D01*
X82772255Y-107508139D01*
X83600395Y-106680000D01*
X83959605Y-106680000D01*
X84787745Y-107508139D01*
X85033864Y-107434005D01*
X85226965Y-106896777D01*
X85199778Y-106326546D01*
X85033864Y-105925995D01*
X84787745Y-105851861D01*
X83959605Y-106680000D01*
X83600395Y-106680000D01*
X82772255Y-105851861D01*
X82724693Y-105866187D01*
X82686118Y-105672255D01*
X82951861Y-105672255D01*
X83780000Y-106500395D01*
X84608139Y-105672255D01*
X84534005Y-105426136D01*
X83996777Y-105233035D01*
X83426546Y-105260222D01*
X83025995Y-105426136D01*
X82951861Y-105672255D01*
X82686118Y-105672255D01*
X82678157Y-105632235D01*
X82537809Y-105422191D01*
X82327765Y-105281843D01*
X82080000Y-105232560D01*
X80591707Y-105232560D01*
X81057268Y-104767000D01*
X81251766Y-104767000D01*
X81668926Y-104594207D01*
X81988207Y-104274926D01*
X82161000Y-103857766D01*
X82161000Y-103406234D01*
X81988207Y-102989074D01*
X81668926Y-102669793D01*
X81251766Y-102497000D01*
X80800234Y-102497000D01*
X80383074Y-102669793D01*
X80063793Y-102989074D01*
X79891000Y-103406234D01*
X79891000Y-103571532D01*
X79398718Y-104063815D01*
X79218819Y-104063815D01*
X78801659Y-104236608D01*
X78482378Y-104555889D01*
X78309585Y-104973049D01*
X66167000Y-104973049D01*
X66167000Y-98605050D01*
X108820000Y-98605050D01*
X108820000Y-99354950D01*
X109106974Y-100047767D01*
X109637233Y-100578026D01*
X110330050Y-100865000D01*
X111079950Y-100865000D01*
X111489741Y-100695259D01*
X111320000Y-101105050D01*
X111320000Y-101854950D01*
X111606974Y-102547767D01*
X112137233Y-103078026D01*
X112830050Y-103365000D01*
X113579950Y-103365000D01*
X114272767Y-103078026D01*
X114803026Y-102547767D01*
X115090000Y-101854950D01*
X115090000Y-101105050D01*
X114803026Y-100412233D01*
X114272767Y-99881974D01*
X113579950Y-99595000D01*
X112830050Y-99595000D01*
X112420259Y-99764741D01*
X112590000Y-99354950D01*
X112590000Y-98605050D01*
X112303026Y-97912233D01*
X111772767Y-97381974D01*
X111079950Y-97095000D01*
X110330050Y-97095000D01*
X109637233Y-97381974D01*
X109106974Y-97912233D01*
X108820000Y-98605050D01*
X66167000Y-98605050D01*
X66167000Y-92414126D01*
X91421000Y-92414126D01*
X91421000Y-92825874D01*
X91578569Y-93206280D01*
X91696000Y-93323711D01*
X91696001Y-95683148D01*
X91681112Y-95758000D01*
X91740097Y-96054537D01*
X91767436Y-96095452D01*
X91908072Y-96305929D01*
X91971528Y-96348329D01*
X92605517Y-96982319D01*
X92605520Y-96982321D01*
X93199000Y-97575802D01*
X93199000Y-97741874D01*
X93356569Y-98122280D01*
X93647720Y-98413431D01*
X94028126Y-98571000D01*
X94439874Y-98571000D01*
X94820280Y-98413431D01*
X95111431Y-98122280D01*
X95269000Y-97741874D01*
X95269000Y-97330126D01*
X95256549Y-97300066D01*
X95574909Y-97236740D01*
X96049577Y-96919577D01*
X96366740Y-96444909D01*
X96478113Y-95885000D01*
X96366740Y-95325091D01*
X96049577Y-94850423D01*
X95697242Y-94615000D01*
X96049577Y-94379577D01*
X96366740Y-93904909D01*
X96478113Y-93345000D01*
X100371887Y-93345000D01*
X100483260Y-93904909D01*
X100800423Y-94379577D01*
X100921106Y-94460215D01*
X100787235Y-94486843D01*
X100577191Y-94627191D01*
X100436843Y-94837235D01*
X100387560Y-95085000D01*
X100387560Y-96685000D01*
X100436843Y-96932765D01*
X100577191Y-97142809D01*
X100787235Y-97283157D01*
X101035000Y-97332440D01*
X103435000Y-97332440D01*
X103682765Y-97283157D01*
X103892809Y-97142809D01*
X104033157Y-96932765D01*
X104082440Y-96685000D01*
X104082440Y-95085000D01*
X104033157Y-94837235D01*
X103892809Y-94627191D01*
X103682765Y-94486843D01*
X103548894Y-94460215D01*
X103669577Y-94379577D01*
X103986740Y-93904909D01*
X104046385Y-93605050D01*
X111320000Y-93605050D01*
X111320000Y-94354950D01*
X111606974Y-95047767D01*
X112137233Y-95578026D01*
X112830050Y-95865000D01*
X113579950Y-95865000D01*
X114272767Y-95578026D01*
X114803026Y-95047767D01*
X115090000Y-94354950D01*
X115090000Y-93605050D01*
X114803026Y-92912233D01*
X114272767Y-92381974D01*
X113579950Y-92095000D01*
X112830050Y-92095000D01*
X112137233Y-92381974D01*
X111606974Y-92912233D01*
X111320000Y-93605050D01*
X104046385Y-93605050D01*
X104098113Y-93345000D01*
X103986740Y-92785091D01*
X103669577Y-92310423D01*
X103194909Y-91993260D01*
X102776333Y-91910000D01*
X101693667Y-91910000D01*
X101275091Y-91993260D01*
X100800423Y-92310423D01*
X100483260Y-92785091D01*
X100371887Y-93345000D01*
X96478113Y-93345000D01*
X96366740Y-92785091D01*
X96049577Y-92310423D01*
X95574909Y-91993260D01*
X95156333Y-91910000D01*
X94073667Y-91910000D01*
X93655091Y-91993260D01*
X93390032Y-92170367D01*
X93333431Y-92033720D01*
X93042280Y-91742569D01*
X92661874Y-91585000D01*
X92250126Y-91585000D01*
X91869720Y-91742569D01*
X91578569Y-92033720D01*
X91421000Y-92414126D01*
X66167000Y-92414126D01*
X66167000Y-85090000D01*
X71434887Y-85090000D01*
X71546260Y-85649909D01*
X71863423Y-86124577D01*
X72338091Y-86441740D01*
X72756667Y-86525000D01*
X73039333Y-86525000D01*
X73457909Y-86441740D01*
X73932577Y-86124577D01*
X74249740Y-85649909D01*
X74361113Y-85090000D01*
X74249740Y-84530091D01*
X73932577Y-84055423D01*
X73548892Y-83799053D01*
X73753134Y-83702389D01*
X74129041Y-83287423D01*
X74289904Y-82899039D01*
X74167915Y-82677000D01*
X73025000Y-82677000D01*
X73025000Y-82697000D01*
X72771000Y-82697000D01*
X72771000Y-82677000D01*
X71628085Y-82677000D01*
X71506096Y-82899039D01*
X71666959Y-83287423D01*
X72042866Y-83702389D01*
X72247108Y-83799053D01*
X71863423Y-84055423D01*
X71546260Y-84530091D01*
X71434887Y-85090000D01*
X66167000Y-85090000D01*
X66167000Y-65834126D01*
X70012999Y-65834126D01*
X70012999Y-66245874D01*
X70170568Y-66626280D01*
X70461719Y-66917431D01*
X70842125Y-67075000D01*
X71253873Y-67075000D01*
X71502082Y-66972189D01*
X71434887Y-67310000D01*
X71546260Y-67869909D01*
X71863423Y-68344577D01*
X72215758Y-68580000D01*
X71863423Y-68815423D01*
X71546260Y-69290091D01*
X71434887Y-69850000D01*
X71546260Y-70409909D01*
X71863423Y-70884577D01*
X72215758Y-71120000D01*
X71863423Y-71355423D01*
X71546260Y-71830091D01*
X71434887Y-72390000D01*
X71546260Y-72949909D01*
X71863423Y-73424577D01*
X72215758Y-73660000D01*
X71863423Y-73895423D01*
X71546260Y-74370091D01*
X71434887Y-74930000D01*
X71546260Y-75489909D01*
X71863423Y-75964577D01*
X72215758Y-76200000D01*
X71863423Y-76435423D01*
X71546260Y-76910091D01*
X71434887Y-77470000D01*
X71546260Y-78029909D01*
X71863423Y-78504577D01*
X72215758Y-78740000D01*
X71863423Y-78975423D01*
X71546260Y-79450091D01*
X71434887Y-80010000D01*
X71546260Y-80569909D01*
X71863423Y-81044577D01*
X72247108Y-81300947D01*
X72042866Y-81397611D01*
X71666959Y-81812577D01*
X71506096Y-82200961D01*
X71628085Y-82423000D01*
X72771000Y-82423000D01*
X72771000Y-82403000D01*
X73025000Y-82403000D01*
X73025000Y-82423000D01*
X74167915Y-82423000D01*
X74289904Y-82200961D01*
X74129041Y-81812577D01*
X73753134Y-81397611D01*
X73548892Y-81300947D01*
X73932577Y-81044577D01*
X74249740Y-80569909D01*
X74361113Y-80010000D01*
X74249740Y-79450091D01*
X73932577Y-78975423D01*
X73580242Y-78740000D01*
X73932577Y-78504577D01*
X74249740Y-78029909D01*
X74361113Y-77470000D01*
X74249740Y-76910091D01*
X73932577Y-76435423D01*
X73580242Y-76200000D01*
X73932577Y-75964577D01*
X74249740Y-75489909D01*
X74361113Y-74930000D01*
X74249740Y-74370091D01*
X73932577Y-73895423D01*
X73580242Y-73660000D01*
X73932577Y-73424577D01*
X74249740Y-72949909D01*
X74361113Y-72390000D01*
X74249740Y-71830091D01*
X73932577Y-71355423D01*
X73580242Y-71120000D01*
X73932577Y-70884577D01*
X74249740Y-70409909D01*
X74361113Y-69850000D01*
X74249740Y-69290091D01*
X73932577Y-68815423D01*
X73580242Y-68580000D01*
X73932577Y-68344577D01*
X74249740Y-67869909D01*
X74361113Y-67310000D01*
X74249740Y-66750091D01*
X73932577Y-66275423D01*
X73580242Y-66040000D01*
X73932577Y-65804577D01*
X74249740Y-65329909D01*
X74361113Y-64770000D01*
X74249740Y-64210091D01*
X73932577Y-63735423D01*
X73580242Y-63500000D01*
X73932577Y-63264577D01*
X74249740Y-62789909D01*
X74361113Y-62230000D01*
X74249740Y-61670091D01*
X73932577Y-61195423D01*
X73580242Y-60960000D01*
X73932577Y-60724577D01*
X74249740Y-60249909D01*
X74361113Y-59690000D01*
X74249740Y-59130091D01*
X73932577Y-58655423D01*
X73580242Y-58420000D01*
X73932577Y-58184577D01*
X74249740Y-57709909D01*
X74361113Y-57150000D01*
X74249740Y-56590091D01*
X73932577Y-56115423D01*
X73580242Y-55880000D01*
X73932577Y-55644577D01*
X74249740Y-55169909D01*
X74361113Y-54610000D01*
X74249740Y-54050091D01*
X73932577Y-53575423D01*
X73580242Y-53340000D01*
X73932577Y-53104577D01*
X74249740Y-52629909D01*
X74361113Y-52070000D01*
X74249740Y-51510091D01*
X73932577Y-51035423D01*
X73580242Y-50800000D01*
X73932577Y-50564577D01*
X74249740Y-50089909D01*
X74361113Y-49530000D01*
X74249740Y-48970091D01*
X73932577Y-48495423D01*
X73457909Y-48178260D01*
X73039333Y-48095000D01*
X72756667Y-48095000D01*
X72338091Y-48178260D01*
X71863423Y-48495423D01*
X71546260Y-48970091D01*
X71434887Y-49530000D01*
X71546260Y-50089909D01*
X71863423Y-50564577D01*
X72215758Y-50800000D01*
X71863423Y-51035423D01*
X71546260Y-51510091D01*
X71434887Y-52070000D01*
X71546260Y-52629909D01*
X71863423Y-53104577D01*
X72215758Y-53340000D01*
X71863423Y-53575423D01*
X71546260Y-54050091D01*
X71434887Y-54610000D01*
X71546260Y-55169909D01*
X71863423Y-55644577D01*
X72215758Y-55880000D01*
X71863423Y-56115423D01*
X71546260Y-56590091D01*
X71434887Y-57150000D01*
X71546260Y-57709909D01*
X71863423Y-58184577D01*
X72215758Y-58420000D01*
X71863423Y-58655423D01*
X71546260Y-59130091D01*
X71434887Y-59690000D01*
X71546260Y-60249909D01*
X71863423Y-60724577D01*
X72215758Y-60960000D01*
X71863423Y-61195423D01*
X71546260Y-61670091D01*
X71434887Y-62230000D01*
X71546260Y-62789909D01*
X71863423Y-63264577D01*
X72215758Y-63500000D01*
X71863423Y-63735423D01*
X71546260Y-64210091D01*
X71434887Y-64770000D01*
X71499312Y-65093887D01*
X71490277Y-65102922D01*
X71253873Y-65005000D01*
X70842125Y-65005000D01*
X70461719Y-65162569D01*
X70170568Y-65453720D01*
X70012999Y-65834126D01*
X66167000Y-65834126D01*
X66167000Y-48049473D01*
X82272347Y-48049473D01*
X82272347Y-48461221D01*
X82429916Y-48841627D01*
X82721067Y-49132778D01*
X83101473Y-49290347D01*
X83267545Y-49290347D01*
X84504326Y-50527129D01*
X84546724Y-50590582D01*
X84610177Y-50632980D01*
X84610179Y-50632982D01*
X84735555Y-50716755D01*
X84798116Y-50758557D01*
X85019801Y-50802653D01*
X85019805Y-50802653D01*
X85094652Y-50817541D01*
X85169499Y-50802653D01*
X85406942Y-50802653D01*
X85524373Y-50920084D01*
X85904779Y-51077653D01*
X86252999Y-51077653D01*
X86252999Y-51864199D01*
X86245044Y-51872154D01*
X86078972Y-51872154D01*
X85698566Y-52029723D01*
X85407415Y-52320874D01*
X85249846Y-52701280D01*
X85249846Y-53113028D01*
X85407415Y-53493434D01*
X85698566Y-53784585D01*
X86078972Y-53942154D01*
X86490720Y-53942154D01*
X86871126Y-53784585D01*
X87162277Y-53493434D01*
X87275673Y-53219671D01*
X87455758Y-53340000D01*
X87103423Y-53575423D01*
X86786260Y-54050091D01*
X86674887Y-54610000D01*
X86786260Y-55169909D01*
X87103423Y-55644577D01*
X87455758Y-55880000D01*
X87103423Y-56115423D01*
X86786260Y-56590091D01*
X86674887Y-57150000D01*
X86786260Y-57709909D01*
X87103423Y-58184577D01*
X87455758Y-58420000D01*
X87103423Y-58655423D01*
X86786260Y-59130091D01*
X86781207Y-59155494D01*
X86692282Y-59066569D01*
X86311876Y-58909000D01*
X85900128Y-58909000D01*
X85519722Y-59066569D01*
X85228571Y-59357720D01*
X85071002Y-59738126D01*
X85071002Y-59904198D01*
X83714259Y-61260942D01*
X83650803Y-61303342D01*
X83608403Y-61366798D01*
X83608402Y-61366799D01*
X83482828Y-61554734D01*
X83423843Y-61851271D01*
X83438732Y-61926122D01*
X83438731Y-62795318D01*
X83321300Y-62912749D01*
X83163731Y-63293155D01*
X83163731Y-63704903D01*
X83321300Y-64085309D01*
X83612451Y-64376460D01*
X83992857Y-64534029D01*
X84404605Y-64534029D01*
X84452742Y-64514090D01*
X84471900Y-64542762D01*
X84535359Y-64585164D01*
X85346001Y-65395807D01*
X85346000Y-77028155D01*
X85331112Y-77103002D01*
X85346000Y-77177849D01*
X85346000Y-77177853D01*
X85390096Y-77399538D01*
X85558071Y-77650931D01*
X85621530Y-77693333D01*
X87023393Y-79095197D01*
X86786260Y-79450091D01*
X86674887Y-80010000D01*
X86786260Y-80569909D01*
X87103423Y-81044577D01*
X87455758Y-81280000D01*
X87103423Y-81515423D01*
X86786260Y-81990091D01*
X86686728Y-82490471D01*
X85812199Y-83365001D01*
X85646126Y-83365001D01*
X85265720Y-83522570D01*
X84974569Y-83813721D01*
X84817000Y-84194127D01*
X84817000Y-84605875D01*
X84974569Y-84986281D01*
X85265720Y-85277432D01*
X85646126Y-85435001D01*
X86057874Y-85435001D01*
X86438280Y-85277432D01*
X86690560Y-85025152D01*
X86690560Y-85890000D01*
X86739843Y-86137765D01*
X86880191Y-86347809D01*
X87090235Y-86488157D01*
X87338000Y-86537440D01*
X88938000Y-86537440D01*
X89185765Y-86488157D01*
X89395809Y-86347809D01*
X89536157Y-86137765D01*
X89585440Y-85890000D01*
X89585440Y-84290000D01*
X89536157Y-84042235D01*
X89395809Y-83832191D01*
X89185765Y-83691843D01*
X89051894Y-83665215D01*
X89172577Y-83584577D01*
X89489740Y-83109909D01*
X89601113Y-82550000D01*
X89489740Y-81990091D01*
X89172577Y-81515423D01*
X88820242Y-81280000D01*
X89172577Y-81044577D01*
X89489740Y-80569909D01*
X89601113Y-80010000D01*
X89499668Y-79500000D01*
X90490199Y-79500000D01*
X90633791Y-79643592D01*
X90560908Y-80010000D01*
X90676161Y-80589418D01*
X91004375Y-81080625D01*
X91302761Y-81280000D01*
X91004375Y-81479375D01*
X90676161Y-81970582D01*
X90560908Y-82550000D01*
X90676161Y-83129418D01*
X91004375Y-83620625D01*
X91302761Y-83820000D01*
X91004375Y-84019375D01*
X90676161Y-84510582D01*
X90560908Y-85090000D01*
X90676161Y-85669418D01*
X91004375Y-86160625D01*
X91302761Y-86360000D01*
X91004375Y-86559375D01*
X90676161Y-87050582D01*
X90560908Y-87630000D01*
X90676161Y-88209418D01*
X91004375Y-88700625D01*
X91495582Y-89028839D01*
X91928744Y-89115000D01*
X92221256Y-89115000D01*
X92654418Y-89028839D01*
X93145625Y-88700625D01*
X93209486Y-88605050D01*
X108820000Y-88605050D01*
X108820000Y-89354950D01*
X109106974Y-90047767D01*
X109637233Y-90578026D01*
X110330050Y-90865000D01*
X111079950Y-90865000D01*
X111772767Y-90578026D01*
X112303026Y-90047767D01*
X112590000Y-89354950D01*
X112590000Y-88605050D01*
X112420259Y-88195259D01*
X112830050Y-88365000D01*
X113579950Y-88365000D01*
X114272767Y-88078026D01*
X114803026Y-87547767D01*
X115090000Y-86854950D01*
X115090000Y-86105050D01*
X114803026Y-85412233D01*
X114272767Y-84881974D01*
X113579950Y-84595000D01*
X112830050Y-84595000D01*
X112137233Y-84881974D01*
X111606974Y-85412233D01*
X111320000Y-86105050D01*
X111320000Y-86854950D01*
X111489741Y-87264741D01*
X111079950Y-87095000D01*
X110330050Y-87095000D01*
X109637233Y-87381974D01*
X109106974Y-87912233D01*
X108820000Y-88605050D01*
X93209486Y-88605050D01*
X93473839Y-88209418D01*
X93589092Y-87630000D01*
X93473839Y-87050582D01*
X93145625Y-86559375D01*
X92847239Y-86360000D01*
X93145625Y-86160625D01*
X93473839Y-85669418D01*
X93589092Y-85090000D01*
X93473839Y-84510582D01*
X93145625Y-84019375D01*
X92847239Y-83820000D01*
X93145625Y-83620625D01*
X93473839Y-83129418D01*
X93589092Y-82550000D01*
X93473839Y-81970582D01*
X93145625Y-81479375D01*
X92847239Y-81280000D01*
X93145625Y-81080625D01*
X93473839Y-80589418D01*
X93532253Y-80295749D01*
X120512000Y-80295749D01*
X120512000Y-81036308D01*
X120608673Y-81269697D01*
X120787301Y-81448326D01*
X121020690Y-81544999D01*
X121761250Y-81544999D01*
X121920000Y-81386249D01*
X121920000Y-80136999D01*
X122174000Y-80136999D01*
X122174000Y-81386249D01*
X122332750Y-81544999D01*
X123073310Y-81544999D01*
X123306699Y-81448326D01*
X123485327Y-81269697D01*
X123582000Y-81036308D01*
X123582000Y-80295749D01*
X123423250Y-80136999D01*
X122174000Y-80136999D01*
X121920000Y-80136999D01*
X120670750Y-80136999D01*
X120512000Y-80295749D01*
X93532253Y-80295749D01*
X93589092Y-80010000D01*
X93473839Y-79430582D01*
X93145625Y-78939375D01*
X92847239Y-78740000D01*
X93145625Y-78540625D01*
X93473839Y-78049418D01*
X93589092Y-77470000D01*
X93473839Y-76890582D01*
X93145625Y-76399375D01*
X93127381Y-76387184D01*
X93172765Y-76378157D01*
X93382809Y-76237809D01*
X93523157Y-76027765D01*
X93572440Y-75780000D01*
X93572440Y-74548171D01*
X95860000Y-74548171D01*
X95860000Y-76073829D01*
X96443844Y-77483353D01*
X97522647Y-78562156D01*
X98932171Y-79146000D01*
X100457829Y-79146000D01*
X101867353Y-78562156D01*
X102946156Y-77483353D01*
X103530000Y-76073829D01*
X103530000Y-75210035D01*
X120512000Y-75210035D01*
X120512000Y-75950594D01*
X120608673Y-76183983D01*
X120787301Y-76362612D01*
X120926084Y-76420098D01*
X120745690Y-76600492D01*
X120512000Y-77164669D01*
X120512000Y-77775329D01*
X120745690Y-78339506D01*
X120922044Y-78515860D01*
X120787301Y-78571672D01*
X120608673Y-78750301D01*
X120512000Y-78983690D01*
X120512000Y-79724249D01*
X120670750Y-79882999D01*
X121920000Y-79882999D01*
X121920000Y-79862999D01*
X122174000Y-79862999D01*
X122174000Y-79882999D01*
X123423250Y-79882999D01*
X123582000Y-79724249D01*
X123582000Y-78983690D01*
X123485327Y-78750301D01*
X123306699Y-78571672D01*
X123171956Y-78515860D01*
X123348310Y-78339506D01*
X123582000Y-77775329D01*
X123582000Y-77164669D01*
X123348310Y-76600492D01*
X123167916Y-76420098D01*
X123306699Y-76362612D01*
X123485327Y-76183983D01*
X123582000Y-75950594D01*
X123582000Y-75210035D01*
X123423250Y-75051285D01*
X122174000Y-75051285D01*
X122174000Y-75071285D01*
X121920000Y-75071285D01*
X121920000Y-75051285D01*
X120670750Y-75051285D01*
X120512000Y-75210035D01*
X103530000Y-75210035D01*
X103530000Y-74548171D01*
X102946156Y-73138647D01*
X101867353Y-72059844D01*
X100457829Y-71476000D01*
X98932171Y-71476000D01*
X97522647Y-72059844D01*
X96443844Y-73138647D01*
X95860000Y-74548171D01*
X93572440Y-74548171D01*
X93572440Y-74080000D01*
X93523157Y-73832235D01*
X93382809Y-73622191D01*
X93172765Y-73481843D01*
X92925000Y-73432560D01*
X91225000Y-73432560D01*
X90977235Y-73481843D01*
X90767191Y-73622191D01*
X90626843Y-73832235D01*
X90577560Y-74080000D01*
X90577560Y-75440000D01*
X89499668Y-75440000D01*
X89601113Y-74930000D01*
X89489740Y-74370091D01*
X89172577Y-73895423D01*
X88820242Y-73660000D01*
X89172577Y-73424577D01*
X89489740Y-72949909D01*
X89601113Y-72390000D01*
X89489740Y-71830091D01*
X89172577Y-71355423D01*
X88820242Y-71120000D01*
X89172577Y-70884577D01*
X89489740Y-70409909D01*
X89546547Y-70124321D01*
X120512000Y-70124321D01*
X120512000Y-70864880D01*
X120608673Y-71098269D01*
X120787301Y-71276898D01*
X120926084Y-71334384D01*
X120745690Y-71514778D01*
X120512000Y-72078955D01*
X120512000Y-72689615D01*
X120745690Y-73253792D01*
X120922044Y-73430146D01*
X120787301Y-73485958D01*
X120608673Y-73664587D01*
X120512000Y-73897976D01*
X120512000Y-74638535D01*
X120670750Y-74797285D01*
X121920000Y-74797285D01*
X121920000Y-74777285D01*
X122174000Y-74777285D01*
X122174000Y-74797285D01*
X123423250Y-74797285D01*
X123582000Y-74638535D01*
X123582000Y-73897976D01*
X123485327Y-73664587D01*
X123306699Y-73485958D01*
X123171956Y-73430146D01*
X123348310Y-73253792D01*
X123582000Y-72689615D01*
X123582000Y-72078955D01*
X123348310Y-71514778D01*
X123167916Y-71334384D01*
X123306699Y-71276898D01*
X123485327Y-71098269D01*
X123582000Y-70864880D01*
X123582000Y-70124321D01*
X123423250Y-69965571D01*
X122174000Y-69965571D01*
X122174000Y-69985571D01*
X121920000Y-69985571D01*
X121920000Y-69965571D01*
X120670750Y-69965571D01*
X120512000Y-70124321D01*
X89546547Y-70124321D01*
X89601113Y-69850000D01*
X89489740Y-69290091D01*
X89172577Y-68815423D01*
X88820242Y-68580000D01*
X89172577Y-68344577D01*
X89489740Y-67869909D01*
X89601113Y-67310000D01*
X89489740Y-66750091D01*
X89172577Y-66275423D01*
X88820242Y-66040000D01*
X89172577Y-65804577D01*
X89489740Y-65329909D01*
X89601113Y-64770000D01*
X89508346Y-64303629D01*
X89580588Y-64289259D01*
X89580593Y-64289259D01*
X89802278Y-64245163D01*
X90053670Y-64077188D01*
X90096072Y-64013729D01*
X90569020Y-63540781D01*
X90676161Y-64079418D01*
X91004375Y-64570625D01*
X91302761Y-64770000D01*
X91004375Y-64969375D01*
X90676161Y-65460582D01*
X90560908Y-66040000D01*
X90676161Y-66619418D01*
X91004375Y-67110625D01*
X91302761Y-67310000D01*
X91004375Y-67509375D01*
X90676161Y-68000582D01*
X90560908Y-68580000D01*
X90676161Y-69159418D01*
X91004375Y-69650625D01*
X91495582Y-69978839D01*
X91928744Y-70065000D01*
X92221256Y-70065000D01*
X92654418Y-69978839D01*
X93145625Y-69650625D01*
X93473839Y-69159418D01*
X93589092Y-68580000D01*
X93545538Y-68361040D01*
X94286579Y-67620000D01*
X94459766Y-67620000D01*
X94876926Y-67447207D01*
X95196207Y-67127926D01*
X95369000Y-66710766D01*
X95369000Y-66259234D01*
X95196207Y-65842074D01*
X94876926Y-65522793D01*
X94459766Y-65350000D01*
X94008234Y-65350000D01*
X93591074Y-65522793D01*
X93503611Y-65610256D01*
X93473839Y-65460582D01*
X93191885Y-65038607D01*
X120512000Y-65038607D01*
X120512000Y-65779166D01*
X120608673Y-66012555D01*
X120787301Y-66191184D01*
X120926084Y-66248670D01*
X120745690Y-66429064D01*
X120512000Y-66993241D01*
X120512000Y-67603901D01*
X120745690Y-68168078D01*
X120922044Y-68344432D01*
X120787301Y-68400244D01*
X120608673Y-68578873D01*
X120512000Y-68812262D01*
X120512000Y-69552821D01*
X120670750Y-69711571D01*
X121920000Y-69711571D01*
X121920000Y-69691571D01*
X122174000Y-69691571D01*
X122174000Y-69711571D01*
X123423250Y-69711571D01*
X123582000Y-69552821D01*
X123582000Y-68812262D01*
X123485327Y-68578873D01*
X123306699Y-68400244D01*
X123171956Y-68344432D01*
X123348310Y-68168078D01*
X123582000Y-67603901D01*
X123582000Y-66993241D01*
X123348310Y-66429064D01*
X123167916Y-66248670D01*
X123306699Y-66191184D01*
X123485327Y-66012555D01*
X123582000Y-65779166D01*
X123582000Y-65038607D01*
X123423250Y-64879857D01*
X122174000Y-64879857D01*
X122174000Y-64899857D01*
X121920000Y-64899857D01*
X121920000Y-64879857D01*
X120670750Y-64879857D01*
X120512000Y-65038607D01*
X93191885Y-65038607D01*
X93145625Y-64969375D01*
X92847239Y-64770000D01*
X93145625Y-64570625D01*
X93473839Y-64079418D01*
X93589092Y-63500000D01*
X93473839Y-62920582D01*
X93145625Y-62429375D01*
X92847239Y-62230000D01*
X93145625Y-62030625D01*
X93227876Y-61907527D01*
X120512000Y-61907527D01*
X120512000Y-62518187D01*
X120745690Y-63082364D01*
X120922044Y-63258718D01*
X120787301Y-63314530D01*
X120608673Y-63493159D01*
X120512000Y-63726548D01*
X120512000Y-64467107D01*
X120670750Y-64625857D01*
X121920000Y-64625857D01*
X121920000Y-64605857D01*
X122174000Y-64605857D01*
X122174000Y-64625857D01*
X123423250Y-64625857D01*
X123582000Y-64467107D01*
X123582000Y-63726548D01*
X123485327Y-63493159D01*
X123306699Y-63314530D01*
X123171956Y-63258718D01*
X123348310Y-63082364D01*
X123582000Y-62518187D01*
X123582000Y-61907527D01*
X123348310Y-61343350D01*
X122916507Y-60911547D01*
X122352330Y-60677857D01*
X121741670Y-60677857D01*
X121177493Y-60911547D01*
X120745690Y-61343350D01*
X120512000Y-61907527D01*
X93227876Y-61907527D01*
X93473839Y-61539418D01*
X93589092Y-60960000D01*
X93473839Y-60380582D01*
X93145625Y-59889375D01*
X92847239Y-59690000D01*
X93145625Y-59490625D01*
X93473839Y-58999418D01*
X93589092Y-58420000D01*
X93473839Y-57840582D01*
X93203339Y-57435750D01*
X120512000Y-57435750D01*
X120512000Y-58176309D01*
X120608673Y-58409698D01*
X120787301Y-58588327D01*
X121020690Y-58685000D01*
X121761250Y-58685000D01*
X121920000Y-58526250D01*
X121920000Y-57277000D01*
X122174000Y-57277000D01*
X122174000Y-58526250D01*
X122332750Y-58685000D01*
X123073310Y-58685000D01*
X123306699Y-58588327D01*
X123485327Y-58409698D01*
X123582000Y-58176309D01*
X123582000Y-57435750D01*
X123423250Y-57277000D01*
X122174000Y-57277000D01*
X121920000Y-57277000D01*
X120670750Y-57277000D01*
X120512000Y-57435750D01*
X93203339Y-57435750D01*
X93145625Y-57349375D01*
X93123967Y-57334904D01*
X93284698Y-57268327D01*
X93463327Y-57089699D01*
X93560000Y-56856310D01*
X93560000Y-56165750D01*
X93401250Y-56007000D01*
X92202000Y-56007000D01*
X92202000Y-56027000D01*
X91948000Y-56027000D01*
X91948000Y-56007000D01*
X90748750Y-56007000D01*
X90590000Y-56165750D01*
X90590000Y-56856310D01*
X90686673Y-57089699D01*
X90865302Y-57268327D01*
X91026033Y-57334904D01*
X91004375Y-57349375D01*
X90676161Y-57840582D01*
X90560908Y-58420000D01*
X90633791Y-58786407D01*
X89569061Y-59851138D01*
X89601113Y-59690000D01*
X89489740Y-59130091D01*
X89172577Y-58655423D01*
X88820242Y-58420000D01*
X89172577Y-58184577D01*
X89489740Y-57709909D01*
X89601113Y-57150000D01*
X89489740Y-56590091D01*
X89172577Y-56115423D01*
X88820242Y-55880000D01*
X89172577Y-55644577D01*
X89489740Y-55169909D01*
X89542694Y-54903690D01*
X90590000Y-54903690D01*
X90590000Y-55594250D01*
X90748750Y-55753000D01*
X91948000Y-55753000D01*
X91948000Y-54553750D01*
X92202000Y-54553750D01*
X92202000Y-55753000D01*
X93401250Y-55753000D01*
X93560000Y-55594250D01*
X93560000Y-54903690D01*
X93463327Y-54670301D01*
X93284698Y-54491673D01*
X93051309Y-54395000D01*
X92360750Y-54395000D01*
X92202000Y-54553750D01*
X91948000Y-54553750D01*
X91789250Y-54395000D01*
X91098691Y-54395000D01*
X90865302Y-54491673D01*
X90686673Y-54670301D01*
X90590000Y-54903690D01*
X89542694Y-54903690D01*
X89601113Y-54610000D01*
X89536688Y-54286114D01*
X90107029Y-53715772D01*
X90472126Y-53867000D01*
X90883874Y-53867000D01*
X91264280Y-53709431D01*
X91351477Y-53622234D01*
X98433000Y-53622234D01*
X98433000Y-54073766D01*
X98605793Y-54490926D01*
X98925074Y-54810207D01*
X99342234Y-54983000D01*
X99793766Y-54983000D01*
X100210926Y-54810207D01*
X100530207Y-54490926D01*
X100703000Y-54073766D01*
X100703000Y-53622234D01*
X100530207Y-53205074D01*
X100503010Y-53177877D01*
X100503010Y-52355750D01*
X120512000Y-52355750D01*
X120512000Y-53096309D01*
X120608673Y-53329698D01*
X120787301Y-53508327D01*
X120922044Y-53564139D01*
X120745690Y-53740493D01*
X120512000Y-54304670D01*
X120512000Y-54915330D01*
X120745690Y-55479507D01*
X120922044Y-55655861D01*
X120787301Y-55711673D01*
X120608673Y-55890302D01*
X120512000Y-56123691D01*
X120512000Y-56864250D01*
X120670750Y-57023000D01*
X121920000Y-57023000D01*
X121920000Y-57003000D01*
X122174000Y-57003000D01*
X122174000Y-57023000D01*
X123423250Y-57023000D01*
X123582000Y-56864250D01*
X123582000Y-56123691D01*
X123485327Y-55890302D01*
X123306699Y-55711673D01*
X123171956Y-55655861D01*
X123348310Y-55479507D01*
X123582000Y-54915330D01*
X123582000Y-54304670D01*
X123348310Y-53740493D01*
X123171956Y-53564139D01*
X123306699Y-53508327D01*
X123485327Y-53329698D01*
X123582000Y-53096309D01*
X123582000Y-52355750D01*
X123423250Y-52197000D01*
X122174000Y-52197000D01*
X122174000Y-52217000D01*
X121920000Y-52217000D01*
X121920000Y-52197000D01*
X120670750Y-52197000D01*
X120512000Y-52355750D01*
X100503010Y-52355750D01*
X100503010Y-51719112D01*
X100530217Y-51691905D01*
X100703010Y-51274745D01*
X100703010Y-50823213D01*
X100530217Y-50406053D01*
X100210936Y-50086772D01*
X99793776Y-49913979D01*
X99342244Y-49913979D01*
X98925084Y-50086772D01*
X98605803Y-50406053D01*
X98433010Y-50823213D01*
X98433010Y-51274745D01*
X98605803Y-51691905D01*
X98633010Y-51719112D01*
X98633011Y-53177856D01*
X98605793Y-53205074D01*
X98433000Y-53622234D01*
X91351477Y-53622234D01*
X91555431Y-53418280D01*
X91713000Y-53037874D01*
X91713000Y-52626126D01*
X91555431Y-52245720D01*
X91264280Y-51954569D01*
X90883874Y-51797000D01*
X90472126Y-51797000D01*
X90091720Y-51954569D01*
X89977036Y-52069253D01*
X89916000Y-52057112D01*
X89841152Y-52072000D01*
X89841148Y-52072000D01*
X89667605Y-52106520D01*
X89619462Y-52116096D01*
X89587726Y-52137302D01*
X89601113Y-52070000D01*
X89489740Y-51510091D01*
X89172577Y-51035423D01*
X88820242Y-50800000D01*
X89172577Y-50564577D01*
X89489740Y-50089909D01*
X89601113Y-49530000D01*
X89540379Y-49224670D01*
X120512000Y-49224670D01*
X120512000Y-49835330D01*
X120745690Y-50399507D01*
X120922044Y-50575861D01*
X120787301Y-50631673D01*
X120608673Y-50810302D01*
X120512000Y-51043691D01*
X120512000Y-51784250D01*
X120670750Y-51943000D01*
X121920000Y-51943000D01*
X121920000Y-51923000D01*
X122174000Y-51923000D01*
X122174000Y-51943000D01*
X123423250Y-51943000D01*
X123582000Y-51784250D01*
X123582000Y-51043691D01*
X123485327Y-50810302D01*
X123306699Y-50631673D01*
X123171956Y-50575861D01*
X123348310Y-50399507D01*
X123582000Y-49835330D01*
X123582000Y-49224670D01*
X123348310Y-48660493D01*
X122916507Y-48228690D01*
X122352330Y-47995000D01*
X121741670Y-47995000D01*
X121177493Y-48228690D01*
X120745690Y-48660493D01*
X120512000Y-49224670D01*
X89540379Y-49224670D01*
X89489740Y-48970091D01*
X89172577Y-48495423D01*
X89084566Y-48436616D01*
X89232280Y-48375431D01*
X89523431Y-48084280D01*
X89681000Y-47703874D01*
X89681000Y-47292126D01*
X89523431Y-46911720D01*
X89232280Y-46620569D01*
X88851874Y-46463000D01*
X88440126Y-46463000D01*
X88059720Y-46620569D01*
X87926603Y-46753686D01*
X87831920Y-46772520D01*
X87783777Y-46782096D01*
X87596733Y-46907076D01*
X87532386Y-46950071D01*
X87489986Y-47013527D01*
X86528527Y-47974987D01*
X86465071Y-48017387D01*
X86422671Y-48080843D01*
X86422670Y-48080844D01*
X86297096Y-48268779D01*
X86238111Y-48565316D01*
X86253000Y-48640168D01*
X86253000Y-49007653D01*
X85904779Y-49007653D01*
X85524373Y-49165222D01*
X85408199Y-49281396D01*
X84342347Y-48215545D01*
X84342347Y-48049473D01*
X84184778Y-47669067D01*
X83893627Y-47377916D01*
X83513221Y-47220347D01*
X83101473Y-47220347D01*
X82721067Y-47377916D01*
X82429916Y-47669067D01*
X82272347Y-48049473D01*
X66167000Y-48049473D01*
X66167000Y-45902778D01*
X114189000Y-45902778D01*
X114189000Y-46553222D01*
X114437914Y-47154153D01*
X114897847Y-47614086D01*
X115498778Y-47863000D01*
X116149222Y-47863000D01*
X116750153Y-47614086D01*
X117210086Y-47154153D01*
X117459000Y-46553222D01*
X117459000Y-45902778D01*
X117210086Y-45301847D01*
X116750153Y-44841914D01*
X116149222Y-44593000D01*
X115498778Y-44593000D01*
X114897847Y-44841914D01*
X114437914Y-45301847D01*
X114189000Y-45902778D01*
X66167000Y-45902778D01*
X66167000Y-42300532D01*
X114851073Y-42300532D01*
X114949736Y-42567387D01*
X115559461Y-42793908D01*
X116209460Y-42769856D01*
X116698264Y-42567387D01*
X116796927Y-42300532D01*
X115824000Y-41327605D01*
X114851073Y-42300532D01*
X66167000Y-42300532D01*
X66167000Y-40883461D01*
X114178092Y-40883461D01*
X114202144Y-41533460D01*
X114404613Y-42022264D01*
X114671468Y-42120927D01*
X115644395Y-41148000D01*
X116003605Y-41148000D01*
X116976532Y-42120927D01*
X117243387Y-42022264D01*
X117469908Y-41412539D01*
X117445856Y-40762540D01*
X117243387Y-40273736D01*
X116976532Y-40175073D01*
X116003605Y-41148000D01*
X115644395Y-41148000D01*
X114671468Y-40175073D01*
X114404613Y-40273736D01*
X114178092Y-40883461D01*
X66167000Y-40883461D01*
X66167000Y-39995468D01*
X114851073Y-39995468D01*
X115824000Y-40968395D01*
X116796927Y-39995468D01*
X116698264Y-39728613D01*
X116088539Y-39502092D01*
X115438540Y-39526144D01*
X114949736Y-39728613D01*
X114851073Y-39995468D01*
X66167000Y-39995468D01*
X66167000Y-37750750D01*
X119800000Y-37750750D01*
X119800000Y-38441310D01*
X119896673Y-38674699D01*
X120075302Y-38853327D01*
X120308691Y-38950000D01*
X120999250Y-38950000D01*
X121158000Y-38791250D01*
X121158000Y-37592000D01*
X121412000Y-37592000D01*
X121412000Y-38791250D01*
X121570750Y-38950000D01*
X122261309Y-38950000D01*
X122494698Y-38853327D01*
X122673327Y-38674699D01*
X122770000Y-38441310D01*
X122770000Y-37750750D01*
X122611250Y-37592000D01*
X121412000Y-37592000D01*
X121158000Y-37592000D01*
X119958750Y-37592000D01*
X119800000Y-37750750D01*
X66167000Y-37750750D01*
X66167000Y-30987171D01*
X91415000Y-30987171D01*
X91415000Y-32512829D01*
X91998844Y-33922353D01*
X93077647Y-35001156D01*
X94487171Y-35585000D01*
X96012829Y-35585000D01*
X97422353Y-35001156D01*
X98501156Y-33922353D01*
X99085000Y-32512829D01*
X99085000Y-30987171D01*
X98501156Y-29577647D01*
X97422353Y-28498844D01*
X96012829Y-27915000D01*
X94487171Y-27915000D01*
X93077647Y-28498844D01*
X91998844Y-29577647D01*
X91415000Y-30987171D01*
X66167000Y-30987171D01*
X66167000Y-26797000D01*
X119871955Y-26797000D01*
X119770908Y-27305000D01*
X119770908Y-27305000D01*
G37*
X119770908Y-27305000D02*
X119886161Y-27884418D01*
X120214375Y-28375625D01*
X120512761Y-28575000D01*
X120214375Y-28774375D01*
X119886161Y-29265582D01*
X119770908Y-29845000D01*
X119886161Y-30424418D01*
X120214375Y-30915625D01*
X120512761Y-31115000D01*
X120214375Y-31314375D01*
X119886161Y-31805582D01*
X119770908Y-32385000D01*
X119886161Y-32964418D01*
X120214375Y-33455625D01*
X120512761Y-33655000D01*
X120214375Y-33854375D01*
X119886161Y-34345582D01*
X119770908Y-34925000D01*
X119886161Y-35504418D01*
X120214375Y-35995625D01*
X120236033Y-36010096D01*
X120075302Y-36076673D01*
X119896673Y-36255301D01*
X119800000Y-36488690D01*
X119800000Y-37179250D01*
X119958750Y-37338000D01*
X121158000Y-37338000D01*
X121158000Y-37318000D01*
X121412000Y-37318000D01*
X121412000Y-37338000D01*
X122611250Y-37338000D01*
X122770000Y-37179250D01*
X122770000Y-36488690D01*
X122673327Y-36255301D01*
X122494698Y-36076673D01*
X122333967Y-36010096D01*
X122355625Y-35995625D01*
X122683839Y-35504418D01*
X122799092Y-34925000D01*
X122683839Y-34345582D01*
X122355625Y-33854375D01*
X122057239Y-33655000D01*
X122355625Y-33455625D01*
X122683839Y-32964418D01*
X122799092Y-32385000D01*
X122683839Y-31805582D01*
X122355625Y-31314375D01*
X122057239Y-31115000D01*
X122355625Y-30915625D01*
X122683839Y-30424418D01*
X122799092Y-29845000D01*
X122683839Y-29265582D01*
X122355625Y-28774375D01*
X122057239Y-28575000D01*
X122355625Y-28375625D01*
X122683839Y-27884418D01*
X122799092Y-27305000D01*
X122698045Y-26797000D01*
X124333000Y-26797000D01*
X124333000Y-39746525D01*
X123769222Y-39513000D01*
X123118778Y-39513000D01*
X122517847Y-39761914D01*
X122057914Y-40221847D01*
X121809000Y-40822778D01*
X121809000Y-41473222D01*
X122057914Y-42074153D01*
X122517847Y-42534086D01*
X123118778Y-42783000D01*
X123769222Y-42783000D01*
X124333000Y-42549475D01*
X124333000Y-44826525D01*
X123769222Y-44593000D01*
X123118778Y-44593000D01*
X122517847Y-44841914D01*
X122057914Y-45301847D01*
X121809000Y-45902778D01*
X121809000Y-46553222D01*
X122057914Y-47154153D01*
X122517847Y-47614086D01*
X123118778Y-47863000D01*
X123769222Y-47863000D01*
X124333000Y-47629475D01*
X124333000Y-87442207D01*
X124272767Y-87381974D01*
X123579950Y-87095000D01*
X122830050Y-87095000D01*
X122137233Y-87381974D01*
X121606974Y-87912233D01*
X121320000Y-88605050D01*
X121320000Y-89354950D01*
X121606974Y-90047767D01*
X122137233Y-90578026D01*
X122830050Y-90865000D01*
X123579950Y-90865000D01*
X124272767Y-90578026D01*
X124333000Y-90517793D01*
X124333000Y-97442207D01*
X124272767Y-97381974D01*
X123579950Y-97095000D01*
X122830050Y-97095000D01*
X122137233Y-97381974D01*
X121606974Y-97912233D01*
X121320000Y-98605050D01*
X121320000Y-99354950D01*
X121606974Y-100047767D01*
X122137233Y-100578026D01*
X122830050Y-100865000D01*
X123579950Y-100865000D01*
X124272767Y-100578026D01*
X124333000Y-100517793D01*
X124333000Y-107762207D01*
X124272767Y-107701974D01*
X123579950Y-107415000D01*
X122830050Y-107415000D01*
X122137233Y-107701974D01*
X121606974Y-108232233D01*
X121320000Y-108925050D01*
X121320000Y-109674950D01*
X121606974Y-110367767D01*
X122137233Y-110898026D01*
X122830050Y-111185000D01*
X123579950Y-111185000D01*
X124272767Y-110898026D01*
X124333000Y-110837793D01*
X124333000Y-117762207D01*
X124272767Y-117701974D01*
X123579950Y-117415000D01*
X122830050Y-117415000D01*
X122137233Y-117701974D01*
X121606974Y-118232233D01*
X121320000Y-118925050D01*
X121320000Y-119674950D01*
X121606974Y-120367767D01*
X122137233Y-120898026D01*
X122830050Y-121185000D01*
X123579950Y-121185000D01*
X124272767Y-120898026D01*
X124333000Y-120837793D01*
X124333000Y-124333000D01*
X100824789Y-124333000D01*
X101867353Y-123901156D01*
X102946156Y-122822353D01*
X103530000Y-121412829D01*
X103530000Y-120633320D01*
X109551285Y-120633320D01*
X109680533Y-120926123D01*
X110380806Y-121194388D01*
X111130435Y-121174250D01*
X111484660Y-121027525D01*
X111320000Y-121425050D01*
X111320000Y-122174950D01*
X111606974Y-122867767D01*
X112137233Y-123398026D01*
X112830050Y-123685000D01*
X113579950Y-123685000D01*
X114272767Y-123398026D01*
X114803026Y-122867767D01*
X115090000Y-122174950D01*
X115090000Y-121425050D01*
X114803026Y-120732233D01*
X114272767Y-120201974D01*
X113579950Y-119915000D01*
X112830050Y-119915000D01*
X112423468Y-120083412D01*
X112599388Y-119624194D01*
X112579250Y-118874565D01*
X112331123Y-118275533D01*
X112038320Y-118146285D01*
X110884605Y-119300000D01*
X110898748Y-119314143D01*
X110719143Y-119493748D01*
X110705000Y-119479605D01*
X109551285Y-120633320D01*
X103530000Y-120633320D01*
X103530000Y-119887171D01*
X103152501Y-118975806D01*
X108810612Y-118975806D01*
X108830750Y-119725435D01*
X109078877Y-120324467D01*
X109371680Y-120453715D01*
X110525395Y-119300000D01*
X109371680Y-118146285D01*
X109078877Y-118275533D01*
X108810612Y-118975806D01*
X103152501Y-118975806D01*
X102946156Y-118477647D01*
X102435189Y-117966680D01*
X109551285Y-117966680D01*
X110705000Y-119120395D01*
X111858715Y-117966680D01*
X111729467Y-117673877D01*
X111029194Y-117405612D01*
X110279565Y-117425750D01*
X109680533Y-117673877D01*
X109551285Y-117966680D01*
X102435189Y-117966680D01*
X101867353Y-117398844D01*
X100457829Y-116815000D01*
X98932171Y-116815000D01*
X97522647Y-117398844D01*
X96443844Y-118477647D01*
X95860000Y-119887171D01*
X95860000Y-121412829D01*
X96443844Y-122822353D01*
X97522647Y-123901156D01*
X98565211Y-124333000D01*
X66167000Y-124333000D01*
X66167000Y-121385522D01*
X66318108Y-121456486D01*
X66548000Y-121335819D01*
X66548000Y-120142000D01*
X66802000Y-120142000D01*
X66802000Y-121335819D01*
X67031892Y-121456486D01*
X67556358Y-121210183D01*
X67946645Y-120781924D01*
X68116476Y-120371890D01*
X67995155Y-120142000D01*
X66802000Y-120142000D01*
X66548000Y-120142000D01*
X66528000Y-120142000D01*
X66528000Y-119888000D01*
X66548000Y-119888000D01*
X66548000Y-119868000D01*
X66802000Y-119868000D01*
X66802000Y-119888000D01*
X67995155Y-119888000D01*
X68116476Y-119658110D01*
X67946645Y-119248076D01*
X67828987Y-119118970D01*
X75145000Y-119118970D01*
X75145000Y-120941031D01*
X75239865Y-121417945D01*
X75601232Y-121958769D01*
X76142056Y-122320136D01*
X76780000Y-122447031D01*
X77417945Y-122320136D01*
X77958769Y-121958769D01*
X78320136Y-121417945D01*
X78415000Y-120941031D01*
X78415000Y-119410434D01*
X79039876Y-119410434D01*
X79070856Y-119538355D01*
X79384078Y-120096317D01*
X79886980Y-120491942D01*
X80503000Y-120665000D01*
X80825566Y-120665000D01*
X80467138Y-120813466D01*
X80063466Y-121217138D01*
X79845000Y-121744561D01*
X79845000Y-122315439D01*
X80063466Y-122842862D01*
X80467138Y-123246534D01*
X80994561Y-123465000D01*
X81565439Y-123465000D01*
X82092862Y-123246534D01*
X82496534Y-122842862D01*
X82715000Y-122315439D01*
X82715000Y-121744561D01*
X82496534Y-121217138D01*
X82092862Y-120813466D01*
X81734434Y-120665000D01*
X82057000Y-120665000D01*
X82673020Y-120491942D01*
X83175922Y-120096317D01*
X83489144Y-119538355D01*
X83520124Y-119410434D01*
X83400777Y-119157000D01*
X81407000Y-119157000D01*
X81407000Y-119177000D01*
X81153000Y-119177000D01*
X81153000Y-119157000D01*
X79159223Y-119157000D01*
X79039876Y-119410434D01*
X78415000Y-119410434D01*
X78415000Y-119118970D01*
X84145000Y-119118970D01*
X84145000Y-120941031D01*
X84239865Y-121417945D01*
X84601232Y-121958769D01*
X85142056Y-122320136D01*
X85780000Y-122447031D01*
X86417945Y-122320136D01*
X86958769Y-121958769D01*
X87320136Y-121417945D01*
X87415000Y-120941031D01*
X87415000Y-119118969D01*
X87320136Y-118642055D01*
X86958769Y-118101231D01*
X86417944Y-117739864D01*
X85780000Y-117612969D01*
X85142055Y-117739864D01*
X84601231Y-118101231D01*
X84239864Y-118642056D01*
X84145000Y-119118970D01*
X78415000Y-119118970D01*
X78415000Y-119118969D01*
X78321631Y-118649566D01*
X79039876Y-118649566D01*
X79159223Y-118903000D01*
X81153000Y-118903000D01*
X81153000Y-117395000D01*
X81407000Y-117395000D01*
X81407000Y-118903000D01*
X83400777Y-118903000D01*
X83520124Y-118649566D01*
X83489144Y-118521645D01*
X83175922Y-117963683D01*
X82673020Y-117568058D01*
X82057000Y-117395000D01*
X81407000Y-117395000D01*
X81153000Y-117395000D01*
X80503000Y-117395000D01*
X79886980Y-117568058D01*
X79384078Y-117963683D01*
X79070856Y-118521645D01*
X79039876Y-118649566D01*
X78321631Y-118649566D01*
X78320136Y-118642055D01*
X77958769Y-118101231D01*
X77417944Y-117739864D01*
X76780000Y-117612969D01*
X76142055Y-117739864D01*
X75601231Y-118101231D01*
X75239864Y-118642056D01*
X75145000Y-119118970D01*
X67828987Y-119118970D01*
X67556358Y-118819817D01*
X67426522Y-118758843D01*
X67745625Y-118545625D01*
X68073839Y-118054418D01*
X68189092Y-117475000D01*
X68073839Y-116895582D01*
X67745625Y-116404375D01*
X67447239Y-116205000D01*
X67745625Y-116005625D01*
X67898337Y-115777075D01*
X67945000Y-115786357D01*
X68027233Y-115770000D01*
X68027237Y-115770000D01*
X68270801Y-115721552D01*
X68547001Y-115537001D01*
X68593587Y-115467280D01*
X69112283Y-114948585D01*
X69182001Y-114902001D01*
X69366552Y-114625801D01*
X69415000Y-114382237D01*
X69415000Y-114382236D01*
X69431358Y-114300000D01*
X69415000Y-114217763D01*
X69415000Y-112030000D01*
X78632560Y-112030000D01*
X78632560Y-114030000D01*
X78681843Y-114277765D01*
X78822191Y-114487809D01*
X79032235Y-114628157D01*
X79280000Y-114677440D01*
X83280000Y-114677440D01*
X83527765Y-114628157D01*
X83737809Y-114487809D01*
X83878157Y-114277765D01*
X83927440Y-114030000D01*
X83927440Y-113925050D01*
X111320000Y-113925050D01*
X111320000Y-114674950D01*
X111606974Y-115367767D01*
X112137233Y-115898026D01*
X112830050Y-116185000D01*
X113579950Y-116185000D01*
X114272767Y-115898026D01*
X114803026Y-115367767D01*
X115090000Y-114674950D01*
X115090000Y-113925050D01*
X114803026Y-113232233D01*
X114272767Y-112701974D01*
X113579950Y-112415000D01*
X112830050Y-112415000D01*
X112137233Y-112701974D01*
X111606974Y-113232233D01*
X111320000Y-113925050D01*
X83927440Y-113925050D01*
X83927440Y-112030000D01*
X83878157Y-111782235D01*
X83737809Y-111572191D01*
X83527765Y-111431843D01*
X83280000Y-111382560D01*
X79280000Y-111382560D01*
X79032235Y-111431843D01*
X78822191Y-111572191D01*
X78681843Y-111782235D01*
X78632560Y-112030000D01*
X69415000Y-112030000D01*
X69415000Y-112022133D01*
X69542207Y-111894926D01*
X69715000Y-111477766D01*
X69715000Y-111026234D01*
X69542207Y-110609074D01*
X69222926Y-110289793D01*
X68805766Y-110117000D01*
X68354234Y-110117000D01*
X67937074Y-110289793D01*
X67617793Y-110609074D01*
X67498298Y-110897560D01*
X66167000Y-110897560D01*
X66167000Y-108925050D01*
X108820000Y-108925050D01*
X108820000Y-109674950D01*
X109106974Y-110367767D01*
X109637233Y-110898026D01*
X110330050Y-111185000D01*
X111079950Y-111185000D01*
X111772767Y-110898026D01*
X112303026Y-110367767D01*
X112590000Y-109674950D01*
X112590000Y-108925050D01*
X112420259Y-108515259D01*
X112830050Y-108685000D01*
X113579950Y-108685000D01*
X114272767Y-108398026D01*
X114803026Y-107867767D01*
X115090000Y-107174950D01*
X115090000Y-106425050D01*
X114803026Y-105732233D01*
X114272767Y-105201974D01*
X113579950Y-104915000D01*
X112830050Y-104915000D01*
X112137233Y-105201974D01*
X111606974Y-105732233D01*
X111320000Y-106425050D01*
X111320000Y-107174950D01*
X111489741Y-107584741D01*
X111079950Y-107415000D01*
X110330050Y-107415000D01*
X109637233Y-107701974D01*
X109106974Y-108232233D01*
X108820000Y-108925050D01*
X66167000Y-108925050D01*
X66167000Y-104973049D01*
X78309585Y-104973049D01*
X78309585Y-105424581D01*
X78482378Y-105841741D01*
X78801659Y-106161022D01*
X79218819Y-106333815D01*
X79670351Y-106333815D01*
X79832560Y-106266626D01*
X79832560Y-107480000D01*
X79881843Y-107727765D01*
X80022191Y-107937809D01*
X80232235Y-108078157D01*
X80480000Y-108127440D01*
X82080000Y-108127440D01*
X82327765Y-108078157D01*
X82537809Y-107937809D01*
X82678157Y-107727765D01*
X82686117Y-107687745D01*
X82951861Y-107687745D01*
X83025995Y-107933864D01*
X83563223Y-108126965D01*
X84133454Y-108099778D01*
X84534005Y-107933864D01*
X84608139Y-107687745D01*
X83780000Y-106859605D01*
X82951861Y-107687745D01*
X82686117Y-107687745D01*
X82724693Y-107493813D01*
X82772255Y-107508139D01*
X83600395Y-106680000D01*
X83959605Y-106680000D01*
X84787745Y-107508139D01*
X85033864Y-107434005D01*
X85226965Y-106896777D01*
X85199778Y-106326546D01*
X85033864Y-105925995D01*
X84787745Y-105851861D01*
X83959605Y-106680000D01*
X83600395Y-106680000D01*
X82772255Y-105851861D01*
X82724693Y-105866187D01*
X82686118Y-105672255D01*
X82951861Y-105672255D01*
X83780000Y-106500395D01*
X84608139Y-105672255D01*
X84534005Y-105426136D01*
X83996777Y-105233035D01*
X83426546Y-105260222D01*
X83025995Y-105426136D01*
X82951861Y-105672255D01*
X82686118Y-105672255D01*
X82678157Y-105632235D01*
X82537809Y-105422191D01*
X82327765Y-105281843D01*
X82080000Y-105232560D01*
X80591707Y-105232560D01*
X81057268Y-104767000D01*
X81251766Y-104767000D01*
X81668926Y-104594207D01*
X81988207Y-104274926D01*
X82161000Y-103857766D01*
X82161000Y-103406234D01*
X81988207Y-102989074D01*
X81668926Y-102669793D01*
X81251766Y-102497000D01*
X80800234Y-102497000D01*
X80383074Y-102669793D01*
X80063793Y-102989074D01*
X79891000Y-103406234D01*
X79891000Y-103571532D01*
X79398718Y-104063815D01*
X79218819Y-104063815D01*
X78801659Y-104236608D01*
X78482378Y-104555889D01*
X78309585Y-104973049D01*
X66167000Y-104973049D01*
X66167000Y-98605050D01*
X108820000Y-98605050D01*
X108820000Y-99354950D01*
X109106974Y-100047767D01*
X109637233Y-100578026D01*
X110330050Y-100865000D01*
X111079950Y-100865000D01*
X111489741Y-100695259D01*
X111320000Y-101105050D01*
X111320000Y-101854950D01*
X111606974Y-102547767D01*
X112137233Y-103078026D01*
X112830050Y-103365000D01*
X113579950Y-103365000D01*
X114272767Y-103078026D01*
X114803026Y-102547767D01*
X115090000Y-101854950D01*
X115090000Y-101105050D01*
X114803026Y-100412233D01*
X114272767Y-99881974D01*
X113579950Y-99595000D01*
X112830050Y-99595000D01*
X112420259Y-99764741D01*
X112590000Y-99354950D01*
X112590000Y-98605050D01*
X112303026Y-97912233D01*
X111772767Y-97381974D01*
X111079950Y-97095000D01*
X110330050Y-97095000D01*
X109637233Y-97381974D01*
X109106974Y-97912233D01*
X108820000Y-98605050D01*
X66167000Y-98605050D01*
X66167000Y-92414126D01*
X91421000Y-92414126D01*
X91421000Y-92825874D01*
X91578569Y-93206280D01*
X91696000Y-93323711D01*
X91696001Y-95683148D01*
X91681112Y-95758000D01*
X91740097Y-96054537D01*
X91767436Y-96095452D01*
X91908072Y-96305929D01*
X91971528Y-96348329D01*
X92605517Y-96982319D01*
X92605520Y-96982321D01*
X93199000Y-97575802D01*
X93199000Y-97741874D01*
X93356569Y-98122280D01*
X93647720Y-98413431D01*
X94028126Y-98571000D01*
X94439874Y-98571000D01*
X94820280Y-98413431D01*
X95111431Y-98122280D01*
X95269000Y-97741874D01*
X95269000Y-97330126D01*
X95256549Y-97300066D01*
X95574909Y-97236740D01*
X96049577Y-96919577D01*
X96366740Y-96444909D01*
X96478113Y-95885000D01*
X96366740Y-95325091D01*
X96049577Y-94850423D01*
X95697242Y-94615000D01*
X96049577Y-94379577D01*
X96366740Y-93904909D01*
X96478113Y-93345000D01*
X100371887Y-93345000D01*
X100483260Y-93904909D01*
X100800423Y-94379577D01*
X100921106Y-94460215D01*
X100787235Y-94486843D01*
X100577191Y-94627191D01*
X100436843Y-94837235D01*
X100387560Y-95085000D01*
X100387560Y-96685000D01*
X100436843Y-96932765D01*
X100577191Y-97142809D01*
X100787235Y-97283157D01*
X101035000Y-97332440D01*
X103435000Y-97332440D01*
X103682765Y-97283157D01*
X103892809Y-97142809D01*
X104033157Y-96932765D01*
X104082440Y-96685000D01*
X104082440Y-95085000D01*
X104033157Y-94837235D01*
X103892809Y-94627191D01*
X103682765Y-94486843D01*
X103548894Y-94460215D01*
X103669577Y-94379577D01*
X103986740Y-93904909D01*
X104046385Y-93605050D01*
X111320000Y-93605050D01*
X111320000Y-94354950D01*
X111606974Y-95047767D01*
X112137233Y-95578026D01*
X112830050Y-95865000D01*
X113579950Y-95865000D01*
X114272767Y-95578026D01*
X114803026Y-95047767D01*
X115090000Y-94354950D01*
X115090000Y-93605050D01*
X114803026Y-92912233D01*
X114272767Y-92381974D01*
X113579950Y-92095000D01*
X112830050Y-92095000D01*
X112137233Y-92381974D01*
X111606974Y-92912233D01*
X111320000Y-93605050D01*
X104046385Y-93605050D01*
X104098113Y-93345000D01*
X103986740Y-92785091D01*
X103669577Y-92310423D01*
X103194909Y-91993260D01*
X102776333Y-91910000D01*
X101693667Y-91910000D01*
X101275091Y-91993260D01*
X100800423Y-92310423D01*
X100483260Y-92785091D01*
X100371887Y-93345000D01*
X96478113Y-93345000D01*
X96366740Y-92785091D01*
X96049577Y-92310423D01*
X95574909Y-91993260D01*
X95156333Y-91910000D01*
X94073667Y-91910000D01*
X93655091Y-91993260D01*
X93390032Y-92170367D01*
X93333431Y-92033720D01*
X93042280Y-91742569D01*
X92661874Y-91585000D01*
X92250126Y-91585000D01*
X91869720Y-91742569D01*
X91578569Y-92033720D01*
X91421000Y-92414126D01*
X66167000Y-92414126D01*
X66167000Y-85090000D01*
X71434887Y-85090000D01*
X71546260Y-85649909D01*
X71863423Y-86124577D01*
X72338091Y-86441740D01*
X72756667Y-86525000D01*
X73039333Y-86525000D01*
X73457909Y-86441740D01*
X73932577Y-86124577D01*
X74249740Y-85649909D01*
X74361113Y-85090000D01*
X74249740Y-84530091D01*
X73932577Y-84055423D01*
X73548892Y-83799053D01*
X73753134Y-83702389D01*
X74129041Y-83287423D01*
X74289904Y-82899039D01*
X74167915Y-82677000D01*
X73025000Y-82677000D01*
X73025000Y-82697000D01*
X72771000Y-82697000D01*
X72771000Y-82677000D01*
X71628085Y-82677000D01*
X71506096Y-82899039D01*
X71666959Y-83287423D01*
X72042866Y-83702389D01*
X72247108Y-83799053D01*
X71863423Y-84055423D01*
X71546260Y-84530091D01*
X71434887Y-85090000D01*
X66167000Y-85090000D01*
X66167000Y-65834126D01*
X70012999Y-65834126D01*
X70012999Y-66245874D01*
X70170568Y-66626280D01*
X70461719Y-66917431D01*
X70842125Y-67075000D01*
X71253873Y-67075000D01*
X71502082Y-66972189D01*
X71434887Y-67310000D01*
X71546260Y-67869909D01*
X71863423Y-68344577D01*
X72215758Y-68580000D01*
X71863423Y-68815423D01*
X71546260Y-69290091D01*
X71434887Y-69850000D01*
X71546260Y-70409909D01*
X71863423Y-70884577D01*
X72215758Y-71120000D01*
X71863423Y-71355423D01*
X71546260Y-71830091D01*
X71434887Y-72390000D01*
X71546260Y-72949909D01*
X71863423Y-73424577D01*
X72215758Y-73660000D01*
X71863423Y-73895423D01*
X71546260Y-74370091D01*
X71434887Y-74930000D01*
X71546260Y-75489909D01*
X71863423Y-75964577D01*
X72215758Y-76200000D01*
X71863423Y-76435423D01*
X71546260Y-76910091D01*
X71434887Y-77470000D01*
X71546260Y-78029909D01*
X71863423Y-78504577D01*
X72215758Y-78740000D01*
X71863423Y-78975423D01*
X71546260Y-79450091D01*
X71434887Y-80010000D01*
X71546260Y-80569909D01*
X71863423Y-81044577D01*
X72247108Y-81300947D01*
X72042866Y-81397611D01*
X71666959Y-81812577D01*
X71506096Y-82200961D01*
X71628085Y-82423000D01*
X72771000Y-82423000D01*
X72771000Y-82403000D01*
X73025000Y-82403000D01*
X73025000Y-82423000D01*
X74167915Y-82423000D01*
X74289904Y-82200961D01*
X74129041Y-81812577D01*
X73753134Y-81397611D01*
X73548892Y-81300947D01*
X73932577Y-81044577D01*
X74249740Y-80569909D01*
X74361113Y-80010000D01*
X74249740Y-79450091D01*
X73932577Y-78975423D01*
X73580242Y-78740000D01*
X73932577Y-78504577D01*
X74249740Y-78029909D01*
X74361113Y-77470000D01*
X74249740Y-76910091D01*
X73932577Y-76435423D01*
X73580242Y-76200000D01*
X73932577Y-75964577D01*
X74249740Y-75489909D01*
X74361113Y-74930000D01*
X74249740Y-74370091D01*
X73932577Y-73895423D01*
X73580242Y-73660000D01*
X73932577Y-73424577D01*
X74249740Y-72949909D01*
X74361113Y-72390000D01*
X74249740Y-71830091D01*
X73932577Y-71355423D01*
X73580242Y-71120000D01*
X73932577Y-70884577D01*
X74249740Y-70409909D01*
X74361113Y-69850000D01*
X74249740Y-69290091D01*
X73932577Y-68815423D01*
X73580242Y-68580000D01*
X73932577Y-68344577D01*
X74249740Y-67869909D01*
X74361113Y-67310000D01*
X74249740Y-66750091D01*
X73932577Y-66275423D01*
X73580242Y-66040000D01*
X73932577Y-65804577D01*
X74249740Y-65329909D01*
X74361113Y-64770000D01*
X74249740Y-64210091D01*
X73932577Y-63735423D01*
X73580242Y-63500000D01*
X73932577Y-63264577D01*
X74249740Y-62789909D01*
X74361113Y-62230000D01*
X74249740Y-61670091D01*
X73932577Y-61195423D01*
X73580242Y-60960000D01*
X73932577Y-60724577D01*
X74249740Y-60249909D01*
X74361113Y-59690000D01*
X74249740Y-59130091D01*
X73932577Y-58655423D01*
X73580242Y-58420000D01*
X73932577Y-58184577D01*
X74249740Y-57709909D01*
X74361113Y-57150000D01*
X74249740Y-56590091D01*
X73932577Y-56115423D01*
X73580242Y-55880000D01*
X73932577Y-55644577D01*
X74249740Y-55169909D01*
X74361113Y-54610000D01*
X74249740Y-54050091D01*
X73932577Y-53575423D01*
X73580242Y-53340000D01*
X73932577Y-53104577D01*
X74249740Y-52629909D01*
X74361113Y-52070000D01*
X74249740Y-51510091D01*
X73932577Y-51035423D01*
X73580242Y-50800000D01*
X73932577Y-50564577D01*
X74249740Y-50089909D01*
X74361113Y-49530000D01*
X74249740Y-48970091D01*
X73932577Y-48495423D01*
X73457909Y-48178260D01*
X73039333Y-48095000D01*
X72756667Y-48095000D01*
X72338091Y-48178260D01*
X71863423Y-48495423D01*
X71546260Y-48970091D01*
X71434887Y-49530000D01*
X71546260Y-50089909D01*
X71863423Y-50564577D01*
X72215758Y-50800000D01*
X71863423Y-51035423D01*
X71546260Y-51510091D01*
X71434887Y-52070000D01*
X71546260Y-52629909D01*
X71863423Y-53104577D01*
X72215758Y-53340000D01*
X71863423Y-53575423D01*
X71546260Y-54050091D01*
X71434887Y-54610000D01*
X71546260Y-55169909D01*
X71863423Y-55644577D01*
X72215758Y-55880000D01*
X71863423Y-56115423D01*
X71546260Y-56590091D01*
X71434887Y-57150000D01*
X71546260Y-57709909D01*
X71863423Y-58184577D01*
X72215758Y-58420000D01*
X71863423Y-58655423D01*
X71546260Y-59130091D01*
X71434887Y-59690000D01*
X71546260Y-60249909D01*
X71863423Y-60724577D01*
X72215758Y-60960000D01*
X71863423Y-61195423D01*
X71546260Y-61670091D01*
X71434887Y-62230000D01*
X71546260Y-62789909D01*
X71863423Y-63264577D01*
X72215758Y-63500000D01*
X71863423Y-63735423D01*
X71546260Y-64210091D01*
X71434887Y-64770000D01*
X71499312Y-65093887D01*
X71490277Y-65102922D01*
X71253873Y-65005000D01*
X70842125Y-65005000D01*
X70461719Y-65162569D01*
X70170568Y-65453720D01*
X70012999Y-65834126D01*
X66167000Y-65834126D01*
X66167000Y-48049473D01*
X82272347Y-48049473D01*
X82272347Y-48461221D01*
X82429916Y-48841627D01*
X82721067Y-49132778D01*
X83101473Y-49290347D01*
X83267545Y-49290347D01*
X84504326Y-50527129D01*
X84546724Y-50590582D01*
X84610177Y-50632980D01*
X84610179Y-50632982D01*
X84735555Y-50716755D01*
X84798116Y-50758557D01*
X85019801Y-50802653D01*
X85019805Y-50802653D01*
X85094652Y-50817541D01*
X85169499Y-50802653D01*
X85406942Y-50802653D01*
X85524373Y-50920084D01*
X85904779Y-51077653D01*
X86252999Y-51077653D01*
X86252999Y-51864199D01*
X86245044Y-51872154D01*
X86078972Y-51872154D01*
X85698566Y-52029723D01*
X85407415Y-52320874D01*
X85249846Y-52701280D01*
X85249846Y-53113028D01*
X85407415Y-53493434D01*
X85698566Y-53784585D01*
X86078972Y-53942154D01*
X86490720Y-53942154D01*
X86871126Y-53784585D01*
X87162277Y-53493434D01*
X87275673Y-53219671D01*
X87455758Y-53340000D01*
X87103423Y-53575423D01*
X86786260Y-54050091D01*
X86674887Y-54610000D01*
X86786260Y-55169909D01*
X87103423Y-55644577D01*
X87455758Y-55880000D01*
X87103423Y-56115423D01*
X86786260Y-56590091D01*
X86674887Y-57150000D01*
X86786260Y-57709909D01*
X87103423Y-58184577D01*
X87455758Y-58420000D01*
X87103423Y-58655423D01*
X86786260Y-59130091D01*
X86781207Y-59155494D01*
X86692282Y-59066569D01*
X86311876Y-58909000D01*
X85900128Y-58909000D01*
X85519722Y-59066569D01*
X85228571Y-59357720D01*
X85071002Y-59738126D01*
X85071002Y-59904198D01*
X83714259Y-61260942D01*
X83650803Y-61303342D01*
X83608403Y-61366798D01*
X83608402Y-61366799D01*
X83482828Y-61554734D01*
X83423843Y-61851271D01*
X83438732Y-61926122D01*
X83438731Y-62795318D01*
X83321300Y-62912749D01*
X83163731Y-63293155D01*
X83163731Y-63704903D01*
X83321300Y-64085309D01*
X83612451Y-64376460D01*
X83992857Y-64534029D01*
X84404605Y-64534029D01*
X84452742Y-64514090D01*
X84471900Y-64542762D01*
X84535359Y-64585164D01*
X85346001Y-65395807D01*
X85346000Y-77028155D01*
X85331112Y-77103002D01*
X85346000Y-77177849D01*
X85346000Y-77177853D01*
X85390096Y-77399538D01*
X85558071Y-77650931D01*
X85621530Y-77693333D01*
X87023393Y-79095197D01*
X86786260Y-79450091D01*
X86674887Y-80010000D01*
X86786260Y-80569909D01*
X87103423Y-81044577D01*
X87455758Y-81280000D01*
X87103423Y-81515423D01*
X86786260Y-81990091D01*
X86686728Y-82490471D01*
X85812199Y-83365001D01*
X85646126Y-83365001D01*
X85265720Y-83522570D01*
X84974569Y-83813721D01*
X84817000Y-84194127D01*
X84817000Y-84605875D01*
X84974569Y-84986281D01*
X85265720Y-85277432D01*
X85646126Y-85435001D01*
X86057874Y-85435001D01*
X86438280Y-85277432D01*
X86690560Y-85025152D01*
X86690560Y-85890000D01*
X86739843Y-86137765D01*
X86880191Y-86347809D01*
X87090235Y-86488157D01*
X87338000Y-86537440D01*
X88938000Y-86537440D01*
X89185765Y-86488157D01*
X89395809Y-86347809D01*
X89536157Y-86137765D01*
X89585440Y-85890000D01*
X89585440Y-84290000D01*
X89536157Y-84042235D01*
X89395809Y-83832191D01*
X89185765Y-83691843D01*
X89051894Y-83665215D01*
X89172577Y-83584577D01*
X89489740Y-83109909D01*
X89601113Y-82550000D01*
X89489740Y-81990091D01*
X89172577Y-81515423D01*
X88820242Y-81280000D01*
X89172577Y-81044577D01*
X89489740Y-80569909D01*
X89601113Y-80010000D01*
X89499668Y-79500000D01*
X90490199Y-79500000D01*
X90633791Y-79643592D01*
X90560908Y-80010000D01*
X90676161Y-80589418D01*
X91004375Y-81080625D01*
X91302761Y-81280000D01*
X91004375Y-81479375D01*
X90676161Y-81970582D01*
X90560908Y-82550000D01*
X90676161Y-83129418D01*
X91004375Y-83620625D01*
X91302761Y-83820000D01*
X91004375Y-84019375D01*
X90676161Y-84510582D01*
X90560908Y-85090000D01*
X90676161Y-85669418D01*
X91004375Y-86160625D01*
X91302761Y-86360000D01*
X91004375Y-86559375D01*
X90676161Y-87050582D01*
X90560908Y-87630000D01*
X90676161Y-88209418D01*
X91004375Y-88700625D01*
X91495582Y-89028839D01*
X91928744Y-89115000D01*
X92221256Y-89115000D01*
X92654418Y-89028839D01*
X93145625Y-88700625D01*
X93209486Y-88605050D01*
X108820000Y-88605050D01*
X108820000Y-89354950D01*
X109106974Y-90047767D01*
X109637233Y-90578026D01*
X110330050Y-90865000D01*
X111079950Y-90865000D01*
X111772767Y-90578026D01*
X112303026Y-90047767D01*
X112590000Y-89354950D01*
X112590000Y-88605050D01*
X112420259Y-88195259D01*
X112830050Y-88365000D01*
X113579950Y-88365000D01*
X114272767Y-88078026D01*
X114803026Y-87547767D01*
X115090000Y-86854950D01*
X115090000Y-86105050D01*
X114803026Y-85412233D01*
X114272767Y-84881974D01*
X113579950Y-84595000D01*
X112830050Y-84595000D01*
X112137233Y-84881974D01*
X111606974Y-85412233D01*
X111320000Y-86105050D01*
X111320000Y-86854950D01*
X111489741Y-87264741D01*
X111079950Y-87095000D01*
X110330050Y-87095000D01*
X109637233Y-87381974D01*
X109106974Y-87912233D01*
X108820000Y-88605050D01*
X93209486Y-88605050D01*
X93473839Y-88209418D01*
X93589092Y-87630000D01*
X93473839Y-87050582D01*
X93145625Y-86559375D01*
X92847239Y-86360000D01*
X93145625Y-86160625D01*
X93473839Y-85669418D01*
X93589092Y-85090000D01*
X93473839Y-84510582D01*
X93145625Y-84019375D01*
X92847239Y-83820000D01*
X93145625Y-83620625D01*
X93473839Y-83129418D01*
X93589092Y-82550000D01*
X93473839Y-81970582D01*
X93145625Y-81479375D01*
X92847239Y-81280000D01*
X93145625Y-81080625D01*
X93473839Y-80589418D01*
X93532253Y-80295749D01*
X120512000Y-80295749D01*
X120512000Y-81036308D01*
X120608673Y-81269697D01*
X120787301Y-81448326D01*
X121020690Y-81544999D01*
X121761250Y-81544999D01*
X121920000Y-81386249D01*
X121920000Y-80136999D01*
X122174000Y-80136999D01*
X122174000Y-81386249D01*
X122332750Y-81544999D01*
X123073310Y-81544999D01*
X123306699Y-81448326D01*
X123485327Y-81269697D01*
X123582000Y-81036308D01*
X123582000Y-80295749D01*
X123423250Y-80136999D01*
X122174000Y-80136999D01*
X121920000Y-80136999D01*
X120670750Y-80136999D01*
X120512000Y-80295749D01*
X93532253Y-80295749D01*
X93589092Y-80010000D01*
X93473839Y-79430582D01*
X93145625Y-78939375D01*
X92847239Y-78740000D01*
X93145625Y-78540625D01*
X93473839Y-78049418D01*
X93589092Y-77470000D01*
X93473839Y-76890582D01*
X93145625Y-76399375D01*
X93127381Y-76387184D01*
X93172765Y-76378157D01*
X93382809Y-76237809D01*
X93523157Y-76027765D01*
X93572440Y-75780000D01*
X93572440Y-74548171D01*
X95860000Y-74548171D01*
X95860000Y-76073829D01*
X96443844Y-77483353D01*
X97522647Y-78562156D01*
X98932171Y-79146000D01*
X100457829Y-79146000D01*
X101867353Y-78562156D01*
X102946156Y-77483353D01*
X103530000Y-76073829D01*
X103530000Y-75210035D01*
X120512000Y-75210035D01*
X120512000Y-75950594D01*
X120608673Y-76183983D01*
X120787301Y-76362612D01*
X120926084Y-76420098D01*
X120745690Y-76600492D01*
X120512000Y-77164669D01*
X120512000Y-77775329D01*
X120745690Y-78339506D01*
X120922044Y-78515860D01*
X120787301Y-78571672D01*
X120608673Y-78750301D01*
X120512000Y-78983690D01*
X120512000Y-79724249D01*
X120670750Y-79882999D01*
X121920000Y-79882999D01*
X121920000Y-79862999D01*
X122174000Y-79862999D01*
X122174000Y-79882999D01*
X123423250Y-79882999D01*
X123582000Y-79724249D01*
X123582000Y-78983690D01*
X123485327Y-78750301D01*
X123306699Y-78571672D01*
X123171956Y-78515860D01*
X123348310Y-78339506D01*
X123582000Y-77775329D01*
X123582000Y-77164669D01*
X123348310Y-76600492D01*
X123167916Y-76420098D01*
X123306699Y-76362612D01*
X123485327Y-76183983D01*
X123582000Y-75950594D01*
X123582000Y-75210035D01*
X123423250Y-75051285D01*
X122174000Y-75051285D01*
X122174000Y-75071285D01*
X121920000Y-75071285D01*
X121920000Y-75051285D01*
X120670750Y-75051285D01*
X120512000Y-75210035D01*
X103530000Y-75210035D01*
X103530000Y-74548171D01*
X102946156Y-73138647D01*
X101867353Y-72059844D01*
X100457829Y-71476000D01*
X98932171Y-71476000D01*
X97522647Y-72059844D01*
X96443844Y-73138647D01*
X95860000Y-74548171D01*
X93572440Y-74548171D01*
X93572440Y-74080000D01*
X93523157Y-73832235D01*
X93382809Y-73622191D01*
X93172765Y-73481843D01*
X92925000Y-73432560D01*
X91225000Y-73432560D01*
X90977235Y-73481843D01*
X90767191Y-73622191D01*
X90626843Y-73832235D01*
X90577560Y-74080000D01*
X90577560Y-75440000D01*
X89499668Y-75440000D01*
X89601113Y-74930000D01*
X89489740Y-74370091D01*
X89172577Y-73895423D01*
X88820242Y-73660000D01*
X89172577Y-73424577D01*
X89489740Y-72949909D01*
X89601113Y-72390000D01*
X89489740Y-71830091D01*
X89172577Y-71355423D01*
X88820242Y-71120000D01*
X89172577Y-70884577D01*
X89489740Y-70409909D01*
X89546547Y-70124321D01*
X120512000Y-70124321D01*
X120512000Y-70864880D01*
X120608673Y-71098269D01*
X120787301Y-71276898D01*
X120926084Y-71334384D01*
X120745690Y-71514778D01*
X120512000Y-72078955D01*
X120512000Y-72689615D01*
X120745690Y-73253792D01*
X120922044Y-73430146D01*
X120787301Y-73485958D01*
X120608673Y-73664587D01*
X120512000Y-73897976D01*
X120512000Y-74638535D01*
X120670750Y-74797285D01*
X121920000Y-74797285D01*
X121920000Y-74777285D01*
X122174000Y-74777285D01*
X122174000Y-74797285D01*
X123423250Y-74797285D01*
X123582000Y-74638535D01*
X123582000Y-73897976D01*
X123485327Y-73664587D01*
X123306699Y-73485958D01*
X123171956Y-73430146D01*
X123348310Y-73253792D01*
X123582000Y-72689615D01*
X123582000Y-72078955D01*
X123348310Y-71514778D01*
X123167916Y-71334384D01*
X123306699Y-71276898D01*
X123485327Y-71098269D01*
X123582000Y-70864880D01*
X123582000Y-70124321D01*
X123423250Y-69965571D01*
X122174000Y-69965571D01*
X122174000Y-69985571D01*
X121920000Y-69985571D01*
X121920000Y-69965571D01*
X120670750Y-69965571D01*
X120512000Y-70124321D01*
X89546547Y-70124321D01*
X89601113Y-69850000D01*
X89489740Y-69290091D01*
X89172577Y-68815423D01*
X88820242Y-68580000D01*
X89172577Y-68344577D01*
X89489740Y-67869909D01*
X89601113Y-67310000D01*
X89489740Y-66750091D01*
X89172577Y-66275423D01*
X88820242Y-66040000D01*
X89172577Y-65804577D01*
X89489740Y-65329909D01*
X89601113Y-64770000D01*
X89508346Y-64303629D01*
X89580588Y-64289259D01*
X89580593Y-64289259D01*
X89802278Y-64245163D01*
X90053670Y-64077188D01*
X90096072Y-64013729D01*
X90569020Y-63540781D01*
X90676161Y-64079418D01*
X91004375Y-64570625D01*
X91302761Y-64770000D01*
X91004375Y-64969375D01*
X90676161Y-65460582D01*
X90560908Y-66040000D01*
X90676161Y-66619418D01*
X91004375Y-67110625D01*
X91302761Y-67310000D01*
X91004375Y-67509375D01*
X90676161Y-68000582D01*
X90560908Y-68580000D01*
X90676161Y-69159418D01*
X91004375Y-69650625D01*
X91495582Y-69978839D01*
X91928744Y-70065000D01*
X92221256Y-70065000D01*
X92654418Y-69978839D01*
X93145625Y-69650625D01*
X93473839Y-69159418D01*
X93589092Y-68580000D01*
X93545538Y-68361040D01*
X94286579Y-67620000D01*
X94459766Y-67620000D01*
X94876926Y-67447207D01*
X95196207Y-67127926D01*
X95369000Y-66710766D01*
X95369000Y-66259234D01*
X95196207Y-65842074D01*
X94876926Y-65522793D01*
X94459766Y-65350000D01*
X94008234Y-65350000D01*
X93591074Y-65522793D01*
X93503611Y-65610256D01*
X93473839Y-65460582D01*
X93191885Y-65038607D01*
X120512000Y-65038607D01*
X120512000Y-65779166D01*
X120608673Y-66012555D01*
X120787301Y-66191184D01*
X120926084Y-66248670D01*
X120745690Y-66429064D01*
X120512000Y-66993241D01*
X120512000Y-67603901D01*
X120745690Y-68168078D01*
X120922044Y-68344432D01*
X120787301Y-68400244D01*
X120608673Y-68578873D01*
X120512000Y-68812262D01*
X120512000Y-69552821D01*
X120670750Y-69711571D01*
X121920000Y-69711571D01*
X121920000Y-69691571D01*
X122174000Y-69691571D01*
X122174000Y-69711571D01*
X123423250Y-69711571D01*
X123582000Y-69552821D01*
X123582000Y-68812262D01*
X123485327Y-68578873D01*
X123306699Y-68400244D01*
X123171956Y-68344432D01*
X123348310Y-68168078D01*
X123582000Y-67603901D01*
X123582000Y-66993241D01*
X123348310Y-66429064D01*
X123167916Y-66248670D01*
X123306699Y-66191184D01*
X123485327Y-66012555D01*
X123582000Y-65779166D01*
X123582000Y-65038607D01*
X123423250Y-64879857D01*
X122174000Y-64879857D01*
X122174000Y-64899857D01*
X121920000Y-64899857D01*
X121920000Y-64879857D01*
X120670750Y-64879857D01*
X120512000Y-65038607D01*
X93191885Y-65038607D01*
X93145625Y-64969375D01*
X92847239Y-64770000D01*
X93145625Y-64570625D01*
X93473839Y-64079418D01*
X93589092Y-63500000D01*
X93473839Y-62920582D01*
X93145625Y-62429375D01*
X92847239Y-62230000D01*
X93145625Y-62030625D01*
X93227876Y-61907527D01*
X120512000Y-61907527D01*
X120512000Y-62518187D01*
X120745690Y-63082364D01*
X120922044Y-63258718D01*
X120787301Y-63314530D01*
X120608673Y-63493159D01*
X120512000Y-63726548D01*
X120512000Y-64467107D01*
X120670750Y-64625857D01*
X121920000Y-64625857D01*
X121920000Y-64605857D01*
X122174000Y-64605857D01*
X122174000Y-64625857D01*
X123423250Y-64625857D01*
X123582000Y-64467107D01*
X123582000Y-63726548D01*
X123485327Y-63493159D01*
X123306699Y-63314530D01*
X123171956Y-63258718D01*
X123348310Y-63082364D01*
X123582000Y-62518187D01*
X123582000Y-61907527D01*
X123348310Y-61343350D01*
X122916507Y-60911547D01*
X122352330Y-60677857D01*
X121741670Y-60677857D01*
X121177493Y-60911547D01*
X120745690Y-61343350D01*
X120512000Y-61907527D01*
X93227876Y-61907527D01*
X93473839Y-61539418D01*
X93589092Y-60960000D01*
X93473839Y-60380582D01*
X93145625Y-59889375D01*
X92847239Y-59690000D01*
X93145625Y-59490625D01*
X93473839Y-58999418D01*
X93589092Y-58420000D01*
X93473839Y-57840582D01*
X93203339Y-57435750D01*
X120512000Y-57435750D01*
X120512000Y-58176309D01*
X120608673Y-58409698D01*
X120787301Y-58588327D01*
X121020690Y-58685000D01*
X121761250Y-58685000D01*
X121920000Y-58526250D01*
X121920000Y-57277000D01*
X122174000Y-57277000D01*
X122174000Y-58526250D01*
X122332750Y-58685000D01*
X123073310Y-58685000D01*
X123306699Y-58588327D01*
X123485327Y-58409698D01*
X123582000Y-58176309D01*
X123582000Y-57435750D01*
X123423250Y-57277000D01*
X122174000Y-57277000D01*
X121920000Y-57277000D01*
X120670750Y-57277000D01*
X120512000Y-57435750D01*
X93203339Y-57435750D01*
X93145625Y-57349375D01*
X93123967Y-57334904D01*
X93284698Y-57268327D01*
X93463327Y-57089699D01*
X93560000Y-56856310D01*
X93560000Y-56165750D01*
X93401250Y-56007000D01*
X92202000Y-56007000D01*
X92202000Y-56027000D01*
X91948000Y-56027000D01*
X91948000Y-56007000D01*
X90748750Y-56007000D01*
X90590000Y-56165750D01*
X90590000Y-56856310D01*
X90686673Y-57089699D01*
X90865302Y-57268327D01*
X91026033Y-57334904D01*
X91004375Y-57349375D01*
X90676161Y-57840582D01*
X90560908Y-58420000D01*
X90633791Y-58786407D01*
X89569061Y-59851138D01*
X89601113Y-59690000D01*
X89489740Y-59130091D01*
X89172577Y-58655423D01*
X88820242Y-58420000D01*
X89172577Y-58184577D01*
X89489740Y-57709909D01*
X89601113Y-57150000D01*
X89489740Y-56590091D01*
X89172577Y-56115423D01*
X88820242Y-55880000D01*
X89172577Y-55644577D01*
X89489740Y-55169909D01*
X89542694Y-54903690D01*
X90590000Y-54903690D01*
X90590000Y-55594250D01*
X90748750Y-55753000D01*
X91948000Y-55753000D01*
X91948000Y-54553750D01*
X92202000Y-54553750D01*
X92202000Y-55753000D01*
X93401250Y-55753000D01*
X93560000Y-55594250D01*
X93560000Y-54903690D01*
X93463327Y-54670301D01*
X93284698Y-54491673D01*
X93051309Y-54395000D01*
X92360750Y-54395000D01*
X92202000Y-54553750D01*
X91948000Y-54553750D01*
X91789250Y-54395000D01*
X91098691Y-54395000D01*
X90865302Y-54491673D01*
X90686673Y-54670301D01*
X90590000Y-54903690D01*
X89542694Y-54903690D01*
X89601113Y-54610000D01*
X89536688Y-54286114D01*
X90107029Y-53715772D01*
X90472126Y-53867000D01*
X90883874Y-53867000D01*
X91264280Y-53709431D01*
X91351477Y-53622234D01*
X98433000Y-53622234D01*
X98433000Y-54073766D01*
X98605793Y-54490926D01*
X98925074Y-54810207D01*
X99342234Y-54983000D01*
X99793766Y-54983000D01*
X100210926Y-54810207D01*
X100530207Y-54490926D01*
X100703000Y-54073766D01*
X100703000Y-53622234D01*
X100530207Y-53205074D01*
X100503010Y-53177877D01*
X100503010Y-52355750D01*
X120512000Y-52355750D01*
X120512000Y-53096309D01*
X120608673Y-53329698D01*
X120787301Y-53508327D01*
X120922044Y-53564139D01*
X120745690Y-53740493D01*
X120512000Y-54304670D01*
X120512000Y-54915330D01*
X120745690Y-55479507D01*
X120922044Y-55655861D01*
X120787301Y-55711673D01*
X120608673Y-55890302D01*
X120512000Y-56123691D01*
X120512000Y-56864250D01*
X120670750Y-57023000D01*
X121920000Y-57023000D01*
X121920000Y-57003000D01*
X122174000Y-57003000D01*
X122174000Y-57023000D01*
X123423250Y-57023000D01*
X123582000Y-56864250D01*
X123582000Y-56123691D01*
X123485327Y-55890302D01*
X123306699Y-55711673D01*
X123171956Y-55655861D01*
X123348310Y-55479507D01*
X123582000Y-54915330D01*
X123582000Y-54304670D01*
X123348310Y-53740493D01*
X123171956Y-53564139D01*
X123306699Y-53508327D01*
X123485327Y-53329698D01*
X123582000Y-53096309D01*
X123582000Y-52355750D01*
X123423250Y-52197000D01*
X122174000Y-52197000D01*
X122174000Y-52217000D01*
X121920000Y-52217000D01*
X121920000Y-52197000D01*
X120670750Y-52197000D01*
X120512000Y-52355750D01*
X100503010Y-52355750D01*
X100503010Y-51719112D01*
X100530217Y-51691905D01*
X100703010Y-51274745D01*
X100703010Y-50823213D01*
X100530217Y-50406053D01*
X100210936Y-50086772D01*
X99793776Y-49913979D01*
X99342244Y-49913979D01*
X98925084Y-50086772D01*
X98605803Y-50406053D01*
X98433010Y-50823213D01*
X98433010Y-51274745D01*
X98605803Y-51691905D01*
X98633010Y-51719112D01*
X98633011Y-53177856D01*
X98605793Y-53205074D01*
X98433000Y-53622234D01*
X91351477Y-53622234D01*
X91555431Y-53418280D01*
X91713000Y-53037874D01*
X91713000Y-52626126D01*
X91555431Y-52245720D01*
X91264280Y-51954569D01*
X90883874Y-51797000D01*
X90472126Y-51797000D01*
X90091720Y-51954569D01*
X89977036Y-52069253D01*
X89916000Y-52057112D01*
X89841152Y-52072000D01*
X89841148Y-52072000D01*
X89667605Y-52106520D01*
X89619462Y-52116096D01*
X89587726Y-52137302D01*
X89601113Y-52070000D01*
X89489740Y-51510091D01*
X89172577Y-51035423D01*
X88820242Y-50800000D01*
X89172577Y-50564577D01*
X89489740Y-50089909D01*
X89601113Y-49530000D01*
X89540379Y-49224670D01*
X120512000Y-49224670D01*
X120512000Y-49835330D01*
X120745690Y-50399507D01*
X120922044Y-50575861D01*
X120787301Y-50631673D01*
X120608673Y-50810302D01*
X120512000Y-51043691D01*
X120512000Y-51784250D01*
X120670750Y-51943000D01*
X121920000Y-51943000D01*
X121920000Y-51923000D01*
X122174000Y-51923000D01*
X122174000Y-51943000D01*
X123423250Y-51943000D01*
X123582000Y-51784250D01*
X123582000Y-51043691D01*
X123485327Y-50810302D01*
X123306699Y-50631673D01*
X123171956Y-50575861D01*
X123348310Y-50399507D01*
X123582000Y-49835330D01*
X123582000Y-49224670D01*
X123348310Y-48660493D01*
X122916507Y-48228690D01*
X122352330Y-47995000D01*
X121741670Y-47995000D01*
X121177493Y-48228690D01*
X120745690Y-48660493D01*
X120512000Y-49224670D01*
X89540379Y-49224670D01*
X89489740Y-48970091D01*
X89172577Y-48495423D01*
X89084566Y-48436616D01*
X89232280Y-48375431D01*
X89523431Y-48084280D01*
X89681000Y-47703874D01*
X89681000Y-47292126D01*
X89523431Y-46911720D01*
X89232280Y-46620569D01*
X88851874Y-46463000D01*
X88440126Y-46463000D01*
X88059720Y-46620569D01*
X87926603Y-46753686D01*
X87831920Y-46772520D01*
X87783777Y-46782096D01*
X87596733Y-46907076D01*
X87532386Y-46950071D01*
X87489986Y-47013527D01*
X86528527Y-47974987D01*
X86465071Y-48017387D01*
X86422671Y-48080843D01*
X86422670Y-48080844D01*
X86297096Y-48268779D01*
X86238111Y-48565316D01*
X86253000Y-48640168D01*
X86253000Y-49007653D01*
X85904779Y-49007653D01*
X85524373Y-49165222D01*
X85408199Y-49281396D01*
X84342347Y-48215545D01*
X84342347Y-48049473D01*
X84184778Y-47669067D01*
X83893627Y-47377916D01*
X83513221Y-47220347D01*
X83101473Y-47220347D01*
X82721067Y-47377916D01*
X82429916Y-47669067D01*
X82272347Y-48049473D01*
X66167000Y-48049473D01*
X66167000Y-45902778D01*
X114189000Y-45902778D01*
X114189000Y-46553222D01*
X114437914Y-47154153D01*
X114897847Y-47614086D01*
X115498778Y-47863000D01*
X116149222Y-47863000D01*
X116750153Y-47614086D01*
X117210086Y-47154153D01*
X117459000Y-46553222D01*
X117459000Y-45902778D01*
X117210086Y-45301847D01*
X116750153Y-44841914D01*
X116149222Y-44593000D01*
X115498778Y-44593000D01*
X114897847Y-44841914D01*
X114437914Y-45301847D01*
X114189000Y-45902778D01*
X66167000Y-45902778D01*
X66167000Y-42300532D01*
X114851073Y-42300532D01*
X114949736Y-42567387D01*
X115559461Y-42793908D01*
X116209460Y-42769856D01*
X116698264Y-42567387D01*
X116796927Y-42300532D01*
X115824000Y-41327605D01*
X114851073Y-42300532D01*
X66167000Y-42300532D01*
X66167000Y-40883461D01*
X114178092Y-40883461D01*
X114202144Y-41533460D01*
X114404613Y-42022264D01*
X114671468Y-42120927D01*
X115644395Y-41148000D01*
X116003605Y-41148000D01*
X116976532Y-42120927D01*
X117243387Y-42022264D01*
X117469908Y-41412539D01*
X117445856Y-40762540D01*
X117243387Y-40273736D01*
X116976532Y-40175073D01*
X116003605Y-41148000D01*
X115644395Y-41148000D01*
X114671468Y-40175073D01*
X114404613Y-40273736D01*
X114178092Y-40883461D01*
X66167000Y-40883461D01*
X66167000Y-39995468D01*
X114851073Y-39995468D01*
X115824000Y-40968395D01*
X116796927Y-39995468D01*
X116698264Y-39728613D01*
X116088539Y-39502092D01*
X115438540Y-39526144D01*
X114949736Y-39728613D01*
X114851073Y-39995468D01*
X66167000Y-39995468D01*
X66167000Y-37750750D01*
X119800000Y-37750750D01*
X119800000Y-38441310D01*
X119896673Y-38674699D01*
X120075302Y-38853327D01*
X120308691Y-38950000D01*
X120999250Y-38950000D01*
X121158000Y-38791250D01*
X121158000Y-37592000D01*
X121412000Y-37592000D01*
X121412000Y-38791250D01*
X121570750Y-38950000D01*
X122261309Y-38950000D01*
X122494698Y-38853327D01*
X122673327Y-38674699D01*
X122770000Y-38441310D01*
X122770000Y-37750750D01*
X122611250Y-37592000D01*
X121412000Y-37592000D01*
X121158000Y-37592000D01*
X119958750Y-37592000D01*
X119800000Y-37750750D01*
X66167000Y-37750750D01*
X66167000Y-30987171D01*
X91415000Y-30987171D01*
X91415000Y-32512829D01*
X91998844Y-33922353D01*
X93077647Y-35001156D01*
X94487171Y-35585000D01*
X96012829Y-35585000D01*
X97422353Y-35001156D01*
X98501156Y-33922353D01*
X99085000Y-32512829D01*
X99085000Y-30987171D01*
X98501156Y-29577647D01*
X97422353Y-28498844D01*
X96012829Y-27915000D01*
X94487171Y-27915000D01*
X93077647Y-28498844D01*
X91998844Y-29577647D01*
X91415000Y-30987171D01*
X66167000Y-30987171D01*
X66167000Y-26797000D01*
X119871955Y-26797000D01*
X119770908Y-27305000D01*
G36*
X90633791Y-77103592D02*
X90560908Y-77470000D01*
X90662353Y-77980000D01*
X89463236Y-77980000D01*
X89529904Y-77819039D01*
X89407915Y-77597000D01*
X88265000Y-77597000D01*
X88265000Y-77617000D01*
X88011000Y-77617000D01*
X88011000Y-77597000D01*
X87991000Y-77597000D01*
X87991000Y-77343000D01*
X88011000Y-77343000D01*
X88011000Y-77323000D01*
X88265000Y-77323000D01*
X88265000Y-77343000D01*
X89407915Y-77343000D01*
X89529904Y-77120961D01*
X89463236Y-76960000D01*
X90490199Y-76960000D01*
X90633791Y-77103592D01*
X90633791Y-77103592D01*
G37*
X90633791Y-77103592D02*
X90560908Y-77470000D01*
X90662353Y-77980000D01*
X89463236Y-77980000D01*
X89529904Y-77819039D01*
X89407915Y-77597000D01*
X88265000Y-77597000D01*
X88265000Y-77617000D01*
X88011000Y-77617000D01*
X88011000Y-77597000D01*
X87991000Y-77597000D01*
X87991000Y-77343000D01*
X88011000Y-77343000D01*
X88011000Y-77323000D01*
X88265000Y-77323000D01*
X88265000Y-77343000D01*
X89407915Y-77343000D01*
X89529904Y-77120961D01*
X89463236Y-76960000D01*
X90490199Y-76960000D01*
X90633791Y-77103592D01*
M02*
