M48
;DRILL file {KiCad (5.0.0)} date 12/31/18 00:25:42
;FORMAT={-:-/ absolute / metric / decimal}
FMAT,2
METRIC,TZ
T1C0.400
T2C0.500
T3C0.800
T4C0.900
T5C1.000
T6C1.400
T7C2.200
T8C3.200
%
G90
G05
M71
T1
X26.924Y-45.974
X26.949Y-43.663
X41.91Y-51.98
X42.447Y-63.754
X42.545Y-53.43
X43.897Y-65.786
X53.086Y-52.832
X53.133Y-51.151
X53.416Y-60.235
X54.076Y-51.486
X54.102Y-53.086
X71.048Y-66.04
X83.307Y-48.255
X84.199Y-63.499
X85.648Y-63.129
X85.852Y-84.4
X86.106Y-59.944
X86.111Y-50.043
X86.111Y-62.235
X86.285Y-52.907
X86.614Y-64.262
X88.646Y-47.498
X90.678Y-52.832
X92.456Y-92.62
X94.234Y-97.536
X38.99Y-55.88
X39.473Y-54.713
X39.473Y-57.047
X40.64Y-54.23
X40.64Y-57.53
X41.807Y-54.713
X41.807Y-57.047
X42.29Y-55.88
X38.99Y-37.465
X39.473Y-36.298
X39.473Y-38.632
X40.64Y-35.815
X40.64Y-39.115
X41.807Y-36.298
X41.807Y-38.632
X42.29Y-37.465
T2
X41.402Y-45.403
X41.656Y-50.546
X43.688Y-48.514
X45.212Y-55.626
X45.72Y-71.691
X45.795Y-69.417
X49.53Y-51.562
X49.784Y-56.896
X50.292Y-62.738
X55.563Y-67.818
X68.58Y-111.252
X79.445Y-105.199
X81.026Y-103.632
X86.087Y-78.251
X88.9Y-91.44
X94.234Y-66.485
X99.568Y-53.848
X99.568Y-51.049
X55.385Y-31.75
X56.088Y-30.053
X56.088Y-33.447
X57.785Y-29.35
X57.785Y-34.15
X59.482Y-30.053
X59.482Y-33.447
X60.185Y-31.75
X48.4Y-75.311
X49.103Y-73.614
X49.103Y-77.008
X50.8Y-72.911
X50.8Y-77.711
X52.497Y-73.614
X52.497Y-77.008
X53.2Y-75.311
X92.85Y-31.75
X93.553Y-30.053
X93.553Y-33.447
X95.25Y-29.35
X95.25Y-34.15
X96.947Y-30.053
X96.947Y-33.447
X97.65Y-31.75
X97.295Y-75.311
X97.998Y-73.614
X97.998Y-77.008
X99.695Y-72.911
X99.695Y-77.711
X101.392Y-73.614
X101.392Y-77.008
X102.095Y-75.311
X97.295Y-120.65
X97.998Y-118.953
X97.998Y-122.347
X99.695Y-118.25
X99.695Y-123.05
X101.392Y-118.953
X101.392Y-122.347
X102.095Y-120.65
X48.4Y-120.65
X49.103Y-118.953
X49.103Y-122.347
X50.8Y-118.25
X50.8Y-123.05
X52.497Y-118.953
X52.497Y-122.347
X53.2Y-120.65
T3
X81.28Y-106.68
X83.78Y-106.68
X56.555Y-40.005
X59.055Y-40.005
X94.615Y-93.345
X94.615Y-95.885
X102.235Y-93.345
X102.235Y-95.885
X72.898Y-49.53
X72.898Y-52.07
X72.898Y-54.61
X72.898Y-57.15
X72.898Y-59.69
X72.898Y-62.23
X72.898Y-64.77
X72.898Y-67.31
X72.898Y-69.85
X72.898Y-72.39
X72.898Y-74.93
X72.898Y-77.47
X72.898Y-80.01
X72.898Y-82.55
X72.898Y-85.09
X88.138Y-49.53
X88.138Y-52.07
X88.138Y-54.61
X88.138Y-57.15
X88.138Y-59.69
X88.138Y-62.23
X88.138Y-64.77
X88.138Y-67.31
X88.138Y-69.85
X88.138Y-72.39
X88.138Y-74.93
X88.138Y-77.47
X88.138Y-80.01
X88.138Y-82.55
X88.138Y-85.09
X56.515Y-50.165
X59.015Y-50.165
T4
X122.047Y-54.61
X122.047Y-57.15
X122.047Y-62.213
X122.047Y-64.753
X122.047Y-67.299
X122.047Y-69.839
X122.047Y-49.53
X122.047Y-52.07
X122.047Y-72.384
X122.047Y-74.924
X122.047Y-77.47
X122.047Y-80.01
T5
X121.285Y-27.305
X121.285Y-29.845
X121.285Y-32.385
X121.285Y-34.925
X121.285Y-37.465
X30.48Y-45.72
X30.48Y-48.22
X30.48Y-50.72
X27.305Y-91.44
X27.305Y-96.52
X34.925Y-91.44
X34.925Y-96.52
X55.88Y-104.775
X55.88Y-107.315
X55.88Y-109.855
X55.88Y-112.395
X55.88Y-114.935
X55.88Y-117.475
X55.88Y-120.015
X55.88Y-122.555
X58.42Y-104.775
X58.42Y-107.315
X58.42Y-109.855
X58.42Y-112.395
X58.42Y-114.935
X58.42Y-117.475
X58.42Y-120.015
X58.42Y-122.555
X92.075Y-55.88
X92.075Y-58.42
X92.075Y-60.96
X92.075Y-63.5
X92.075Y-66.04
X92.075Y-68.58
X27.305Y-65.405
X27.305Y-70.485
X34.925Y-65.405
X34.925Y-70.485
X27.305Y-36.195
X27.305Y-41.275
X34.925Y-36.195
X34.925Y-41.275
X58.42Y-55.88
X58.42Y-58.42
X58.42Y-60.96
X58.42Y-63.5
X58.42Y-66.04
X58.42Y-68.58
X92.075Y-74.93
X92.075Y-77.47
X92.075Y-80.01
X92.075Y-82.55
X92.075Y-85.09
X92.075Y-87.63
X115.824Y-41.148
X115.824Y-46.228
X123.444Y-41.148
X123.444Y-46.228
X52.07Y-55.88
X52.07Y-58.42
X52.07Y-60.96
X52.07Y-63.5
X52.07Y-66.04
X52.07Y-68.58
X27.305Y-109.22
X27.305Y-114.3
X34.925Y-109.22
X34.925Y-114.3
X58.42Y-74.93
X58.42Y-77.47
X58.42Y-80.01
X58.42Y-82.55
X58.42Y-85.09
X58.42Y-87.63
X27.305Y-100.33
X27.305Y-105.41
X34.925Y-100.33
X34.925Y-105.41
X27.305Y-118.11
X27.305Y-123.19
X34.925Y-118.11
X34.925Y-123.19
X27.305Y-27.305
X27.305Y-32.385
X34.925Y-27.305
X34.925Y-32.385
X66.675Y-112.395
X66.675Y-114.935
X66.675Y-117.475
X66.675Y-120.015
X51.919Y-94.202
X51.919Y-99.282
X59.539Y-94.202
X59.539Y-99.282
X52.07Y-37.465
X52.07Y-40.005
X52.07Y-42.545
X52.07Y-45.085
X52.07Y-47.625
X52.07Y-50.165
X30.48Y-55.88
X30.48Y-58.38
X30.48Y-60.88
X27.305Y-73.66
X27.305Y-78.74
X34.925Y-73.66
X34.925Y-78.74
X27.305Y-82.55
X27.305Y-87.63
X34.925Y-82.55
X34.925Y-87.63
T6
X110.705Y-88.98
X110.705Y-98.98
X113.205Y-86.48
X113.205Y-93.98
X113.205Y-101.48
X123.205Y-88.98
X123.205Y-98.98
X110.705Y-109.3
X110.705Y-119.3
X113.205Y-106.8
X113.205Y-114.3
X113.205Y-121.8
X123.205Y-109.3
X123.205Y-119.3
T7
X40.64Y-55.88
X40.64Y-37.465
T8
X95.25Y-31.75
X99.695Y-75.311
X99.695Y-120.65
X50.8Y-120.65
X57.785Y-31.75
X50.8Y-75.311
T5
X76.78Y-119.28G85X76.78Y-120.78
G05
X80.28Y-113.03G85X82.28Y-113.03
G05
X80.63Y-119.03G85X81.93Y-119.03
G05
X85.78Y-119.28G85X85.78Y-120.78
G05
T0
M30
